<svg class="svg" style="stroke-linejoin:round;stroke-linecap:round" xmlns:svg="http://www.w3.org/2000/svg" xmlns="http://www.w3.org/2000/svg" width="800" height="600" viewBox="0 0 800 600">
	<path d="M 62.36,270.00 L 62.36,1.00 " style="stroke:#bebebe;stroke-width:1;stroke-dasharray:5.00,5.00;fill:none"/>
	<path d="M 62.36,273.75 L 62.36,270.00 " style="stroke:#000000;stroke-width:1;fill:#000000"/>
	<path d="M 70.53,270.00 L 70.53,1.00 " style="stroke:#bebebe;stroke-width:1;stroke-dasharray:5.00,5.00;fill:none"/>
	<text x="70.53" y="294.75" style="stroke:none;fill:#000000;font-size:15.00px;text-anchor:middle">0.01</text>
	<path d="M 70.53,277.50 L 70.53,270.00 " style="stroke:#000000;stroke-width:2;fill:#000000"/>
	<path d="M 124.28,270.00 L 124.28,1.00 " style="stroke:#bebebe;stroke-width:1;stroke-dasharray:5.00,5.00;fill:none"/>
	<path d="M 124.28,273.75 L 124.28,270.00 " style="stroke:#000000;stroke-width:1;fill:#000000"/>
	<path d="M 155.72,270.00 L 155.72,1.00 " style="stroke:#bebebe;stroke-width:1;stroke-dasharray:5.00,5.00;fill:none"/>
	<text x="155.72" y="294.75" style="stroke:none;fill:#000000;font-size:15.00px;text-anchor:middle">0.03</text>
	<path d="M 155.72,277.50 L 155.72,270.00 " style="stroke:#000000;stroke-width:2;fill:#000000"/>
	<path d="M 178.03,270.00 L 178.03,1.00 " style="stroke:#bebebe;stroke-width:1;stroke-dasharray:5.00,5.00;fill:none"/>
	<path d="M 178.03,273.75 L 178.03,270.00 " style="stroke:#000000;stroke-width:1;fill:#000000"/>
	<path d="M 195.33,270.00 L 195.33,1.00 " style="stroke:#bebebe;stroke-width:1;stroke-dasharray:5.00,5.00;fill:none"/>
	<path d="M 195.33,273.75 L 195.33,270.00 " style="stroke:#000000;stroke-width:1;fill:#000000"/>
	<path d="M 209.47,270.00 L 209.47,1.00 " style="stroke:#bebebe;stroke-width:1;stroke-dasharray:5.00,5.00;fill:none"/>
	<path d="M 209.47,273.75 L 209.47,270.00 " style="stroke:#000000;stroke-width:1;fill:#000000"/>
	<path d="M 221.42,270.00 L 221.42,1.00 " style="stroke:#bebebe;stroke-width:1;stroke-dasharray:5.00,5.00;fill:none"/>
	<path d="M 221.42,273.75 L 221.42,270.00 " style="stroke:#000000;stroke-width:1;fill:#000000"/>
	<path d="M 231.78,270.00 L 231.78,1.00 " style="stroke:#bebebe;stroke-width:1;stroke-dasharray:5.00,5.00;fill:none"/>
	<path d="M 231.78,273.75 L 231.78,270.00 " style="stroke:#000000;stroke-width:1;fill:#000000"/>
	<path d="M 240.91,270.00 L 240.91,1.00 " style="stroke:#bebebe;stroke-width:1;stroke-dasharray:5.00,5.00;fill:none"/>
	<path d="M 240.91,273.75 L 240.91,270.00 " style="stroke:#000000;stroke-width:1;fill:#000000"/>
	<path d="M 249.08,270.00 L 249.08,1.00 " style="stroke:#bebebe;stroke-width:1;stroke-dasharray:5.00,5.00;fill:none"/>
	<text x="249.08" y="294.75" style="stroke:none;fill:#000000;font-size:15.00px;text-anchor:middle">0.1</text>
	<path d="M 249.08,277.50 L 249.08,270.00 " style="stroke:#000000;stroke-width:2;fill:#000000"/>
	<path d="M 302.83,270.00 L 302.83,1.00 " style="stroke:#bebebe;stroke-width:1;stroke-dasharray:5.00,5.00;fill:none"/>
	<path d="M 302.83,273.75 L 302.83,270.00 " style="stroke:#000000;stroke-width:1;fill:#000000"/>
	<path d="M 334.27,270.00 L 334.27,1.00 " style="stroke:#bebebe;stroke-width:1;stroke-dasharray:5.00,5.00;fill:none"/>
	<text x="334.27" y="294.75" style="stroke:none;fill:#000000;font-size:15.00px;text-anchor:middle">0.3</text>
	<path d="M 334.27,277.50 L 334.27,270.00 " style="stroke:#000000;stroke-width:2;fill:#000000"/>
	<path d="M 356.57,270.00 L 356.57,1.00 " style="stroke:#bebebe;stroke-width:1;stroke-dasharray:5.00,5.00;fill:none"/>
	<path d="M 356.57,273.75 L 356.57,270.00 " style="stroke:#000000;stroke-width:1;fill:#000000"/>
	<path d="M 373.88,270.00 L 373.88,1.00 " style="stroke:#bebebe;stroke-width:1;stroke-dasharray:5.00,5.00;fill:none"/>
	<path d="M 373.88,273.75 L 373.88,270.00 " style="stroke:#000000;stroke-width:1;fill:#000000"/>
	<path d="M 388.01,270.00 L 388.01,1.00 " style="stroke:#bebebe;stroke-width:1;stroke-dasharray:5.00,5.00;fill:none"/>
	<path d="M 388.01,273.75 L 388.01,270.00 " style="stroke:#000000;stroke-width:1;fill:#000000"/>
	<path d="M 399.97,270.00 L 399.97,1.00 " style="stroke:#bebebe;stroke-width:1;stroke-dasharray:5.00,5.00;fill:none"/>
	<path d="M 399.97,273.75 L 399.97,270.00 " style="stroke:#000000;stroke-width:1;fill:#000000"/>
	<path d="M 410.32,270.00 L 410.32,1.00 " style="stroke:#bebebe;stroke-width:1;stroke-dasharray:5.00,5.00;fill:none"/>
	<path d="M 410.32,273.75 L 410.32,270.00 " style="stroke:#000000;stroke-width:1;fill:#000000"/>
	<path d="M 419.46,270.00 L 419.46,1.00 " style="stroke:#bebebe;stroke-width:1;stroke-dasharray:5.00,5.00;fill:none"/>
	<path d="M 419.46,273.75 L 419.46,270.00 " style="stroke:#000000;stroke-width:1;fill:#000000"/>
	<path d="M 427.62,270.00 L 427.62,1.00 " style="stroke:#bebebe;stroke-width:1;stroke-dasharray:5.00,5.00;fill:none"/>
	<text x="427.62" y="294.75" style="stroke:none;fill:#000000;font-size:15.00px;text-anchor:middle">1</text>
	<path d="M 427.62,277.50 L 427.62,270.00 " style="stroke:#000000;stroke-width:2;fill:#000000"/>
	<path d="M 481.37,270.00 L 481.37,1.00 " style="stroke:#bebebe;stroke-width:1;stroke-dasharray:5.00,5.00;fill:none"/>
	<path d="M 481.37,273.75 L 481.37,270.00 " style="stroke:#000000;stroke-width:1;fill:#000000"/>
	<path d="M 512.81,270.00 L 512.81,1.00 " style="stroke:#bebebe;stroke-width:1;stroke-dasharray:5.00,5.00;fill:none"/>
	<text x="512.81" y="294.75" style="stroke:none;fill:#000000;font-size:15.00px;text-anchor:middle">3</text>
	<path d="M 512.81,277.50 L 512.81,270.00 " style="stroke:#000000;stroke-width:2;fill:#000000"/>
	<path d="M 535.12,270.00 L 535.12,1.00 " style="stroke:#bebebe;stroke-width:1;stroke-dasharray:5.00,5.00;fill:none"/>
	<path d="M 535.12,273.75 L 535.12,270.00 " style="stroke:#000000;stroke-width:1;fill:#000000"/>
	<path d="M 552.42,270.00 L 552.42,1.00 " style="stroke:#bebebe;stroke-width:1;stroke-dasharray:5.00,5.00;fill:none"/>
	<path d="M 552.42,273.75 L 552.42,270.00 " style="stroke:#000000;stroke-width:1;fill:#000000"/>
	<path d="M 566.56,270.00 L 566.56,1.00 " style="stroke:#bebebe;stroke-width:1;stroke-dasharray:5.00,5.00;fill:none"/>
	<path d="M 566.56,273.75 L 566.56,270.00 " style="stroke:#000000;stroke-width:1;fill:#000000"/>
	<path d="M 578.51,270.00 L 578.51,1.00 " style="stroke:#bebebe;stroke-width:1;stroke-dasharray:5.00,5.00;fill:none"/>
	<path d="M 578.51,273.75 L 578.51,270.00 " style="stroke:#000000;stroke-width:1;fill:#000000"/>
	<path d="M 588.87,270.00 L 588.87,1.00 " style="stroke:#bebebe;stroke-width:1;stroke-dasharray:5.00,5.00;fill:none"/>
	<path d="M 588.87,273.75 L 588.87,270.00 " style="stroke:#000000;stroke-width:1;fill:#000000"/>
	<path d="M 598.00,270.00 L 598.00,1.00 " style="stroke:#bebebe;stroke-width:1;stroke-dasharray:5.00,5.00;fill:none"/>
	<path d="M 598.00,273.75 L 598.00,270.00 " style="stroke:#000000;stroke-width:1;fill:#000000"/>
	<path d="M 606.17,270.00 L 606.17,1.00 " style="stroke:#bebebe;stroke-width:1;stroke-dasharray:5.00,5.00;fill:none"/>
	<text x="606.17" y="294.75" style="stroke:none;fill:#000000;font-size:15.00px;text-anchor:middle">10</text>
	<path d="M 606.17,277.50 L 606.17,270.00 " style="stroke:#000000;stroke-width:2;fill:#000000"/>
	<path d="M 659.92,270.00 L 659.92,1.00 " style="stroke:#bebebe;stroke-width:1;stroke-dasharray:5.00,5.00;fill:none"/>
	<path d="M 659.92,273.75 L 659.92,270.00 " style="stroke:#000000;stroke-width:1;fill:#000000"/>
	<path d="M 691.36,270.00 L 691.36,1.00 " style="stroke:#bebebe;stroke-width:1;stroke-dasharray:5.00,5.00;fill:none"/>
	<text x="691.36" y="294.75" style="stroke:none;fill:#000000;font-size:15.00px;text-anchor:middle">30</text>
	<path d="M 691.36,277.50 L 691.36,270.00 " style="stroke:#000000;stroke-width:2;fill:#000000"/>
	<path d="M 713.67,270.00 L 713.67,1.00 " style="stroke:#bebebe;stroke-width:1;stroke-dasharray:5.00,5.00;fill:none"/>
	<path d="M 713.67,273.75 L 713.67,270.00 " style="stroke:#000000;stroke-width:1;fill:#000000"/>
	<path d="M 730.97,270.00 L 730.97,1.00 " style="stroke:#bebebe;stroke-width:1;stroke-dasharray:5.00,5.00;fill:none"/>
	<path d="M 730.97,273.75 L 730.97,270.00 " style="stroke:#000000;stroke-width:1;fill:#000000"/>
	<path d="M 745.11,270.00 L 745.11,1.00 " style="stroke:#bebebe;stroke-width:1;stroke-dasharray:5.00,5.00;fill:none"/>
	<path d="M 745.11,273.75 L 745.11,270.00 " style="stroke:#000000;stroke-width:1;fill:#000000"/>
	<path d="M 757.06,270.00 L 757.06,1.00 " style="stroke:#bebebe;stroke-width:1;stroke-dasharray:5.00,5.00;fill:none"/>
	<path d="M 757.06,273.75 L 757.06,270.00 " style="stroke:#000000;stroke-width:1;fill:#000000"/>
	<path d="M 767.41,270.00 L 767.41,1.00 " style="stroke:#bebebe;stroke-width:1;stroke-dasharray:5.00,5.00;fill:none"/>
	<path d="M 767.41,273.75 L 767.41,270.00 " style="stroke:#000000;stroke-width:1;fill:#000000"/>
	<path d="M 776.55,270.00 L 776.55,1.00 " style="stroke:#bebebe;stroke-width:1;stroke-dasharray:5.00,5.00;fill:none"/>
	<path d="M 776.55,273.75 L 776.55,270.00 " style="stroke:#000000;stroke-width:1;fill:#000000"/>
	<path d="M 784.72,270.00 L 784.72,1.00 " style="stroke:#bebebe;stroke-width:1;stroke-dasharray:5.00,5.00;fill:none"/>
	<text x="784.72" y="294.75" style="stroke:none;fill:#000000;font-size:15.00px;text-anchor:middle">100</text>
	<path d="M 784.72,277.50 L 784.72,270.00 " style="stroke:#000000;stroke-width:2;fill:#000000"/>
	<path d="M 56.25,267.29 L 799.00,267.29 " style="stroke:#bebebe;stroke-width:1;stroke-dasharray:5.00,5.00;fill:none"/>
	<text x="45.00" y="272.29" style="stroke:none;fill:#000000;font-size:15.00px;text-anchor:end">-120</text>
	<path d="M 48.75,267.29 L 56.25,267.29 " style="stroke:#000000;stroke-width:2;fill:#000000"/>
	<path d="M 56.25,236.69 L 799.00,236.69 " style="stroke:#bebebe;stroke-width:1;stroke-dasharray:5.00,5.00;fill:none"/>
	<text x="45.00" y="241.69" style="stroke:none;fill:#000000;font-size:15.00px;text-anchor:end">-100</text>
	<path d="M 48.75,236.69 L 56.25,236.69 " style="stroke:#000000;stroke-width:2;fill:#000000"/>
	<path d="M 56.25,206.09 L 799.00,206.09 " style="stroke:#bebebe;stroke-width:1;stroke-dasharray:5.00,5.00;fill:none"/>
	<text x="45.00" y="211.09" style="stroke:none;fill:#000000;font-size:15.00px;text-anchor:end">-80</text>
	<path d="M 48.75,206.09 L 56.25,206.09 " style="stroke:#000000;stroke-width:2;fill:#000000"/>
	<path d="M 56.25,175.48 L 799.00,175.48 " style="stroke:#bebebe;stroke-width:1;stroke-dasharray:5.00,5.00;fill:none"/>
	<text x="45.00" y="180.48" style="stroke:none;fill:#000000;font-size:15.00px;text-anchor:end">-60</text>
	<path d="M 48.75,175.48 L 56.25,175.48 " style="stroke:#000000;stroke-width:2;fill:#000000"/>
	<path d="M 56.25,144.88 L 799.00,144.88 " style="stroke:#bebebe;stroke-width:1;stroke-dasharray:5.00,5.00;fill:none"/>
	<text x="45.00" y="149.88" style="stroke:none;fill:#000000;font-size:15.00px;text-anchor:end">-40</text>
	<path d="M 48.75,144.88 L 56.25,144.88 " style="stroke:#000000;stroke-width:2;fill:#000000"/>
	<path d="M 56.25,114.27 L 799.00,114.27 " style="stroke:#bebebe;stroke-width:1;stroke-dasharray:5.00,5.00;fill:none"/>
	<text x="45.00" y="119.27" style="stroke:none;fill:#000000;font-size:15.00px;text-anchor:end">-20</text>
	<path d="M 48.75,114.27 L 56.25,114.27 " style="stroke:#000000;stroke-width:2;fill:#000000"/>
	<path d="M 56.25,83.67 L 799.00,83.67 " style="stroke:#bebebe;stroke-width:1;stroke-dasharray:5.00,5.00;fill:none"/>
	<text x="45.00" y="88.67" style="stroke:none;fill:#000000;font-size:15.00px;text-anchor:end">0</text>
	<path d="M 48.75,83.67 L 56.25,83.67 " style="stroke:#000000;stroke-width:2;fill:#000000"/>
	<path d="M 56.25,53.07 L 799.00,53.07 " style="stroke:#bebebe;stroke-width:1;stroke-dasharray:5.00,5.00;fill:none"/>
	<text x="45.00" y="58.07" style="stroke:none;fill:#000000;font-size:15.00px;text-anchor:end">20</text>
	<path d="M 48.75,53.07 L 56.25,53.07 " style="stroke:#000000;stroke-width:2;fill:#000000"/>
	<path d="M 56.25,22.46 L 799.00,22.46 " style="stroke:#bebebe;stroke-width:1;stroke-dasharray:5.00,5.00;fill:none"/>
	<text x="45.00" y="27.46" style="stroke:none;fill:#000000;font-size:15.00px;text-anchor:end">40</text>
	<path d="M 48.75,22.46 L 56.25,22.46 " style="stroke:#000000;stroke-width:2;fill:#000000"/>
	<path d="M 56.25,23.49 L 59.96,24.12 L 63.68,24.76 L 67.39,25.40 L 71.11,26.03 L 74.82,26.67 L 78.53,27.30 L 82.25,27.94 L 85.96,28.58 L 89.67,29.21 L 93.39,29.85 L 97.10,30.49 L 100.82,31.12 L 104.53,31.76 L 108.24,32.39 L 111.96,33.03 L 115.67,33.67 L 119.38,34.30 L 123.10,34.94 L 126.81,35.57 L 130.53,36.21 L 134.24,36.85 L 137.95,37.48 L 141.67,38.12 L 145.38,38.75 L 149.09,39.39 L 152.81,40.02 L 156.52,40.66 L 160.24,41.29 L 163.95,41.93 L 167.66,42.56 L 171.38,43.20 L 175.09,43.83 L 178.80,44.47 L 182.52,45.10 L 186.23,45.73 L 189.95,46.37 L 193.66,47.00 L 197.37,47.63 L 201.09,48.26 L 204.80,48.90 L 208.51,49.53 L 212.23,50.16 L 215.94,50.79 L 219.66,51.42 L 223.37,52.05 L 227.08,52.67 L 230.80,53.30 L 234.51,53.93 L 238.22,54.55 L 241.94,55.18 L 245.65,55.80 L 249.37,56.42 L 253.08,57.04 L 256.79,57.66 L 260.51,58.28 L 264.22,58.89 L 267.93,59.50 L 271.65,60.12 L 275.36,60.72 L 279.08,61.33 L 282.79,61.93 L 286.50,62.53 L 290.22,63.13 L 293.93,63.73 L 297.64,64.32 L 301.36,64.90 L 305.07,65.49 L 308.79,66.07 L 312.50,66.64 L 316.21,67.21 L 319.93,67.78 L 323.64,68.34 L 327.35,68.89 L 331.07,69.44 L 334.78,69.99 L 338.50,70.53 L 342.21,71.06 L 345.92,71.60 L 349.64,72.12 L 353.35,72.64 L 357.06,73.16 L 360.78,73.67 L 364.49,74.19 L 368.21,74.70 L 371.92,75.20 L 375.63,75.71 L 379.35,76.22 L 383.06,76.73 L 386.77,77.24 L 390.49,77.76 L 394.20,78.28 L 397.92,78.81 L 401.63,79.35 L 405.34,79.90 L 409.06,80.47 L 412.77,81.04 L 416.48,81.64 L 420.20,82.25 L 423.91,82.87 L 427.63,83.52 L 431.34,84.20 L 435.05,84.89 L 438.77,85.61 L 442.48,86.36 L 446.19,87.14 L 449.91,87.95 L 453.62,88.79 L 457.34,89.66 L 461.05,90.56 L 464.76,91.50 L 468.48,92.47 L 472.19,93.47 L 475.90,94.52 L 479.62,95.60 L 483.33,96.71 L 487.05,97.86 L 490.76,99.05 L 494.47,100.27 L 498.19,101.53 L 501.90,102.82 L 505.61,104.15 L 509.33,105.51 L 513.04,106.90 L 516.76,108.32 L 520.47,109.78 L 524.18,111.26 L 527.90,112.77 L 531.61,114.31 L 535.32,115.88 L 539.04,117.47 L 542.75,119.08 L 546.47,120.71 L 550.18,122.37 L 553.89,124.04 L 557.61,125.73 L 561.32,127.44 L 565.03,129.17 L 568.75,130.91 L 572.46,132.66 L 576.18,134.43 L 579.89,136.21 L 583.60,138.00 L 587.32,139.80 L 591.03,141.61 L 594.74,143.43 L 598.46,145.25 L 602.17,147.08 L 605.89,148.92 L 609.60,150.77 L 613.31,152.62 L 617.03,154.48 L 620.74,156.34 L 624.45,158.20 L 628.17,160.07 L 631.88,161.94 L 635.60,163.82 L 639.31,165.70 L 643.02,167.58 L 646.74,169.47 L 650.45,171.35 L 654.16,173.24 L 657.88,175.13 L 661.59,177.02 L 665.31,178.92 L 669.02,180.81 L 672.73,182.71 L 676.45,184.61 L 680.16,186.51 L 683.87,188.41 L 687.59,190.31 L 691.30,192.21 L 695.02,194.11 L 698.73,196.01 L 702.44,197.92 L 706.16,199.82 L 709.87,201.73 L 713.58,203.63 L 717.30,205.54 L 721.01,207.44 L 724.73,209.35 L 728.44,211.26 L 732.15,213.16 L 735.87,215.07 L 739.58,216.98 L 743.29,218.88 L 747.01,220.79 L 750.72,222.70 L 754.44,224.61 L 758.15,226.52 L 761.86,228.43 L 765.58,230.33 L 769.29,232.24 L 773.00,234.15 L 776.72,236.06 L 780.43,237.97 L 784.15,239.88 L 787.86,241.79 L 791.57,243.70 L 795.29,245.60 L 799.00,247.51 " style="stroke:#000000;stroke-width:1;fill:none"/>
	<path d="M 56.25,58.56 L 59.96,59.20 L 63.68,59.83 L 67.39,60.47 L 71.11,61.11 L 74.82,61.74 L 78.53,62.38 L 82.25,63.02 L 85.96,63.65 L 89.67,64.29 L 93.39,64.92 L 97.10,65.56 L 100.82,66.20 L 104.53,66.83 L 108.24,67.47 L 111.96,68.10 L 115.67,68.74 L 119.38,69.38 L 123.10,70.01 L 126.81,70.65 L 130.53,71.28 L 134.24,71.92 L 137.95,72.55 L 141.67,73.19 L 145.38,73.82 L 149.09,74.46 L 152.81,75.09 L 156.52,75.73 L 160.24,76.36 L 163.95,76.99 L 167.66,77.63 L 171.38,78.26 L 175.09,78.89 L 178.80,79.53 L 182.52,80.16 L 186.23,80.79 L 189.95,81.42 L 193.66,82.05 L 197.37,82.68 L 201.09,83.31 L 204.80,83.94 L 208.51,84.57 L 212.23,85.20 L 215.94,85.82 L 219.66,86.45 L 223.37,87.07 L 227.08,87.70 L 230.80,88.32 L 234.51,88.94 L 238.22,89.56 L 241.94,90.17 L 245.65,90.79 L 249.37,91.40 L 253.08,92.01 L 256.79,92.62 L 260.51,93.23 L 264.22,93.83 L 267.93,94.43 L 271.65,95.02 L 275.36,95.62 L 279.08,96.20 L 282.79,96.79 L 286.50,97.37 L 290.22,97.94 L 293.93,98.51 L 297.64,99.07 L 301.36,99.62 L 305.07,100.17 L 308.79,100.71 L 312.50,101.25 L 316.21,101.77 L 319.93,102.28 L 323.64,102.79 L 327.35,103.28 L 331.07,103.77 L 334.78,104.24 L 338.50,104.70 L 342.21,105.15 L 345.92,105.58 L 349.64,106.00 L 353.35,106.41 L 357.06,106.80 L 360.78,107.18 L 364.49,107.55 L 368.21,107.90 L 371.92,108.23 L 375.63,108.55 L 379.35,108.85 L 383.06,109.14 L 386.77,109.41 L 390.49,109.67 L 394.20,109.92 L 397.92,110.15 L 401.63,110.36 L 405.34,110.56 L 409.06,110.75 L 412.77,110.93 L 416.48,111.10 L 420.20,111.25 L 423.91,111.39 L 427.63,111.52 L 431.34,111.65 L 435.05,111.76 L 438.77,111.86 L 442.48,111.96 L 446.19,112.05 L 449.91,112.13 L 453.62,112.21 L 457.34,112.28 L 461.05,112.34 L 464.76,112.40 L 468.48,112.45 L 472.19,112.50 L 475.90,112.55 L 479.62,112.59 L 483.33,112.62 L 487.05,112.66 L 490.76,112.69 L 494.47,112.72 L 498.19,112.74 L 501.90,112.77 L 505.61,112.79 L 509.33,112.81 L 513.04,112.83 L 516.76,112.84 L 520.47,112.86 L 524.18,112.87 L 527.90,112.88 L 531.61,112.89 L 535.32,112.90 L 539.04,112.91 L 542.75,112.92 L 546.47,112.93 L 550.18,112.94 L 553.89,112.94 L 557.61,112.95 L 561.32,112.95 L 565.03,112.96 L 568.75,112.96 L 572.46,112.97 L 576.18,112.97 L 579.89,112.97 L 583.60,112.98 L 587.32,112.98 L 591.03,112.98 L 594.74,112.98 L 598.46,112.99 L 602.17,112.99 L 605.89,112.99 L 609.60,112.99 L 613.31,112.99 L 617.03,112.99 L 620.74,113.00 L 624.45,113.00 L 628.17,113.00 L 631.88,113.00 L 635.60,113.00 L 639.31,113.00 L 643.02,113.00 L 646.74,113.00 L 650.45,113.00 L 654.16,113.00 L 657.88,113.00 L 661.59,113.00 L 665.31,113.00 L 669.02,113.00 L 672.73,113.00 L 676.45,113.00 L 680.16,113.00 L 683.87,113.00 L 687.59,113.01 L 691.30,113.01 L 695.02,113.01 L 698.73,113.01 L 702.44,113.01 L 706.16,113.01 L 709.87,113.01 L 713.58,113.01 L 717.30,113.01 L 721.01,113.01 L 724.73,113.01 L 728.44,113.01 L 732.15,113.01 L 735.87,113.01 L 739.58,113.01 L 743.29,113.01 L 747.01,113.01 L 750.72,113.01 L 754.44,113.01 L 758.15,113.01 L 761.86,113.01 L 765.58,113.01 L 769.29,113.01 L 773.00,113.01 L 776.72,113.01 L 780.43,113.01 L 784.15,113.01 L 787.86,113.01 L 791.57,113.01 L 795.29,113.01 L 799.00,113.01 " style="stroke:#0000ff;stroke-width:1;fill:none"/>
	<path d="M 56.25,48.59 L 59.96,48.59 L 63.68,48.59 L 67.39,48.59 L 71.11,48.59 L 74.82,48.59 L 78.53,48.59 L 82.25,48.59 L 85.96,48.60 L 89.67,48.60 L 93.39,48.60 L 97.10,48.60 L 100.82,48.60 L 104.53,48.60 L 108.24,48.60 L 111.96,48.60 L 115.67,48.60 L 119.38,48.60 L 123.10,48.60 L 126.81,48.60 L 130.53,48.60 L 134.24,48.60 L 137.95,48.60 L 141.67,48.60 L 145.38,48.60 L 149.09,48.60 L 152.81,48.60 L 156.52,48.60 L 160.24,48.60 L 163.95,48.60 L 167.66,48.61 L 171.38,48.61 L 175.09,48.61 L 178.80,48.61 L 182.52,48.61 L 186.23,48.61 L 189.95,48.61 L 193.66,48.62 L 197.37,48.62 L 201.09,48.62 L 204.80,48.62 L 208.51,48.63 L 212.23,48.63 L 215.94,48.63 L 219.66,48.64 L 223.37,48.64 L 227.08,48.65 L 230.80,48.65 L 234.51,48.66 L 238.22,48.66 L 241.94,48.67 L 245.65,48.68 L 249.37,48.69 L 253.08,48.70 L 256.79,48.71 L 260.51,48.72 L 264.22,48.73 L 267.93,48.75 L 271.65,48.76 L 275.36,48.78 L 279.08,48.80 L 282.79,48.82 L 286.50,48.84 L 290.22,48.86 L 293.93,48.89 L 297.64,48.92 L 301.36,48.95 L 305.07,48.98 L 308.79,49.02 L 312.50,49.07 L 316.21,49.11 L 319.93,49.16 L 323.64,49.22 L 327.35,49.28 L 331.07,49.35 L 334.78,49.42 L 338.50,49.50 L 342.21,49.59 L 345.92,49.68 L 349.64,49.79 L 353.35,49.90 L 357.06,50.03 L 360.78,50.16 L 364.49,50.31 L 368.21,50.47 L 371.92,50.64 L 375.63,50.83 L 379.35,51.04 L 383.06,51.26 L 386.77,51.50 L 390.49,51.76 L 394.20,52.04 L 397.92,52.34 L 401.63,52.66 L 405.34,53.01 L 409.06,53.38 L 412.77,53.78 L 416.48,54.21 L 420.20,54.67 L 423.91,55.15 L 427.63,55.67 L 431.34,56.22 L 435.05,56.80 L 438.77,57.42 L 442.48,58.07 L 446.19,58.76 L 449.91,59.49 L 453.62,60.25 L 457.34,61.05 L 461.05,61.89 L 464.76,62.77 L 468.48,63.69 L 472.19,64.64 L 475.90,65.64 L 479.62,66.68 L 483.33,67.76 L 487.05,68.87 L 490.76,70.03 L 494.47,71.22 L 498.19,72.45 L 501.90,73.72 L 505.61,75.03 L 509.33,76.37 L 513.04,77.74 L 516.76,79.15 L 520.47,80.59 L 524.18,82.06 L 527.90,83.56 L 531.61,85.09 L 535.32,86.64 L 539.04,88.22 L 542.75,89.83 L 546.47,91.45 L 550.18,93.10 L 553.89,94.77 L 557.61,96.46 L 561.32,98.16 L 565.03,99.88 L 568.75,101.62 L 572.46,103.37 L 576.18,105.13 L 579.89,106.90 L 583.60,108.69 L 587.32,110.49 L 591.03,112.30 L 594.74,114.11 L 598.46,115.93 L 602.17,117.76 L 605.89,119.60 L 609.60,121.45 L 613.31,123.30 L 617.03,125.15 L 620.74,127.01 L 624.45,128.88 L 628.17,130.74 L 631.88,132.62 L 635.60,134.49 L 639.31,136.37 L 643.02,138.25 L 646.74,140.13 L 650.45,142.02 L 654.16,143.91 L 657.88,145.80 L 661.59,147.69 L 665.31,149.58 L 669.02,151.48 L 672.73,153.38 L 676.45,155.27 L 680.16,157.17 L 683.87,159.07 L 687.59,160.97 L 691.30,162.87 L 695.02,164.78 L 698.73,166.68 L 702.44,168.58 L 706.16,170.49 L 709.87,172.39 L 713.58,174.30 L 717.30,176.20 L 721.01,178.11 L 724.73,180.01 L 728.44,181.92 L 732.15,183.83 L 735.87,185.73 L 739.58,187.64 L 743.29,189.55 L 747.01,191.46 L 750.72,193.36 L 754.44,195.27 L 758.15,197.18 L 761.86,199.09 L 765.58,201.00 L 769.29,202.91 L 773.00,204.81 L 776.72,206.72 L 780.43,208.63 L 784.15,210.54 L 787.86,212.45 L 791.57,214.36 L 795.29,216.27 L 799.00,218.18 " style="stroke:#00ff00;stroke-width:1;fill:none"/>
	<text x="791.50" y="262.50" style="stroke:none;fill:#000000;font-size:15.00px;text-anchor:end">ω [rad/s]</text>
	<text x="63.75" y="18.25" style="stroke:none;fill:#000000;font-size:15.00px">Amplitude in dB</text>
	<path d="M 56.25,270.00 L 799.00,270.00 L 799.00,1.00 L 56.25,1.00 Z" style="stroke:#000000;stroke-width:2;fill:none"/>
	<text x="105.00" y="215.00" style="stroke:none;fill:#000000;font-size:15.00px">G</text>
	<path d="M 67.50,210.00 L 97.50,210.00 " style="stroke:#00ff00;stroke-width:1;fill:none"/>
	<text x="105.00" y="237.50" style="stroke:none;fill:#000000;font-size:15.00px">K</text>
	<path d="M 67.50,232.50 L 97.50,232.50 " style="stroke:#0000ff;stroke-width:1;fill:none"/>
	<text x="105.00" y="260.00" style="stroke:none;fill:#000000;font-size:15.00px">G<tspan style="font-size:70%;baseline-shift:sub">0</tspan></text>
	<path d="M 67.50,255.00 L 97.50,255.00 " style="stroke:#000000;stroke-width:1;fill:none"/>
	<path d="M 62.36,570.00 L 62.36,301.00 " style="stroke:#bebebe;stroke-width:1;stroke-dasharray:5.00,5.00;fill:none"/>
	<path d="M 62.36,573.75 L 62.36,570.00 " style="stroke:#000000;stroke-width:1;fill:#000000"/>
	<path d="M 70.53,570.00 L 70.53,301.00 " style="stroke:#bebebe;stroke-width:1;stroke-dasharray:5.00,5.00;fill:none"/>
	<text x="70.53" y="594.75" style="stroke:none;fill:#000000;font-size:15.00px;text-anchor:middle">0.01</text>
	<path d="M 70.53,577.50 L 70.53,570.00 " style="stroke:#000000;stroke-width:2;fill:#000000"/>
	<path d="M 124.28,570.00 L 124.28,301.00 " style="stroke:#bebebe;stroke-width:1;stroke-dasharray:5.00,5.00;fill:none"/>
	<path d="M 124.28,573.75 L 124.28,570.00 " style="stroke:#000000;stroke-width:1;fill:#000000"/>
	<path d="M 155.72,570.00 L 155.72,301.00 " style="stroke:#bebebe;stroke-width:1;stroke-dasharray:5.00,5.00;fill:none"/>
	<text x="155.72" y="594.75" style="stroke:none;fill:#000000;font-size:15.00px;text-anchor:middle">0.03</text>
	<path d="M 155.72,577.50 L 155.72,570.00 " style="stroke:#000000;stroke-width:2;fill:#000000"/>
	<path d="M 178.03,570.00 L 178.03,301.00 " style="stroke:#bebebe;stroke-width:1;stroke-dasharray:5.00,5.00;fill:none"/>
	<path d="M 178.03,573.75 L 178.03,570.00 " style="stroke:#000000;stroke-width:1;fill:#000000"/>
	<path d="M 195.33,570.00 L 195.33,301.00 " style="stroke:#bebebe;stroke-width:1;stroke-dasharray:5.00,5.00;fill:none"/>
	<path d="M 195.33,573.75 L 195.33,570.00 " style="stroke:#000000;stroke-width:1;fill:#000000"/>
	<path d="M 209.47,570.00 L 209.47,301.00 " style="stroke:#bebebe;stroke-width:1;stroke-dasharray:5.00,5.00;fill:none"/>
	<path d="M 209.47,573.75 L 209.47,570.00 " style="stroke:#000000;stroke-width:1;fill:#000000"/>
	<path d="M 221.42,570.00 L 221.42,301.00 " style="stroke:#bebebe;stroke-width:1;stroke-dasharray:5.00,5.00;fill:none"/>
	<path d="M 221.42,573.75 L 221.42,570.00 " style="stroke:#000000;stroke-width:1;fill:#000000"/>
	<path d="M 231.78,570.00 L 231.78,301.00 " style="stroke:#bebebe;stroke-width:1;stroke-dasharray:5.00,5.00;fill:none"/>
	<path d="M 231.78,573.75 L 231.78,570.00 " style="stroke:#000000;stroke-width:1;fill:#000000"/>
	<path d="M 240.91,570.00 L 240.91,301.00 " style="stroke:#bebebe;stroke-width:1;stroke-dasharray:5.00,5.00;fill:none"/>
	<path d="M 240.91,573.75 L 240.91,570.00 " style="stroke:#000000;stroke-width:1;fill:#000000"/>
	<path d="M 249.08,570.00 L 249.08,301.00 " style="stroke:#bebebe;stroke-width:1;stroke-dasharray:5.00,5.00;fill:none"/>
	<text x="249.08" y="594.75" style="stroke:none;fill:#000000;font-size:15.00px;text-anchor:middle">0.1</text>
	<path d="M 249.08,577.50 L 249.08,570.00 " style="stroke:#000000;stroke-width:2;fill:#000000"/>
	<path d="M 302.83,570.00 L 302.83,301.00 " style="stroke:#bebebe;stroke-width:1;stroke-dasharray:5.00,5.00;fill:none"/>
	<path d="M 302.83,573.75 L 302.83,570.00 " style="stroke:#000000;stroke-width:1;fill:#000000"/>
	<path d="M 334.27,570.00 L 334.27,301.00 " style="stroke:#bebebe;stroke-width:1;stroke-dasharray:5.00,5.00;fill:none"/>
	<text x="334.27" y="594.75" style="stroke:none;fill:#000000;font-size:15.00px;text-anchor:middle">0.3</text>
	<path d="M 334.27,577.50 L 334.27,570.00 " style="stroke:#000000;stroke-width:2;fill:#000000"/>
	<path d="M 356.57,570.00 L 356.57,301.00 " style="stroke:#bebebe;stroke-width:1;stroke-dasharray:5.00,5.00;fill:none"/>
	<path d="M 356.57,573.75 L 356.57,570.00 " style="stroke:#000000;stroke-width:1;fill:#000000"/>
	<path d="M 373.88,570.00 L 373.88,301.00 " style="stroke:#bebebe;stroke-width:1;stroke-dasharray:5.00,5.00;fill:none"/>
	<path d="M 373.88,573.75 L 373.88,570.00 " style="stroke:#000000;stroke-width:1;fill:#000000"/>
	<path d="M 388.01,570.00 L 388.01,301.00 " style="stroke:#bebebe;stroke-width:1;stroke-dasharray:5.00,5.00;fill:none"/>
	<path d="M 388.01,573.75 L 388.01,570.00 " style="stroke:#000000;stroke-width:1;fill:#000000"/>
	<path d="M 399.97,570.00 L 399.97,301.00 " style="stroke:#bebebe;stroke-width:1;stroke-dasharray:5.00,5.00;fill:none"/>
	<path d="M 399.97,573.75 L 399.97,570.00 " style="stroke:#000000;stroke-width:1;fill:#000000"/>
	<path d="M 410.32,570.00 L 410.32,301.00 " style="stroke:#bebebe;stroke-width:1;stroke-dasharray:5.00,5.00;fill:none"/>
	<path d="M 410.32,573.75 L 410.32,570.00 " style="stroke:#000000;stroke-width:1;fill:#000000"/>
	<path d="M 419.46,570.00 L 419.46,301.00 " style="stroke:#bebebe;stroke-width:1;stroke-dasharray:5.00,5.00;fill:none"/>
	<path d="M 419.46,573.75 L 419.46,570.00 " style="stroke:#000000;stroke-width:1;fill:#000000"/>
	<path d="M 427.62,570.00 L 427.62,301.00 " style="stroke:#bebebe;stroke-width:1;stroke-dasharray:5.00,5.00;fill:none"/>
	<text x="427.62" y="594.75" style="stroke:none;fill:#000000;font-size:15.00px;text-anchor:middle">1</text>
	<path d="M 427.62,577.50 L 427.62,570.00 " style="stroke:#000000;stroke-width:2;fill:#000000"/>
	<path d="M 481.37,570.00 L 481.37,301.00 " style="stroke:#bebebe;stroke-width:1;stroke-dasharray:5.00,5.00;fill:none"/>
	<path d="M 481.37,573.75 L 481.37,570.00 " style="stroke:#000000;stroke-width:1;fill:#000000"/>
	<path d="M 512.81,570.00 L 512.81,301.00 " style="stroke:#bebebe;stroke-width:1;stroke-dasharray:5.00,5.00;fill:none"/>
	<text x="512.81" y="594.75" style="stroke:none;fill:#000000;font-size:15.00px;text-anchor:middle">3</text>
	<path d="M 512.81,577.50 L 512.81,570.00 " style="stroke:#000000;stroke-width:2;fill:#000000"/>
	<path d="M 535.12,570.00 L 535.12,301.00 " style="stroke:#bebebe;stroke-width:1;stroke-dasharray:5.00,5.00;fill:none"/>
	<path d="M 535.12,573.75 L 535.12,570.00 " style="stroke:#000000;stroke-width:1;fill:#000000"/>
	<path d="M 552.42,570.00 L 552.42,301.00 " style="stroke:#bebebe;stroke-width:1;stroke-dasharray:5.00,5.00;fill:none"/>
	<path d="M 552.42,573.75 L 552.42,570.00 " style="stroke:#000000;stroke-width:1;fill:#000000"/>
	<path d="M 566.56,570.00 L 566.56,301.00 " style="stroke:#bebebe;stroke-width:1;stroke-dasharray:5.00,5.00;fill:none"/>
	<path d="M 566.56,573.75 L 566.56,570.00 " style="stroke:#000000;stroke-width:1;fill:#000000"/>
	<path d="M 578.51,570.00 L 578.51,301.00 " style="stroke:#bebebe;stroke-width:1;stroke-dasharray:5.00,5.00;fill:none"/>
	<path d="M 578.51,573.75 L 578.51,570.00 " style="stroke:#000000;stroke-width:1;fill:#000000"/>
	<path d="M 588.87,570.00 L 588.87,301.00 " style="stroke:#bebebe;stroke-width:1;stroke-dasharray:5.00,5.00;fill:none"/>
	<path d="M 588.87,573.75 L 588.87,570.00 " style="stroke:#000000;stroke-width:1;fill:#000000"/>
	<path d="M 598.00,570.00 L 598.00,301.00 " style="stroke:#bebebe;stroke-width:1;stroke-dasharray:5.00,5.00;fill:none"/>
	<path d="M 598.00,573.75 L 598.00,570.00 " style="stroke:#000000;stroke-width:1;fill:#000000"/>
	<path d="M 606.17,570.00 L 606.17,301.00 " style="stroke:#bebebe;stroke-width:1;stroke-dasharray:5.00,5.00;fill:none"/>
	<text x="606.17" y="594.75" style="stroke:none;fill:#000000;font-size:15.00px;text-anchor:middle">10</text>
	<path d="M 606.17,577.50 L 606.17,570.00 " style="stroke:#000000;stroke-width:2;fill:#000000"/>
	<path d="M 659.92,570.00 L 659.92,301.00 " style="stroke:#bebebe;stroke-width:1;stroke-dasharray:5.00,5.00;fill:none"/>
	<path d="M 659.92,573.75 L 659.92,570.00 " style="stroke:#000000;stroke-width:1;fill:#000000"/>
	<path d="M 691.36,570.00 L 691.36,301.00 " style="stroke:#bebebe;stroke-width:1;stroke-dasharray:5.00,5.00;fill:none"/>
	<text x="691.36" y="594.75" style="stroke:none;fill:#000000;font-size:15.00px;text-anchor:middle">30</text>
	<path d="M 691.36,577.50 L 691.36,570.00 " style="stroke:#000000;stroke-width:2;fill:#000000"/>
	<path d="M 713.67,570.00 L 713.67,301.00 " style="stroke:#bebebe;stroke-width:1;stroke-dasharray:5.00,5.00;fill:none"/>
	<path d="M 713.67,573.75 L 713.67,570.00 " style="stroke:#000000;stroke-width:1;fill:#000000"/>
	<path d="M 730.97,570.00 L 730.97,301.00 " style="stroke:#bebebe;stroke-width:1;stroke-dasharray:5.00,5.00;fill:none"/>
	<path d="M 730.97,573.75 L 730.97,570.00 " style="stroke:#000000;stroke-width:1;fill:#000000"/>
	<path d="M 745.11,570.00 L 745.11,301.00 " style="stroke:#bebebe;stroke-width:1;stroke-dasharray:5.00,5.00;fill:none"/>
	<path d="M 745.11,573.75 L 745.11,570.00 " style="stroke:#000000;stroke-width:1;fill:#000000"/>
	<path d="M 757.06,570.00 L 757.06,301.00 " style="stroke:#bebebe;stroke-width:1;stroke-dasharray:5.00,5.00;fill:none"/>
	<path d="M 757.06,573.75 L 757.06,570.00 " style="stroke:#000000;stroke-width:1;fill:#000000"/>
	<path d="M 767.41,570.00 L 767.41,301.00 " style="stroke:#bebebe;stroke-width:1;stroke-dasharray:5.00,5.00;fill:none"/>
	<path d="M 767.41,573.75 L 767.41,570.00 " style="stroke:#000000;stroke-width:1;fill:#000000"/>
	<path d="M 776.55,570.00 L 776.55,301.00 " style="stroke:#bebebe;stroke-width:1;stroke-dasharray:5.00,5.00;fill:none"/>
	<path d="M 776.55,573.75 L 776.55,570.00 " style="stroke:#000000;stroke-width:1;fill:#000000"/>
	<path d="M 784.72,570.00 L 784.72,301.00 " style="stroke:#bebebe;stroke-width:1;stroke-dasharray:5.00,5.00;fill:none"/>
	<text x="784.72" y="594.75" style="stroke:none;fill:#000000;font-size:15.00px;text-anchor:middle">100</text>
	<path d="M 784.72,577.50 L 784.72,570.00 " style="stroke:#000000;stroke-width:2;fill:#000000"/>
	<path d="M 56.25,549.51 L 799.00,549.51 " style="stroke:#bebebe;stroke-width:1;stroke-dasharray:5.00,5.00;fill:none"/>
	<text x="45.00" y="554.51" style="stroke:none;fill:#000000;font-size:15.00px;text-anchor:end">-270</text>
	<path d="M 48.75,549.51 L 56.25,549.51 " style="stroke:#000000;stroke-width:2;fill:#000000"/>
	<path d="M 56.25,511.81 L 799.00,511.81 " style="stroke:#bebebe;stroke-width:1;stroke-dasharray:5.00,5.00;fill:none"/>
	<text x="45.00" y="516.81" style="stroke:none;fill:#000000;font-size:15.00px;text-anchor:end">-225</text>
	<path d="M 48.75,511.81 L 56.25,511.81 " style="stroke:#000000;stroke-width:2;fill:#000000"/>
	<path d="M 56.25,474.10 L 799.00,474.10 " style="stroke:#bebebe;stroke-width:1;stroke-dasharray:5.00,5.00;fill:none"/>
	<text x="45.00" y="479.10" style="stroke:none;fill:#000000;font-size:15.00px;text-anchor:end">-180</text>
	<path d="M 48.75,474.10 L 56.25,474.10 " style="stroke:#000000;stroke-width:2;fill:#000000"/>
	<path d="M 56.25,436.40 L 799.00,436.40 " style="stroke:#bebebe;stroke-width:1;stroke-dasharray:5.00,5.00;fill:none"/>
	<text x="45.00" y="441.40" style="stroke:none;fill:#000000;font-size:15.00px;text-anchor:end">-135</text>
	<path d="M 48.75,436.40 L 56.25,436.40 " style="stroke:#000000;stroke-width:2;fill:#000000"/>
	<path d="M 56.25,398.69 L 799.00,398.69 " style="stroke:#bebebe;stroke-width:1;stroke-dasharray:5.00,5.00;fill:none"/>
	<text x="45.00" y="403.69" style="stroke:none;fill:#000000;font-size:15.00px;text-anchor:end">-90</text>
	<path d="M 48.75,398.69 L 56.25,398.69 " style="stroke:#000000;stroke-width:2;fill:#000000"/>
	<path d="M 56.25,360.99 L 799.00,360.99 " style="stroke:#bebebe;stroke-width:1;stroke-dasharray:5.00,5.00;fill:none"/>
	<text x="45.00" y="365.99" style="stroke:none;fill:#000000;font-size:15.00px;text-anchor:end">-45</text>
	<path d="M 48.75,360.99 L 56.25,360.99 " style="stroke:#000000;stroke-width:2;fill:#000000"/>
	<path d="M 56.25,323.29 L 799.00,323.29 " style="stroke:#bebebe;stroke-width:1;stroke-dasharray:5.00,5.00;fill:none"/>
	<text x="45.00" y="328.29" style="stroke:none;fill:#000000;font-size:15.00px;text-anchor:end">0</text>
	<path d="M 48.75,323.29 L 56.25,323.29 " style="stroke:#000000;stroke-width:2;fill:#000000"/>
	<path d="M 56.25,398.65 L 59.96,398.65 L 63.68,398.65 L 67.39,398.65 L 71.11,398.65 L 74.82,398.64 L 78.53,398.64 L 82.25,398.64 L 85.96,398.64 L 89.67,398.63 L 93.39,398.63 L 97.10,398.63 L 100.82,398.62 L 104.53,398.62 L 108.24,398.62 L 111.96,398.61 L 115.67,398.61 L 119.38,398.60 L 123.10,398.60 L 126.81,398.60 L 130.53,398.59 L 134.24,398.59 L 137.95,398.58 L 141.67,398.58 L 145.38,398.57 L 149.09,398.56 L 152.81,398.56 L 156.52,398.55 L 160.24,398.55 L 163.95,398.54 L 167.66,398.53 L 171.38,398.52 L 175.09,398.52 L 178.80,398.51 L 182.52,398.50 L 186.23,398.49 L 189.95,398.48 L 193.66,398.47 L 197.37,398.46 L 201.09,398.45 L 204.80,398.44 L 208.51,398.43 L 212.23,398.42 L 215.94,398.41 L 219.66,398.40 L 223.37,398.39 L 227.08,398.38 L 230.80,398.37 L 234.51,398.36 L 238.22,398.35 L 241.94,398.34 L 245.65,398.33 L 249.37,398.32 L 253.08,398.31 L 256.79,398.31 L 260.51,398.30 L 264.22,398.30 L 267.93,398.30 L 271.65,398.30 L 275.36,398.31 L 279.08,398.32 L 282.79,398.33 L 286.50,398.35 L 290.22,398.37 L 293.93,398.41 L 297.64,398.45 L 301.36,398.50 L 305.07,398.56 L 308.79,398.63 L 312.50,398.72 L 316.21,398.82 L 319.93,398.94 L 323.64,399.09 L 327.35,399.25 L 331.07,399.44 L 334.78,399.66 L 338.50,399.90 L 342.21,400.19 L 345.92,400.51 L 349.64,400.87 L 353.35,401.27 L 357.06,401.72 L 360.78,402.23 L 364.49,402.79 L 368.21,403.41 L 371.92,404.10 L 375.63,404.85 L 379.35,405.67 L 383.06,406.57 L 386.77,407.54 L 390.49,408.59 L 394.20,409.72 L 397.92,410.94 L 401.63,412.24 L 405.34,413.63 L 409.06,415.11 L 412.77,416.67 L 416.48,418.32 L 420.20,420.05 L 423.91,421.87 L 427.63,423.77 L 431.34,425.76 L 435.05,427.81 L 438.77,429.95 L 442.48,432.15 L 446.19,434.42 L 449.91,436.76 L 453.62,439.15 L 457.34,441.59 L 461.05,444.08 L 464.76,446.62 L 468.48,449.18 L 472.19,451.78 L 475.90,454.40 L 479.62,457.04 L 483.33,459.69 L 487.05,462.35 L 490.76,465.00 L 494.47,467.65 L 498.19,470.28 L 501.90,472.89 L 505.61,475.48 L 509.33,478.04 L 513.04,480.57 L 516.76,483.05 L 520.47,485.50 L 524.18,487.89 L 527.90,490.24 L 531.61,492.53 L 535.32,494.77 L 539.04,496.95 L 542.75,499.06 L 546.47,501.12 L 550.18,503.12 L 553.89,505.05 L 557.61,506.92 L 561.32,508.73 L 565.03,510.48 L 568.75,512.16 L 572.46,513.78 L 576.18,515.34 L 579.89,516.84 L 583.60,518.29 L 587.32,519.67 L 591.03,521.00 L 594.74,522.28 L 598.46,523.51 L 602.17,524.68 L 605.89,525.80 L 609.60,526.88 L 613.31,527.91 L 617.03,528.89 L 620.74,529.84 L 624.45,530.74 L 628.17,531.60 L 631.88,532.42 L 635.60,533.21 L 639.31,533.96 L 643.02,534.68 L 646.74,535.37 L 650.45,536.02 L 654.16,536.64 L 657.88,537.24 L 661.59,537.81 L 665.31,538.35 L 669.02,538.87 L 672.73,539.37 L 676.45,539.84 L 680.16,540.29 L 683.87,540.72 L 687.59,541.13 L 691.30,541.52 L 695.02,541.89 L 698.73,542.25 L 702.44,542.58 L 706.16,542.91 L 709.87,543.22 L 713.58,543.51 L 717.30,543.79 L 721.01,544.06 L 724.73,544.31 L 728.44,544.55 L 732.15,544.79 L 735.87,545.01 L 739.58,545.22 L 743.29,545.42 L 747.01,545.61 L 750.72,545.79 L 754.44,545.96 L 758.15,546.13 L 761.86,546.29 L 765.58,546.44 L 769.29,546.58 L 773.00,546.72 L 776.72,546.85 L 780.43,546.97 L 784.15,547.09 L 787.86,547.21 L 791.57,547.31 L 795.29,547.42 L 799.00,547.51 " style="stroke:#000000;stroke-width:1;fill:none"/>
	<path d="M 56.25,397.90 L 59.96,397.86 L 63.68,397.82 L 67.39,397.77 L 71.11,397.73 L 74.82,397.68 L 78.53,397.63 L 82.25,397.58 L 85.96,397.52 L 89.67,397.47 L 93.39,397.41 L 97.10,397.34 L 100.82,397.28 L 104.53,397.21 L 108.24,397.13 L 111.96,397.06 L 115.67,396.98 L 119.38,396.89 L 123.10,396.80 L 126.81,396.71 L 130.53,396.61 L 134.24,396.51 L 137.95,396.41 L 141.67,396.29 L 145.38,396.18 L 149.09,396.05 L 152.81,395.92 L 156.52,395.79 L 160.24,395.65 L 163.95,395.50 L 167.66,395.34 L 171.38,395.18 L 175.09,395.00 L 178.80,394.82 L 182.52,394.63 L 186.23,394.44 L 189.95,394.23 L 193.66,394.01 L 197.37,393.78 L 201.09,393.54 L 204.80,393.29 L 208.51,393.03 L 212.23,392.76 L 215.94,392.47 L 219.66,392.17 L 223.37,391.85 L 227.08,391.52 L 230.80,391.17 L 234.51,390.81 L 238.22,390.43 L 241.94,390.03 L 245.65,389.62 L 249.37,389.18 L 253.08,388.73 L 256.79,388.26 L 260.51,387.76 L 264.22,387.24 L 267.93,386.71 L 271.65,386.14 L 275.36,385.56 L 279.08,384.95 L 282.79,384.31 L 286.50,383.65 L 290.22,382.96 L 293.93,382.25 L 297.64,381.51 L 301.36,380.74 L 305.07,379.94 L 308.79,379.12 L 312.50,378.27 L 316.21,377.39 L 319.93,376.49 L 323.64,375.56 L 327.35,374.60 L 331.07,373.62 L 334.78,372.61 L 338.50,371.58 L 342.21,370.53 L 345.92,369.46 L 349.64,368.37 L 353.35,367.27 L 357.06,366.15 L 360.78,365.03 L 364.49,363.89 L 368.21,362.74 L 371.92,361.60 L 375.63,360.45 L 379.35,359.30 L 383.06,358.15 L 386.77,357.02 L 390.49,355.89 L 394.20,354.77 L 397.92,353.67 L 401.63,352.58 L 405.34,351.51 L 409.06,350.46 L 412.77,349.43 L 416.48,348.42 L 420.20,347.44 L 423.91,346.48 L 427.63,345.54 L 431.34,344.64 L 435.05,343.76 L 438.77,342.91 L 442.48,342.08 L 446.19,341.28 L 449.91,340.51 L 453.62,339.77 L 457.34,339.06 L 461.05,338.37 L 464.76,337.71 L 468.48,337.07 L 472.19,336.46 L 475.90,335.87 L 479.62,335.31 L 483.33,334.76 L 487.05,334.25 L 490.76,333.75 L 494.47,333.28 L 498.19,332.82 L 501.90,332.39 L 505.61,331.97 L 509.33,331.57 L 513.04,331.19 L 516.76,330.83 L 520.47,330.48 L 524.18,330.15 L 527.90,329.83 L 531.61,329.53 L 535.32,329.24 L 539.04,328.96 L 542.75,328.70 L 546.47,328.45 L 550.18,328.21 L 553.89,327.98 L 557.61,327.76 L 561.32,327.56 L 565.03,327.36 L 568.75,327.17 L 572.46,326.99 L 576.18,326.81 L 579.89,326.65 L 583.60,326.49 L 587.32,326.34 L 591.03,326.20 L 594.74,326.06 L 598.46,325.94 L 602.17,325.81 L 605.89,325.69 L 609.60,325.58 L 613.31,325.47 L 617.03,325.37 L 620.74,325.27 L 624.45,325.18 L 628.17,325.09 L 631.88,325.01 L 635.60,324.93 L 639.31,324.85 L 643.02,324.78 L 646.74,324.71 L 650.45,324.64 L 654.16,324.58 L 657.88,324.52 L 661.59,324.46 L 665.31,324.41 L 669.02,324.35 L 672.73,324.30 L 676.45,324.26 L 680.16,324.21 L 683.87,324.17 L 687.59,324.13 L 691.30,324.09 L 695.02,324.05 L 698.73,324.01 L 702.44,323.98 L 706.16,323.95 L 709.87,323.92 L 713.58,323.89 L 717.30,323.86 L 721.01,323.83 L 724.73,323.81 L 728.44,323.78 L 732.15,323.76 L 735.87,323.74 L 739.58,323.72 L 743.29,323.70 L 747.01,323.68 L 750.72,323.66 L 754.44,323.64 L 758.15,323.62 L 761.86,323.61 L 765.58,323.59 L 769.29,323.58 L 773.00,323.57 L 776.72,323.55 L 780.43,323.54 L 784.15,323.53 L 787.86,323.52 L 791.57,323.51 L 795.29,323.50 L 799.00,323.49 " style="stroke:#0000ff;stroke-width:1;fill:none"/>
	<path d="M 56.25,324.05 L 59.96,324.08 L 63.68,324.12 L 67.39,324.16 L 71.11,324.21 L 74.82,324.25 L 78.53,324.30 L 82.25,324.35 L 85.96,324.40 L 89.67,324.45 L 93.39,324.51 L 97.10,324.57 L 100.82,324.63 L 104.53,324.70 L 108.24,324.77 L 111.96,324.84 L 115.67,324.92 L 119.38,325.00 L 123.10,325.08 L 126.81,325.17 L 130.53,325.26 L 134.24,325.36 L 137.95,325.46 L 141.67,325.57 L 145.38,325.68 L 149.09,325.80 L 152.81,325.92 L 156.52,326.05 L 160.24,326.19 L 163.95,326.33 L 167.66,326.48 L 171.38,326.63 L 175.09,326.80 L 178.80,326.97 L 182.52,327.15 L 186.23,327.34 L 189.95,327.54 L 193.66,327.75 L 197.37,327.97 L 201.09,328.20 L 204.80,328.44 L 208.51,328.69 L 212.23,328.95 L 215.94,329.23 L 219.66,329.52 L 223.37,329.83 L 227.08,330.15 L 230.80,330.48 L 234.51,330.83 L 238.22,331.20 L 241.94,331.59 L 245.65,332.00 L 249.37,332.42 L 253.08,332.87 L 256.79,333.34 L 260.51,333.83 L 264.22,334.34 L 267.93,334.88 L 271.65,335.44 L 275.36,336.04 L 279.08,336.66 L 282.79,337.31 L 286.50,337.99 L 290.22,338.70 L 293.93,339.45 L 297.64,340.23 L 301.36,341.05 L 305.07,341.90 L 308.79,342.80 L 312.50,343.74 L 316.21,344.72 L 319.93,345.74 L 323.64,346.82 L 327.35,347.94 L 331.07,349.11 L 334.78,350.33 L 338.50,351.61 L 342.21,352.94 L 345.92,354.33 L 349.64,355.78 L 353.35,357.29 L 357.06,358.86 L 360.78,360.49 L 364.49,362.19 L 368.21,363.95 L 371.92,365.79 L 375.63,367.69 L 379.35,369.66 L 383.06,371.70 L 386.77,373.81 L 390.49,375.99 L 394.20,378.24 L 397.92,380.56 L 401.63,382.95 L 405.34,385.41 L 409.06,387.94 L 412.77,390.53 L 416.48,393.18 L 420.20,395.90 L 423.91,398.68 L 427.63,401.51 L 431.34,404.40 L 435.05,407.34 L 438.77,410.33 L 442.48,413.36 L 446.19,416.43 L 449.91,419.53 L 453.62,422.66 L 457.34,425.82 L 461.05,429.00 L 464.76,432.20 L 468.48,435.40 L 472.19,438.61 L 475.90,441.82 L 479.62,445.02 L 483.33,448.21 L 487.05,451.39 L 490.76,454.54 L 494.47,457.66 L 498.19,460.74 L 501.90,463.79 L 505.61,466.80 L 509.33,469.76 L 513.04,472.66 L 516.76,475.51 L 520.47,478.30 L 524.18,481.03 L 527.90,483.69 L 531.61,486.29 L 535.32,488.81 L 539.04,491.27 L 542.75,493.65 L 546.47,495.96 L 550.18,498.19 L 553.89,500.36 L 557.61,502.45 L 561.32,504.46 L 565.03,506.41 L 568.75,508.28 L 572.46,510.08 L 576.18,511.81 L 579.89,513.48 L 583.60,515.08 L 587.32,516.62 L 591.03,518.09 L 594.74,519.50 L 598.46,520.86 L 602.17,522.15 L 605.89,523.40 L 609.60,524.58 L 613.31,525.72 L 617.03,526.81 L 620.74,527.85 L 624.45,528.84 L 628.17,529.79 L 631.88,530.70 L 635.60,531.57 L 639.31,532.40 L 643.02,533.19 L 646.74,533.94 L 650.45,534.66 L 654.16,535.35 L 657.88,536.01 L 661.59,536.64 L 665.31,537.23 L 669.02,537.80 L 672.73,538.35 L 676.45,538.87 L 680.16,539.36 L 683.87,539.84 L 687.59,540.29 L 691.30,540.72 L 695.02,541.13 L 698.73,541.52 L 702.44,541.89 L 706.16,542.25 L 709.87,542.59 L 713.58,542.91 L 717.30,543.22 L 721.01,543.51 L 724.73,543.79 L 728.44,544.06 L 732.15,544.31 L 735.87,544.56 L 739.58,544.79 L 743.29,545.01 L 747.01,545.22 L 750.72,545.42 L 754.44,545.61 L 758.15,545.79 L 761.86,545.97 L 765.58,546.13 L 769.29,546.29 L 773.00,546.44 L 776.72,546.58 L 780.43,546.72 L 784.15,546.85 L 787.86,546.98 L 791.57,547.09 L 795.29,547.21 L 799.00,547.31 " style="stroke:#00ff00;stroke-width:1;fill:none"/>
	<text x="791.50" y="562.50" style="stroke:none;fill:#000000;font-size:15.00px;text-anchor:end">ω [rad/s]</text>
	<text x="63.75" y="318.25" style="stroke:none;fill:#000000;font-size:15.00px">Phase [°]</text>
	<path d="M 56.25,570.00 L 799.00,570.00 L 799.00,301.00 L 56.25,301.00 Z" style="stroke:#000000;stroke-width:2;fill:none"/>
</svg>
