<?xml version="1.0" encoding="utf-8"?>
<svg class="svg" xmlns:svg="http://www.w3.org/2000/svg" xmlns="http://www.w3.org/2000/svg" width="800" height="600" viewBox="0 0 800 600">
	<path d="M 62.279,273.750 L 62.279,270.000 " style="stroke:#000000;stroke-opacity:1.00;stroke-width:1;stroke-linejoin:round;fill:none"/>
	<path d="M 62.279,270.000 L 62.279,7.500 " style="stroke:#bebebe;stroke-opacity:1.00;stroke-width:1;stroke-linejoin:round;stroke-dasharray:5.00,5.00;fill:none"/>
	<text x="70.34" y="294.75" style="stroke:none;fill:#000000;fill-opacity:1.00;fill-rule:evenodd;font-size:15.0px;text-anchor:middle">0.01</text>
	<path d="M 70.337,277.500 L 70.337,270.000 " style="stroke:#000000;stroke-opacity:1.00;stroke-width:2;stroke-linejoin:round;fill:none"/>
	<path d="M 70.337,270.000 L 70.337,7.500 " style="stroke:#bebebe;stroke-opacity:1.00;stroke-width:1;stroke-linejoin:round;stroke-dasharray:5.00,5.00;fill:none"/>
	<path d="M 123.342,273.750 L 123.342,270.000 " style="stroke:#000000;stroke-opacity:1.00;stroke-width:1;stroke-linejoin:round;fill:none"/>
	<path d="M 123.342,270.000 L 123.342,7.500 " style="stroke:#bebebe;stroke-opacity:1.00;stroke-width:1;stroke-linejoin:round;stroke-dasharray:5.00,5.00;fill:none"/>
	<path d="M 154.349,273.750 L 154.349,270.000 " style="stroke:#000000;stroke-opacity:1.00;stroke-width:1;stroke-linejoin:round;fill:none"/>
	<path d="M 154.349,270.000 L 154.349,7.500 " style="stroke:#bebebe;stroke-opacity:1.00;stroke-width:1;stroke-linejoin:round;stroke-dasharray:5.00,5.00;fill:none"/>
	<path d="M 176.348,273.750 L 176.348,270.000 " style="stroke:#000000;stroke-opacity:1.00;stroke-width:1;stroke-linejoin:round;fill:none"/>
	<path d="M 176.348,270.000 L 176.348,7.500 " style="stroke:#bebebe;stroke-opacity:1.00;stroke-width:1;stroke-linejoin:round;stroke-dasharray:5.00,5.00;fill:none"/>
	<path d="M 193.412,273.750 L 193.412,270.000 " style="stroke:#000000;stroke-opacity:1.00;stroke-width:1;stroke-linejoin:round;fill:none"/>
	<path d="M 193.412,270.000 L 193.412,7.500 " style="stroke:#bebebe;stroke-opacity:1.00;stroke-width:1;stroke-linejoin:round;stroke-dasharray:5.00,5.00;fill:none"/>
	<path d="M 207.355,273.750 L 207.355,270.000 " style="stroke:#000000;stroke-opacity:1.00;stroke-width:1;stroke-linejoin:round;fill:none"/>
	<path d="M 207.355,270.000 L 207.355,7.500 " style="stroke:#bebebe;stroke-opacity:1.00;stroke-width:1;stroke-linejoin:round;stroke-dasharray:5.00,5.00;fill:none"/>
	<path d="M 219.143,273.750 L 219.143,270.000 " style="stroke:#000000;stroke-opacity:1.00;stroke-width:1;stroke-linejoin:round;fill:none"/>
	<path d="M 219.143,270.000 L 219.143,7.500 " style="stroke:#bebebe;stroke-opacity:1.00;stroke-width:1;stroke-linejoin:round;stroke-dasharray:5.00,5.00;fill:none"/>
	<path d="M 229.354,273.750 L 229.354,270.000 " style="stroke:#000000;stroke-opacity:1.00;stroke-width:1;stroke-linejoin:round;fill:none"/>
	<path d="M 229.354,270.000 L 229.354,7.500 " style="stroke:#bebebe;stroke-opacity:1.00;stroke-width:1;stroke-linejoin:round;stroke-dasharray:5.00,5.00;fill:none"/>
	<path d="M 238.361,273.750 L 238.361,270.000 " style="stroke:#000000;stroke-opacity:1.00;stroke-width:1;stroke-linejoin:round;fill:none"/>
	<path d="M 238.361,270.000 L 238.361,7.500 " style="stroke:#bebebe;stroke-opacity:1.00;stroke-width:1;stroke-linejoin:round;stroke-dasharray:5.00,5.00;fill:none"/>
	<text x="246.42" y="294.75" style="stroke:none;fill:#000000;fill-opacity:1.00;fill-rule:evenodd;font-size:15.0px;text-anchor:middle">0.1</text>
	<path d="M 246.418,277.500 L 246.418,270.000 " style="stroke:#000000;stroke-opacity:1.00;stroke-width:2;stroke-linejoin:round;fill:none"/>
	<path d="M 246.418,270.000 L 246.418,7.500 " style="stroke:#bebebe;stroke-opacity:1.00;stroke-width:1;stroke-linejoin:round;stroke-dasharray:5.00,5.00;fill:none"/>
	<path d="M 299.424,273.750 L 299.424,270.000 " style="stroke:#000000;stroke-opacity:1.00;stroke-width:1;stroke-linejoin:round;fill:none"/>
	<path d="M 299.424,270.000 L 299.424,7.500 " style="stroke:#bebebe;stroke-opacity:1.00;stroke-width:1;stroke-linejoin:round;stroke-dasharray:5.00,5.00;fill:none"/>
	<path d="M 330.431,273.750 L 330.431,270.000 " style="stroke:#000000;stroke-opacity:1.00;stroke-width:1;stroke-linejoin:round;fill:none"/>
	<path d="M 330.431,270.000 L 330.431,7.500 " style="stroke:#bebebe;stroke-opacity:1.00;stroke-width:1;stroke-linejoin:round;stroke-dasharray:5.00,5.00;fill:none"/>
	<path d="M 352.430,273.750 L 352.430,270.000 " style="stroke:#000000;stroke-opacity:1.00;stroke-width:1;stroke-linejoin:round;fill:none"/>
	<path d="M 352.430,270.000 L 352.430,7.500 " style="stroke:#bebebe;stroke-opacity:1.00;stroke-width:1;stroke-linejoin:round;stroke-dasharray:5.00,5.00;fill:none"/>
	<path d="M 369.494,273.750 L 369.494,270.000 " style="stroke:#000000;stroke-opacity:1.00;stroke-width:1;stroke-linejoin:round;fill:none"/>
	<path d="M 369.494,270.000 L 369.494,7.500 " style="stroke:#bebebe;stroke-opacity:1.00;stroke-width:1;stroke-linejoin:round;stroke-dasharray:5.00,5.00;fill:none"/>
	<path d="M 383.436,273.750 L 383.436,270.000 " style="stroke:#000000;stroke-opacity:1.00;stroke-width:1;stroke-linejoin:round;fill:none"/>
	<path d="M 383.436,270.000 L 383.436,7.500 " style="stroke:#bebebe;stroke-opacity:1.00;stroke-width:1;stroke-linejoin:round;stroke-dasharray:5.00,5.00;fill:none"/>
	<path d="M 395.225,273.750 L 395.225,270.000 " style="stroke:#000000;stroke-opacity:1.00;stroke-width:1;stroke-linejoin:round;fill:none"/>
	<path d="M 395.225,270.000 L 395.225,7.500 " style="stroke:#bebebe;stroke-opacity:1.00;stroke-width:1;stroke-linejoin:round;stroke-dasharray:5.00,5.00;fill:none"/>
	<path d="M 405.436,273.750 L 405.436,270.000 " style="stroke:#000000;stroke-opacity:1.00;stroke-width:1;stroke-linejoin:round;fill:none"/>
	<path d="M 405.436,270.000 L 405.436,7.500 " style="stroke:#bebebe;stroke-opacity:1.00;stroke-width:1;stroke-linejoin:round;stroke-dasharray:5.00,5.00;fill:none"/>
	<path d="M 414.443,273.750 L 414.443,270.000 " style="stroke:#000000;stroke-opacity:1.00;stroke-width:1;stroke-linejoin:round;fill:none"/>
	<path d="M 414.443,270.000 L 414.443,7.500 " style="stroke:#bebebe;stroke-opacity:1.00;stroke-width:1;stroke-linejoin:round;stroke-dasharray:5.00,5.00;fill:none"/>
	<text x="422.50" y="294.75" style="stroke:none;fill:#000000;fill-opacity:1.00;fill-rule:evenodd;font-size:15.0px;text-anchor:middle">1</text>
	<path d="M 422.500,277.500 L 422.500,270.000 " style="stroke:#000000;stroke-opacity:1.00;stroke-width:2;stroke-linejoin:round;fill:none"/>
	<path d="M 422.500,270.000 L 422.500,7.500 " style="stroke:#bebebe;stroke-opacity:1.00;stroke-width:1;stroke-linejoin:round;stroke-dasharray:5.00,5.00;fill:none"/>
	<path d="M 475.506,273.750 L 475.506,270.000 " style="stroke:#000000;stroke-opacity:1.00;stroke-width:1;stroke-linejoin:round;fill:none"/>
	<path d="M 475.506,270.000 L 475.506,7.500 " style="stroke:#bebebe;stroke-opacity:1.00;stroke-width:1;stroke-linejoin:round;stroke-dasharray:5.00,5.00;fill:none"/>
	<path d="M 506.512,273.750 L 506.512,270.000 " style="stroke:#000000;stroke-opacity:1.00;stroke-width:1;stroke-linejoin:round;fill:none"/>
	<path d="M 506.512,270.000 L 506.512,7.500 " style="stroke:#bebebe;stroke-opacity:1.00;stroke-width:1;stroke-linejoin:round;stroke-dasharray:5.00,5.00;fill:none"/>
	<path d="M 528.512,273.750 L 528.512,270.000 " style="stroke:#000000;stroke-opacity:1.00;stroke-width:1;stroke-linejoin:round;fill:none"/>
	<path d="M 528.512,270.000 L 528.512,7.500 " style="stroke:#bebebe;stroke-opacity:1.00;stroke-width:1;stroke-linejoin:round;stroke-dasharray:5.00,5.00;fill:none"/>
	<path d="M 545.576,273.750 L 545.576,270.000 " style="stroke:#000000;stroke-opacity:1.00;stroke-width:1;stroke-linejoin:round;fill:none"/>
	<path d="M 545.576,270.000 L 545.576,7.500 " style="stroke:#bebebe;stroke-opacity:1.00;stroke-width:1;stroke-linejoin:round;stroke-dasharray:5.00,5.00;fill:none"/>
	<path d="M 559.518,273.750 L 559.518,270.000 " style="stroke:#000000;stroke-opacity:1.00;stroke-width:1;stroke-linejoin:round;fill:none"/>
	<path d="M 559.518,270.000 L 559.518,7.500 " style="stroke:#bebebe;stroke-opacity:1.00;stroke-width:1;stroke-linejoin:round;stroke-dasharray:5.00,5.00;fill:none"/>
	<path d="M 571.306,273.750 L 571.306,270.000 " style="stroke:#000000;stroke-opacity:1.00;stroke-width:1;stroke-linejoin:round;fill:none"/>
	<path d="M 571.306,270.000 L 571.306,7.500 " style="stroke:#bebebe;stroke-opacity:1.00;stroke-width:1;stroke-linejoin:round;stroke-dasharray:5.00,5.00;fill:none"/>
	<path d="M 581.518,273.750 L 581.518,270.000 " style="stroke:#000000;stroke-opacity:1.00;stroke-width:1;stroke-linejoin:round;fill:none"/>
	<path d="M 581.518,270.000 L 581.518,7.500 " style="stroke:#bebebe;stroke-opacity:1.00;stroke-width:1;stroke-linejoin:round;stroke-dasharray:5.00,5.00;fill:none"/>
	<path d="M 590.525,273.750 L 590.525,270.000 " style="stroke:#000000;stroke-opacity:1.00;stroke-width:1;stroke-linejoin:round;fill:none"/>
	<path d="M 590.525,270.000 L 590.525,7.500 " style="stroke:#bebebe;stroke-opacity:1.00;stroke-width:1;stroke-linejoin:round;stroke-dasharray:5.00,5.00;fill:none"/>
	<text x="598.58" y="294.75" style="stroke:none;fill:#000000;fill-opacity:1.00;fill-rule:evenodd;font-size:15.0px;text-anchor:middle">10</text>
	<path d="M 598.582,277.500 L 598.582,270.000 " style="stroke:#000000;stroke-opacity:1.00;stroke-width:2;stroke-linejoin:round;fill:none"/>
	<path d="M 598.582,270.000 L 598.582,7.500 " style="stroke:#bebebe;stroke-opacity:1.00;stroke-width:1;stroke-linejoin:round;stroke-dasharray:5.00,5.00;fill:none"/>
	<path d="M 651.588,273.750 L 651.588,270.000 " style="stroke:#000000;stroke-opacity:1.00;stroke-width:1;stroke-linejoin:round;fill:none"/>
	<path d="M 651.588,270.000 L 651.588,7.500 " style="stroke:#bebebe;stroke-opacity:1.00;stroke-width:1;stroke-linejoin:round;stroke-dasharray:5.00,5.00;fill:none"/>
	<path d="M 682.594,273.750 L 682.594,270.000 " style="stroke:#000000;stroke-opacity:1.00;stroke-width:1;stroke-linejoin:round;fill:none"/>
	<path d="M 682.594,270.000 L 682.594,7.500 " style="stroke:#bebebe;stroke-opacity:1.00;stroke-width:1;stroke-linejoin:round;stroke-dasharray:5.00,5.00;fill:none"/>
	<path d="M 704.593,273.750 L 704.593,270.000 " style="stroke:#000000;stroke-opacity:1.00;stroke-width:1;stroke-linejoin:round;fill:none"/>
	<path d="M 704.593,270.000 L 704.593,7.500 " style="stroke:#bebebe;stroke-opacity:1.00;stroke-width:1;stroke-linejoin:round;stroke-dasharray:5.00,5.00;fill:none"/>
	<path d="M 721.658,273.750 L 721.658,270.000 " style="stroke:#000000;stroke-opacity:1.00;stroke-width:1;stroke-linejoin:round;fill:none"/>
	<path d="M 721.658,270.000 L 721.658,7.500 " style="stroke:#bebebe;stroke-opacity:1.00;stroke-width:1;stroke-linejoin:round;stroke-dasharray:5.00,5.00;fill:none"/>
	<path d="M 735.600,273.750 L 735.600,270.000 " style="stroke:#000000;stroke-opacity:1.00;stroke-width:1;stroke-linejoin:round;fill:none"/>
	<path d="M 735.600,270.000 L 735.600,7.500 " style="stroke:#bebebe;stroke-opacity:1.00;stroke-width:1;stroke-linejoin:round;stroke-dasharray:5.00,5.00;fill:none"/>
	<path d="M 747.388,273.750 L 747.388,270.000 " style="stroke:#000000;stroke-opacity:1.00;stroke-width:1;stroke-linejoin:round;fill:none"/>
	<path d="M 747.388,270.000 L 747.388,7.500 " style="stroke:#bebebe;stroke-opacity:1.00;stroke-width:1;stroke-linejoin:round;stroke-dasharray:5.00,5.00;fill:none"/>
	<path d="M 757.599,273.750 L 757.599,270.000 " style="stroke:#000000;stroke-opacity:1.00;stroke-width:1;stroke-linejoin:round;fill:none"/>
	<path d="M 757.599,270.000 L 757.599,7.500 " style="stroke:#bebebe;stroke-opacity:1.00;stroke-width:1;stroke-linejoin:round;stroke-dasharray:5.00,5.00;fill:none"/>
	<path d="M 766.606,273.750 L 766.606,270.000 " style="stroke:#000000;stroke-opacity:1.00;stroke-width:1;stroke-linejoin:round;fill:none"/>
	<path d="M 766.606,270.000 L 766.606,7.500 " style="stroke:#bebebe;stroke-opacity:1.00;stroke-width:1;stroke-linejoin:round;stroke-dasharray:5.00,5.00;fill:none"/>
	<text x="774.66" y="294.75" style="stroke:none;fill:#000000;fill-opacity:1.00;fill-rule:evenodd;font-size:15.0px;text-anchor:middle">100</text>
	<path d="M 774.663,277.500 L 774.663,270.000 " style="stroke:#000000;stroke-opacity:1.00;stroke-width:2;stroke-linejoin:round;fill:none"/>
	<path d="M 774.663,270.000 L 774.663,7.500 " style="stroke:#bebebe;stroke-opacity:1.00;stroke-width:1;stroke-linejoin:round;stroke-dasharray:5.00,5.00;fill:none"/>
	<text x="45.00" y="271.83" style="stroke:none;fill:#000000;fill-opacity:1.00;fill-rule:evenodd;font-size:15.0px;text-anchor:end">-120</text>
	<path d="M 48.750,266.829 L 56.250,266.829 " style="stroke:#000000;stroke-opacity:1.00;stroke-width:2;stroke-linejoin:round;fill:none"/>
	<path d="M 56.250,266.829 L 788.750,266.829 " style="stroke:#bebebe;stroke-opacity:1.00;stroke-width:1;stroke-linejoin:round;stroke-dasharray:5.00,5.00;fill:none"/>
	<path d="M 52.500,237.088 L 56.250,237.088 " style="stroke:#000000;stroke-opacity:1.00;stroke-width:1;stroke-linejoin:round;fill:none"/>
	<path d="M 56.250,237.088 L 788.750,237.088 " style="stroke:#bebebe;stroke-opacity:1.00;stroke-width:1;stroke-linejoin:round;stroke-dasharray:5.00,5.00;fill:none"/>
	<text x="45.00" y="212.35" style="stroke:none;fill:#000000;fill-opacity:1.00;fill-rule:evenodd;font-size:15.0px;text-anchor:end">-80</text>
	<path d="M 48.750,207.346 L 56.250,207.346 " style="stroke:#000000;stroke-opacity:1.00;stroke-width:2;stroke-linejoin:round;fill:none"/>
	<path d="M 56.250,207.346 L 788.750,207.346 " style="stroke:#bebebe;stroke-opacity:1.00;stroke-width:1;stroke-linejoin:round;stroke-dasharray:5.00,5.00;fill:none"/>
	<path d="M 52.500,177.605 L 56.250,177.605 " style="stroke:#000000;stroke-opacity:1.00;stroke-width:1;stroke-linejoin:round;fill:none"/>
	<path d="M 56.250,177.605 L 788.750,177.605 " style="stroke:#bebebe;stroke-opacity:1.00;stroke-width:1;stroke-linejoin:round;stroke-dasharray:5.00,5.00;fill:none"/>
	<text x="45.00" y="152.86" style="stroke:none;fill:#000000;fill-opacity:1.00;fill-rule:evenodd;font-size:15.0px;text-anchor:end">-40</text>
	<path d="M 48.750,147.864 L 56.250,147.864 " style="stroke:#000000;stroke-opacity:1.00;stroke-width:2;stroke-linejoin:round;fill:none"/>
	<path d="M 56.250,147.864 L 788.750,147.864 " style="stroke:#bebebe;stroke-opacity:1.00;stroke-width:1;stroke-linejoin:round;stroke-dasharray:5.00,5.00;fill:none"/>
	<path d="M 52.500,118.122 L 56.250,118.122 " style="stroke:#000000;stroke-opacity:1.00;stroke-width:1;stroke-linejoin:round;fill:none"/>
	<path d="M 56.250,118.122 L 788.750,118.122 " style="stroke:#bebebe;stroke-opacity:1.00;stroke-width:1;stroke-linejoin:round;stroke-dasharray:5.00,5.00;fill:none"/>
	<text x="45.00" y="93.38" style="stroke:none;fill:#000000;fill-opacity:1.00;fill-rule:evenodd;font-size:15.0px;text-anchor:end">0</text>
	<path d="M 48.750,88.381 L 56.250,88.381 " style="stroke:#000000;stroke-opacity:1.00;stroke-width:2;stroke-linejoin:round;fill:none"/>
	<path d="M 56.250,88.381 L 788.750,88.381 " style="stroke:#bebebe;stroke-opacity:1.00;stroke-width:1;stroke-linejoin:round;stroke-dasharray:5.00,5.00;fill:none"/>
	<path d="M 52.500,58.639 L 56.250,58.639 " style="stroke:#000000;stroke-opacity:1.00;stroke-width:1;stroke-linejoin:round;fill:none"/>
	<path d="M 56.250,58.639 L 788.750,58.639 " style="stroke:#bebebe;stroke-opacity:1.00;stroke-width:1;stroke-linejoin:round;stroke-dasharray:5.00,5.00;fill:none"/>
	<text x="45.00" y="33.90" style="stroke:none;fill:#000000;fill-opacity:1.00;fill-rule:evenodd;font-size:15.0px;text-anchor:end">40</text>
	<path d="M 48.750,28.898 L 56.250,28.898 " style="stroke:#000000;stroke-opacity:1.00;stroke-width:2;stroke-linejoin:round;fill:none"/>
	<path d="M 56.250,28.898 L 788.750,28.898 " style="stroke:#bebebe;stroke-opacity:1.00;stroke-width:1;stroke-linejoin:round;stroke-dasharray:5.00,5.00;fill:none"/>
	<path d="M 423.307,270.000 L 423.307,7.500 " style="stroke:#ff0000;stroke-opacity:1.00;stroke-width:1;stroke-linejoin:round;stroke-dasharray:5.00,5.00;fill:none"/>
	<path d="M 56.250,29.893 L 59.912,30.512 L 63.575,31.130 L 67.237,31.749 L 70.900,32.367 L 74.563,32.986 L 78.225,33.604 L 81.888,34.223 L 85.550,34.841 L 89.213,35.459 L 92.875,36.078 L 96.538,36.696 L 100.200,37.314 L 103.863,37.933 L 107.525,38.551 L 111.188,39.169 L 114.850,39.787 L 118.513,40.405 L 122.175,41.023 L 125.838,41.641 L 129.500,42.259 L 133.163,42.877 L 136.825,43.495 L 140.488,44.112 L 144.150,44.730 L 147.813,45.347 L 151.475,45.965 L 155.138,46.582 L 158.800,47.199 L 162.463,47.816 L 166.125,48.433 L 169.788,49.049 L 173.450,49.666 L 177.113,50.282 L 180.775,50.898 L 184.438,51.513 L 188.100,52.129 L 191.763,52.744 L 195.425,53.358 L 199.088,53.973 L 202.750,54.586 L 206.413,55.200 L 210.075,55.813 L 213.738,56.425 L 217.400,57.037 L 221.063,57.648 L 224.725,58.258 L 228.388,58.867 L 232.050,59.476 L 235.713,60.083 L 239.375,60.690 L 243.038,61.295 L 246.700,61.899 L 250.363,62.502 L 254.025,63.103 L 257.688,63.702 L 261.350,64.300 L 265.013,64.896 L 268.675,65.490 L 272.338,66.081 L 276.000,66.671 L 279.663,67.257 L 283.325,67.841 L 286.988,68.422 L 290.650,68.999 L 294.313,69.573 L 297.975,70.144 L 301.638,70.711 L 305.300,71.273 L 308.963,71.832 L 312.625,72.386 L 316.288,72.935 L 319.950,73.480 L 323.613,74.020 L 327.275,74.555 L 330.938,75.085 L 334.600,75.611 L 338.263,76.131 L 341.925,76.647 L 345.588,77.158 L 349.250,77.665 L 352.913,78.168 L 356.575,78.667 L 360.238,79.164 L 363.900,79.659 L 367.563,80.153 L 371.225,80.646 L 374.888,81.140 L 378.550,81.636 L 382.213,82.134 L 385.875,82.637 L 389.538,83.146 L 393.200,83.662 L 396.863,84.186 L 400.525,84.721 L 404.188,85.268 L 407.850,85.828 L 411.513,86.404 L 415.175,86.996 L 418.838,87.607 L 422.500,88.239 L 426.163,88.892 L 429.825,89.569 L 433.488,90.270 L 437.150,90.998 L 440.813,91.754 L 444.475,92.538 L 448.138,93.353 L 451.800,94.198 L 455.463,95.076 L 459.125,95.987 L 462.788,96.931 L 466.450,97.909 L 470.113,98.922 L 473.775,99.970 L 477.438,101.053 L 481.100,102.171 L 484.763,103.324 L 488.425,104.512 L 492.088,105.734 L 495.750,106.990 L 499.413,108.279 L 503.075,109.601 L 506.738,110.954 L 510.400,112.338 L 514.063,113.752 L 517.725,115.194 L 521.388,116.663 L 525.050,118.159 L 528.713,119.680 L 532.375,121.224 L 536.038,122.791 L 539.700,124.380 L 543.363,125.988 L 547.025,127.615 L 550.688,129.260 L 554.350,130.921 L 558.013,132.598 L 561.675,134.289 L 565.338,135.994 L 569.000,137.711 L 572.663,139.440 L 576.325,141.179 L 579.988,142.928 L 583.650,144.686 L 587.313,146.452 L 590.975,148.226 L 594.638,150.007 L 598.300,151.795 L 601.963,153.588 L 605.625,155.387 L 609.288,157.191 L 612.950,159.000 L 616.613,160.813 L 620.275,162.629 L 623.938,164.449 L 627.600,166.272 L 631.263,168.099 L 634.925,169.927 L 638.588,171.759 L 642.250,173.592 L 645.913,175.428 L 649.575,177.265 L 653.238,179.104 L 656.900,180.944 L 660.563,182.786 L 664.225,184.629 L 667.888,186.474 L 671.550,188.319 L 675.213,190.165 L 678.875,192.013 L 682.538,193.860 L 686.200,195.709 L 689.863,197.558 L 693.525,199.408 L 697.188,201.259 L 700.850,203.110 L 704.513,204.961 L 708.175,206.813 L 711.838,208.665 L 715.500,210.518 L 719.163,212.371 L 722.825,214.224 L 726.488,216.077 L 730.150,217.931 L 733.813,219.784 L 737.475,221.638 L 741.138,223.493 L 744.800,225.347 L 748.463,227.201 L 752.125,229.056 L 755.788,230.911 L 759.450,232.765 L 763.113,234.620 L 766.775,236.475 L 770.438,238.330 L 774.100,240.185 L 777.763,242.041 L 781.425,243.896 L 785.088,245.751 L 788.750,247.607 " style="stroke:#000000;stroke-opacity:1.00;stroke-width:1;stroke-linejoin:round;fill:none"/>
	<path d="M 56.250,63.980 L 59.912,64.599 L 63.575,65.217 L 67.237,65.835 L 70.900,66.454 L 74.563,67.072 L 78.225,67.691 L 81.888,68.309 L 85.550,68.927 L 89.213,69.545 L 92.875,70.164 L 96.538,70.782 L 100.200,71.400 L 103.863,72.018 L 107.525,72.636 L 111.188,73.254 L 114.850,73.872 L 118.513,74.489 L 122.175,75.107 L 125.838,75.725 L 129.500,76.342 L 133.163,76.960 L 136.825,77.577 L 140.488,78.194 L 144.150,78.811 L 147.813,79.428 L 151.475,80.045 L 155.138,80.661 L 158.800,81.277 L 162.463,81.893 L 166.125,82.509 L 169.788,83.125 L 173.450,83.740 L 177.113,84.354 L 180.775,84.969 L 184.438,85.583 L 188.100,86.196 L 191.763,86.809 L 195.425,87.422 L 199.088,88.034 L 202.750,88.645 L 206.413,89.255 L 210.075,89.865 L 213.738,90.474 L 217.400,91.082 L 221.063,91.688 L 224.725,92.294 L 228.388,92.898 L 232.050,93.501 L 235.713,94.102 L 239.375,94.702 L 243.038,95.299 L 246.700,95.895 L 250.363,96.489 L 254.025,97.080 L 257.688,97.668 L 261.350,98.254 L 265.013,98.836 L 268.675,99.415 L 272.338,99.991 L 276.000,100.562 L 279.663,101.129 L 283.325,101.692 L 286.988,102.249 L 290.650,102.801 L 294.313,103.346 L 297.975,103.886 L 301.638,104.418 L 305.300,104.943 L 308.963,105.461 L 312.625,105.970 L 316.288,106.470 L 319.950,106.960 L 323.613,107.441 L 327.275,107.911 L 330.938,108.370 L 334.600,108.817 L 338.263,109.253 L 341.925,109.675 L 345.588,110.085 L 349.250,110.481 L 352.913,110.864 L 356.575,111.232 L 360.238,111.586 L 363.900,111.925 L 367.563,112.249 L 371.225,112.559 L 374.888,112.854 L 378.550,113.134 L 382.213,113.400 L 385.875,113.651 L 389.538,113.888 L 393.200,114.111 L 396.863,114.321 L 400.525,114.517 L 404.188,114.702 L 407.850,114.873 L 411.513,115.034 L 415.175,115.183 L 418.838,115.321 L 422.500,115.450 L 426.163,115.569 L 429.825,115.679 L 433.488,115.781 L 437.150,115.875 L 440.813,115.961 L 444.475,116.041 L 448.138,116.114 L 451.800,116.181 L 455.463,116.243 L 459.125,116.300 L 462.788,116.351 L 466.450,116.399 L 470.113,116.442 L 473.775,116.482 L 477.438,116.518 L 481.100,116.551 L 484.763,116.582 L 488.425,116.609 L 492.088,116.635 L 495.750,116.658 L 499.413,116.679 L 503.075,116.698 L 506.738,116.715 L 510.400,116.731 L 514.063,116.745 L 517.725,116.759 L 521.388,116.771 L 525.050,116.782 L 528.713,116.791 L 532.375,116.801 L 536.038,116.809 L 539.700,116.816 L 543.363,116.823 L 547.025,116.829 L 550.688,116.835 L 554.350,116.840 L 558.013,116.845 L 561.675,116.849 L 565.338,116.853 L 569.000,116.856 L 572.663,116.859 L 576.325,116.862 L 579.988,116.865 L 583.650,116.867 L 587.313,116.869 L 590.975,116.871 L 594.638,116.873 L 598.300,116.875 L 601.963,116.876 L 605.625,116.878 L 609.288,116.879 L 612.950,116.880 L 616.613,116.881 L 620.275,116.882 L 623.938,116.883 L 627.600,116.884 L 631.263,116.884 L 634.925,116.885 L 638.588,116.885 L 642.250,116.886 L 645.913,116.886 L 649.575,116.887 L 653.238,116.887 L 656.900,116.888 L 660.563,116.888 L 664.225,116.888 L 667.888,116.888 L 671.550,116.889 L 675.213,116.889 L 678.875,116.889 L 682.538,116.889 L 686.200,116.889 L 689.863,116.890 L 693.525,116.890 L 697.188,116.890 L 700.850,116.890 L 704.513,116.890 L 708.175,116.890 L 711.838,116.890 L 715.500,116.890 L 719.163,116.890 L 722.825,116.890 L 726.488,116.891 L 730.150,116.891 L 733.813,116.891 L 737.475,116.891 L 741.138,116.891 L 744.800,116.891 L 748.463,116.891 L 752.125,116.891 L 755.788,116.891 L 759.450,116.891 L 763.113,116.891 L 766.775,116.891 L 770.438,116.891 L 774.100,116.891 L 777.763,116.891 L 781.425,116.891 L 785.088,116.891 L 788.750,116.891 " style="stroke:#0000ff;stroke-opacity:1.00;stroke-width:1;stroke-linejoin:round;fill:none"/>
	<path d="M 56.250,54.294 L 59.912,54.294 L 63.575,54.294 L 67.237,54.294 L 70.900,54.294 L 74.563,54.294 L 78.225,54.294 L 81.888,54.295 L 85.550,54.295 L 89.213,54.295 L 92.875,54.295 L 96.538,54.295 L 100.200,54.295 L 103.863,54.295 L 107.525,54.296 L 111.188,54.296 L 114.850,54.296 L 118.513,54.296 L 122.175,54.297 L 125.838,54.297 L 129.500,54.298 L 133.163,54.298 L 136.825,54.298 L 140.488,54.299 L 144.150,54.300 L 147.813,54.300 L 151.475,54.301 L 155.138,54.302 L 158.800,54.302 L 162.463,54.303 L 166.125,54.304 L 169.788,54.306 L 173.450,54.307 L 177.113,54.308 L 180.775,54.310 L 184.438,54.311 L 188.100,54.313 L 191.763,54.315 L 195.425,54.317 L 199.088,54.320 L 202.750,54.322 L 206.413,54.325 L 210.075,54.328 L 213.738,54.332 L 217.400,54.336 L 221.063,54.340 L 224.725,54.345 L 228.388,54.350 L 232.050,54.356 L 235.713,54.362 L 239.375,54.369 L 243.038,54.376 L 246.700,54.385 L 250.363,54.394 L 254.025,54.404 L 257.688,54.415 L 261.350,54.427 L 265.013,54.440 L 268.675,54.455 L 272.338,54.471 L 276.000,54.489 L 279.663,54.509 L 283.325,54.530 L 286.988,54.554 L 290.650,54.579 L 294.313,54.608 L 297.975,54.639 L 301.638,54.673 L 305.300,54.711 L 308.963,54.752 L 312.625,54.797 L 316.288,54.846 L 319.950,54.901 L 323.613,54.960 L 327.275,55.025 L 330.938,55.096 L 334.600,55.174 L 338.263,55.259 L 341.925,55.352 L 345.588,55.453 L 349.250,55.564 L 352.913,55.685 L 356.575,55.816 L 360.238,55.960 L 363.900,56.115 L 367.563,56.284 L 371.225,56.468 L 374.888,56.667 L 378.550,56.882 L 382.213,57.115 L 385.875,57.367 L 389.538,57.639 L 393.200,57.931 L 396.863,58.246 L 400.525,58.584 L 404.188,58.947 L 407.850,59.335 L 411.513,59.751 L 415.175,60.194 L 418.838,60.667 L 422.500,61.169 L 426.163,61.704 L 429.825,62.270 L 433.488,62.870 L 437.150,63.504 L 440.813,64.173 L 444.475,64.878 L 448.138,65.619 L 451.800,66.398 L 455.463,67.214 L 459.125,68.068 L 462.788,68.960 L 466.450,69.891 L 470.113,70.861 L 473.775,71.869 L 477.438,72.916 L 481.100,74.001 L 484.763,75.123 L 488.425,76.283 L 492.088,77.480 L 495.750,78.713 L 499.413,79.982 L 503.075,81.284 L 506.738,82.620 L 510.400,83.988 L 514.063,85.387 L 517.725,86.816 L 521.388,88.273 L 525.050,89.758 L 528.713,91.269 L 532.375,92.804 L 536.038,94.363 L 539.700,95.944 L 543.363,97.546 L 547.025,99.167 L 550.688,100.806 L 554.350,102.462 L 558.013,104.134 L 561.675,105.821 L 565.338,107.522 L 569.000,109.236 L 572.663,110.961 L 576.325,112.697 L 579.988,114.443 L 583.650,116.199 L 587.313,117.963 L 590.975,119.735 L 594.638,121.515 L 598.300,123.301 L 601.963,125.093 L 605.625,126.890 L 609.288,128.693 L 612.950,130.501 L 616.613,132.312 L 620.275,134.128 L 623.938,135.947 L 627.600,137.770 L 631.263,139.595 L 634.925,141.423 L 638.588,143.254 L 642.250,145.087 L 645.913,146.922 L 649.575,148.759 L 653.238,150.597 L 656.900,152.437 L 660.563,154.279 L 664.225,156.122 L 667.888,157.966 L 671.550,159.811 L 675.213,161.657 L 678.875,163.504 L 682.538,165.352 L 686.200,167.200 L 689.863,169.050 L 693.525,170.899 L 697.188,172.750 L 700.850,174.601 L 704.513,176.452 L 708.175,178.304 L 711.838,180.156 L 715.500,182.008 L 719.163,183.861 L 722.825,185.714 L 726.488,187.567 L 730.150,189.421 L 733.813,191.275 L 737.475,193.128 L 741.138,194.983 L 744.800,196.837 L 748.463,198.691 L 752.125,200.546 L 755.788,202.400 L 759.450,204.255 L 763.113,206.110 L 766.775,207.965 L 770.438,209.820 L 774.100,211.675 L 777.763,213.530 L 781.425,215.386 L 785.088,217.241 L 788.750,219.096 " style="stroke:#00ff00;stroke-opacity:1.00;stroke-width:1;stroke-linejoin:round;fill:none"/>
	<text x="781.25" y="262.50" style="stroke:none;fill:#000000;fill-opacity:1.00;fill-rule:evenodd;font-size:15.0px;text-anchor:end">ω [rad/s] </text>
	<text x="63.75" y="24.75" style="stroke:none;fill:#000000;fill-opacity:1.00;fill-rule:evenodd;font-size:15.0px">Amplitude [dB]</text>
	<path d="M 56.250,270.000 L 788.750,270.000 L 788.750,7.500 L 56.250,7.500 Z" style="stroke:#000000;stroke-opacity:1.00;stroke-width:2;stroke-linejoin:round;fill:none"/>
	<text x="105.00" y="215.00" style="stroke:none;fill:#000000;fill-opacity:1.00;fill-rule:evenodd;font-size:15.0px">G</text>
	<path d="M 67.500,210.000 L 97.500,210.000 " style="stroke:#00ff00;stroke-opacity:1.00;stroke-width:1;stroke-linejoin:round;fill:none"/>
	<text x="105.00" y="237.50" style="stroke:none;fill:#000000;fill-opacity:1.00;fill-rule:evenodd;font-size:15.0px">K, kₚ=0.11, Tᵢ=2.0</text>
	<path d="M 67.500,232.500 L 97.500,232.500 " style="stroke:#0000ff;stroke-opacity:1.00;stroke-width:1;stroke-linejoin:round;fill:none"/>
	<text x="105.00" y="260.00" style="stroke:none;fill:#000000;fill-opacity:1.00;fill-rule:evenodd;font-size:15.0px">G₀, Φᵣ=59.6°, ωₛ=1.01 rad/s</text>
	<path d="M 67.500,255.000 L 97.500,255.000 " style="stroke:#000000;stroke-opacity:1.00;stroke-width:1;stroke-linejoin:round;fill:none"/>
	<path d="M 62.279,573.750 L 62.279,570.000 " style="stroke:#000000;stroke-opacity:1.00;stroke-width:1;stroke-linejoin:round;fill:none"/>
	<path d="M 62.279,570.000 L 62.279,307.500 " style="stroke:#bebebe;stroke-opacity:1.00;stroke-width:1;stroke-linejoin:round;stroke-dasharray:5.00,5.00;fill:none"/>
	<text x="70.34" y="594.75" style="stroke:none;fill:#000000;fill-opacity:1.00;fill-rule:evenodd;font-size:15.0px;text-anchor:middle">0.01</text>
	<path d="M 70.337,577.500 L 70.337,570.000 " style="stroke:#000000;stroke-opacity:1.00;stroke-width:2;stroke-linejoin:round;fill:none"/>
	<path d="M 70.337,570.000 L 70.337,307.500 " style="stroke:#bebebe;stroke-opacity:1.00;stroke-width:1;stroke-linejoin:round;stroke-dasharray:5.00,5.00;fill:none"/>
	<path d="M 123.342,573.750 L 123.342,570.000 " style="stroke:#000000;stroke-opacity:1.00;stroke-width:1;stroke-linejoin:round;fill:none"/>
	<path d="M 123.342,570.000 L 123.342,307.500 " style="stroke:#bebebe;stroke-opacity:1.00;stroke-width:1;stroke-linejoin:round;stroke-dasharray:5.00,5.00;fill:none"/>
	<path d="M 154.349,573.750 L 154.349,570.000 " style="stroke:#000000;stroke-opacity:1.00;stroke-width:1;stroke-linejoin:round;fill:none"/>
	<path d="M 154.349,570.000 L 154.349,307.500 " style="stroke:#bebebe;stroke-opacity:1.00;stroke-width:1;stroke-linejoin:round;stroke-dasharray:5.00,5.00;fill:none"/>
	<path d="M 176.348,573.750 L 176.348,570.000 " style="stroke:#000000;stroke-opacity:1.00;stroke-width:1;stroke-linejoin:round;fill:none"/>
	<path d="M 176.348,570.000 L 176.348,307.500 " style="stroke:#bebebe;stroke-opacity:1.00;stroke-width:1;stroke-linejoin:round;stroke-dasharray:5.00,5.00;fill:none"/>
	<path d="M 193.412,573.750 L 193.412,570.000 " style="stroke:#000000;stroke-opacity:1.00;stroke-width:1;stroke-linejoin:round;fill:none"/>
	<path d="M 193.412,570.000 L 193.412,307.500 " style="stroke:#bebebe;stroke-opacity:1.00;stroke-width:1;stroke-linejoin:round;stroke-dasharray:5.00,5.00;fill:none"/>
	<path d="M 207.355,573.750 L 207.355,570.000 " style="stroke:#000000;stroke-opacity:1.00;stroke-width:1;stroke-linejoin:round;fill:none"/>
	<path d="M 207.355,570.000 L 207.355,307.500 " style="stroke:#bebebe;stroke-opacity:1.00;stroke-width:1;stroke-linejoin:round;stroke-dasharray:5.00,5.00;fill:none"/>
	<path d="M 219.143,573.750 L 219.143,570.000 " style="stroke:#000000;stroke-opacity:1.00;stroke-width:1;stroke-linejoin:round;fill:none"/>
	<path d="M 219.143,570.000 L 219.143,307.500 " style="stroke:#bebebe;stroke-opacity:1.00;stroke-width:1;stroke-linejoin:round;stroke-dasharray:5.00,5.00;fill:none"/>
	<path d="M 229.354,573.750 L 229.354,570.000 " style="stroke:#000000;stroke-opacity:1.00;stroke-width:1;stroke-linejoin:round;fill:none"/>
	<path d="M 229.354,570.000 L 229.354,307.500 " style="stroke:#bebebe;stroke-opacity:1.00;stroke-width:1;stroke-linejoin:round;stroke-dasharray:5.00,5.00;fill:none"/>
	<path d="M 238.361,573.750 L 238.361,570.000 " style="stroke:#000000;stroke-opacity:1.00;stroke-width:1;stroke-linejoin:round;fill:none"/>
	<path d="M 238.361,570.000 L 238.361,307.500 " style="stroke:#bebebe;stroke-opacity:1.00;stroke-width:1;stroke-linejoin:round;stroke-dasharray:5.00,5.00;fill:none"/>
	<text x="246.42" y="594.75" style="stroke:none;fill:#000000;fill-opacity:1.00;fill-rule:evenodd;font-size:15.0px;text-anchor:middle">0.1</text>
	<path d="M 246.418,577.500 L 246.418,570.000 " style="stroke:#000000;stroke-opacity:1.00;stroke-width:2;stroke-linejoin:round;fill:none"/>
	<path d="M 246.418,570.000 L 246.418,307.500 " style="stroke:#bebebe;stroke-opacity:1.00;stroke-width:1;stroke-linejoin:round;stroke-dasharray:5.00,5.00;fill:none"/>
	<path d="M 299.424,573.750 L 299.424,570.000 " style="stroke:#000000;stroke-opacity:1.00;stroke-width:1;stroke-linejoin:round;fill:none"/>
	<path d="M 299.424,570.000 L 299.424,307.500 " style="stroke:#bebebe;stroke-opacity:1.00;stroke-width:1;stroke-linejoin:round;stroke-dasharray:5.00,5.00;fill:none"/>
	<path d="M 330.431,573.750 L 330.431,570.000 " style="stroke:#000000;stroke-opacity:1.00;stroke-width:1;stroke-linejoin:round;fill:none"/>
	<path d="M 330.431,570.000 L 330.431,307.500 " style="stroke:#bebebe;stroke-opacity:1.00;stroke-width:1;stroke-linejoin:round;stroke-dasharray:5.00,5.00;fill:none"/>
	<path d="M 352.430,573.750 L 352.430,570.000 " style="stroke:#000000;stroke-opacity:1.00;stroke-width:1;stroke-linejoin:round;fill:none"/>
	<path d="M 352.430,570.000 L 352.430,307.500 " style="stroke:#bebebe;stroke-opacity:1.00;stroke-width:1;stroke-linejoin:round;stroke-dasharray:5.00,5.00;fill:none"/>
	<path d="M 369.494,573.750 L 369.494,570.000 " style="stroke:#000000;stroke-opacity:1.00;stroke-width:1;stroke-linejoin:round;fill:none"/>
	<path d="M 369.494,570.000 L 369.494,307.500 " style="stroke:#bebebe;stroke-opacity:1.00;stroke-width:1;stroke-linejoin:round;stroke-dasharray:5.00,5.00;fill:none"/>
	<path d="M 383.436,573.750 L 383.436,570.000 " style="stroke:#000000;stroke-opacity:1.00;stroke-width:1;stroke-linejoin:round;fill:none"/>
	<path d="M 383.436,570.000 L 383.436,307.500 " style="stroke:#bebebe;stroke-opacity:1.00;stroke-width:1;stroke-linejoin:round;stroke-dasharray:5.00,5.00;fill:none"/>
	<path d="M 395.225,573.750 L 395.225,570.000 " style="stroke:#000000;stroke-opacity:1.00;stroke-width:1;stroke-linejoin:round;fill:none"/>
	<path d="M 395.225,570.000 L 395.225,307.500 " style="stroke:#bebebe;stroke-opacity:1.00;stroke-width:1;stroke-linejoin:round;stroke-dasharray:5.00,5.00;fill:none"/>
	<path d="M 405.436,573.750 L 405.436,570.000 " style="stroke:#000000;stroke-opacity:1.00;stroke-width:1;stroke-linejoin:round;fill:none"/>
	<path d="M 405.436,570.000 L 405.436,307.500 " style="stroke:#bebebe;stroke-opacity:1.00;stroke-width:1;stroke-linejoin:round;stroke-dasharray:5.00,5.00;fill:none"/>
	<path d="M 414.443,573.750 L 414.443,570.000 " style="stroke:#000000;stroke-opacity:1.00;stroke-width:1;stroke-linejoin:round;fill:none"/>
	<path d="M 414.443,570.000 L 414.443,307.500 " style="stroke:#bebebe;stroke-opacity:1.00;stroke-width:1;stroke-linejoin:round;stroke-dasharray:5.00,5.00;fill:none"/>
	<text x="422.50" y="594.75" style="stroke:none;fill:#000000;fill-opacity:1.00;fill-rule:evenodd;font-size:15.0px;text-anchor:middle">1</text>
	<path d="M 422.500,577.500 L 422.500,570.000 " style="stroke:#000000;stroke-opacity:1.00;stroke-width:2;stroke-linejoin:round;fill:none"/>
	<path d="M 422.500,570.000 L 422.500,307.500 " style="stroke:#bebebe;stroke-opacity:1.00;stroke-width:1;stroke-linejoin:round;stroke-dasharray:5.00,5.00;fill:none"/>
	<path d="M 475.506,573.750 L 475.506,570.000 " style="stroke:#000000;stroke-opacity:1.00;stroke-width:1;stroke-linejoin:round;fill:none"/>
	<path d="M 475.506,570.000 L 475.506,307.500 " style="stroke:#bebebe;stroke-opacity:1.00;stroke-width:1;stroke-linejoin:round;stroke-dasharray:5.00,5.00;fill:none"/>
	<path d="M 506.512,573.750 L 506.512,570.000 " style="stroke:#000000;stroke-opacity:1.00;stroke-width:1;stroke-linejoin:round;fill:none"/>
	<path d="M 506.512,570.000 L 506.512,307.500 " style="stroke:#bebebe;stroke-opacity:1.00;stroke-width:1;stroke-linejoin:round;stroke-dasharray:5.00,5.00;fill:none"/>
	<path d="M 528.512,573.750 L 528.512,570.000 " style="stroke:#000000;stroke-opacity:1.00;stroke-width:1;stroke-linejoin:round;fill:none"/>
	<path d="M 528.512,570.000 L 528.512,307.500 " style="stroke:#bebebe;stroke-opacity:1.00;stroke-width:1;stroke-linejoin:round;stroke-dasharray:5.00,5.00;fill:none"/>
	<path d="M 545.576,573.750 L 545.576,570.000 " style="stroke:#000000;stroke-opacity:1.00;stroke-width:1;stroke-linejoin:round;fill:none"/>
	<path d="M 545.576,570.000 L 545.576,307.500 " style="stroke:#bebebe;stroke-opacity:1.00;stroke-width:1;stroke-linejoin:round;stroke-dasharray:5.00,5.00;fill:none"/>
	<path d="M 559.518,573.750 L 559.518,570.000 " style="stroke:#000000;stroke-opacity:1.00;stroke-width:1;stroke-linejoin:round;fill:none"/>
	<path d="M 559.518,570.000 L 559.518,307.500 " style="stroke:#bebebe;stroke-opacity:1.00;stroke-width:1;stroke-linejoin:round;stroke-dasharray:5.00,5.00;fill:none"/>
	<path d="M 571.306,573.750 L 571.306,570.000 " style="stroke:#000000;stroke-opacity:1.00;stroke-width:1;stroke-linejoin:round;fill:none"/>
	<path d="M 571.306,570.000 L 571.306,307.500 " style="stroke:#bebebe;stroke-opacity:1.00;stroke-width:1;stroke-linejoin:round;stroke-dasharray:5.00,5.00;fill:none"/>
	<path d="M 581.518,573.750 L 581.518,570.000 " style="stroke:#000000;stroke-opacity:1.00;stroke-width:1;stroke-linejoin:round;fill:none"/>
	<path d="M 581.518,570.000 L 581.518,307.500 " style="stroke:#bebebe;stroke-opacity:1.00;stroke-width:1;stroke-linejoin:round;stroke-dasharray:5.00,5.00;fill:none"/>
	<path d="M 590.525,573.750 L 590.525,570.000 " style="stroke:#000000;stroke-opacity:1.00;stroke-width:1;stroke-linejoin:round;fill:none"/>
	<path d="M 590.525,570.000 L 590.525,307.500 " style="stroke:#bebebe;stroke-opacity:1.00;stroke-width:1;stroke-linejoin:round;stroke-dasharray:5.00,5.00;fill:none"/>
	<text x="598.58" y="594.75" style="stroke:none;fill:#000000;fill-opacity:1.00;fill-rule:evenodd;font-size:15.0px;text-anchor:middle">10</text>
	<path d="M 598.582,577.500 L 598.582,570.000 " style="stroke:#000000;stroke-opacity:1.00;stroke-width:2;stroke-linejoin:round;fill:none"/>
	<path d="M 598.582,570.000 L 598.582,307.500 " style="stroke:#bebebe;stroke-opacity:1.00;stroke-width:1;stroke-linejoin:round;stroke-dasharray:5.00,5.00;fill:none"/>
	<path d="M 651.588,573.750 L 651.588,570.000 " style="stroke:#000000;stroke-opacity:1.00;stroke-width:1;stroke-linejoin:round;fill:none"/>
	<path d="M 651.588,570.000 L 651.588,307.500 " style="stroke:#bebebe;stroke-opacity:1.00;stroke-width:1;stroke-linejoin:round;stroke-dasharray:5.00,5.00;fill:none"/>
	<path d="M 682.594,573.750 L 682.594,570.000 " style="stroke:#000000;stroke-opacity:1.00;stroke-width:1;stroke-linejoin:round;fill:none"/>
	<path d="M 682.594,570.000 L 682.594,307.500 " style="stroke:#bebebe;stroke-opacity:1.00;stroke-width:1;stroke-linejoin:round;stroke-dasharray:5.00,5.00;fill:none"/>
	<path d="M 704.593,573.750 L 704.593,570.000 " style="stroke:#000000;stroke-opacity:1.00;stroke-width:1;stroke-linejoin:round;fill:none"/>
	<path d="M 704.593,570.000 L 704.593,307.500 " style="stroke:#bebebe;stroke-opacity:1.00;stroke-width:1;stroke-linejoin:round;stroke-dasharray:5.00,5.00;fill:none"/>
	<path d="M 721.658,573.750 L 721.658,570.000 " style="stroke:#000000;stroke-opacity:1.00;stroke-width:1;stroke-linejoin:round;fill:none"/>
	<path d="M 721.658,570.000 L 721.658,307.500 " style="stroke:#bebebe;stroke-opacity:1.00;stroke-width:1;stroke-linejoin:round;stroke-dasharray:5.00,5.00;fill:none"/>
	<path d="M 735.600,573.750 L 735.600,570.000 " style="stroke:#000000;stroke-opacity:1.00;stroke-width:1;stroke-linejoin:round;fill:none"/>
	<path d="M 735.600,570.000 L 735.600,307.500 " style="stroke:#bebebe;stroke-opacity:1.00;stroke-width:1;stroke-linejoin:round;stroke-dasharray:5.00,5.00;fill:none"/>
	<path d="M 747.388,573.750 L 747.388,570.000 " style="stroke:#000000;stroke-opacity:1.00;stroke-width:1;stroke-linejoin:round;fill:none"/>
	<path d="M 747.388,570.000 L 747.388,307.500 " style="stroke:#bebebe;stroke-opacity:1.00;stroke-width:1;stroke-linejoin:round;stroke-dasharray:5.00,5.00;fill:none"/>
	<path d="M 757.599,573.750 L 757.599,570.000 " style="stroke:#000000;stroke-opacity:1.00;stroke-width:1;stroke-linejoin:round;fill:none"/>
	<path d="M 757.599,570.000 L 757.599,307.500 " style="stroke:#bebebe;stroke-opacity:1.00;stroke-width:1;stroke-linejoin:round;stroke-dasharray:5.00,5.00;fill:none"/>
	<path d="M 766.606,573.750 L 766.606,570.000 " style="stroke:#000000;stroke-opacity:1.00;stroke-width:1;stroke-linejoin:round;fill:none"/>
	<path d="M 766.606,570.000 L 766.606,307.500 " style="stroke:#bebebe;stroke-opacity:1.00;stroke-width:1;stroke-linejoin:round;stroke-dasharray:5.00,5.00;fill:none"/>
	<text x="774.66" y="594.75" style="stroke:none;fill:#000000;fill-opacity:1.00;fill-rule:evenodd;font-size:15.0px;text-anchor:middle">100</text>
	<path d="M 774.663,577.500 L 774.663,570.000 " style="stroke:#000000;stroke-opacity:1.00;stroke-width:2;stroke-linejoin:round;fill:none"/>
	<path d="M 774.663,570.000 L 774.663,307.500 " style="stroke:#bebebe;stroke-opacity:1.00;stroke-width:1;stroke-linejoin:round;stroke-dasharray:5.00,5.00;fill:none"/>
	<text x="45.00" y="554.55" style="stroke:none;fill:#000000;fill-opacity:1.00;fill-rule:evenodd;font-size:15.0px;text-anchor:end">-270</text>
	<path d="M 48.750,549.547 L 56.250,549.547 " style="stroke:#000000;stroke-opacity:1.00;stroke-width:2;stroke-linejoin:round;fill:none"/>
	<path d="M 56.250,549.547 L 788.750,549.547 " style="stroke:#bebebe;stroke-opacity:1.00;stroke-width:1;stroke-linejoin:round;stroke-dasharray:5.00,5.00;fill:none"/>
	<text x="45.00" y="517.91" style="stroke:none;fill:#000000;fill-opacity:1.00;fill-rule:evenodd;font-size:15.0px;text-anchor:end">-225</text>
	<path d="M 48.750,512.905 L 56.250,512.905 " style="stroke:#000000;stroke-opacity:1.00;stroke-width:2;stroke-linejoin:round;fill:none"/>
	<path d="M 56.250,512.905 L 788.750,512.905 " style="stroke:#bebebe;stroke-opacity:1.00;stroke-width:1;stroke-linejoin:round;stroke-dasharray:5.00,5.00;fill:none"/>
	<text x="45.00" y="481.26" style="stroke:none;fill:#000000;fill-opacity:1.00;fill-rule:evenodd;font-size:15.0px;text-anchor:end">-180</text>
	<path d="M 48.750,476.264 L 56.250,476.264 " style="stroke:#000000;stroke-opacity:1.00;stroke-width:2;stroke-linejoin:round;fill:none"/>
	<path d="M 56.250,476.264 L 788.750,476.264 " style="stroke:#bebebe;stroke-opacity:1.00;stroke-width:1;stroke-linejoin:round;stroke-dasharray:5.00,5.00;fill:none"/>
	<text x="45.00" y="444.62" style="stroke:none;fill:#000000;fill-opacity:1.00;fill-rule:evenodd;font-size:15.0px;text-anchor:end">-135</text>
	<path d="M 48.750,439.623 L 56.250,439.623 " style="stroke:#000000;stroke-opacity:1.00;stroke-width:2;stroke-linejoin:round;fill:none"/>
	<path d="M 56.250,439.623 L 788.750,439.623 " style="stroke:#bebebe;stroke-opacity:1.00;stroke-width:1;stroke-linejoin:round;stroke-dasharray:5.00,5.00;fill:none"/>
	<text x="45.00" y="407.98" style="stroke:none;fill:#000000;fill-opacity:1.00;fill-rule:evenodd;font-size:15.0px;text-anchor:end">-90</text>
	<path d="M 48.750,402.982 L 56.250,402.982 " style="stroke:#000000;stroke-opacity:1.00;stroke-width:2;stroke-linejoin:round;fill:none"/>
	<path d="M 56.250,402.982 L 788.750,402.982 " style="stroke:#bebebe;stroke-opacity:1.00;stroke-width:1;stroke-linejoin:round;stroke-dasharray:5.00,5.00;fill:none"/>
	<text x="45.00" y="371.34" style="stroke:none;fill:#000000;fill-opacity:1.00;fill-rule:evenodd;font-size:15.0px;text-anchor:end">-45</text>
	<path d="M 48.750,366.341 L 56.250,366.341 " style="stroke:#000000;stroke-opacity:1.00;stroke-width:2;stroke-linejoin:round;fill:none"/>
	<path d="M 56.250,366.341 L 788.750,366.341 " style="stroke:#bebebe;stroke-opacity:1.00;stroke-width:1;stroke-linejoin:round;stroke-dasharray:5.00,5.00;fill:none"/>
	<text x="45.00" y="334.70" style="stroke:none;fill:#000000;fill-opacity:1.00;fill-rule:evenodd;font-size:15.0px;text-anchor:end">0</text>
	<path d="M 48.750,329.699 L 56.250,329.699 " style="stroke:#000000;stroke-opacity:1.00;stroke-width:2;stroke-linejoin:round;fill:none"/>
	<path d="M 56.250,329.699 L 788.750,329.699 " style="stroke:#bebebe;stroke-opacity:1.00;stroke-width:1;stroke-linejoin:round;stroke-dasharray:5.00,5.00;fill:none"/>
	<path d="M 56.250,419.267 L 788.750,419.267 " style="stroke:#ff0000;stroke-opacity:1.00;stroke-width:1;stroke-linejoin:round;stroke-dasharray:5.00,5.00;fill:none"/>
	<path d="M 56.250,435.552 L 788.750,435.552 " style="stroke:#ff0000;stroke-opacity:1.00;stroke-width:1;stroke-linejoin:round;stroke-dasharray:5.00,5.00;fill:none"/>
	<path d="M 423.307,570.000 L 423.307,307.500 " style="stroke:#ff0000;stroke-opacity:1.00;stroke-width:1;stroke-linejoin:round;stroke-dasharray:5.00,5.00;fill:none"/>
	<path d="M 56.250,402.943 L 59.912,402.941 L 63.575,402.939 L 67.237,402.937 L 70.900,402.935 L 74.563,402.933 L 78.225,402.930 L 81.888,402.928 L 85.550,402.925 L 89.213,402.922 L 92.875,402.919 L 96.538,402.916 L 100.200,402.913 L 103.863,402.910 L 107.525,402.906 L 111.188,402.903 L 114.850,402.899 L 118.513,402.895 L 122.175,402.891 L 125.838,402.886 L 129.500,402.882 L 133.163,402.877 L 136.825,402.872 L 140.488,402.867 L 144.150,402.861 L 147.813,402.855 L 151.475,402.850 L 155.138,402.843 L 158.800,402.837 L 162.463,402.830 L 166.125,402.823 L 169.788,402.816 L 173.450,402.808 L 177.113,402.800 L 180.775,402.792 L 184.438,402.784 L 188.100,402.775 L 191.763,402.766 L 195.425,402.757 L 199.088,402.747 L 202.750,402.737 L 206.413,402.727 L 210.075,402.717 L 213.738,402.707 L 217.400,402.696 L 221.063,402.686 L 224.725,402.675 L 228.388,402.665 L 232.050,402.654 L 235.713,402.644 L 239.375,402.635 L 243.038,402.626 L 246.700,402.618 L 250.363,402.611 L 254.025,402.605 L 257.688,402.600 L 261.350,402.598 L 265.013,402.597 L 268.675,402.599 L 272.338,402.605 L 276.000,402.614 L 279.663,402.628 L 283.325,402.646 L 286.988,402.671 L 290.650,402.703 L 294.313,402.742 L 297.975,402.791 L 301.638,402.850 L 305.300,402.922 L 308.963,403.007 L 312.625,403.107 L 316.288,403.225 L 319.950,403.362 L 323.613,403.521 L 327.275,403.705 L 330.938,403.916 L 334.600,404.157 L 338.263,404.431 L 341.925,404.742 L 345.588,405.092 L 349.250,405.486 L 352.913,405.927 L 356.575,406.418 L 360.238,406.964 L 363.900,407.567 L 367.563,408.232 L 371.225,408.963 L 374.888,409.761 L 378.550,410.632 L 382.213,411.577 L 385.875,412.599 L 389.538,413.700 L 393.200,414.883 L 396.863,416.148 L 400.525,417.497 L 404.188,418.931 L 407.850,420.449 L 411.513,422.051 L 415.175,423.737 L 418.838,425.505 L 422.500,427.353 L 426.163,429.280 L 429.825,431.281 L 433.488,433.355 L 437.150,435.498 L 440.813,437.705 L 444.475,439.973 L 448.138,442.297 L 451.800,444.671 L 455.463,447.092 L 459.125,449.553 L 462.788,452.048 L 466.450,454.573 L 470.113,457.120 L 473.775,459.684 L 477.438,462.259 L 481.100,464.839 L 484.763,467.418 L 488.425,469.989 L 492.088,472.548 L 495.750,475.088 L 499.413,477.605 L 503.075,480.093 L 506.738,482.547 L 510.400,484.963 L 514.063,487.337 L 517.725,489.665 L 521.388,491.945 L 525.050,494.172 L 528.713,496.346 L 532.375,498.463 L 536.038,500.522 L 539.700,502.522 L 543.363,504.462 L 547.025,506.341 L 550.688,508.159 L 554.350,509.916 L 558.013,511.612 L 561.675,513.248 L 565.338,514.824 L 569.000,516.341 L 572.663,517.801 L 576.325,519.203 L 579.988,520.551 L 583.650,521.844 L 587.313,523.085 L 590.975,524.275 L 594.638,525.415 L 598.300,526.507 L 601.963,527.553 L 605.625,528.554 L 609.288,529.512 L 612.950,530.428 L 616.613,531.304 L 620.275,532.141 L 623.938,532.942 L 627.600,533.706 L 631.263,534.437 L 634.925,535.134 L 638.588,535.801 L 642.250,536.437 L 645.913,537.044 L 649.575,537.623 L 653.238,538.177 L 656.900,538.705 L 660.563,539.208 L 664.225,539.689 L 667.888,540.147 L 671.550,540.585 L 675.213,541.002 L 678.875,541.400 L 682.538,541.779 L 686.200,542.141 L 689.863,542.487 L 693.525,542.816 L 697.188,543.130 L 700.850,543.429 L 704.513,543.715 L 708.175,543.987 L 711.838,544.247 L 715.500,544.494 L 719.163,544.730 L 722.825,544.955 L 726.488,545.169 L 730.150,545.374 L 733.813,545.569 L 737.475,545.755 L 741.138,545.932 L 744.800,546.101 L 748.463,546.262 L 752.125,546.415 L 755.788,546.562 L 759.450,546.701 L 763.113,546.834 L 766.775,546.961 L 770.438,547.082 L 774.100,547.197 L 777.763,547.307 L 781.425,547.412 L 785.088,547.511 L 788.750,547.607 " style="stroke:#000000;stroke-opacity:1.00;stroke-width:1;stroke-linejoin:round;fill:none"/>
	<path d="M 56.250,402.206 L 59.912,402.168 L 63.575,402.128 L 67.237,402.086 L 70.900,402.042 L 74.563,401.996 L 78.225,401.947 L 81.888,401.897 L 85.550,401.844 L 89.213,401.788 L 92.875,401.729 L 96.538,401.668 L 100.200,401.603 L 103.863,401.536 L 107.525,401.465 L 111.188,401.391 L 114.850,401.313 L 118.513,401.231 L 122.175,401.145 L 125.838,401.055 L 129.500,400.960 L 133.163,400.861 L 136.825,400.758 L 140.488,400.649 L 144.150,400.534 L 147.813,400.415 L 151.475,400.289 L 155.138,400.157 L 158.800,400.019 L 162.463,399.874 L 166.125,399.722 L 169.788,399.563 L 173.450,399.395 L 177.113,399.220 L 180.775,399.037 L 184.438,398.844 L 188.100,398.642 L 191.763,398.431 L 195.425,398.209 L 199.088,397.976 L 202.750,397.733 L 206.413,397.478 L 210.075,397.210 L 213.738,396.930 L 217.400,396.637 L 221.063,396.330 L 224.725,396.008 L 228.388,395.671 L 232.050,395.319 L 235.713,394.950 L 239.375,394.565 L 243.038,394.161 L 246.700,393.740 L 250.363,393.299 L 254.025,392.838 L 257.688,392.357 L 261.350,391.855 L 265.013,391.331 L 268.675,390.785 L 272.338,390.215 L 276.000,389.622 L 279.663,389.004 L 283.325,388.361 L 286.988,387.693 L 290.650,386.999 L 294.313,386.279 L 297.975,385.533 L 301.638,384.759 L 305.300,383.959 L 308.963,383.133 L 312.625,382.280 L 316.288,381.400 L 319.950,380.495 L 323.613,379.565 L 327.275,378.611 L 330.938,377.633 L 334.600,376.633 L 338.263,375.613 L 341.925,374.574 L 345.588,373.517 L 349.250,372.445 L 352.913,371.359 L 356.575,370.263 L 360.238,369.157 L 363.900,368.045 L 367.563,366.930 L 371.225,365.813 L 374.888,364.697 L 378.550,363.585 L 382.213,362.479 L 385.875,361.382 L 389.538,360.295 L 393.200,359.223 L 396.863,358.165 L 400.525,357.125 L 404.188,356.103 L 407.850,355.102 L 411.513,354.124 L 415.175,353.168 L 418.838,352.236 L 422.500,351.330 L 426.163,350.449 L 429.825,349.594 L 433.488,348.766 L 437.150,347.965 L 440.813,347.190 L 444.475,346.442 L 448.138,345.720 L 451.800,345.025 L 455.463,344.356 L 459.125,343.712 L 462.788,343.093 L 466.450,342.498 L 470.113,341.927 L 473.775,341.379 L 477.438,340.854 L 481.100,340.351 L 484.763,339.869 L 488.425,339.407 L 492.088,338.965 L 495.750,338.542 L 499.413,338.138 L 503.075,337.751 L 506.738,337.382 L 510.400,337.029 L 514.063,336.691 L 517.725,336.369 L 521.388,336.061 L 525.050,335.767 L 528.713,335.486 L 532.375,335.218 L 536.038,334.962 L 539.700,334.718 L 543.363,334.485 L 547.025,334.262 L 550.688,334.050 L 554.350,333.848 L 558.013,333.655 L 561.675,333.471 L 565.338,333.295 L 569.000,333.128 L 572.663,332.968 L 576.325,332.815 L 579.988,332.670 L 583.650,332.531 L 587.313,332.399 L 590.975,332.273 L 594.638,332.153 L 598.300,332.039 L 601.963,331.929 L 605.625,331.825 L 609.288,331.726 L 612.950,331.631 L 616.613,331.541 L 620.275,331.455 L 623.938,331.373 L 627.600,331.295 L 631.263,331.220 L 634.925,331.149 L 638.588,331.081 L 642.250,331.017 L 645.913,330.955 L 649.575,330.897 L 653.238,330.841 L 656.900,330.787 L 660.563,330.736 L 664.225,330.688 L 667.888,330.642 L 671.550,330.598 L 675.213,330.556 L 678.875,330.516 L 682.538,330.477 L 686.200,330.441 L 689.863,330.406 L 693.525,330.373 L 697.188,330.342 L 700.850,330.312 L 704.513,330.283 L 708.175,330.256 L 711.838,330.230 L 715.500,330.205 L 719.163,330.181 L 722.825,330.159 L 726.488,330.137 L 730.150,330.117 L 733.813,330.097 L 737.475,330.079 L 741.138,330.061 L 744.800,330.044 L 748.463,330.028 L 752.125,330.013 L 755.788,329.998 L 759.450,329.984 L 763.113,329.971 L 766.775,329.958 L 770.438,329.946 L 774.100,329.934 L 777.763,329.923 L 781.425,329.913 L 785.088,329.903 L 788.750,329.893 " style="stroke:#0000ff;stroke-opacity:1.00;stroke-width:1;stroke-linejoin:round;fill:none"/>
	<path d="M 56.250,330.437 L 59.912,330.473 L 63.575,330.511 L 67.237,330.551 L 70.900,330.592 L 74.563,330.636 L 78.225,330.682 L 81.888,330.730 L 85.550,330.781 L 89.213,330.834 L 92.875,330.890 L 96.538,330.948 L 100.200,331.009 L 103.863,331.073 L 107.525,331.141 L 111.188,331.212 L 114.850,331.286 L 118.513,331.364 L 122.175,331.445 L 125.838,331.531 L 129.500,331.621 L 133.163,331.715 L 136.825,331.814 L 140.488,331.917 L 144.150,332.026 L 147.813,332.140 L 151.475,332.260 L 155.138,332.386 L 158.800,332.517 L 162.463,332.656 L 166.125,332.800 L 169.788,332.953 L 173.450,333.112 L 177.113,333.279 L 180.775,333.455 L 184.438,333.639 L 188.100,333.832 L 191.763,334.035 L 195.425,334.247 L 199.088,334.470 L 202.750,334.704 L 206.413,334.949 L 210.075,335.206 L 213.738,335.476 L 217.400,335.758 L 221.063,336.055 L 224.725,336.366 L 228.388,336.692 L 232.050,337.035 L 235.713,337.393 L 239.375,337.770 L 243.038,338.164 L 246.700,338.578 L 250.363,339.011 L 254.025,339.466 L 257.688,339.942 L 261.350,340.442 L 265.013,340.965 L 268.675,341.514 L 272.338,342.089 L 276.000,342.692 L 279.663,343.323 L 283.325,343.984 L 286.988,344.677 L 290.650,345.403 L 294.313,346.162 L 297.975,346.958 L 301.638,347.790 L 305.300,348.662 L 308.963,349.573 L 312.625,350.527 L 316.288,351.524 L 319.950,352.566 L 323.613,353.656 L 327.275,354.794 L 330.938,355.982 L 334.600,357.223 L 338.263,358.517 L 341.925,359.867 L 345.588,361.274 L 349.250,362.740 L 352.913,364.267 L 356.575,365.855 L 360.238,367.506 L 363.900,369.221 L 367.563,371.002 L 371.225,372.849 L 374.888,374.764 L 378.550,376.747 L 382.213,378.797 L 385.875,380.916 L 389.538,383.104 L 393.200,385.359 L 396.863,387.682 L 400.525,390.072 L 404.188,392.527 L 407.850,395.046 L 411.513,397.627 L 415.175,400.269 L 418.838,402.968 L 422.500,405.723 L 426.163,408.530 L 429.825,411.386 L 433.488,414.288 L 437.150,417.232 L 440.813,420.214 L 444.475,423.230 L 448.138,426.276 L 451.800,429.346 L 455.463,432.436 L 459.125,435.540 L 462.788,438.655 L 466.450,441.774 L 470.113,444.892 L 473.775,448.004 L 477.438,451.104 L 481.100,454.188 L 484.763,457.249 L 488.425,460.282 L 492.088,463.282 L 495.750,466.245 L 499.413,469.166 L 503.075,472.041 L 506.738,474.864 L 510.400,477.634 L 514.063,480.345 L 517.725,482.996 L 521.388,485.583 L 525.050,488.105 L 528.713,490.559 L 532.375,492.945 L 536.038,495.260 L 539.700,497.504 L 543.363,499.677 L 547.025,501.778 L 550.688,503.808 L 554.350,505.767 L 558.013,507.657 L 561.675,509.476 L 565.338,511.228 L 569.000,512.913 L 572.663,514.532 L 576.325,516.087 L 579.988,517.580 L 583.650,519.012 L 587.313,520.385 L 590.975,521.701 L 594.638,522.961 L 598.300,524.168 L 601.963,525.323 L 605.625,526.428 L 609.288,527.485 L 612.950,528.496 L 616.613,529.462 L 620.275,530.386 L 623.938,531.268 L 627.600,532.111 L 631.263,532.916 L 634.925,533.685 L 638.588,534.418 L 642.250,535.119 L 645.913,535.788 L 649.575,536.426 L 653.238,537.035 L 656.900,537.617 L 660.563,538.171 L 664.225,538.700 L 667.888,539.205 L 671.550,539.686 L 675.213,540.146 L 678.875,540.584 L 682.538,541.001 L 686.200,541.400 L 689.863,541.780 L 693.525,542.142 L 697.188,542.487 L 700.850,542.817 L 704.513,543.131 L 708.175,543.431 L 711.838,543.716 L 715.500,543.988 L 719.163,544.248 L 722.825,544.495 L 726.488,544.731 L 730.150,544.956 L 733.813,545.171 L 737.475,545.375 L 741.138,545.570 L 744.800,545.756 L 748.463,545.933 L 752.125,546.102 L 755.788,546.263 L 759.450,546.417 L 763.113,546.563 L 766.775,546.702 L 770.438,546.835 L 774.100,546.962 L 777.763,547.083 L 781.425,547.198 L 785.088,547.308 L 788.750,547.413 " style="stroke:#00ff00;stroke-opacity:1.00;stroke-width:1;stroke-linejoin:round;fill:none"/>
	<text x="781.25" y="562.50" style="stroke:none;fill:#000000;fill-opacity:1.00;fill-rule:evenodd;font-size:15.0px;text-anchor:end">ω [rad/s] </text>
	<text x="63.75" y="324.75" style="stroke:none;fill:#000000;fill-opacity:1.00;fill-rule:evenodd;font-size:15.0px">Phase [°] </text>
	<path d="M 56.250,570.000 L 788.750,570.000 L 788.750,307.500 L 56.250,307.500 Z" style="stroke:#000000;stroke-opacity:1.00;stroke-width:2;stroke-linejoin:round;fill:none"/>
</svg>
