<?xml version="1.0" encoding="utf-8"?>
<svg class="svg" xmlns:svg="http://www.w3.org/2000/svg" xmlns="http://www.w3.org/2000/svg" width="800" height="600" viewBox="0 0 800 600">
	<path d="M 62.279,273.750 L 62.279,270.000 " style="stroke:#000000;stroke-opacity:1.00;stroke-width:1;stroke-linejoin:round;fill:none"/>
	<path d="M 62.279,270.000 L 62.279,7.500 " style="stroke:#bebebe;stroke-opacity:1.00;stroke-width:1;stroke-linejoin:round;stroke-dasharray:5.00,5.00;fill:none"/>
	<text x="70.34" y="294.75" style="stroke:none;fill:#000000;fill-opacity:1.00;fill-rule:evenodd;font-size:15.0px;text-anchor:middle">0.01</text>
	<path d="M 70.337,277.500 L 70.337,270.000 " style="stroke:#000000;stroke-opacity:1.00;stroke-width:2;stroke-linejoin:round;fill:none"/>
	<path d="M 70.337,270.000 L 70.337,7.500 " style="stroke:#bebebe;stroke-opacity:1.00;stroke-width:1;stroke-linejoin:round;stroke-dasharray:5.00,5.00;fill:none"/>
	<path d="M 123.342,273.750 L 123.342,270.000 " style="stroke:#000000;stroke-opacity:1.00;stroke-width:1;stroke-linejoin:round;fill:none"/>
	<path d="M 123.342,270.000 L 123.342,7.500 " style="stroke:#bebebe;stroke-opacity:1.00;stroke-width:1;stroke-linejoin:round;stroke-dasharray:5.00,5.00;fill:none"/>
	<path d="M 154.349,273.750 L 154.349,270.000 " style="stroke:#000000;stroke-opacity:1.00;stroke-width:1;stroke-linejoin:round;fill:none"/>
	<path d="M 154.349,270.000 L 154.349,7.500 " style="stroke:#bebebe;stroke-opacity:1.00;stroke-width:1;stroke-linejoin:round;stroke-dasharray:5.00,5.00;fill:none"/>
	<path d="M 176.348,273.750 L 176.348,270.000 " style="stroke:#000000;stroke-opacity:1.00;stroke-width:1;stroke-linejoin:round;fill:none"/>
	<path d="M 176.348,270.000 L 176.348,7.500 " style="stroke:#bebebe;stroke-opacity:1.00;stroke-width:1;stroke-linejoin:round;stroke-dasharray:5.00,5.00;fill:none"/>
	<path d="M 193.412,273.750 L 193.412,270.000 " style="stroke:#000000;stroke-opacity:1.00;stroke-width:1;stroke-linejoin:round;fill:none"/>
	<path d="M 193.412,270.000 L 193.412,7.500 " style="stroke:#bebebe;stroke-opacity:1.00;stroke-width:1;stroke-linejoin:round;stroke-dasharray:5.00,5.00;fill:none"/>
	<path d="M 207.355,273.750 L 207.355,270.000 " style="stroke:#000000;stroke-opacity:1.00;stroke-width:1;stroke-linejoin:round;fill:none"/>
	<path d="M 207.355,270.000 L 207.355,7.500 " style="stroke:#bebebe;stroke-opacity:1.00;stroke-width:1;stroke-linejoin:round;stroke-dasharray:5.00,5.00;fill:none"/>
	<path d="M 219.143,273.750 L 219.143,270.000 " style="stroke:#000000;stroke-opacity:1.00;stroke-width:1;stroke-linejoin:round;fill:none"/>
	<path d="M 219.143,270.000 L 219.143,7.500 " style="stroke:#bebebe;stroke-opacity:1.00;stroke-width:1;stroke-linejoin:round;stroke-dasharray:5.00,5.00;fill:none"/>
	<path d="M 229.354,273.750 L 229.354,270.000 " style="stroke:#000000;stroke-opacity:1.00;stroke-width:1;stroke-linejoin:round;fill:none"/>
	<path d="M 229.354,270.000 L 229.354,7.500 " style="stroke:#bebebe;stroke-opacity:1.00;stroke-width:1;stroke-linejoin:round;stroke-dasharray:5.00,5.00;fill:none"/>
	<path d="M 238.361,273.750 L 238.361,270.000 " style="stroke:#000000;stroke-opacity:1.00;stroke-width:1;stroke-linejoin:round;fill:none"/>
	<path d="M 238.361,270.000 L 238.361,7.500 " style="stroke:#bebebe;stroke-opacity:1.00;stroke-width:1;stroke-linejoin:round;stroke-dasharray:5.00,5.00;fill:none"/>
	<text x="246.42" y="294.75" style="stroke:none;fill:#000000;fill-opacity:1.00;fill-rule:evenodd;font-size:15.0px;text-anchor:middle">0.1</text>
	<path d="M 246.418,277.500 L 246.418,270.000 " style="stroke:#000000;stroke-opacity:1.00;stroke-width:2;stroke-linejoin:round;fill:none"/>
	<path d="M 246.418,270.000 L 246.418,7.500 " style="stroke:#bebebe;stroke-opacity:1.00;stroke-width:1;stroke-linejoin:round;stroke-dasharray:5.00,5.00;fill:none"/>
	<path d="M 299.424,273.750 L 299.424,270.000 " style="stroke:#000000;stroke-opacity:1.00;stroke-width:1;stroke-linejoin:round;fill:none"/>
	<path d="M 299.424,270.000 L 299.424,7.500 " style="stroke:#bebebe;stroke-opacity:1.00;stroke-width:1;stroke-linejoin:round;stroke-dasharray:5.00,5.00;fill:none"/>
	<path d="M 330.431,273.750 L 330.431,270.000 " style="stroke:#000000;stroke-opacity:1.00;stroke-width:1;stroke-linejoin:round;fill:none"/>
	<path d="M 330.431,270.000 L 330.431,7.500 " style="stroke:#bebebe;stroke-opacity:1.00;stroke-width:1;stroke-linejoin:round;stroke-dasharray:5.00,5.00;fill:none"/>
	<path d="M 352.430,273.750 L 352.430,270.000 " style="stroke:#000000;stroke-opacity:1.00;stroke-width:1;stroke-linejoin:round;fill:none"/>
	<path d="M 352.430,270.000 L 352.430,7.500 " style="stroke:#bebebe;stroke-opacity:1.00;stroke-width:1;stroke-linejoin:round;stroke-dasharray:5.00,5.00;fill:none"/>
	<path d="M 369.494,273.750 L 369.494,270.000 " style="stroke:#000000;stroke-opacity:1.00;stroke-width:1;stroke-linejoin:round;fill:none"/>
	<path d="M 369.494,270.000 L 369.494,7.500 " style="stroke:#bebebe;stroke-opacity:1.00;stroke-width:1;stroke-linejoin:round;stroke-dasharray:5.00,5.00;fill:none"/>
	<path d="M 383.436,273.750 L 383.436,270.000 " style="stroke:#000000;stroke-opacity:1.00;stroke-width:1;stroke-linejoin:round;fill:none"/>
	<path d="M 383.436,270.000 L 383.436,7.500 " style="stroke:#bebebe;stroke-opacity:1.00;stroke-width:1;stroke-linejoin:round;stroke-dasharray:5.00,5.00;fill:none"/>
	<path d="M 395.225,273.750 L 395.225,270.000 " style="stroke:#000000;stroke-opacity:1.00;stroke-width:1;stroke-linejoin:round;fill:none"/>
	<path d="M 395.225,270.000 L 395.225,7.500 " style="stroke:#bebebe;stroke-opacity:1.00;stroke-width:1;stroke-linejoin:round;stroke-dasharray:5.00,5.00;fill:none"/>
	<path d="M 405.436,273.750 L 405.436,270.000 " style="stroke:#000000;stroke-opacity:1.00;stroke-width:1;stroke-linejoin:round;fill:none"/>
	<path d="M 405.436,270.000 L 405.436,7.500 " style="stroke:#bebebe;stroke-opacity:1.00;stroke-width:1;stroke-linejoin:round;stroke-dasharray:5.00,5.00;fill:none"/>
	<path d="M 414.443,273.750 L 414.443,270.000 " style="stroke:#000000;stroke-opacity:1.00;stroke-width:1;stroke-linejoin:round;fill:none"/>
	<path d="M 414.443,270.000 L 414.443,7.500 " style="stroke:#bebebe;stroke-opacity:1.00;stroke-width:1;stroke-linejoin:round;stroke-dasharray:5.00,5.00;fill:none"/>
	<text x="422.50" y="294.75" style="stroke:none;fill:#000000;fill-opacity:1.00;fill-rule:evenodd;font-size:15.0px;text-anchor:middle">1</text>
	<path d="M 422.500,277.500 L 422.500,270.000 " style="stroke:#000000;stroke-opacity:1.00;stroke-width:2;stroke-linejoin:round;fill:none"/>
	<path d="M 422.500,270.000 L 422.500,7.500 " style="stroke:#bebebe;stroke-opacity:1.00;stroke-width:1;stroke-linejoin:round;stroke-dasharray:5.00,5.00;fill:none"/>
	<path d="M 475.506,273.750 L 475.506,270.000 " style="stroke:#000000;stroke-opacity:1.00;stroke-width:1;stroke-linejoin:round;fill:none"/>
	<path d="M 475.506,270.000 L 475.506,7.500 " style="stroke:#bebebe;stroke-opacity:1.00;stroke-width:1;stroke-linejoin:round;stroke-dasharray:5.00,5.00;fill:none"/>
	<path d="M 506.512,273.750 L 506.512,270.000 " style="stroke:#000000;stroke-opacity:1.00;stroke-width:1;stroke-linejoin:round;fill:none"/>
	<path d="M 506.512,270.000 L 506.512,7.500 " style="stroke:#bebebe;stroke-opacity:1.00;stroke-width:1;stroke-linejoin:round;stroke-dasharray:5.00,5.00;fill:none"/>
	<path d="M 528.512,273.750 L 528.512,270.000 " style="stroke:#000000;stroke-opacity:1.00;stroke-width:1;stroke-linejoin:round;fill:none"/>
	<path d="M 528.512,270.000 L 528.512,7.500 " style="stroke:#bebebe;stroke-opacity:1.00;stroke-width:1;stroke-linejoin:round;stroke-dasharray:5.00,5.00;fill:none"/>
	<path d="M 545.576,273.750 L 545.576,270.000 " style="stroke:#000000;stroke-opacity:1.00;stroke-width:1;stroke-linejoin:round;fill:none"/>
	<path d="M 545.576,270.000 L 545.576,7.500 " style="stroke:#bebebe;stroke-opacity:1.00;stroke-width:1;stroke-linejoin:round;stroke-dasharray:5.00,5.00;fill:none"/>
	<path d="M 559.518,273.750 L 559.518,270.000 " style="stroke:#000000;stroke-opacity:1.00;stroke-width:1;stroke-linejoin:round;fill:none"/>
	<path d="M 559.518,270.000 L 559.518,7.500 " style="stroke:#bebebe;stroke-opacity:1.00;stroke-width:1;stroke-linejoin:round;stroke-dasharray:5.00,5.00;fill:none"/>
	<path d="M 571.306,273.750 L 571.306,270.000 " style="stroke:#000000;stroke-opacity:1.00;stroke-width:1;stroke-linejoin:round;fill:none"/>
	<path d="M 571.306,270.000 L 571.306,7.500 " style="stroke:#bebebe;stroke-opacity:1.00;stroke-width:1;stroke-linejoin:round;stroke-dasharray:5.00,5.00;fill:none"/>
	<path d="M 581.518,273.750 L 581.518,270.000 " style="stroke:#000000;stroke-opacity:1.00;stroke-width:1;stroke-linejoin:round;fill:none"/>
	<path d="M 581.518,270.000 L 581.518,7.500 " style="stroke:#bebebe;stroke-opacity:1.00;stroke-width:1;stroke-linejoin:round;stroke-dasharray:5.00,5.00;fill:none"/>
	<path d="M 590.525,273.750 L 590.525,270.000 " style="stroke:#000000;stroke-opacity:1.00;stroke-width:1;stroke-linejoin:round;fill:none"/>
	<path d="M 590.525,270.000 L 590.525,7.500 " style="stroke:#bebebe;stroke-opacity:1.00;stroke-width:1;stroke-linejoin:round;stroke-dasharray:5.00,5.00;fill:none"/>
	<text x="598.58" y="294.75" style="stroke:none;fill:#000000;fill-opacity:1.00;fill-rule:evenodd;font-size:15.0px;text-anchor:middle">10</text>
	<path d="M 598.582,277.500 L 598.582,270.000 " style="stroke:#000000;stroke-opacity:1.00;stroke-width:2;stroke-linejoin:round;fill:none"/>
	<path d="M 598.582,270.000 L 598.582,7.500 " style="stroke:#bebebe;stroke-opacity:1.00;stroke-width:1;stroke-linejoin:round;stroke-dasharray:5.00,5.00;fill:none"/>
	<path d="M 651.588,273.750 L 651.588,270.000 " style="stroke:#000000;stroke-opacity:1.00;stroke-width:1;stroke-linejoin:round;fill:none"/>
	<path d="M 651.588,270.000 L 651.588,7.500 " style="stroke:#bebebe;stroke-opacity:1.00;stroke-width:1;stroke-linejoin:round;stroke-dasharray:5.00,5.00;fill:none"/>
	<path d="M 682.594,273.750 L 682.594,270.000 " style="stroke:#000000;stroke-opacity:1.00;stroke-width:1;stroke-linejoin:round;fill:none"/>
	<path d="M 682.594,270.000 L 682.594,7.500 " style="stroke:#bebebe;stroke-opacity:1.00;stroke-width:1;stroke-linejoin:round;stroke-dasharray:5.00,5.00;fill:none"/>
	<path d="M 704.593,273.750 L 704.593,270.000 " style="stroke:#000000;stroke-opacity:1.00;stroke-width:1;stroke-linejoin:round;fill:none"/>
	<path d="M 704.593,270.000 L 704.593,7.500 " style="stroke:#bebebe;stroke-opacity:1.00;stroke-width:1;stroke-linejoin:round;stroke-dasharray:5.00,5.00;fill:none"/>
	<path d="M 721.658,273.750 L 721.658,270.000 " style="stroke:#000000;stroke-opacity:1.00;stroke-width:1;stroke-linejoin:round;fill:none"/>
	<path d="M 721.658,270.000 L 721.658,7.500 " style="stroke:#bebebe;stroke-opacity:1.00;stroke-width:1;stroke-linejoin:round;stroke-dasharray:5.00,5.00;fill:none"/>
	<path d="M 735.600,273.750 L 735.600,270.000 " style="stroke:#000000;stroke-opacity:1.00;stroke-width:1;stroke-linejoin:round;fill:none"/>
	<path d="M 735.600,270.000 L 735.600,7.500 " style="stroke:#bebebe;stroke-opacity:1.00;stroke-width:1;stroke-linejoin:round;stroke-dasharray:5.00,5.00;fill:none"/>
	<path d="M 747.388,273.750 L 747.388,270.000 " style="stroke:#000000;stroke-opacity:1.00;stroke-width:1;stroke-linejoin:round;fill:none"/>
	<path d="M 747.388,270.000 L 747.388,7.500 " style="stroke:#bebebe;stroke-opacity:1.00;stroke-width:1;stroke-linejoin:round;stroke-dasharray:5.00,5.00;fill:none"/>
	<path d="M 757.599,273.750 L 757.599,270.000 " style="stroke:#000000;stroke-opacity:1.00;stroke-width:1;stroke-linejoin:round;fill:none"/>
	<path d="M 757.599,270.000 L 757.599,7.500 " style="stroke:#bebebe;stroke-opacity:1.00;stroke-width:1;stroke-linejoin:round;stroke-dasharray:5.00,5.00;fill:none"/>
	<path d="M 766.606,273.750 L 766.606,270.000 " style="stroke:#000000;stroke-opacity:1.00;stroke-width:1;stroke-linejoin:round;fill:none"/>
	<path d="M 766.606,270.000 L 766.606,7.500 " style="stroke:#bebebe;stroke-opacity:1.00;stroke-width:1;stroke-linejoin:round;stroke-dasharray:5.00,5.00;fill:none"/>
	<text x="774.66" y="294.75" style="stroke:none;fill:#000000;fill-opacity:1.00;fill-rule:evenodd;font-size:15.0px;text-anchor:middle">100</text>
	<path d="M 774.663,277.500 L 774.663,270.000 " style="stroke:#000000;stroke-opacity:1.00;stroke-width:2;stroke-linejoin:round;fill:none"/>
	<path d="M 774.663,270.000 L 774.663,7.500 " style="stroke:#bebebe;stroke-opacity:1.00;stroke-width:1;stroke-linejoin:round;stroke-dasharray:5.00,5.00;fill:none"/>
	<path d="M 52.500,241.928 L 56.250,241.928 " style="stroke:#000000;stroke-opacity:1.00;stroke-width:1;stroke-linejoin:round;fill:none"/>
	<path d="M 56.250,241.928 L 788.750,241.928 " style="stroke:#bebebe;stroke-opacity:1.00;stroke-width:1;stroke-linejoin:round;stroke-dasharray:5.00,5.00;fill:none"/>
	<text x="45.00" y="217.19" style="stroke:none;fill:#000000;fill-opacity:1.00;fill-rule:evenodd;font-size:15.0px;text-anchor:end">-80</text>
	<path d="M 48.750,212.186 L 56.250,212.186 " style="stroke:#000000;stroke-opacity:1.00;stroke-width:2;stroke-linejoin:round;fill:none"/>
	<path d="M 56.250,212.186 L 788.750,212.186 " style="stroke:#bebebe;stroke-opacity:1.00;stroke-width:1;stroke-linejoin:round;stroke-dasharray:5.00,5.00;fill:none"/>
	<path d="M 52.500,182.445 L 56.250,182.445 " style="stroke:#000000;stroke-opacity:1.00;stroke-width:1;stroke-linejoin:round;fill:none"/>
	<path d="M 56.250,182.445 L 788.750,182.445 " style="stroke:#bebebe;stroke-opacity:1.00;stroke-width:1;stroke-linejoin:round;stroke-dasharray:5.00,5.00;fill:none"/>
	<text x="45.00" y="157.70" style="stroke:none;fill:#000000;fill-opacity:1.00;fill-rule:evenodd;font-size:15.0px;text-anchor:end">-40</text>
	<path d="M 48.750,152.703 L 56.250,152.703 " style="stroke:#000000;stroke-opacity:1.00;stroke-width:2;stroke-linejoin:round;fill:none"/>
	<path d="M 56.250,152.703 L 788.750,152.703 " style="stroke:#bebebe;stroke-opacity:1.00;stroke-width:1;stroke-linejoin:round;stroke-dasharray:5.00,5.00;fill:none"/>
	<path d="M 52.500,122.962 L 56.250,122.962 " style="stroke:#000000;stroke-opacity:1.00;stroke-width:1;stroke-linejoin:round;fill:none"/>
	<path d="M 56.250,122.962 L 788.750,122.962 " style="stroke:#bebebe;stroke-opacity:1.00;stroke-width:1;stroke-linejoin:round;stroke-dasharray:5.00,5.00;fill:none"/>
	<text x="45.00" y="98.22" style="stroke:none;fill:#000000;fill-opacity:1.00;fill-rule:evenodd;font-size:15.0px;text-anchor:end">0</text>
	<path d="M 48.750,93.220 L 56.250,93.220 " style="stroke:#000000;stroke-opacity:1.00;stroke-width:2;stroke-linejoin:round;fill:none"/>
	<path d="M 56.250,93.220 L 788.750,93.220 " style="stroke:#bebebe;stroke-opacity:1.00;stroke-width:1;stroke-linejoin:round;stroke-dasharray:5.00,5.00;fill:none"/>
	<path d="M 52.500,63.479 L 56.250,63.479 " style="stroke:#000000;stroke-opacity:1.00;stroke-width:1;stroke-linejoin:round;fill:none"/>
	<path d="M 56.250,63.479 L 788.750,63.479 " style="stroke:#bebebe;stroke-opacity:1.00;stroke-width:1;stroke-linejoin:round;stroke-dasharray:5.00,5.00;fill:none"/>
	<text x="45.00" y="38.74" style="stroke:none;fill:#000000;fill-opacity:1.00;fill-rule:evenodd;font-size:15.0px;text-anchor:end">40</text>
	<path d="M 48.750,33.738 L 56.250,33.738 " style="stroke:#000000;stroke-opacity:1.00;stroke-width:2;stroke-linejoin:round;fill:none"/>
	<path d="M 56.250,33.738 L 788.750,33.738 " style="stroke:#bebebe;stroke-opacity:1.00;stroke-width:1;stroke-linejoin:round;stroke-dasharray:5.00,5.00;fill:none"/>
	<path d="M 56.250,59.134 L 59.912,59.134 L 63.575,59.134 L 67.237,59.134 L 70.900,59.134 L 74.563,59.134 L 78.225,59.134 L 81.888,59.134 L 85.550,59.134 L 89.213,59.135 L 92.875,59.135 L 96.538,59.135 L 100.200,59.135 L 103.863,59.135 L 107.525,59.135 L 111.188,59.136 L 114.850,59.136 L 118.513,59.136 L 122.175,59.137 L 125.838,59.137 L 129.500,59.137 L 133.163,59.138 L 136.825,59.138 L 140.488,59.139 L 144.150,59.139 L 147.813,59.140 L 151.475,59.141 L 155.138,59.141 L 158.800,59.142 L 162.463,59.143 L 166.125,59.144 L 169.788,59.145 L 173.450,59.147 L 177.113,59.148 L 180.775,59.149 L 184.438,59.151 L 188.100,59.153 L 191.763,59.155 L 195.425,59.157 L 199.088,59.159 L 202.750,59.162 L 206.413,59.165 L 210.075,59.168 L 213.738,59.172 L 217.400,59.176 L 221.063,59.180 L 224.725,59.185 L 228.388,59.190 L 232.050,59.195 L 235.713,59.202 L 239.375,59.209 L 243.038,59.216 L 246.700,59.224 L 250.363,59.234 L 254.025,59.244 L 257.688,59.255 L 261.350,59.267 L 265.013,59.280 L 268.675,59.295 L 272.338,59.311 L 276.000,59.329 L 279.663,59.348 L 283.325,59.370 L 286.988,59.393 L 290.650,59.419 L 294.313,59.447 L 297.975,59.479 L 301.638,59.513 L 305.300,59.550 L 308.963,59.591 L 312.625,59.637 L 316.288,59.686 L 319.950,59.740 L 323.613,59.800 L 327.275,59.865 L 330.938,59.936 L 334.600,60.014 L 338.263,60.099 L 341.925,60.192 L 345.588,60.293 L 349.250,60.404 L 352.913,60.525 L 356.575,60.656 L 360.238,60.799 L 363.900,60.955 L 367.563,61.124 L 371.225,61.308 L 374.888,61.507 L 378.550,61.722 L 382.213,61.955 L 385.875,62.207 L 389.538,62.478 L 393.200,62.771 L 396.863,63.086 L 400.525,63.424 L 404.188,63.787 L 407.850,64.175 L 411.513,64.590 L 415.175,65.034 L 418.838,65.506 L 422.500,66.009 L 426.163,66.543 L 429.825,67.110 L 433.488,67.710 L 437.150,68.344 L 440.813,69.013 L 444.475,69.718 L 448.138,70.459 L 451.800,71.238 L 455.463,72.054 L 459.125,72.908 L 462.788,73.800 L 466.450,74.731 L 470.113,75.701 L 473.775,76.709 L 477.438,77.755 L 481.100,78.840 L 484.763,79.963 L 488.425,81.123 L 492.088,82.320 L 495.750,83.553 L 499.413,84.821 L 503.075,86.124 L 506.738,87.460 L 510.400,88.828 L 514.063,90.227 L 517.725,91.656 L 521.388,93.113 L 525.050,94.598 L 528.713,96.109 L 532.375,97.644 L 536.038,99.203 L 539.700,100.784 L 543.363,102.385 L 547.025,104.006 L 550.688,105.646 L 554.350,107.302 L 558.013,108.974 L 561.675,110.661 L 565.338,112.362 L 569.000,114.075 L 572.663,115.801 L 576.325,117.537 L 579.988,119.283 L 583.650,121.039 L 587.313,122.803 L 590.975,124.575 L 594.638,126.354 L 598.300,128.140 L 601.963,129.932 L 605.625,131.730 L 609.288,133.533 L 612.950,135.340 L 616.613,137.152 L 620.275,138.968 L 623.938,140.787 L 627.600,142.609 L 631.263,144.435 L 634.925,146.263 L 638.588,148.094 L 642.250,149.927 L 645.913,151.762 L 649.575,153.598 L 653.238,155.437 L 656.900,157.277 L 660.563,159.119 L 664.225,160.962 L 667.888,162.806 L 671.550,164.651 L 675.213,166.497 L 678.875,168.344 L 682.538,170.192 L 686.200,172.040 L 689.863,173.889 L 693.525,175.739 L 697.188,177.590 L 700.850,179.440 L 704.513,181.292 L 708.175,183.143 L 711.838,184.995 L 715.500,186.848 L 719.163,188.701 L 722.825,190.554 L 726.488,192.407 L 730.150,194.261 L 733.813,196.114 L 737.475,197.968 L 741.138,199.822 L 744.800,201.677 L 748.463,203.531 L 752.125,205.386 L 755.788,207.240 L 759.450,209.095 L 763.113,210.950 L 766.775,212.805 L 770.438,214.660 L 774.100,216.515 L 777.763,218.370 L 781.425,220.225 L 785.088,222.081 L 788.750,223.936 " style="stroke:#00ff00;stroke-opacity:1.00;stroke-width:1;stroke-linejoin:round;fill:none"/>
	<path d="M 56.250,63.980 L 59.912,64.599 L 63.575,65.217 L 67.237,65.835 L 70.900,66.454 L 74.563,67.072 L 78.225,67.691 L 81.888,68.309 L 85.550,68.927 L 89.213,69.545 L 92.875,70.164 L 96.538,70.782 L 100.200,71.400 L 103.863,72.018 L 107.525,72.636 L 111.188,73.254 L 114.850,73.872 L 118.513,74.489 L 122.175,75.107 L 125.838,75.725 L 129.500,76.342 L 133.163,76.960 L 136.825,77.577 L 140.488,78.194 L 144.150,78.811 L 147.813,79.428 L 151.475,80.045 L 155.138,80.661 L 158.800,81.277 L 162.463,81.893 L 166.125,82.509 L 169.788,83.125 L 173.450,83.740 L 177.113,84.354 L 180.775,84.969 L 184.438,85.583 L 188.100,86.196 L 191.763,86.809 L 195.425,87.422 L 199.088,88.034 L 202.750,88.645 L 206.413,89.255 L 210.075,89.865 L 213.738,90.474 L 217.400,91.082 L 221.063,91.688 L 224.725,92.294 L 228.388,92.898 L 232.050,93.501 L 235.713,94.102 L 239.375,94.702 L 243.038,95.299 L 246.700,95.895 L 250.363,96.489 L 254.025,97.080 L 257.688,97.668 L 261.350,98.254 L 265.013,98.836 L 268.675,99.415 L 272.338,99.991 L 276.000,100.562 L 279.663,101.129 L 283.325,101.692 L 286.988,102.249 L 290.650,102.801 L 294.313,103.346 L 297.975,103.886 L 301.638,104.418 L 305.300,104.943 L 308.963,105.461 L 312.625,105.970 L 316.288,106.470 L 319.950,106.960 L 323.613,107.441 L 327.275,107.911 L 330.938,108.370 L 334.600,108.817 L 338.263,109.253 L 341.925,109.675 L 345.588,110.085 L 349.250,110.481 L 352.913,110.864 L 356.575,111.232 L 360.238,111.586 L 363.900,111.925 L 367.563,112.249 L 371.225,112.559 L 374.888,112.854 L 378.550,113.134 L 382.213,113.400 L 385.875,113.651 L 389.538,113.888 L 393.200,114.111 L 396.863,114.321 L 400.525,114.517 L 404.188,114.702 L 407.850,114.873 L 411.513,115.034 L 415.175,115.183 L 418.838,115.321 L 422.500,115.450 L 426.163,115.569 L 429.825,115.679 L 433.488,115.781 L 437.150,115.875 L 440.813,115.961 L 444.475,116.041 L 448.138,116.114 L 451.800,116.181 L 455.463,116.243 L 459.125,116.300 L 462.788,116.351 L 466.450,116.399 L 470.113,116.442 L 473.775,116.482 L 477.438,116.518 L 481.100,116.551 L 484.763,116.582 L 488.425,116.609 L 492.088,116.635 L 495.750,116.658 L 499.413,116.679 L 503.075,116.698 L 506.738,116.715 L 510.400,116.731 L 514.063,116.745 L 517.725,116.759 L 521.388,116.771 L 525.050,116.782 L 528.713,116.791 L 532.375,116.801 L 536.038,116.809 L 539.700,116.816 L 543.363,116.823 L 547.025,116.829 L 550.688,116.835 L 554.350,116.840 L 558.013,116.845 L 561.675,116.849 L 565.338,116.853 L 569.000,116.856 L 572.663,116.859 L 576.325,116.862 L 579.988,116.865 L 583.650,116.867 L 587.313,116.869 L 590.975,116.871 L 594.638,116.873 L 598.300,116.875 L 601.963,116.876 L 605.625,116.878 L 609.288,116.879 L 612.950,116.880 L 616.613,116.881 L 620.275,116.882 L 623.938,116.883 L 627.600,116.884 L 631.263,116.884 L 634.925,116.885 L 638.588,116.885 L 642.250,116.886 L 645.913,116.886 L 649.575,116.887 L 653.238,116.887 L 656.900,116.888 L 660.563,116.888 L 664.225,116.888 L 667.888,116.888 L 671.550,116.889 L 675.213,116.889 L 678.875,116.889 L 682.538,116.889 L 686.200,116.889 L 689.863,116.890 L 693.525,116.890 L 697.188,116.890 L 700.850,116.890 L 704.513,116.890 L 708.175,116.890 L 711.838,116.890 L 715.500,116.890 L 719.163,116.890 L 722.825,116.890 L 726.488,116.891 L 730.150,116.891 L 733.813,116.891 L 737.475,116.891 L 741.138,116.891 L 744.800,116.891 L 748.463,116.891 L 752.125,116.891 L 755.788,116.891 L 759.450,116.891 L 763.113,116.891 L 766.775,116.891 L 770.438,116.891 L 774.100,116.891 L 777.763,116.891 L 781.425,116.891 L 785.088,116.891 L 788.750,116.891 " style="stroke:#0000ff;stroke-opacity:1.00;stroke-width:1;stroke-linejoin:round;fill:none"/>
	<path d="M 56.250,29.893 L 59.912,30.512 L 63.575,31.130 L 67.237,31.749 L 70.900,32.367 L 74.563,32.986 L 78.225,33.604 L 81.888,34.223 L 85.550,34.841 L 89.213,35.459 L 92.875,36.078 L 96.538,36.696 L 100.200,37.314 L 103.863,37.933 L 107.525,38.551 L 111.188,39.169 L 114.850,39.787 L 118.513,40.405 L 122.175,41.023 L 125.838,41.641 L 129.500,42.259 L 133.163,42.877 L 136.825,43.495 L 140.488,44.112 L 144.150,44.730 L 147.813,45.347 L 151.475,45.965 L 155.138,46.582 L 158.800,47.199 L 162.463,47.816 L 166.125,48.433 L 169.788,49.049 L 173.450,49.666 L 177.113,50.282 L 180.775,50.898 L 184.438,51.513 L 188.100,52.129 L 191.763,52.744 L 195.425,53.358 L 199.088,53.973 L 202.750,54.586 L 206.413,55.200 L 210.075,55.813 L 213.738,56.425 L 217.400,57.037 L 221.063,57.648 L 224.725,58.258 L 228.388,58.867 L 232.050,59.476 L 235.713,60.083 L 239.375,60.690 L 243.038,61.295 L 246.700,61.899 L 250.363,62.502 L 254.025,63.103 L 257.688,63.702 L 261.350,64.300 L 265.013,64.896 L 268.675,65.490 L 272.338,66.081 L 276.000,66.671 L 279.663,67.257 L 283.325,67.841 L 286.988,68.422 L 290.650,68.999 L 294.313,69.573 L 297.975,70.144 L 301.638,70.711 L 305.300,71.273 L 308.963,71.832 L 312.625,72.386 L 316.288,72.935 L 319.950,73.480 L 323.613,74.020 L 327.275,74.555 L 330.938,75.085 L 334.600,75.611 L 338.263,76.131 L 341.925,76.647 L 345.588,77.158 L 349.250,77.665 L 352.913,78.168 L 356.575,78.667 L 360.238,79.164 L 363.900,79.659 L 367.563,80.153 L 371.225,80.646 L 374.888,81.140 L 378.550,81.636 L 382.213,82.134 L 385.875,82.637 L 389.538,83.146 L 393.200,83.662 L 396.863,84.186 L 400.525,84.721 L 404.188,85.268 L 407.850,85.828 L 411.513,86.404 L 415.175,86.996 L 418.838,87.607 L 422.500,88.239 L 426.163,88.892 L 429.825,89.569 L 433.488,90.270 L 437.150,90.998 L 440.813,91.754 L 444.475,92.538 L 448.138,93.353 L 451.800,94.198 L 455.463,95.076 L 459.125,95.987 L 462.788,96.931 L 466.450,97.909 L 470.113,98.922 L 473.775,99.970 L 477.438,101.053 L 481.100,102.171 L 484.763,103.324 L 488.425,104.512 L 492.088,105.734 L 495.750,106.990 L 499.413,108.279 L 503.075,109.601 L 506.738,110.954 L 510.400,112.338 L 514.063,113.752 L 517.725,115.194 L 521.388,116.663 L 525.050,118.159 L 528.713,119.680 L 532.375,121.224 L 536.038,122.791 L 539.700,124.380 L 543.363,125.988 L 547.025,127.615 L 550.688,129.260 L 554.350,130.921 L 558.013,132.598 L 561.675,134.289 L 565.338,135.994 L 569.000,137.711 L 572.663,139.440 L 576.325,141.179 L 579.988,142.928 L 583.650,144.686 L 587.313,146.452 L 590.975,148.226 L 594.638,150.007 L 598.300,151.795 L 601.963,153.588 L 605.625,155.387 L 609.288,157.191 L 612.950,159.000 L 616.613,160.813 L 620.275,162.629 L 623.938,164.449 L 627.600,166.272 L 631.263,168.099 L 634.925,169.927 L 638.588,171.759 L 642.250,173.592 L 645.913,175.428 L 649.575,177.265 L 653.238,179.104 L 656.900,180.944 L 660.563,182.786 L 664.225,184.629 L 667.888,186.474 L 671.550,188.319 L 675.213,190.165 L 678.875,192.013 L 682.538,193.860 L 686.200,195.709 L 689.863,197.558 L 693.525,199.408 L 697.188,201.259 L 700.850,203.110 L 704.513,204.961 L 708.175,206.813 L 711.838,208.665 L 715.500,210.518 L 719.163,212.371 L 722.825,214.224 L 726.488,216.077 L 730.150,217.931 L 733.813,219.784 L 737.475,221.638 L 741.138,223.493 L 744.800,225.347 L 748.463,227.201 L 752.125,229.056 L 755.788,230.911 L 759.450,232.765 L 763.113,234.620 L 766.775,236.475 L 770.438,238.330 L 774.100,240.185 L 777.763,242.041 L 781.425,243.896 L 785.088,245.751 L 788.750,247.607 " style="stroke:#000000;stroke-opacity:1.00;stroke-width:1;stroke-linejoin:round;fill:none"/>
	<path d="M 447.552,270.000 L 447.552,7.500 " style="stroke:#ff0000;stroke-opacity:1.00;stroke-width:1;stroke-linejoin:round;stroke-dasharray:5.00,5.00;fill:none"/>
	<text x="781.25" y="262.50" style="stroke:none;fill:#000000;fill-opacity:1.00;fill-rule:evenodd;font-size:15.0px;text-anchor:end">ω [rad/s] </text>
	<text x="63.75" y="24.75" style="stroke:none;fill:#000000;fill-opacity:1.00;fill-rule:evenodd;font-size:15.0px">Amplitude [dB]</text>
	<path d="M 56.250,270.000 L 788.750,270.000 L 788.750,7.500 L 56.250,7.500 Z" style="stroke:#000000;stroke-opacity:1.00;stroke-width:2;stroke-linejoin:round;fill:none"/>
	<text x="105.00" y="215.00" style="stroke:none;fill:#000000;fill-opacity:1.00;fill-rule:evenodd;font-size:15.0px">G</text>
	<path d="M 67.500,210.000 L 97.500,210.000 " style="stroke:#00ff00;stroke-opacity:1.00;stroke-width:1;stroke-linejoin:round;fill:none"/>
	<text x="105.00" y="237.50" style="stroke:none;fill:#000000;fill-opacity:1.00;fill-rule:evenodd;font-size:15.0px">K, kₚ=0.16, Tᵢ=2.0</text>
	<path d="M 67.500,232.500 L 97.500,232.500 " style="stroke:#0000ff;stroke-opacity:1.00;stroke-width:1;stroke-linejoin:round;fill:none"/>
	<text x="105.00" y="260.00" style="stroke:none;fill:#000000;fill-opacity:1.00;fill-rule:evenodd;font-size:15.0px">G₀, Φᵣ=42.2°, ωₛ=1.39 rad/s</text>
	<path d="M 67.500,255.000 L 97.500,255.000 " style="stroke:#000000;stroke-opacity:1.00;stroke-width:1;stroke-linejoin:round;fill:none"/>
	<path d="M 62.279,573.750 L 62.279,570.000 " style="stroke:#000000;stroke-opacity:1.00;stroke-width:1;stroke-linejoin:round;fill:none"/>
	<path d="M 62.279,570.000 L 62.279,307.500 " style="stroke:#bebebe;stroke-opacity:1.00;stroke-width:1;stroke-linejoin:round;stroke-dasharray:5.00,5.00;fill:none"/>
	<text x="70.34" y="594.75" style="stroke:none;fill:#000000;fill-opacity:1.00;fill-rule:evenodd;font-size:15.0px;text-anchor:middle">0.01</text>
	<path d="M 70.337,577.500 L 70.337,570.000 " style="stroke:#000000;stroke-opacity:1.00;stroke-width:2;stroke-linejoin:round;fill:none"/>
	<path d="M 70.337,570.000 L 70.337,307.500 " style="stroke:#bebebe;stroke-opacity:1.00;stroke-width:1;stroke-linejoin:round;stroke-dasharray:5.00,5.00;fill:none"/>
	<path d="M 123.342,573.750 L 123.342,570.000 " style="stroke:#000000;stroke-opacity:1.00;stroke-width:1;stroke-linejoin:round;fill:none"/>
	<path d="M 123.342,570.000 L 123.342,307.500 " style="stroke:#bebebe;stroke-opacity:1.00;stroke-width:1;stroke-linejoin:round;stroke-dasharray:5.00,5.00;fill:none"/>
	<path d="M 154.349,573.750 L 154.349,570.000 " style="stroke:#000000;stroke-opacity:1.00;stroke-width:1;stroke-linejoin:round;fill:none"/>
	<path d="M 154.349,570.000 L 154.349,307.500 " style="stroke:#bebebe;stroke-opacity:1.00;stroke-width:1;stroke-linejoin:round;stroke-dasharray:5.00,5.00;fill:none"/>
	<path d="M 176.348,573.750 L 176.348,570.000 " style="stroke:#000000;stroke-opacity:1.00;stroke-width:1;stroke-linejoin:round;fill:none"/>
	<path d="M 176.348,570.000 L 176.348,307.500 " style="stroke:#bebebe;stroke-opacity:1.00;stroke-width:1;stroke-linejoin:round;stroke-dasharray:5.00,5.00;fill:none"/>
	<path d="M 193.412,573.750 L 193.412,570.000 " style="stroke:#000000;stroke-opacity:1.00;stroke-width:1;stroke-linejoin:round;fill:none"/>
	<path d="M 193.412,570.000 L 193.412,307.500 " style="stroke:#bebebe;stroke-opacity:1.00;stroke-width:1;stroke-linejoin:round;stroke-dasharray:5.00,5.00;fill:none"/>
	<path d="M 207.355,573.750 L 207.355,570.000 " style="stroke:#000000;stroke-opacity:1.00;stroke-width:1;stroke-linejoin:round;fill:none"/>
	<path d="M 207.355,570.000 L 207.355,307.500 " style="stroke:#bebebe;stroke-opacity:1.00;stroke-width:1;stroke-linejoin:round;stroke-dasharray:5.00,5.00;fill:none"/>
	<path d="M 219.143,573.750 L 219.143,570.000 " style="stroke:#000000;stroke-opacity:1.00;stroke-width:1;stroke-linejoin:round;fill:none"/>
	<path d="M 219.143,570.000 L 219.143,307.500 " style="stroke:#bebebe;stroke-opacity:1.00;stroke-width:1;stroke-linejoin:round;stroke-dasharray:5.00,5.00;fill:none"/>
	<path d="M 229.354,573.750 L 229.354,570.000 " style="stroke:#000000;stroke-opacity:1.00;stroke-width:1;stroke-linejoin:round;fill:none"/>
	<path d="M 229.354,570.000 L 229.354,307.500 " style="stroke:#bebebe;stroke-opacity:1.00;stroke-width:1;stroke-linejoin:round;stroke-dasharray:5.00,5.00;fill:none"/>
	<path d="M 238.361,573.750 L 238.361,570.000 " style="stroke:#000000;stroke-opacity:1.00;stroke-width:1;stroke-linejoin:round;fill:none"/>
	<path d="M 238.361,570.000 L 238.361,307.500 " style="stroke:#bebebe;stroke-opacity:1.00;stroke-width:1;stroke-linejoin:round;stroke-dasharray:5.00,5.00;fill:none"/>
	<text x="246.42" y="594.75" style="stroke:none;fill:#000000;fill-opacity:1.00;fill-rule:evenodd;font-size:15.0px;text-anchor:middle">0.1</text>
	<path d="M 246.418,577.500 L 246.418,570.000 " style="stroke:#000000;stroke-opacity:1.00;stroke-width:2;stroke-linejoin:round;fill:none"/>
	<path d="M 246.418,570.000 L 246.418,307.500 " style="stroke:#bebebe;stroke-opacity:1.00;stroke-width:1;stroke-linejoin:round;stroke-dasharray:5.00,5.00;fill:none"/>
	<path d="M 299.424,573.750 L 299.424,570.000 " style="stroke:#000000;stroke-opacity:1.00;stroke-width:1;stroke-linejoin:round;fill:none"/>
	<path d="M 299.424,570.000 L 299.424,307.500 " style="stroke:#bebebe;stroke-opacity:1.00;stroke-width:1;stroke-linejoin:round;stroke-dasharray:5.00,5.00;fill:none"/>
	<path d="M 330.431,573.750 L 330.431,570.000 " style="stroke:#000000;stroke-opacity:1.00;stroke-width:1;stroke-linejoin:round;fill:none"/>
	<path d="M 330.431,570.000 L 330.431,307.500 " style="stroke:#bebebe;stroke-opacity:1.00;stroke-width:1;stroke-linejoin:round;stroke-dasharray:5.00,5.00;fill:none"/>
	<path d="M 352.430,573.750 L 352.430,570.000 " style="stroke:#000000;stroke-opacity:1.00;stroke-width:1;stroke-linejoin:round;fill:none"/>
	<path d="M 352.430,570.000 L 352.430,307.500 " style="stroke:#bebebe;stroke-opacity:1.00;stroke-width:1;stroke-linejoin:round;stroke-dasharray:5.00,5.00;fill:none"/>
	<path d="M 369.494,573.750 L 369.494,570.000 " style="stroke:#000000;stroke-opacity:1.00;stroke-width:1;stroke-linejoin:round;fill:none"/>
	<path d="M 369.494,570.000 L 369.494,307.500 " style="stroke:#bebebe;stroke-opacity:1.00;stroke-width:1;stroke-linejoin:round;stroke-dasharray:5.00,5.00;fill:none"/>
	<path d="M 383.436,573.750 L 383.436,570.000 " style="stroke:#000000;stroke-opacity:1.00;stroke-width:1;stroke-linejoin:round;fill:none"/>
	<path d="M 383.436,570.000 L 383.436,307.500 " style="stroke:#bebebe;stroke-opacity:1.00;stroke-width:1;stroke-linejoin:round;stroke-dasharray:5.00,5.00;fill:none"/>
	<path d="M 395.225,573.750 L 395.225,570.000 " style="stroke:#000000;stroke-opacity:1.00;stroke-width:1;stroke-linejoin:round;fill:none"/>
	<path d="M 395.225,570.000 L 395.225,307.500 " style="stroke:#bebebe;stroke-opacity:1.00;stroke-width:1;stroke-linejoin:round;stroke-dasharray:5.00,5.00;fill:none"/>
	<path d="M 405.436,573.750 L 405.436,570.000 " style="stroke:#000000;stroke-opacity:1.00;stroke-width:1;stroke-linejoin:round;fill:none"/>
	<path d="M 405.436,570.000 L 405.436,307.500 " style="stroke:#bebebe;stroke-opacity:1.00;stroke-width:1;stroke-linejoin:round;stroke-dasharray:5.00,5.00;fill:none"/>
	<path d="M 414.443,573.750 L 414.443,570.000 " style="stroke:#000000;stroke-opacity:1.00;stroke-width:1;stroke-linejoin:round;fill:none"/>
	<path d="M 414.443,570.000 L 414.443,307.500 " style="stroke:#bebebe;stroke-opacity:1.00;stroke-width:1;stroke-linejoin:round;stroke-dasharray:5.00,5.00;fill:none"/>
	<text x="422.50" y="594.75" style="stroke:none;fill:#000000;fill-opacity:1.00;fill-rule:evenodd;font-size:15.0px;text-anchor:middle">1</text>
	<path d="M 422.500,577.500 L 422.500,570.000 " style="stroke:#000000;stroke-opacity:1.00;stroke-width:2;stroke-linejoin:round;fill:none"/>
	<path d="M 422.500,570.000 L 422.500,307.500 " style="stroke:#bebebe;stroke-opacity:1.00;stroke-width:1;stroke-linejoin:round;stroke-dasharray:5.00,5.00;fill:none"/>
	<path d="M 475.506,573.750 L 475.506,570.000 " style="stroke:#000000;stroke-opacity:1.00;stroke-width:1;stroke-linejoin:round;fill:none"/>
	<path d="M 475.506,570.000 L 475.506,307.500 " style="stroke:#bebebe;stroke-opacity:1.00;stroke-width:1;stroke-linejoin:round;stroke-dasharray:5.00,5.00;fill:none"/>
	<path d="M 506.512,573.750 L 506.512,570.000 " style="stroke:#000000;stroke-opacity:1.00;stroke-width:1;stroke-linejoin:round;fill:none"/>
	<path d="M 506.512,570.000 L 506.512,307.500 " style="stroke:#bebebe;stroke-opacity:1.00;stroke-width:1;stroke-linejoin:round;stroke-dasharray:5.00,5.00;fill:none"/>
	<path d="M 528.512,573.750 L 528.512,570.000 " style="stroke:#000000;stroke-opacity:1.00;stroke-width:1;stroke-linejoin:round;fill:none"/>
	<path d="M 528.512,570.000 L 528.512,307.500 " style="stroke:#bebebe;stroke-opacity:1.00;stroke-width:1;stroke-linejoin:round;stroke-dasharray:5.00,5.00;fill:none"/>
	<path d="M 545.576,573.750 L 545.576,570.000 " style="stroke:#000000;stroke-opacity:1.00;stroke-width:1;stroke-linejoin:round;fill:none"/>
	<path d="M 545.576,570.000 L 545.576,307.500 " style="stroke:#bebebe;stroke-opacity:1.00;stroke-width:1;stroke-linejoin:round;stroke-dasharray:5.00,5.00;fill:none"/>
	<path d="M 559.518,573.750 L 559.518,570.000 " style="stroke:#000000;stroke-opacity:1.00;stroke-width:1;stroke-linejoin:round;fill:none"/>
	<path d="M 559.518,570.000 L 559.518,307.500 " style="stroke:#bebebe;stroke-opacity:1.00;stroke-width:1;stroke-linejoin:round;stroke-dasharray:5.00,5.00;fill:none"/>
	<path d="M 571.306,573.750 L 571.306,570.000 " style="stroke:#000000;stroke-opacity:1.00;stroke-width:1;stroke-linejoin:round;fill:none"/>
	<path d="M 571.306,570.000 L 571.306,307.500 " style="stroke:#bebebe;stroke-opacity:1.00;stroke-width:1;stroke-linejoin:round;stroke-dasharray:5.00,5.00;fill:none"/>
	<path d="M 581.518,573.750 L 581.518,570.000 " style="stroke:#000000;stroke-opacity:1.00;stroke-width:1;stroke-linejoin:round;fill:none"/>
	<path d="M 581.518,570.000 L 581.518,307.500 " style="stroke:#bebebe;stroke-opacity:1.00;stroke-width:1;stroke-linejoin:round;stroke-dasharray:5.00,5.00;fill:none"/>
	<path d="M 590.525,573.750 L 590.525,570.000 " style="stroke:#000000;stroke-opacity:1.00;stroke-width:1;stroke-linejoin:round;fill:none"/>
	<path d="M 590.525,570.000 L 590.525,307.500 " style="stroke:#bebebe;stroke-opacity:1.00;stroke-width:1;stroke-linejoin:round;stroke-dasharray:5.00,5.00;fill:none"/>
	<text x="598.58" y="594.75" style="stroke:none;fill:#000000;fill-opacity:1.00;fill-rule:evenodd;font-size:15.0px;text-anchor:middle">10</text>
	<path d="M 598.582,577.500 L 598.582,570.000 " style="stroke:#000000;stroke-opacity:1.00;stroke-width:2;stroke-linejoin:round;fill:none"/>
	<path d="M 598.582,570.000 L 598.582,307.500 " style="stroke:#bebebe;stroke-opacity:1.00;stroke-width:1;stroke-linejoin:round;stroke-dasharray:5.00,5.00;fill:none"/>
	<path d="M 651.588,573.750 L 651.588,570.000 " style="stroke:#000000;stroke-opacity:1.00;stroke-width:1;stroke-linejoin:round;fill:none"/>
	<path d="M 651.588,570.000 L 651.588,307.500 " style="stroke:#bebebe;stroke-opacity:1.00;stroke-width:1;stroke-linejoin:round;stroke-dasharray:5.00,5.00;fill:none"/>
	<path d="M 682.594,573.750 L 682.594,570.000 " style="stroke:#000000;stroke-opacity:1.00;stroke-width:1;stroke-linejoin:round;fill:none"/>
	<path d="M 682.594,570.000 L 682.594,307.500 " style="stroke:#bebebe;stroke-opacity:1.00;stroke-width:1;stroke-linejoin:round;stroke-dasharray:5.00,5.00;fill:none"/>
	<path d="M 704.593,573.750 L 704.593,570.000 " style="stroke:#000000;stroke-opacity:1.00;stroke-width:1;stroke-linejoin:round;fill:none"/>
	<path d="M 704.593,570.000 L 704.593,307.500 " style="stroke:#bebebe;stroke-opacity:1.00;stroke-width:1;stroke-linejoin:round;stroke-dasharray:5.00,5.00;fill:none"/>
	<path d="M 721.658,573.750 L 721.658,570.000 " style="stroke:#000000;stroke-opacity:1.00;stroke-width:1;stroke-linejoin:round;fill:none"/>
	<path d="M 721.658,570.000 L 721.658,307.500 " style="stroke:#bebebe;stroke-opacity:1.00;stroke-width:1;stroke-linejoin:round;stroke-dasharray:5.00,5.00;fill:none"/>
	<path d="M 735.600,573.750 L 735.600,570.000 " style="stroke:#000000;stroke-opacity:1.00;stroke-width:1;stroke-linejoin:round;fill:none"/>
	<path d="M 735.600,570.000 L 735.600,307.500 " style="stroke:#bebebe;stroke-opacity:1.00;stroke-width:1;stroke-linejoin:round;stroke-dasharray:5.00,5.00;fill:none"/>
	<path d="M 747.388,573.750 L 747.388,570.000 " style="stroke:#000000;stroke-opacity:1.00;stroke-width:1;stroke-linejoin:round;fill:none"/>
	<path d="M 747.388,570.000 L 747.388,307.500 " style="stroke:#bebebe;stroke-opacity:1.00;stroke-width:1;stroke-linejoin:round;stroke-dasharray:5.00,5.00;fill:none"/>
	<path d="M 757.599,573.750 L 757.599,570.000 " style="stroke:#000000;stroke-opacity:1.00;stroke-width:1;stroke-linejoin:round;fill:none"/>
	<path d="M 757.599,570.000 L 757.599,307.500 " style="stroke:#bebebe;stroke-opacity:1.00;stroke-width:1;stroke-linejoin:round;stroke-dasharray:5.00,5.00;fill:none"/>
	<path d="M 766.606,573.750 L 766.606,570.000 " style="stroke:#000000;stroke-opacity:1.00;stroke-width:1;stroke-linejoin:round;fill:none"/>
	<path d="M 766.606,570.000 L 766.606,307.500 " style="stroke:#bebebe;stroke-opacity:1.00;stroke-width:1;stroke-linejoin:round;stroke-dasharray:5.00,5.00;fill:none"/>
	<text x="774.66" y="594.75" style="stroke:none;fill:#000000;fill-opacity:1.00;fill-rule:evenodd;font-size:15.0px;text-anchor:middle">100</text>
	<path d="M 774.663,577.500 L 774.663,570.000 " style="stroke:#000000;stroke-opacity:1.00;stroke-width:2;stroke-linejoin:round;fill:none"/>
	<path d="M 774.663,570.000 L 774.663,307.500 " style="stroke:#bebebe;stroke-opacity:1.00;stroke-width:1;stroke-linejoin:round;stroke-dasharray:5.00,5.00;fill:none"/>
	<text x="45.00" y="554.55" style="stroke:none;fill:#000000;fill-opacity:1.00;fill-rule:evenodd;font-size:15.0px;text-anchor:end">-270</text>
	<path d="M 48.750,549.547 L 56.250,549.547 " style="stroke:#000000;stroke-opacity:1.00;stroke-width:2;stroke-linejoin:round;fill:none"/>
	<path d="M 56.250,549.547 L 788.750,549.547 " style="stroke:#bebebe;stroke-opacity:1.00;stroke-width:1;stroke-linejoin:round;stroke-dasharray:5.00,5.00;fill:none"/>
	<text x="45.00" y="517.91" style="stroke:none;fill:#000000;fill-opacity:1.00;fill-rule:evenodd;font-size:15.0px;text-anchor:end">-225</text>
	<path d="M 48.750,512.905 L 56.250,512.905 " style="stroke:#000000;stroke-opacity:1.00;stroke-width:2;stroke-linejoin:round;fill:none"/>
	<path d="M 56.250,512.905 L 788.750,512.905 " style="stroke:#bebebe;stroke-opacity:1.00;stroke-width:1;stroke-linejoin:round;stroke-dasharray:5.00,5.00;fill:none"/>
	<text x="45.00" y="481.26" style="stroke:none;fill:#000000;fill-opacity:1.00;fill-rule:evenodd;font-size:15.0px;text-anchor:end">-180</text>
	<path d="M 48.750,476.264 L 56.250,476.264 " style="stroke:#000000;stroke-opacity:1.00;stroke-width:2;stroke-linejoin:round;fill:none"/>
	<path d="M 56.250,476.264 L 788.750,476.264 " style="stroke:#bebebe;stroke-opacity:1.00;stroke-width:1;stroke-linejoin:round;stroke-dasharray:5.00,5.00;fill:none"/>
	<text x="45.00" y="444.62" style="stroke:none;fill:#000000;fill-opacity:1.00;fill-rule:evenodd;font-size:15.0px;text-anchor:end">-135</text>
	<path d="M 48.750,439.623 L 56.250,439.623 " style="stroke:#000000;stroke-opacity:1.00;stroke-width:2;stroke-linejoin:round;fill:none"/>
	<path d="M 56.250,439.623 L 788.750,439.623 " style="stroke:#bebebe;stroke-opacity:1.00;stroke-width:1;stroke-linejoin:round;stroke-dasharray:5.00,5.00;fill:none"/>
	<text x="45.00" y="407.98" style="stroke:none;fill:#000000;fill-opacity:1.00;fill-rule:evenodd;font-size:15.0px;text-anchor:end">-90</text>
	<path d="M 48.750,402.982 L 56.250,402.982 " style="stroke:#000000;stroke-opacity:1.00;stroke-width:2;stroke-linejoin:round;fill:none"/>
	<path d="M 56.250,402.982 L 788.750,402.982 " style="stroke:#bebebe;stroke-opacity:1.00;stroke-width:1;stroke-linejoin:round;stroke-dasharray:5.00,5.00;fill:none"/>
	<text x="45.00" y="371.34" style="stroke:none;fill:#000000;fill-opacity:1.00;fill-rule:evenodd;font-size:15.0px;text-anchor:end">-45</text>
	<path d="M 48.750,366.341 L 56.250,366.341 " style="stroke:#000000;stroke-opacity:1.00;stroke-width:2;stroke-linejoin:round;fill:none"/>
	<path d="M 56.250,366.341 L 788.750,366.341 " style="stroke:#bebebe;stroke-opacity:1.00;stroke-width:1;stroke-linejoin:round;stroke-dasharray:5.00,5.00;fill:none"/>
	<text x="45.00" y="334.70" style="stroke:none;fill:#000000;fill-opacity:1.00;fill-rule:evenodd;font-size:15.0px;text-anchor:end">0</text>
	<path d="M 48.750,329.699 L 56.250,329.699 " style="stroke:#000000;stroke-opacity:1.00;stroke-width:2;stroke-linejoin:round;fill:none"/>
	<path d="M 56.250,329.699 L 788.750,329.699 " style="stroke:#bebebe;stroke-opacity:1.00;stroke-width:1;stroke-linejoin:round;stroke-dasharray:5.00,5.00;fill:none"/>
	<path d="M 56.250,330.437 L 59.912,330.473 L 63.575,330.511 L 67.237,330.551 L 70.900,330.592 L 74.563,330.636 L 78.225,330.682 L 81.888,330.730 L 85.550,330.781 L 89.213,330.834 L 92.875,330.890 L 96.538,330.948 L 100.200,331.009 L 103.863,331.073 L 107.525,331.141 L 111.188,331.212 L 114.850,331.286 L 118.513,331.364 L 122.175,331.445 L 125.838,331.531 L 129.500,331.621 L 133.163,331.715 L 136.825,331.814 L 140.488,331.917 L 144.150,332.026 L 147.813,332.140 L 151.475,332.260 L 155.138,332.386 L 158.800,332.517 L 162.463,332.656 L 166.125,332.800 L 169.788,332.953 L 173.450,333.112 L 177.113,333.279 L 180.775,333.455 L 184.438,333.639 L 188.100,333.832 L 191.763,334.035 L 195.425,334.247 L 199.088,334.470 L 202.750,334.704 L 206.413,334.949 L 210.075,335.206 L 213.738,335.476 L 217.400,335.758 L 221.063,336.055 L 224.725,336.366 L 228.388,336.692 L 232.050,337.035 L 235.713,337.393 L 239.375,337.770 L 243.038,338.164 L 246.700,338.578 L 250.363,339.011 L 254.025,339.466 L 257.688,339.942 L 261.350,340.442 L 265.013,340.965 L 268.675,341.514 L 272.338,342.089 L 276.000,342.692 L 279.663,343.323 L 283.325,343.984 L 286.988,344.677 L 290.650,345.403 L 294.313,346.162 L 297.975,346.958 L 301.638,347.790 L 305.300,348.662 L 308.963,349.573 L 312.625,350.527 L 316.288,351.524 L 319.950,352.566 L 323.613,353.656 L 327.275,354.794 L 330.938,355.982 L 334.600,357.223 L 338.263,358.517 L 341.925,359.867 L 345.588,361.274 L 349.250,362.740 L 352.913,364.267 L 356.575,365.855 L 360.238,367.506 L 363.900,369.221 L 367.563,371.002 L 371.225,372.849 L 374.888,374.764 L 378.550,376.747 L 382.213,378.797 L 385.875,380.916 L 389.538,383.104 L 393.200,385.359 L 396.863,387.682 L 400.525,390.072 L 404.188,392.527 L 407.850,395.046 L 411.513,397.627 L 415.175,400.269 L 418.838,402.968 L 422.500,405.723 L 426.163,408.530 L 429.825,411.386 L 433.488,414.288 L 437.150,417.232 L 440.813,420.214 L 444.475,423.230 L 448.138,426.276 L 451.800,429.346 L 455.463,432.436 L 459.125,435.540 L 462.788,438.655 L 466.450,441.774 L 470.113,444.892 L 473.775,448.004 L 477.438,451.104 L 481.100,454.188 L 484.763,457.249 L 488.425,460.282 L 492.088,463.282 L 495.750,466.245 L 499.413,469.166 L 503.075,472.041 L 506.738,474.864 L 510.400,477.634 L 514.063,480.345 L 517.725,482.996 L 521.388,485.583 L 525.050,488.105 L 528.713,490.559 L 532.375,492.945 L 536.038,495.260 L 539.700,497.504 L 543.363,499.677 L 547.025,501.778 L 550.688,503.808 L 554.350,505.767 L 558.013,507.657 L 561.675,509.476 L 565.338,511.228 L 569.000,512.913 L 572.663,514.532 L 576.325,516.087 L 579.988,517.580 L 583.650,519.012 L 587.313,520.385 L 590.975,521.701 L 594.638,522.961 L 598.300,524.168 L 601.963,525.323 L 605.625,526.428 L 609.288,527.485 L 612.950,528.496 L 616.613,529.462 L 620.275,530.386 L 623.938,531.268 L 627.600,532.111 L 631.263,532.916 L 634.925,533.685 L 638.588,534.418 L 642.250,535.119 L 645.913,535.788 L 649.575,536.426 L 653.238,537.035 L 656.900,537.617 L 660.563,538.171 L 664.225,538.700 L 667.888,539.205 L 671.550,539.686 L 675.213,540.146 L 678.875,540.584 L 682.538,541.001 L 686.200,541.400 L 689.863,541.780 L 693.525,542.142 L 697.188,542.487 L 700.850,542.817 L 704.513,543.131 L 708.175,543.431 L 711.838,543.716 L 715.500,543.988 L 719.163,544.248 L 722.825,544.495 L 726.488,544.731 L 730.150,544.956 L 733.813,545.171 L 737.475,545.375 L 741.138,545.570 L 744.800,545.756 L 748.463,545.933 L 752.125,546.102 L 755.788,546.263 L 759.450,546.417 L 763.113,546.563 L 766.775,546.702 L 770.438,546.835 L 774.100,546.962 L 777.763,547.083 L 781.425,547.198 L 785.088,547.308 L 788.750,547.413 " style="stroke:#00ff00;stroke-opacity:1.00;stroke-width:1;stroke-linejoin:round;fill:none"/>
	<path d="M 56.250,402.206 L 59.912,402.168 L 63.575,402.128 L 67.237,402.086 L 70.900,402.042 L 74.563,401.996 L 78.225,401.947 L 81.888,401.897 L 85.550,401.844 L 89.213,401.788 L 92.875,401.729 L 96.538,401.668 L 100.200,401.603 L 103.863,401.536 L 107.525,401.465 L 111.188,401.391 L 114.850,401.313 L 118.513,401.231 L 122.175,401.145 L 125.838,401.055 L 129.500,400.960 L 133.163,400.861 L 136.825,400.758 L 140.488,400.649 L 144.150,400.534 L 147.813,400.415 L 151.475,400.289 L 155.138,400.157 L 158.800,400.019 L 162.463,399.874 L 166.125,399.722 L 169.788,399.563 L 173.450,399.395 L 177.113,399.220 L 180.775,399.037 L 184.438,398.844 L 188.100,398.642 L 191.763,398.431 L 195.425,398.209 L 199.088,397.976 L 202.750,397.733 L 206.413,397.478 L 210.075,397.210 L 213.738,396.930 L 217.400,396.637 L 221.063,396.330 L 224.725,396.008 L 228.388,395.671 L 232.050,395.319 L 235.713,394.950 L 239.375,394.565 L 243.038,394.161 L 246.700,393.740 L 250.363,393.299 L 254.025,392.838 L 257.688,392.357 L 261.350,391.855 L 265.013,391.331 L 268.675,390.785 L 272.338,390.215 L 276.000,389.622 L 279.663,389.004 L 283.325,388.361 L 286.988,387.693 L 290.650,386.999 L 294.313,386.279 L 297.975,385.533 L 301.638,384.759 L 305.300,383.959 L 308.963,383.133 L 312.625,382.280 L 316.288,381.400 L 319.950,380.495 L 323.613,379.565 L 327.275,378.611 L 330.938,377.633 L 334.600,376.633 L 338.263,375.613 L 341.925,374.574 L 345.588,373.517 L 349.250,372.445 L 352.913,371.359 L 356.575,370.263 L 360.238,369.157 L 363.900,368.045 L 367.563,366.930 L 371.225,365.813 L 374.888,364.697 L 378.550,363.585 L 382.213,362.479 L 385.875,361.382 L 389.538,360.295 L 393.200,359.223 L 396.863,358.165 L 400.525,357.125 L 404.188,356.103 L 407.850,355.102 L 411.513,354.124 L 415.175,353.168 L 418.838,352.236 L 422.500,351.330 L 426.163,350.449 L 429.825,349.594 L 433.488,348.766 L 437.150,347.965 L 440.813,347.190 L 444.475,346.442 L 448.138,345.720 L 451.800,345.025 L 455.463,344.356 L 459.125,343.712 L 462.788,343.093 L 466.450,342.498 L 470.113,341.927 L 473.775,341.379 L 477.438,340.854 L 481.100,340.351 L 484.763,339.869 L 488.425,339.407 L 492.088,338.965 L 495.750,338.542 L 499.413,338.138 L 503.075,337.751 L 506.738,337.382 L 510.400,337.029 L 514.063,336.691 L 517.725,336.369 L 521.388,336.061 L 525.050,335.767 L 528.713,335.486 L 532.375,335.218 L 536.038,334.962 L 539.700,334.718 L 543.363,334.485 L 547.025,334.262 L 550.688,334.050 L 554.350,333.848 L 558.013,333.655 L 561.675,333.471 L 565.338,333.295 L 569.000,333.128 L 572.663,332.968 L 576.325,332.815 L 579.988,332.670 L 583.650,332.531 L 587.313,332.399 L 590.975,332.273 L 594.638,332.153 L 598.300,332.039 L 601.963,331.929 L 605.625,331.825 L 609.288,331.726 L 612.950,331.631 L 616.613,331.541 L 620.275,331.455 L 623.938,331.373 L 627.600,331.295 L 631.263,331.220 L 634.925,331.149 L 638.588,331.081 L 642.250,331.017 L 645.913,330.955 L 649.575,330.897 L 653.238,330.841 L 656.900,330.787 L 660.563,330.736 L 664.225,330.688 L 667.888,330.642 L 671.550,330.598 L 675.213,330.556 L 678.875,330.516 L 682.538,330.477 L 686.200,330.441 L 689.863,330.406 L 693.525,330.373 L 697.188,330.342 L 700.850,330.312 L 704.513,330.283 L 708.175,330.256 L 711.838,330.230 L 715.500,330.205 L 719.163,330.181 L 722.825,330.159 L 726.488,330.137 L 730.150,330.117 L 733.813,330.097 L 737.475,330.079 L 741.138,330.061 L 744.800,330.044 L 748.463,330.028 L 752.125,330.013 L 755.788,329.998 L 759.450,329.984 L 763.113,329.971 L 766.775,329.958 L 770.438,329.946 L 774.100,329.934 L 777.763,329.923 L 781.425,329.913 L 785.088,329.903 L 788.750,329.893 " style="stroke:#0000ff;stroke-opacity:1.00;stroke-width:1;stroke-linejoin:round;fill:none"/>
	<path d="M 56.250,402.943 L 59.912,402.941 L 63.575,402.939 L 67.237,402.937 L 70.900,402.935 L 74.563,402.933 L 78.225,402.930 L 81.888,402.928 L 85.550,402.925 L 89.213,402.922 L 92.875,402.919 L 96.538,402.916 L 100.200,402.913 L 103.863,402.910 L 107.525,402.906 L 111.188,402.903 L 114.850,402.899 L 118.513,402.895 L 122.175,402.891 L 125.838,402.886 L 129.500,402.882 L 133.163,402.877 L 136.825,402.872 L 140.488,402.867 L 144.150,402.861 L 147.813,402.855 L 151.475,402.850 L 155.138,402.843 L 158.800,402.837 L 162.463,402.830 L 166.125,402.823 L 169.788,402.816 L 173.450,402.808 L 177.113,402.800 L 180.775,402.792 L 184.438,402.784 L 188.100,402.775 L 191.763,402.766 L 195.425,402.757 L 199.088,402.747 L 202.750,402.737 L 206.413,402.727 L 210.075,402.717 L 213.738,402.707 L 217.400,402.696 L 221.063,402.686 L 224.725,402.675 L 228.388,402.665 L 232.050,402.654 L 235.713,402.644 L 239.375,402.635 L 243.038,402.626 L 246.700,402.618 L 250.363,402.611 L 254.025,402.605 L 257.688,402.600 L 261.350,402.598 L 265.013,402.597 L 268.675,402.599 L 272.338,402.605 L 276.000,402.614 L 279.663,402.628 L 283.325,402.646 L 286.988,402.671 L 290.650,402.703 L 294.313,402.742 L 297.975,402.791 L 301.638,402.850 L 305.300,402.922 L 308.963,403.007 L 312.625,403.107 L 316.288,403.225 L 319.950,403.362 L 323.613,403.521 L 327.275,403.705 L 330.938,403.916 L 334.600,404.157 L 338.263,404.431 L 341.925,404.742 L 345.588,405.092 L 349.250,405.486 L 352.913,405.927 L 356.575,406.418 L 360.238,406.964 L 363.900,407.567 L 367.563,408.232 L 371.225,408.963 L 374.888,409.761 L 378.550,410.632 L 382.213,411.577 L 385.875,412.599 L 389.538,413.700 L 393.200,414.883 L 396.863,416.148 L 400.525,417.497 L 404.188,418.931 L 407.850,420.449 L 411.513,422.051 L 415.175,423.737 L 418.838,425.505 L 422.500,427.353 L 426.163,429.280 L 429.825,431.281 L 433.488,433.355 L 437.150,435.498 L 440.813,437.705 L 444.475,439.973 L 448.138,442.297 L 451.800,444.671 L 455.463,447.092 L 459.125,449.553 L 462.788,452.048 L 466.450,454.573 L 470.113,457.120 L 473.775,459.684 L 477.438,462.259 L 481.100,464.839 L 484.763,467.418 L 488.425,469.989 L 492.088,472.548 L 495.750,475.088 L 499.413,477.605 L 503.075,480.093 L 506.738,482.547 L 510.400,484.963 L 514.063,487.337 L 517.725,489.665 L 521.388,491.945 L 525.050,494.172 L 528.713,496.346 L 532.375,498.463 L 536.038,500.522 L 539.700,502.522 L 543.363,504.462 L 547.025,506.341 L 550.688,508.159 L 554.350,509.916 L 558.013,511.612 L 561.675,513.248 L 565.338,514.824 L 569.000,516.341 L 572.663,517.801 L 576.325,519.203 L 579.988,520.551 L 583.650,521.844 L 587.313,523.085 L 590.975,524.275 L 594.638,525.415 L 598.300,526.507 L 601.963,527.553 L 605.625,528.554 L 609.288,529.512 L 612.950,530.428 L 616.613,531.304 L 620.275,532.141 L 623.938,532.942 L 627.600,533.706 L 631.263,534.437 L 634.925,535.134 L 638.588,535.801 L 642.250,536.437 L 645.913,537.044 L 649.575,537.623 L 653.238,538.177 L 656.900,538.705 L 660.563,539.208 L 664.225,539.689 L 667.888,540.147 L 671.550,540.585 L 675.213,541.002 L 678.875,541.400 L 682.538,541.779 L 686.200,542.141 L 689.863,542.487 L 693.525,542.816 L 697.188,543.130 L 700.850,543.429 L 704.513,543.715 L 708.175,543.987 L 711.838,544.247 L 715.500,544.494 L 719.163,544.730 L 722.825,544.955 L 726.488,545.169 L 730.150,545.374 L 733.813,545.569 L 737.475,545.755 L 741.138,545.932 L 744.800,546.101 L 748.463,546.262 L 752.125,546.415 L 755.788,546.562 L 759.450,546.701 L 763.113,546.834 L 766.775,546.961 L 770.438,547.082 L 774.100,547.197 L 777.763,547.307 L 781.425,547.412 L 785.088,547.511 L 788.750,547.607 " style="stroke:#000000;stroke-opacity:1.00;stroke-width:1;stroke-linejoin:round;fill:none"/>
	<path d="M 447.552,570.000 L 447.552,307.500 " style="stroke:#ff0000;stroke-opacity:1.00;stroke-width:1;stroke-linejoin:round;stroke-dasharray:5.00,5.00;fill:none"/>
	<path d="M 56.250,435.552 L 788.750,435.552 " style="stroke:#ff0000;stroke-opacity:1.00;stroke-width:1;stroke-linejoin:round;stroke-dasharray:5.00,5.00;fill:none"/>
	<path d="M 56.250,419.267 L 788.750,419.267 " style="stroke:#ff0000;stroke-opacity:1.00;stroke-width:1;stroke-linejoin:round;stroke-dasharray:5.00,5.00;fill:none"/>
	<path d="M 560.518,491.549 L 773.663,491.549 L 773.663,342.913 L 560.518,342.913 Z" style="stroke:none;fill:#ffffff;fill-opacity:1.00;fill-rule:evenodd"/>
	<text x="565.70" y="486.30" style="stroke:none;fill:#000000;fill-opacity:1.00;fill-rule:evenodd;font-size:15.0px;text-anchor:middle">0</text>
	<path d="M 565.699,469.049 L 565.699,461.549 " style="stroke:#000000;stroke-opacity:1.00;stroke-width:2;stroke-linejoin:round;fill:none"/>
	<text x="606.30" y="486.30" style="stroke:none;fill:#000000;fill-opacity:1.00;fill-rule:evenodd;font-size:15.0px;text-anchor:middle">2</text>
	<path d="M 606.296,469.049 L 606.296,461.549 " style="stroke:#000000;stroke-opacity:1.00;stroke-width:2;stroke-linejoin:round;fill:none"/>
	<text x="646.89" y="486.30" style="stroke:none;fill:#000000;fill-opacity:1.00;fill-rule:evenodd;font-size:15.0px;text-anchor:middle">4</text>
	<path d="M 646.894,469.049 L 646.894,461.549 " style="stroke:#000000;stroke-opacity:1.00;stroke-width:2;stroke-linejoin:round;fill:none"/>
	<text x="687.49" y="486.30" style="stroke:none;fill:#000000;fill-opacity:1.00;fill-rule:evenodd;font-size:15.0px;text-anchor:middle">6</text>
	<path d="M 687.491,469.049 L 687.491,461.549 " style="stroke:#000000;stroke-opacity:1.00;stroke-width:2;stroke-linejoin:round;fill:none"/>
	<text x="728.09" y="486.30" style="stroke:none;fill:#000000;fill-opacity:1.00;fill-rule:evenodd;font-size:15.0px;text-anchor:middle">8</text>
	<path d="M 728.088,469.049 L 728.088,461.549 " style="stroke:#000000;stroke-opacity:1.00;stroke-width:2;stroke-linejoin:round;fill:none"/>
	<text x="768.69" y="486.30" style="stroke:none;fill:#000000;fill-opacity:1.00;fill-rule:evenodd;font-size:15.0px;text-anchor:middle">10</text>
	<path d="M 768.686,469.049 L 768.686,461.549 " style="stroke:#000000;stroke-opacity:1.00;stroke-width:2;stroke-linejoin:round;fill:none"/>
	<text x="550.39" y="464.41" style="stroke:none;fill:#000000;fill-opacity:1.00;fill-rule:evenodd;font-size:15.0px;text-anchor:end">0.0</text>
	<path d="M 554.143,459.412 L 561.643,459.412 " style="stroke:#000000;stroke-opacity:1.00;stroke-width:2;stroke-linejoin:round;fill:none"/>
	<text x="550.39" y="428.79" style="stroke:none;fill:#000000;fill-opacity:1.00;fill-rule:evenodd;font-size:15.0px;text-anchor:end">0.5</text>
	<path d="M 554.143,423.791 L 561.643,423.791 " style="stroke:#000000;stroke-opacity:1.00;stroke-width:2;stroke-linejoin:round;fill:none"/>
	<text x="550.39" y="393.17" style="stroke:none;fill:#000000;fill-opacity:1.00;fill-rule:evenodd;font-size:15.0px;text-anchor:end">1.0</text>
	<path d="M 554.143,388.171 L 561.643,388.171 " style="stroke:#000000;stroke-opacity:1.00;stroke-width:2;stroke-linejoin:round;fill:none"/>
	<text x="550.39" y="357.55" style="stroke:none;fill:#000000;fill-opacity:1.00;fill-rule:evenodd;font-size:15.0px;text-anchor:end">1.5</text>
	<path d="M 554.143,352.550 L 561.643,352.550 " style="stroke:#000000;stroke-opacity:1.00;stroke-width:2;stroke-linejoin:round;fill:none"/>
	<path d="M 561.643,388.171 L 772.538,388.171 " style="stroke:#bebebe;stroke-opacity:1.00;stroke-width:1;stroke-linejoin:round;stroke-dasharray:5.00,5.00;fill:none"/>
	<path d="M 565.699,459.412 L 565.902,459.412 L 566.104,459.411 L 566.307,459.409 L 566.510,459.404 L 566.713,459.396 L 566.916,459.385 L 567.118,459.370 L 567.321,459.351 L 567.524,459.326 L 567.727,459.295 L 567.930,459.258 L 568.132,459.214 L 568.335,459.164 L 568.538,459.106 L 568.741,459.040 L 568.943,458.966 L 569.146,458.884 L 569.349,458.792 L 569.552,458.692 L 569.755,458.582 L 569.957,458.463 L 570.160,458.334 L 570.363,458.195 L 570.566,458.046 L 570.768,457.887 L 570.971,457.717 L 571.174,457.536 L 571.377,457.345 L 571.580,457.143 L 571.782,456.930 L 571.985,456.706 L 572.188,456.471 L 572.391,456.225 L 572.594,455.968 L 572.796,455.700 L 572.999,455.421 L 573.202,455.130 L 573.405,454.829 L 573.607,454.516 L 573.810,454.192 L 574.013,453.858 L 574.216,453.512 L 574.419,453.155 L 574.621,452.788 L 574.824,452.410 L 575.027,452.021 L 575.230,451.622 L 575.433,451.212 L 575.635,450.792 L 575.838,450.362 L 576.041,449.922 L 576.244,449.471 L 576.446,449.011 L 576.649,448.541 L 576.852,448.062 L 577.055,447.573 L 577.258,447.075 L 577.460,446.568 L 577.663,446.052 L 577.866,445.527 L 578.069,444.994 L 578.271,444.452 L 578.474,443.902 L 578.677,443.344 L 578.880,442.779 L 579.083,442.205 L 579.285,441.624 L 579.488,441.036 L 579.691,440.441 L 579.894,439.839 L 580.097,439.231 L 580.299,438.616 L 580.502,437.994 L 580.705,437.367 L 580.908,436.734 L 581.110,436.095 L 581.313,435.451 L 581.516,434.802 L 581.719,434.147 L 581.922,433.488 L 582.124,432.825 L 582.327,432.157 L 582.530,431.485 L 582.733,430.809 L 582.936,430.130 L 583.138,429.447 L 583.341,428.761 L 583.544,428.071 L 583.747,427.379 L 583.949,426.685 L 584.152,425.988 L 584.355,425.289 L 584.558,424.588 L 584.761,423.885 L 584.963,423.181 L 585.166,422.476 L 585.369,421.769 L 585.572,421.062 L 585.775,420.354 L 585.977,419.645 L 586.180,418.937 L 586.383,418.228 L 586.586,417.519 L 586.788,416.811 L 586.991,416.104 L 587.194,415.397 L 587.397,414.691 L 587.600,413.986 L 587.802,413.283 L 588.005,412.581 L 588.208,411.881 L 588.411,411.183 L 588.613,410.487 L 588.816,409.793 L 589.019,409.102 L 589.222,408.414 L 589.425,407.728 L 589.627,407.045 L 589.830,406.366 L 590.033,405.690 L 590.236,405.017 L 590.439,404.348 L 590.641,403.683 L 590.844,403.022 L 591.047,402.365 L 591.250,401.712 L 591.452,401.064 L 591.655,400.420 L 591.858,399.782 L 592.061,399.148 L 592.264,398.519 L 592.466,397.895 L 592.669,397.277 L 592.872,396.664 L 593.075,396.057 L 593.278,395.455 L 593.480,394.859 L 593.683,394.269 L 593.886,393.686 L 594.089,393.108 L 594.291,392.537 L 594.494,391.972 L 594.697,391.413 L 594.900,390.862 L 595.103,390.316 L 595.305,389.778 L 595.508,389.247 L 595.711,388.722 L 595.914,388.205 L 596.116,387.695 L 596.319,387.192 L 596.522,386.696 L 596.725,386.208 L 596.928,385.727 L 597.130,385.253 L 597.333,384.788 L 597.536,384.330 L 597.739,383.879 L 597.942,383.437 L 598.144,383.002 L 598.347,382.575 L 598.550,382.156 L 598.753,381.745 L 598.955,381.342 L 599.158,380.947 L 599.361,380.560 L 599.564,380.182 L 599.767,379.811 L 599.969,379.449 L 600.172,379.095 L 600.375,378.749 L 600.578,378.411 L 600.781,378.082 L 600.983,377.761 L 601.186,377.448 L 601.389,377.143 L 601.592,376.847 L 601.794,376.559 L 601.997,376.279 L 602.200,376.008 L 602.403,375.745 L 602.606,375.490 L 602.808,375.244 L 603.011,375.006 L 603.214,374.776 L 603.417,374.554 L 603.619,374.341 L 603.822,374.136 L 604.025,373.939 L 604.228,373.750 L 604.431,373.569 L 604.633,373.396 L 604.836,373.232 L 605.039,373.075 L 605.242,372.926 L 605.445,372.786 L 605.647,372.653 L 605.850,372.528 L 606.053,372.411 L 606.256,372.302 L 606.458,372.200 L 606.661,372.106 L 606.864,372.020 L 607.067,371.941 L 607.270,371.869 L 607.472,371.806 L 607.675,371.749 L 607.878,371.700 L 608.081,371.658 L 608.284,371.623 L 608.486,371.595 L 608.689,371.575 L 608.892,371.561 L 609.095,371.554 L 609.297,371.554 L 609.500,371.561 L 609.703,371.575 L 609.906,371.595 L 610.109,371.621 L 610.311,371.655 L 610.514,371.694 L 610.717,371.740 L 610.920,371.792 L 611.122,371.850 L 611.325,371.914 L 611.528,371.983 L 611.731,372.059 L 611.934,372.141 L 612.136,372.228 L 612.339,372.321 L 612.542,372.419 L 612.745,372.523 L 612.948,372.632 L 613.150,372.746 L 613.353,372.865 L 613.556,372.989 L 613.759,373.119 L 613.961,373.253 L 614.164,373.391 L 614.367,373.535 L 614.570,373.683 L 614.773,373.835 L 614.975,373.992 L 615.178,374.153 L 615.381,374.318 L 615.584,374.487 L 615.787,374.660 L 615.989,374.836 L 616.192,375.017 L 616.395,375.201 L 616.598,375.389 L 616.800,375.580 L 617.003,375.775 L 617.206,375.972 L 617.409,376.173 L 617.612,376.377 L 617.814,376.584 L 618.017,376.794 L 618.220,377.006 L 618.423,377.221 L 618.625,377.438 L 618.828,377.658 L 619.031,377.881 L 619.234,378.105 L 619.437,378.332 L 619.639,378.560 L 619.842,378.791 L 620.045,379.023 L 620.248,379.257 L 620.451,379.493 L 620.653,379.731 L 620.856,379.969 L 621.059,380.209 L 621.262,380.451 L 621.464,380.693 L 621.667,380.937 L 621.870,381.181 L 622.073,381.427 L 622.276,381.673 L 622.478,381.920 L 622.681,382.167 L 622.884,382.416 L 623.087,382.664 L 623.290,382.913 L 623.492,383.162 L 623.695,383.411 L 623.898,383.660 L 624.101,383.910 L 624.303,384.159 L 624.506,384.408 L 624.709,384.657 L 624.912,384.905 L 625.115,385.153 L 625.317,385.400 L 625.520,385.647 L 625.723,385.894 L 625.926,386.139 L 626.128,386.384 L 626.331,386.628 L 626.534,386.871 L 626.737,387.112 L 626.940,387.353 L 627.142,387.593 L 627.345,387.831 L 627.548,388.068 L 627.751,388.304 L 627.954,388.538 L 628.156,388.771 L 628.359,389.002 L 628.562,389.232 L 628.765,389.460 L 628.967,389.686 L 629.170,389.910 L 629.373,390.132 L 629.576,390.353 L 629.779,390.572 L 629.981,390.788 L 630.184,391.003 L 630.387,391.215 L 630.590,391.425 L 630.793,391.633 L 630.995,391.838 L 631.198,392.042 L 631.401,392.243 L 631.604,392.441 L 631.806,392.637 L 632.009,392.831 L 632.212,393.022 L 632.415,393.210 L 632.618,393.396 L 632.820,393.579 L 633.023,393.759 L 633.226,393.937 L 633.429,394.112 L 633.631,394.284 L 633.834,394.453 L 634.037,394.620 L 634.240,394.784 L 634.443,394.944 L 634.645,395.102 L 634.848,395.257 L 635.051,395.409 L 635.254,395.557 L 635.457,395.703 L 635.659,395.846 L 635.862,395.986 L 636.065,396.122 L 636.268,396.256 L 636.470,396.386 L 636.673,396.513 L 636.876,396.638 L 637.079,396.759 L 637.282,396.876 L 637.484,396.991 L 637.687,397.103 L 637.890,397.211 L 638.093,397.316 L 638.296,397.418 L 638.498,397.517 L 638.701,397.612 L 638.904,397.705 L 639.107,397.794 L 639.309,397.880 L 639.512,397.962 L 639.715,398.042 L 639.918,398.118 L 640.121,398.191 L 640.323,398.261 L 640.526,398.328 L 640.729,398.392 L 640.932,398.452 L 641.135,398.509 L 641.337,398.563 L 641.540,398.614 L 641.743,398.662 L 641.946,398.707 L 642.148,398.749 L 642.351,398.787 L 642.554,398.823 L 642.757,398.856 L 642.960,398.885 L 643.162,398.911 L 643.365,398.935 L 643.568,398.955 L 643.771,398.973 L 643.973,398.988 L 644.176,398.999 L 644.379,399.008 L 644.582,399.014 L 644.785,399.017 L 644.987,399.017 L 645.190,399.015 L 645.393,399.010 L 645.596,399.002 L 645.799,398.991 L 646.001,398.978 L 646.204,398.962 L 646.407,398.943 L 646.610,398.922 L 646.812,398.898 L 647.015,398.872 L 647.218,398.843 L 647.421,398.811 L 647.624,398.778 L 647.826,398.741 L 648.029,398.703 L 648.232,398.662 L 648.435,398.619 L 648.638,398.573 L 648.840,398.526 L 649.043,398.476 L 649.246,398.424 L 649.449,398.369 L 649.651,398.313 L 649.854,398.255 L 650.057,398.194 L 650.260,398.132 L 650.463,398.068 L 650.665,398.001 L 650.868,397.933 L 651.071,397.863 L 651.274,397.792 L 651.476,397.718 L 651.679,397.643 L 651.882,397.566 L 652.085,397.488 L 652.288,397.407 L 652.490,397.326 L 652.693,397.242 L 652.896,397.158 L 653.099,397.072 L 653.302,396.984 L 653.504,396.895 L 653.707,396.805 L 653.910,396.713 L 654.113,396.621 L 654.315,396.527 L 654.518,396.431 L 654.721,396.335 L 654.924,396.238 L 655.127,396.139 L 655.329,396.040 L 655.532,395.940 L 655.735,395.838 L 655.938,395.736 L 656.141,395.633 L 656.343,395.529 L 656.546,395.425 L 656.749,395.319 L 656.952,395.213 L 657.154,395.106 L 657.357,394.999 L 657.560,394.891 L 657.763,394.783 L 657.966,394.674 L 658.168,394.564 L 658.371,394.454 L 658.574,394.344 L 658.777,394.234 L 658.979,394.123 L 659.182,394.011 L 659.385,393.900 L 659.588,393.788 L 659.791,393.676 L 659.993,393.565 L 660.196,393.452 L 660.399,393.340 L 660.602,393.228 L 660.805,393.116 L 661.007,393.004 L 661.210,392.892 L 661.413,392.780 L 661.616,392.668 L 661.818,392.556 L 662.021,392.445 L 662.224,392.334 L 662.427,392.223 L 662.630,392.112 L 662.832,392.002 L 663.035,391.892 L 663.238,391.782 L 663.441,391.673 L 663.644,391.564 L 663.846,391.456 L 664.049,391.348 L 664.252,391.241 L 664.455,391.134 L 664.657,391.028 L 664.860,390.922 L 665.063,390.817 L 665.266,390.713 L 665.469,390.609 L 665.671,390.506 L 665.874,390.404 L 666.077,390.303 L 666.280,390.202 L 666.482,390.102 L 666.685,390.003 L 666.888,389.905 L 667.091,389.808 L 667.294,389.711 L 667.496,389.616 L 667.699,389.521 L 667.902,389.427 L 668.105,389.335 L 668.308,389.243 L 668.510,389.152 L 668.713,389.062 L 668.916,388.974 L 669.119,388.886 L 669.321,388.799 L 669.524,388.714 L 669.727,388.629 L 669.930,388.546 L 670.133,388.464 L 670.335,388.383 L 670.538,388.303 L 670.741,388.224 L 670.944,388.146 L 671.147,388.070 L 671.349,387.995 L 671.552,387.921 L 671.755,387.848 L 671.958,387.776 L 672.160,387.706 L 672.363,387.637 L 672.566,387.569 L 672.769,387.502 L 672.972,387.437 L 673.174,387.373 L 673.377,387.310 L 673.580,387.248 L 673.783,387.188 L 673.985,387.129 L 674.188,387.071 L 674.391,387.015 L 674.594,386.960 L 674.797,386.906 L 674.999,386.854 L 675.202,386.802 L 675.405,386.753 L 675.608,386.704 L 675.811,386.657 L 676.013,386.611 L 676.216,386.566 L 676.419,386.523 L 676.622,386.481 L 676.824,386.440 L 677.027,386.401 L 677.230,386.363 L 677.433,386.326 L 677.636,386.291 L 677.838,386.257 L 678.041,386.224 L 678.244,386.192 L 678.447,386.162 L 678.650,386.133 L 678.852,386.105 L 679.055,386.079 L 679.258,386.053 L 679.461,386.029 L 679.663,386.007 L 679.866,385.985 L 680.069,385.965 L 680.272,385.946 L 680.475,385.928 L 680.677,385.912 L 680.880,385.897 L 681.083,385.882 L 681.286,385.869 L 681.488,385.858 L 681.691,385.847 L 681.894,385.838 L 682.097,385.829 L 682.300,385.822 L 682.502,385.816 L 682.705,385.811 L 682.908,385.808 L 683.111,385.805 L 683.314,385.803 L 683.516,385.803 L 683.719,385.803 L 683.922,385.805 L 684.125,385.808 L 684.327,385.811 L 684.530,385.816 L 684.733,385.822 L 684.936,385.828 L 685.139,385.836 L 685.341,385.844 L 685.544,385.854 L 685.747,385.864 L 685.950,385.876 L 686.153,385.888 L 686.355,385.901 L 686.558,385.915 L 686.761,385.930 L 686.964,385.946 L 687.166,385.963 L 687.369,385.980 L 687.572,385.998 L 687.775,386.017 L 687.978,386.037 L 688.180,386.058 L 688.383,386.079 L 688.586,386.101 L 688.789,386.124 L 688.992,386.147 L 689.194,386.171 L 689.397,386.196 L 689.600,386.221 L 689.803,386.247 L 690.005,386.274 L 690.208,386.301 L 690.411,386.329 L 690.614,386.357 L 690.817,386.386 L 691.019,386.416 L 691.222,386.446 L 691.425,386.476 L 691.628,386.507 L 691.830,386.539 L 692.033,386.571 L 692.236,386.603 L 692.439,386.636 L 692.642,386.669 L 692.844,386.702 L 693.047,386.736 L 693.250,386.771 L 693.453,386.805 L 693.656,386.840 L 693.858,386.876 L 694.061,386.911 L 694.264,386.947 L 694.467,386.983 L 694.669,387.020 L 694.872,387.057 L 695.075,387.093 L 695.278,387.131 L 695.481,387.168 L 695.683,387.205 L 695.886,387.243 L 696.089,387.281 L 696.292,387.319 L 696.495,387.357 L 696.697,387.395 L 696.900,387.433 L 697.103,387.471 L 697.306,387.510 L 697.508,387.548 L 697.711,387.587 L 697.914,387.625 L 698.117,387.664 L 698.320,387.702 L 698.522,387.741 L 698.725,387.779 L 698.928,387.818 L 699.131,387.856 L 699.333,387.894 L 699.536,387.932 L 699.739,387.970 L 699.942,388.008 L 700.145,388.046 L 700.347,388.084 L 700.550,388.122 L 700.753,388.159 L 700.956,388.196 L 701.159,388.234 L 701.361,388.270 L 701.564,388.307 L 701.767,388.344 L 701.970,388.380 L 702.172,388.416 L 702.375,388.452 L 702.578,388.487 L 702.781,388.523 L 702.984,388.558 L 703.186,388.593 L 703.389,388.627 L 703.592,388.661 L 703.795,388.695 L 703.998,388.729 L 704.200,388.762 L 704.403,388.795 L 704.606,388.828 L 704.809,388.860 L 705.011,388.892 L 705.214,388.923 L 705.417,388.955 L 705.620,388.985 L 705.823,389.016 L 706.025,389.046 L 706.228,389.075 L 706.431,389.105 L 706.634,389.133 L 706.836,389.162 L 707.039,389.190 L 707.242,389.217 L 707.445,389.245 L 707.648,389.271 L 707.850,389.298 L 708.053,389.323 L 708.256,389.349 L 708.459,389.374 L 708.662,389.398 L 708.864,389.422 L 709.067,389.446 L 709.270,389.469 L 709.473,389.491 L 709.675,389.513 L 709.878,389.535 L 710.081,389.556 L 710.284,389.577 L 710.487,389.597 L 710.689,389.617 L 710.892,389.636 L 711.095,389.655 L 711.298,389.673 L 711.501,389.691 L 711.703,389.708 L 711.906,389.725 L 712.109,389.741 L 712.312,389.757 L 712.514,389.772 L 712.717,389.787 L 712.920,389.801 L 713.123,389.815 L 713.326,389.828 L 713.528,389.840 L 713.731,389.853 L 713.934,389.864 L 714.137,389.876 L 714.339,389.886 L 714.542,389.897 L 714.745,389.906 L 714.948,389.915 L 715.151,389.924 L 715.353,389.932 L 715.556,389.940 L 715.759,389.947 L 715.962,389.954 L 716.165,389.960 L 716.367,389.966 L 716.570,389.972 L 716.773,389.976 L 716.976,389.981 L 717.178,389.985 L 717.381,389.988 L 717.584,389.991 L 717.787,389.993 L 717.990,389.995 L 718.192,389.997 L 718.395,389.998 L 718.598,389.999 L 718.801,389.999 L 719.004,389.999 L 719.206,389.998 L 719.409,389.997 L 719.612,389.995 L 719.815,389.993 L 720.017,389.991 L 720.220,389.988 L 720.423,389.985 L 720.626,389.981 L 720.829,389.977 L 721.031,389.973 L 721.234,389.968 L 721.437,389.963 L 721.640,389.957 L 721.842,389.951 L 722.045,389.945 L 722.248,389.938 L 722.451,389.931 L 722.654,389.924 L 722.856,389.916 L 723.059,389.908 L 723.262,389.899 L 723.465,389.890 L 723.668,389.881 L 723.870,389.872 L 724.073,389.862 L 724.276,389.852 L 724.479,389.841 L 724.681,389.830 L 724.884,389.819 L 725.087,389.808 L 725.290,389.796 L 725.493,389.785 L 725.695,389.772 L 725.898,389.760 L 726.101,389.747 L 726.304,389.734 L 726.507,389.721 L 726.709,389.708 L 726.912,389.694 L 727.115,389.680 L 727.318,389.666 L 727.520,389.652 L 727.723,389.637 L 727.926,389.622 L 728.129,389.608 L 728.332,389.592 L 728.534,389.577 L 728.737,389.562 L 728.940,389.546 L 729.143,389.530 L 729.345,389.514 L 729.548,389.498 L 729.751,389.482 L 729.954,389.465 L 730.157,389.449 L 730.359,389.432 L 730.562,389.415 L 730.765,389.398 L 730.968,389.381 L 731.171,389.364 L 731.373,389.347 L 731.576,389.329 L 731.779,389.312 L 731.982,389.294 L 732.184,389.277 L 732.387,389.259 L 732.590,389.241 L 732.793,389.224 L 732.996,389.206 L 733.198,389.188 L 733.401,389.170 L 733.604,389.152 L 733.807,389.134 L 734.010,389.116 L 734.212,389.098 L 734.415,389.080 L 734.618,389.062 L 734.821,389.044 L 735.023,389.026 L 735.226,389.008 L 735.429,388.990 L 735.632,388.972 L 735.835,388.954 L 736.037,388.936 L 736.240,388.918 L 736.443,388.900 L 736.646,388.882 L 736.848,388.864 L 737.051,388.847 L 737.254,388.829 L 737.457,388.812 L 737.660,388.794 L 737.862,388.777 L 738.065,388.759 L 738.268,388.742 L 738.471,388.725 L 738.674,388.708 L 738.876,388.691 L 739.079,388.674 L 739.282,388.657 L 739.485,388.640 L 739.687,388.624 L 739.890,388.607 L 740.093,388.591 L 740.296,388.574 L 740.499,388.558 L 740.701,388.542 L 740.904,388.526 L 741.107,388.511 L 741.310,388.495 L 741.513,388.480 L 741.715,388.464 L 741.918,388.449 L 742.121,388.434 L 742.324,388.419 L 742.526,388.405 L 742.729,388.390 L 742.932,388.376 L 743.135,388.362 L 743.338,388.348 L 743.540,388.334 L 743.743,388.320 L 743.946,388.306 L 744.149,388.293 L 744.352,388.280 L 744.554,388.267 L 744.757,388.254 L 744.960,388.242 L 745.163,388.229 L 745.365,388.217 L 745.568,388.205 L 745.771,388.193 L 745.974,388.181 L 746.177,388.170 L 746.379,388.159 L 746.582,388.147 L 746.785,388.137 L 746.988,388.126 L 747.190,388.115 L 747.393,388.105 L 747.596,388.095 L 747.799,388.085 L 748.002,388.075 L 748.204,388.066 L 748.407,388.057 L 748.610,388.048 L 748.813,388.039 L 749.016,388.030 L 749.218,388.022 L 749.421,388.014 L 749.624,388.006 L 749.827,387.998 L 750.029,387.990 L 750.232,387.983 L 750.435,387.976 L 750.638,387.969 L 750.841,387.962 L 751.043,387.955 L 751.246,387.949 L 751.449,387.943 L 751.652,387.937 L 751.855,387.931 L 752.057,387.925 L 752.260,387.920 L 752.463,387.915 L 752.666,387.910 L 752.868,387.905 L 753.071,387.901 L 753.274,387.897 L 753.477,387.892 L 753.680,387.888 L 753.882,387.885 L 754.085,387.881 L 754.288,387.878 L 754.491,387.875 L 754.693,387.872 L 754.896,387.869 L 755.099,387.867 L 755.302,387.864 L 755.505,387.862 L 755.707,387.860 L 755.910,387.858 L 756.113,387.857 L 756.316,387.855 L 756.519,387.854 L 756.721,387.853 L 756.924,387.852 L 757.127,387.851 L 757.330,387.851 L 757.532,387.850 L 757.735,387.850 L 757.938,387.850 L 758.141,387.850 L 758.344,387.850 L 758.546,387.851 L 758.749,387.851 L 758.952,387.852 L 759.155,387.853 L 759.358,387.854 L 759.560,387.855 L 759.763,387.857 L 759.966,387.858 L 760.169,387.860 L 760.371,387.862 L 760.574,387.863 L 760.777,387.866 L 760.980,387.868 L 761.183,387.870 L 761.385,387.873 L 761.588,387.875 L 761.791,387.878 L 761.994,387.881 L 762.196,387.884 L 762.399,387.887 L 762.602,387.890 L 762.805,387.893 L 763.008,387.897 L 763.210,387.900 L 763.413,387.904 L 763.616,387.908 L 763.819,387.912 L 764.022,387.916 L 764.224,387.920 L 764.427,387.924 L 764.630,387.928 L 764.833,387.932 L 765.035,387.937 L 765.238,387.941 L 765.441,387.946 L 765.644,387.950 L 765.847,387.955 L 766.049,387.960 L 766.252,387.965 L 766.455,387.970 L 766.658,387.975 L 766.861,387.980 L 767.063,387.985 L 767.266,387.990 L 767.469,387.995 L 767.672,388.001 L 767.874,388.006 L 768.077,388.012 L 768.280,388.017 L 768.483,388.023 " style="stroke:#000000;stroke-opacity:1.00;stroke-width:1;stroke-linejoin:round;fill:none"/>
	<text x="765.04" y="454.05" style="stroke:none;fill:#000000;fill-opacity:1.00;fill-rule:evenodd;font-size:15.0px;text-anchor:end">t [s] </text>
	<text x="569.14" y="367.66" style="stroke:none;fill:#000000;fill-opacity:1.00;fill-rule:evenodd;font-size:15.0px">h(t) </text>
	<path d="M 561.643,461.549 L 772.538,461.549 L 772.538,350.413 L 561.643,350.413 Z" style="stroke:#000000;stroke-opacity:1.00;stroke-width:2;stroke-linejoin:round;fill:none"/>
	<text x="781.25" y="562.50" style="stroke:none;fill:#000000;fill-opacity:1.00;fill-rule:evenodd;font-size:15.0px;text-anchor:end">ω [rad/s] </text>
	<text x="63.75" y="324.75" style="stroke:none;fill:#000000;fill-opacity:1.00;fill-rule:evenodd;font-size:15.0px">Phase [°] </text>
	<path d="M 56.250,570.000 L 788.750,570.000 L 788.750,307.500 L 56.250,307.500 Z" style="stroke:#000000;stroke-opacity:1.00;stroke-width:2;stroke-linejoin:round;fill:none"/>
</svg>
