<?xml version="1.0" encoding="utf-8"?>
<svg class="svg" xmlns:svg="http://www.w3.org/2000/svg" xmlns="http://www.w3.org/2000/svg" width="800" height="600" viewBox="0 0 800 600">
	<path d="M 62.364,273.750 L 62.364,270.000 " style="stroke:#000000;stroke-opacity:1.00;stroke-width:1;stroke-linejoin:round;fill:none"/>
	<path d="M 62.364,270.000 L 62.364,1.000 " style="stroke:#bebebe;stroke-opacity:1.00;stroke-width:1;stroke-linejoin:round;stroke-dasharray:5.00,5.00;fill:none"/>
	<text x="70.53" y="294.75" style="stroke:none;fill:#000000;fill-opacity:1.00;fill-rule:evenodd;font-size:15.0px;text-anchor:middle">0.01</text>
	<path d="M 70.534,277.500 L 70.534,270.000 " style="stroke:#000000;stroke-opacity:1.00;stroke-width:2;stroke-linejoin:round;fill:none"/>
	<path d="M 70.534,270.000 L 70.534,1.000 " style="stroke:#bebebe;stroke-opacity:1.00;stroke-width:1;stroke-linejoin:round;stroke-dasharray:5.00,5.00;fill:none"/>
	<path d="M 124.281,273.750 L 124.281,270.000 " style="stroke:#000000;stroke-opacity:1.00;stroke-width:1;stroke-linejoin:round;fill:none"/>
	<path d="M 124.281,270.000 L 124.281,1.000 " style="stroke:#bebebe;stroke-opacity:1.00;stroke-width:1;stroke-linejoin:round;stroke-dasharray:5.00,5.00;fill:none"/>
	<path d="M 155.722,273.750 L 155.722,270.000 " style="stroke:#000000;stroke-opacity:1.00;stroke-width:1;stroke-linejoin:round;fill:none"/>
	<path d="M 155.722,270.000 L 155.722,1.000 " style="stroke:#bebebe;stroke-opacity:1.00;stroke-width:1;stroke-linejoin:round;stroke-dasharray:5.00,5.00;fill:none"/>
	<path d="M 178.029,273.750 L 178.029,270.000 " style="stroke:#000000;stroke-opacity:1.00;stroke-width:1;stroke-linejoin:round;fill:none"/>
	<path d="M 178.029,270.000 L 178.029,1.000 " style="stroke:#bebebe;stroke-opacity:1.00;stroke-width:1;stroke-linejoin:round;stroke-dasharray:5.00,5.00;fill:none"/>
	<path d="M 195.332,273.750 L 195.332,270.000 " style="stroke:#000000;stroke-opacity:1.00;stroke-width:1;stroke-linejoin:round;fill:none"/>
	<path d="M 195.332,270.000 L 195.332,1.000 " style="stroke:#bebebe;stroke-opacity:1.00;stroke-width:1;stroke-linejoin:round;stroke-dasharray:5.00,5.00;fill:none"/>
	<path d="M 209.469,273.750 L 209.469,270.000 " style="stroke:#000000;stroke-opacity:1.00;stroke-width:1;stroke-linejoin:round;fill:none"/>
	<path d="M 209.469,270.000 L 209.469,1.000 " style="stroke:#bebebe;stroke-opacity:1.00;stroke-width:1;stroke-linejoin:round;stroke-dasharray:5.00,5.00;fill:none"/>
	<path d="M 221.422,273.750 L 221.422,270.000 " style="stroke:#000000;stroke-opacity:1.00;stroke-width:1;stroke-linejoin:round;fill:none"/>
	<path d="M 221.422,270.000 L 221.422,1.000 " style="stroke:#bebebe;stroke-opacity:1.00;stroke-width:1;stroke-linejoin:round;stroke-dasharray:5.00,5.00;fill:none"/>
	<path d="M 231.776,273.750 L 231.776,270.000 " style="stroke:#000000;stroke-opacity:1.00;stroke-width:1;stroke-linejoin:round;fill:none"/>
	<path d="M 231.776,270.000 L 231.776,1.000 " style="stroke:#bebebe;stroke-opacity:1.00;stroke-width:1;stroke-linejoin:round;stroke-dasharray:5.00,5.00;fill:none"/>
	<path d="M 240.910,273.750 L 240.910,270.000 " style="stroke:#000000;stroke-opacity:1.00;stroke-width:1;stroke-linejoin:round;fill:none"/>
	<path d="M 240.910,270.000 L 240.910,1.000 " style="stroke:#bebebe;stroke-opacity:1.00;stroke-width:1;stroke-linejoin:round;stroke-dasharray:5.00,5.00;fill:none"/>
	<text x="249.08" y="294.75" style="stroke:none;fill:#000000;fill-opacity:1.00;fill-rule:evenodd;font-size:15.0px;text-anchor:middle">0.1</text>
	<path d="M 249.079,277.500 L 249.079,270.000 " style="stroke:#000000;stroke-opacity:1.00;stroke-width:2;stroke-linejoin:round;fill:none"/>
	<path d="M 249.079,270.000 L 249.079,1.000 " style="stroke:#bebebe;stroke-opacity:1.00;stroke-width:1;stroke-linejoin:round;stroke-dasharray:5.00,5.00;fill:none"/>
	<path d="M 302.827,273.750 L 302.827,270.000 " style="stroke:#000000;stroke-opacity:1.00;stroke-width:1;stroke-linejoin:round;fill:none"/>
	<path d="M 302.827,270.000 L 302.827,1.000 " style="stroke:#bebebe;stroke-opacity:1.00;stroke-width:1;stroke-linejoin:round;stroke-dasharray:5.00,5.00;fill:none"/>
	<path d="M 334.267,273.750 L 334.267,270.000 " style="stroke:#000000;stroke-opacity:1.00;stroke-width:1;stroke-linejoin:round;fill:none"/>
	<path d="M 334.267,270.000 L 334.267,1.000 " style="stroke:#bebebe;stroke-opacity:1.00;stroke-width:1;stroke-linejoin:round;stroke-dasharray:5.00,5.00;fill:none"/>
	<path d="M 356.575,273.750 L 356.575,270.000 " style="stroke:#000000;stroke-opacity:1.00;stroke-width:1;stroke-linejoin:round;fill:none"/>
	<path d="M 356.575,270.000 L 356.575,1.000 " style="stroke:#bebebe;stroke-opacity:1.00;stroke-width:1;stroke-linejoin:round;stroke-dasharray:5.00,5.00;fill:none"/>
	<path d="M 373.877,273.750 L 373.877,270.000 " style="stroke:#000000;stroke-opacity:1.00;stroke-width:1;stroke-linejoin:round;fill:none"/>
	<path d="M 373.877,270.000 L 373.877,1.000 " style="stroke:#bebebe;stroke-opacity:1.00;stroke-width:1;stroke-linejoin:round;stroke-dasharray:5.00,5.00;fill:none"/>
	<path d="M 388.015,273.750 L 388.015,270.000 " style="stroke:#000000;stroke-opacity:1.00;stroke-width:1;stroke-linejoin:round;fill:none"/>
	<path d="M 388.015,270.000 L 388.015,1.000 " style="stroke:#bebebe;stroke-opacity:1.00;stroke-width:1;stroke-linejoin:round;stroke-dasharray:5.00,5.00;fill:none"/>
	<path d="M 399.968,273.750 L 399.968,270.000 " style="stroke:#000000;stroke-opacity:1.00;stroke-width:1;stroke-linejoin:round;fill:none"/>
	<path d="M 399.968,270.000 L 399.968,1.000 " style="stroke:#bebebe;stroke-opacity:1.00;stroke-width:1;stroke-linejoin:round;stroke-dasharray:5.00,5.00;fill:none"/>
	<path d="M 410.322,273.750 L 410.322,270.000 " style="stroke:#000000;stroke-opacity:1.00;stroke-width:1;stroke-linejoin:round;fill:none"/>
	<path d="M 410.322,270.000 L 410.322,1.000 " style="stroke:#bebebe;stroke-opacity:1.00;stroke-width:1;stroke-linejoin:round;stroke-dasharray:5.00,5.00;fill:none"/>
	<path d="M 419.455,273.750 L 419.455,270.000 " style="stroke:#000000;stroke-opacity:1.00;stroke-width:1;stroke-linejoin:round;fill:none"/>
	<path d="M 419.455,270.000 L 419.455,1.000 " style="stroke:#bebebe;stroke-opacity:1.00;stroke-width:1;stroke-linejoin:round;stroke-dasharray:5.00,5.00;fill:none"/>
	<text x="427.62" y="294.75" style="stroke:none;fill:#000000;fill-opacity:1.00;fill-rule:evenodd;font-size:15.0px;text-anchor:middle">1</text>
	<path d="M 427.625,277.500 L 427.625,270.000 " style="stroke:#000000;stroke-opacity:1.00;stroke-width:2;stroke-linejoin:round;fill:none"/>
	<path d="M 427.625,270.000 L 427.625,1.000 " style="stroke:#bebebe;stroke-opacity:1.00;stroke-width:1;stroke-linejoin:round;stroke-dasharray:5.00,5.00;fill:none"/>
	<path d="M 481.373,273.750 L 481.373,270.000 " style="stroke:#000000;stroke-opacity:1.00;stroke-width:1;stroke-linejoin:round;fill:none"/>
	<path d="M 481.373,270.000 L 481.373,1.000 " style="stroke:#bebebe;stroke-opacity:1.00;stroke-width:1;stroke-linejoin:round;stroke-dasharray:5.00,5.00;fill:none"/>
	<path d="M 512.813,273.750 L 512.813,270.000 " style="stroke:#000000;stroke-opacity:1.00;stroke-width:1;stroke-linejoin:round;fill:none"/>
	<path d="M 512.813,270.000 L 512.813,1.000 " style="stroke:#bebebe;stroke-opacity:1.00;stroke-width:1;stroke-linejoin:round;stroke-dasharray:5.00,5.00;fill:none"/>
	<path d="M 535.120,273.750 L 535.120,270.000 " style="stroke:#000000;stroke-opacity:1.00;stroke-width:1;stroke-linejoin:round;fill:none"/>
	<path d="M 535.120,270.000 L 535.120,1.000 " style="stroke:#bebebe;stroke-opacity:1.00;stroke-width:1;stroke-linejoin:round;stroke-dasharray:5.00,5.00;fill:none"/>
	<path d="M 552.423,273.750 L 552.423,270.000 " style="stroke:#000000;stroke-opacity:1.00;stroke-width:1;stroke-linejoin:round;fill:none"/>
	<path d="M 552.423,270.000 L 552.423,1.000 " style="stroke:#bebebe;stroke-opacity:1.00;stroke-width:1;stroke-linejoin:round;stroke-dasharray:5.00,5.00;fill:none"/>
	<path d="M 566.561,273.750 L 566.561,270.000 " style="stroke:#000000;stroke-opacity:1.00;stroke-width:1;stroke-linejoin:round;fill:none"/>
	<path d="M 566.561,270.000 L 566.561,1.000 " style="stroke:#bebebe;stroke-opacity:1.00;stroke-width:1;stroke-linejoin:round;stroke-dasharray:5.00,5.00;fill:none"/>
	<path d="M 578.514,273.750 L 578.514,270.000 " style="stroke:#000000;stroke-opacity:1.00;stroke-width:1;stroke-linejoin:round;fill:none"/>
	<path d="M 578.514,270.000 L 578.514,1.000 " style="stroke:#bebebe;stroke-opacity:1.00;stroke-width:1;stroke-linejoin:round;stroke-dasharray:5.00,5.00;fill:none"/>
	<path d="M 588.868,273.750 L 588.868,270.000 " style="stroke:#000000;stroke-opacity:1.00;stroke-width:1;stroke-linejoin:round;fill:none"/>
	<path d="M 588.868,270.000 L 588.868,1.000 " style="stroke:#bebebe;stroke-opacity:1.00;stroke-width:1;stroke-linejoin:round;stroke-dasharray:5.00,5.00;fill:none"/>
	<path d="M 598.001,273.750 L 598.001,270.000 " style="stroke:#000000;stroke-opacity:1.00;stroke-width:1;stroke-linejoin:round;fill:none"/>
	<path d="M 598.001,270.000 L 598.001,1.000 " style="stroke:#bebebe;stroke-opacity:1.00;stroke-width:1;stroke-linejoin:round;stroke-dasharray:5.00,5.00;fill:none"/>
	<text x="606.17" y="294.75" style="stroke:none;fill:#000000;fill-opacity:1.00;fill-rule:evenodd;font-size:15.0px;text-anchor:middle">10</text>
	<path d="M 606.171,277.500 L 606.171,270.000 " style="stroke:#000000;stroke-opacity:1.00;stroke-width:2;stroke-linejoin:round;fill:none"/>
	<path d="M 606.171,270.000 L 606.171,1.000 " style="stroke:#bebebe;stroke-opacity:1.00;stroke-width:1;stroke-linejoin:round;stroke-dasharray:5.00,5.00;fill:none"/>
	<path d="M 659.918,273.750 L 659.918,270.000 " style="stroke:#000000;stroke-opacity:1.00;stroke-width:1;stroke-linejoin:round;fill:none"/>
	<path d="M 659.918,270.000 L 659.918,1.000 " style="stroke:#bebebe;stroke-opacity:1.00;stroke-width:1;stroke-linejoin:round;stroke-dasharray:5.00,5.00;fill:none"/>
	<path d="M 691.359,273.750 L 691.359,270.000 " style="stroke:#000000;stroke-opacity:1.00;stroke-width:1;stroke-linejoin:round;fill:none"/>
	<path d="M 691.359,270.000 L 691.359,1.000 " style="stroke:#bebebe;stroke-opacity:1.00;stroke-width:1;stroke-linejoin:round;stroke-dasharray:5.00,5.00;fill:none"/>
	<path d="M 713.666,273.750 L 713.666,270.000 " style="stroke:#000000;stroke-opacity:1.00;stroke-width:1;stroke-linejoin:round;fill:none"/>
	<path d="M 713.666,270.000 L 713.666,1.000 " style="stroke:#bebebe;stroke-opacity:1.00;stroke-width:1;stroke-linejoin:round;stroke-dasharray:5.00,5.00;fill:none"/>
	<path d="M 730.969,273.750 L 730.969,270.000 " style="stroke:#000000;stroke-opacity:1.00;stroke-width:1;stroke-linejoin:round;fill:none"/>
	<path d="M 730.969,270.000 L 730.969,1.000 " style="stroke:#bebebe;stroke-opacity:1.00;stroke-width:1;stroke-linejoin:round;stroke-dasharray:5.00,5.00;fill:none"/>
	<path d="M 745.106,273.750 L 745.106,270.000 " style="stroke:#000000;stroke-opacity:1.00;stroke-width:1;stroke-linejoin:round;fill:none"/>
	<path d="M 745.106,270.000 L 745.106,1.000 " style="stroke:#bebebe;stroke-opacity:1.00;stroke-width:1;stroke-linejoin:round;stroke-dasharray:5.00,5.00;fill:none"/>
	<path d="M 757.059,273.750 L 757.059,270.000 " style="stroke:#000000;stroke-opacity:1.00;stroke-width:1;stroke-linejoin:round;fill:none"/>
	<path d="M 757.059,270.000 L 757.059,1.000 " style="stroke:#bebebe;stroke-opacity:1.00;stroke-width:1;stroke-linejoin:round;stroke-dasharray:5.00,5.00;fill:none"/>
	<path d="M 767.413,273.750 L 767.413,270.000 " style="stroke:#000000;stroke-opacity:1.00;stroke-width:1;stroke-linejoin:round;fill:none"/>
	<path d="M 767.413,270.000 L 767.413,1.000 " style="stroke:#bebebe;stroke-opacity:1.00;stroke-width:1;stroke-linejoin:round;stroke-dasharray:5.00,5.00;fill:none"/>
	<path d="M 776.547,273.750 L 776.547,270.000 " style="stroke:#000000;stroke-opacity:1.00;stroke-width:1;stroke-linejoin:round;fill:none"/>
	<path d="M 776.547,270.000 L 776.547,1.000 " style="stroke:#bebebe;stroke-opacity:1.00;stroke-width:1;stroke-linejoin:round;stroke-dasharray:5.00,5.00;fill:none"/>
	<text x="784.72" y="294.75" style="stroke:none;fill:#000000;fill-opacity:1.00;fill-rule:evenodd;font-size:15.0px;text-anchor:middle">100</text>
	<path d="M 784.716,277.500 L 784.716,270.000 " style="stroke:#000000;stroke-opacity:1.00;stroke-width:2;stroke-linejoin:round;fill:none"/>
	<path d="M 784.716,270.000 L 784.716,1.000 " style="stroke:#bebebe;stroke-opacity:1.00;stroke-width:1;stroke-linejoin:round;stroke-dasharray:5.00,5.00;fill:none"/>
	<text x="45.00" y="272.29" style="stroke:none;fill:#000000;fill-opacity:1.00;fill-rule:evenodd;font-size:15.0px;text-anchor:end">-120</text>
	<path d="M 48.750,267.294 L 56.250,267.294 " style="stroke:#000000;stroke-opacity:1.00;stroke-width:2;stroke-linejoin:round;fill:none"/>
	<path d="M 56.250,267.294 L 799.000,267.294 " style="stroke:#bebebe;stroke-opacity:1.00;stroke-width:1;stroke-linejoin:round;stroke-dasharray:5.00,5.00;fill:none"/>
	<text x="45.00" y="241.69" style="stroke:none;fill:#000000;fill-opacity:1.00;fill-rule:evenodd;font-size:15.0px;text-anchor:end">-100</text>
	<path d="M 48.750,236.690 L 56.250,236.690 " style="stroke:#000000;stroke-opacity:1.00;stroke-width:2;stroke-linejoin:round;fill:none"/>
	<path d="M 56.250,236.690 L 799.000,236.690 " style="stroke:#bebebe;stroke-opacity:1.00;stroke-width:1;stroke-linejoin:round;stroke-dasharray:5.00,5.00;fill:none"/>
	<text x="45.00" y="211.09" style="stroke:none;fill:#000000;fill-opacity:1.00;fill-rule:evenodd;font-size:15.0px;text-anchor:end">-80</text>
	<path d="M 48.750,206.086 L 56.250,206.086 " style="stroke:#000000;stroke-opacity:1.00;stroke-width:2;stroke-linejoin:round;fill:none"/>
	<path d="M 56.250,206.086 L 799.000,206.086 " style="stroke:#bebebe;stroke-opacity:1.00;stroke-width:1;stroke-linejoin:round;stroke-dasharray:5.00,5.00;fill:none"/>
	<text x="45.00" y="180.48" style="stroke:none;fill:#000000;fill-opacity:1.00;fill-rule:evenodd;font-size:15.0px;text-anchor:end">-60</text>
	<path d="M 48.750,175.482 L 56.250,175.482 " style="stroke:#000000;stroke-opacity:1.00;stroke-width:2;stroke-linejoin:round;fill:none"/>
	<path d="M 56.250,175.482 L 799.000,175.482 " style="stroke:#bebebe;stroke-opacity:1.00;stroke-width:1;stroke-linejoin:round;stroke-dasharray:5.00,5.00;fill:none"/>
	<text x="45.00" y="149.88" style="stroke:none;fill:#000000;fill-opacity:1.00;fill-rule:evenodd;font-size:15.0px;text-anchor:end">-40</text>
	<path d="M 48.750,144.878 L 56.250,144.878 " style="stroke:#000000;stroke-opacity:1.00;stroke-width:2;stroke-linejoin:round;fill:none"/>
	<path d="M 56.250,144.878 L 799.000,144.878 " style="stroke:#bebebe;stroke-opacity:1.00;stroke-width:1;stroke-linejoin:round;stroke-dasharray:5.00,5.00;fill:none"/>
	<text x="45.00" y="119.27" style="stroke:none;fill:#000000;fill-opacity:1.00;fill-rule:evenodd;font-size:15.0px;text-anchor:end">-20</text>
	<path d="M 48.750,114.274 L 56.250,114.274 " style="stroke:#000000;stroke-opacity:1.00;stroke-width:2;stroke-linejoin:round;fill:none"/>
	<path d="M 56.250,114.274 L 799.000,114.274 " style="stroke:#bebebe;stroke-opacity:1.00;stroke-width:1;stroke-linejoin:round;stroke-dasharray:5.00,5.00;fill:none"/>
	<text x="45.00" y="88.67" style="stroke:none;fill:#000000;fill-opacity:1.00;fill-rule:evenodd;font-size:15.0px;text-anchor:end">0</text>
	<path d="M 48.750,83.670 L 56.250,83.670 " style="stroke:#000000;stroke-opacity:1.00;stroke-width:2;stroke-linejoin:round;fill:none"/>
	<path d="M 56.250,83.670 L 799.000,83.670 " style="stroke:#bebebe;stroke-opacity:1.00;stroke-width:1;stroke-linejoin:round;stroke-dasharray:5.00,5.00;fill:none"/>
	<text x="45.00" y="58.07" style="stroke:none;fill:#000000;fill-opacity:1.00;fill-rule:evenodd;font-size:15.0px;text-anchor:end">20</text>
	<path d="M 48.750,53.066 L 56.250,53.066 " style="stroke:#000000;stroke-opacity:1.00;stroke-width:2;stroke-linejoin:round;fill:none"/>
	<path d="M 56.250,53.066 L 799.000,53.066 " style="stroke:#bebebe;stroke-opacity:1.00;stroke-width:1;stroke-linejoin:round;stroke-dasharray:5.00,5.00;fill:none"/>
	<text x="45.00" y="27.46" style="stroke:none;fill:#000000;fill-opacity:1.00;fill-rule:evenodd;font-size:15.0px;text-anchor:end">40</text>
	<path d="M 48.750,22.462 L 56.250,22.462 " style="stroke:#000000;stroke-opacity:1.00;stroke-width:2;stroke-linejoin:round;fill:none"/>
	<path d="M 56.250,22.462 L 799.000,22.462 " style="stroke:#bebebe;stroke-opacity:1.00;stroke-width:1;stroke-linejoin:round;stroke-dasharray:5.00,5.00;fill:none"/>
	<path d="M 56.250,23.486 L 59.964,24.123 L 63.678,24.759 L 67.391,25.395 L 71.105,26.032 L 74.819,26.668 L 78.532,27.305 L 82.246,27.941 L 85.960,28.577 L 89.674,29.214 L 93.388,29.850 L 97.101,30.486 L 100.815,31.122 L 104.529,31.758 L 108.243,32.395 L 111.956,33.031 L 115.670,33.667 L 119.384,34.303 L 123.098,34.939 L 126.811,35.575 L 130.525,36.210 L 134.239,36.846 L 137.953,37.482 L 141.666,38.117 L 145.380,38.753 L 149.094,39.388 L 152.808,40.024 L 156.521,40.659 L 160.235,41.294 L 163.949,41.929 L 167.663,42.563 L 171.376,43.198 L 175.090,43.832 L 178.804,44.466 L 182.518,45.100 L 186.231,45.733 L 189.945,46.366 L 193.659,46.999 L 197.373,47.632 L 201.086,48.264 L 204.800,48.895 L 208.514,49.527 L 212.228,50.157 L 215.941,50.787 L 219.655,51.417 L 223.369,52.045 L 227.083,52.673 L 230.796,53.300 L 234.510,53.926 L 238.224,54.552 L 241.938,55.176 L 245.651,55.799 L 249.365,56.420 L 253.079,57.040 L 256.793,57.659 L 260.506,58.276 L 264.220,58.891 L 267.934,59.504 L 271.648,60.115 L 275.361,60.724 L 279.075,61.330 L 282.789,61.933 L 286.503,62.534 L 290.216,63.132 L 293.930,63.726 L 297.644,64.317 L 301.358,64.904 L 305.071,65.487 L 308.785,66.066 L 312.499,66.641 L 316.213,67.211 L 319.926,67.776 L 323.640,68.337 L 327.354,68.893 L 331.068,69.443 L 334.781,69.989 L 338.495,70.529 L 342.209,71.065 L 345.923,71.595 L 349.636,72.121 L 353.350,72.643 L 357.064,73.161 L 360.778,73.675 L 364.491,74.186 L 368.205,74.695 L 371.919,75.203 L 375.633,75.711 L 379.346,76.219 L 383.060,76.729 L 386.774,77.242 L 390.488,77.760 L 394.201,78.283 L 397.915,78.814 L 401.629,79.354 L 405.343,79.904 L 409.056,80.466 L 412.770,81.043 L 416.484,81.635 L 420.198,82.245 L 423.911,82.874 L 427.625,83.524 L 431.339,84.196 L 435.053,84.892 L 438.766,85.614 L 442.480,86.363 L 446.194,87.141 L 449.908,87.948 L 453.621,88.786 L 457.335,89.656 L 461.049,90.559 L 464.763,91.496 L 468.476,92.468 L 472.190,93.475 L 475.904,94.517 L 479.618,95.595 L 483.331,96.710 L 487.045,97.860 L 490.759,99.047 L 494.473,100.269 L 498.186,101.527 L 501.900,102.819 L 505.614,104.146 L 509.328,105.506 L 513.041,106.898 L 516.755,108.322 L 520.469,109.777 L 524.183,111.261 L 527.896,112.773 L 531.610,114.312 L 535.324,115.877 L 539.038,117.466 L 542.751,119.078 L 546.465,120.713 L 550.179,122.368 L 553.893,124.042 L 557.606,125.735 L 561.320,127.444 L 565.034,129.170 L 568.748,130.910 L 572.461,132.664 L 576.175,134.431 L 579.889,136.210 L 583.603,137.999 L 587.316,139.799 L 591.030,141.608 L 594.744,143.425 L 598.458,145.251 L 602.171,147.084 L 605.885,148.923 L 609.599,150.769 L 613.313,152.620 L 617.026,154.476 L 620.740,156.337 L 624.454,158.202 L 628.168,160.072 L 631.881,161.945 L 635.595,163.821 L 639.309,165.700 L 643.023,167.582 L 646.736,169.466 L 650.450,171.353 L 654.164,173.241 L 657.878,175.132 L 661.591,177.024 L 665.305,178.918 L 669.019,180.813 L 672.733,182.710 L 676.446,184.608 L 680.160,186.507 L 683.874,188.407 L 687.588,190.307 L 691.301,192.209 L 695.015,194.111 L 698.729,196.014 L 702.443,197.918 L 706.156,199.822 L 709.870,201.727 L 713.584,203.632 L 717.298,205.537 L 721.011,207.443 L 724.725,209.349 L 728.439,211.256 L 732.153,213.163 L 735.866,215.070 L 739.580,216.977 L 743.294,218.885 L 747.008,220.793 L 750.721,222.700 L 754.435,224.609 L 758.149,226.517 L 761.863,228.425 L 765.576,230.334 L 769.290,232.242 L 773.004,234.151 L 776.718,236.060 L 780.431,237.969 L 784.145,239.878 L 787.859,241.787 L 791.573,243.696 L 795.286,245.605 L 799.000,247.514 " style="stroke:#000000;stroke-opacity:1.00;stroke-width:1;stroke-linejoin:round;fill:none"/>
	<path d="M 56.250,58.562 L 59.964,59.198 L 63.678,59.834 L 67.391,60.471 L 71.105,61.107 L 74.819,61.743 L 78.532,62.380 L 82.246,63.016 L 85.960,63.652 L 89.674,64.288 L 93.388,64.924 L 97.101,65.560 L 100.815,66.196 L 104.529,66.832 L 108.243,67.468 L 111.956,68.104 L 115.670,68.740 L 119.384,69.376 L 123.098,70.011 L 126.811,70.647 L 130.525,71.282 L 134.239,71.918 L 137.953,72.553 L 141.666,73.188 L 145.380,73.823 L 149.094,74.457 L 152.808,75.092 L 156.521,75.726 L 160.235,76.360 L 163.949,76.994 L 167.663,77.628 L 171.376,78.261 L 175.090,78.894 L 178.804,79.527 L 182.518,80.159 L 186.231,80.791 L 189.945,81.422 L 193.659,82.053 L 197.373,82.683 L 201.086,83.313 L 204.800,83.942 L 208.514,84.570 L 212.228,85.197 L 215.941,85.824 L 219.655,86.449 L 223.369,87.073 L 227.083,87.696 L 230.796,88.318 L 234.510,88.938 L 238.224,89.557 L 241.938,90.174 L 245.651,90.789 L 249.365,91.402 L 253.079,92.013 L 256.793,92.621 L 260.506,93.227 L 264.220,93.829 L 267.934,94.429 L 271.648,95.025 L 275.361,95.617 L 279.075,96.205 L 282.789,96.788 L 286.503,97.367 L 290.216,97.940 L 293.930,98.508 L 297.644,99.069 L 301.358,99.624 L 305.071,100.172 L 308.785,100.713 L 312.499,101.245 L 316.213,101.769 L 319.926,102.284 L 323.640,102.788 L 327.354,103.283 L 331.068,103.767 L 334.781,104.239 L 338.495,104.699 L 342.209,105.147 L 345.923,105.582 L 349.636,106.004 L 353.350,106.411 L 357.064,106.805 L 360.778,107.184 L 364.491,107.548 L 368.205,107.897 L 371.919,108.231 L 375.633,108.549 L 379.346,108.853 L 383.060,109.141 L 386.774,109.414 L 390.488,109.673 L 394.201,109.917 L 397.915,110.147 L 401.629,110.362 L 405.343,110.565 L 409.056,110.754 L 412.770,110.931 L 416.484,111.096 L 420.198,111.249 L 423.911,111.392 L 427.625,111.524 L 431.339,111.647 L 435.053,111.760 L 438.766,111.865 L 442.480,111.961 L 446.194,112.050 L 449.908,112.132 L 453.621,112.207 L 457.335,112.277 L 461.049,112.340 L 464.763,112.398 L 468.476,112.452 L 472.190,112.501 L 475.904,112.545 L 479.618,112.586 L 483.331,112.623 L 487.045,112.658 L 490.759,112.689 L 494.473,112.717 L 498.186,112.743 L 501.900,112.767 L 505.614,112.788 L 509.328,112.808 L 513.041,112.826 L 516.755,112.842 L 520.469,112.857 L 524.183,112.871 L 527.896,112.883 L 531.610,112.894 L 535.324,112.905 L 539.038,112.914 L 542.751,112.922 L 546.465,112.930 L 550.179,112.937 L 553.893,112.943 L 557.606,112.949 L 561.320,112.954 L 565.034,112.959 L 568.748,112.964 L 572.461,112.968 L 576.175,112.971 L 579.889,112.974 L 583.603,112.977 L 587.316,112.980 L 591.030,112.983 L 594.744,112.985 L 598.458,112.987 L 602.171,112.989 L 605.885,112.990 L 609.599,112.992 L 613.313,112.993 L 617.026,112.995 L 620.740,112.996 L 624.454,112.997 L 628.168,112.998 L 631.881,112.999 L 635.595,112.999 L 639.309,113.000 L 643.023,113.001 L 646.736,113.001 L 650.450,113.002 L 654.164,113.002 L 657.878,113.003 L 661.591,113.003 L 665.305,113.003 L 669.019,113.004 L 672.733,113.004 L 676.446,113.004 L 680.160,113.005 L 683.874,113.005 L 687.588,113.005 L 691.301,113.005 L 695.015,113.005 L 698.729,113.006 L 702.443,113.006 L 706.156,113.006 L 709.870,113.006 L 713.584,113.006 L 717.298,113.006 L 721.011,113.006 L 724.725,113.006 L 728.439,113.006 L 732.153,113.006 L 735.866,113.007 L 739.580,113.007 L 743.294,113.007 L 747.008,113.007 L 750.721,113.007 L 754.435,113.007 L 758.149,113.007 L 761.863,113.007 L 765.576,113.007 L 769.290,113.007 L 773.004,113.007 L 776.718,113.007 L 780.431,113.007 L 784.145,113.007 L 787.859,113.007 L 791.573,113.007 L 795.286,113.007 L 799.000,113.007 " style="stroke:#0000ff;stroke-opacity:1.00;stroke-width:1;stroke-linejoin:round;fill:none"/>
	<path d="M 56.250,48.594 L 59.964,48.594 L 63.678,48.594 L 67.391,48.595 L 71.105,48.595 L 74.819,48.595 L 78.532,48.595 L 82.246,48.595 L 85.960,48.595 L 89.674,48.595 L 93.388,48.595 L 97.101,48.596 L 100.815,48.596 L 104.529,48.596 L 108.243,48.596 L 111.956,48.596 L 115.670,48.597 L 119.384,48.597 L 123.098,48.597 L 126.811,48.598 L 130.525,48.598 L 134.239,48.599 L 137.953,48.599 L 141.666,48.600 L 145.380,48.600 L 149.094,48.601 L 152.808,48.601 L 156.521,48.602 L 160.235,48.603 L 163.949,48.604 L 167.663,48.605 L 171.376,48.606 L 175.090,48.608 L 178.804,48.609 L 182.518,48.610 L 186.231,48.612 L 189.945,48.614 L 193.659,48.616 L 197.373,48.618 L 201.086,48.621 L 204.800,48.624 L 208.514,48.627 L 212.228,48.630 L 215.941,48.633 L 219.655,48.637 L 223.369,48.642 L 227.083,48.647 L 230.796,48.652 L 234.510,48.658 L 238.224,48.664 L 241.938,48.671 L 245.651,48.679 L 249.365,48.688 L 253.079,48.697 L 256.793,48.707 L 260.506,48.719 L 264.220,48.731 L 267.934,48.745 L 271.648,48.760 L 275.361,48.777 L 279.075,48.795 L 282.789,48.815 L 286.503,48.837 L 290.216,48.861 L 293.930,48.888 L 297.644,48.917 L 301.358,48.949 L 305.071,48.984 L 308.785,49.023 L 312.499,49.065 L 316.213,49.112 L 319.926,49.163 L 323.640,49.219 L 327.354,49.280 L 331.068,49.347 L 334.781,49.420 L 338.495,49.500 L 342.209,49.587 L 345.923,49.683 L 349.636,49.787 L 353.350,49.901 L 357.064,50.026 L 360.778,50.161 L 364.491,50.308 L 368.205,50.468 L 371.919,50.642 L 375.633,50.831 L 379.346,51.036 L 383.060,51.258 L 386.774,51.498 L 390.488,51.757 L 394.201,52.036 L 397.915,52.337 L 401.629,52.661 L 405.343,53.009 L 409.056,53.382 L 412.770,53.782 L 416.484,54.209 L 420.198,54.666 L 423.911,55.152 L 427.625,55.669 L 431.339,56.219 L 435.053,56.802 L 438.766,57.419 L 442.480,58.072 L 446.194,58.760 L 449.908,59.485 L 453.621,60.248 L 457.335,61.049 L 461.049,61.889 L 464.763,62.768 L 468.476,63.686 L 472.190,64.644 L 475.904,65.642 L 479.618,66.679 L 483.331,67.756 L 487.045,68.873 L 490.759,70.028 L 494.473,71.222 L 498.186,72.453 L 501.900,73.722 L 505.614,75.027 L 509.328,76.367 L 513.041,77.742 L 516.755,79.150 L 520.469,80.589 L 524.183,82.060 L 527.896,83.559 L 531.610,85.087 L 535.324,86.642 L 539.038,88.222 L 542.751,89.826 L 546.465,91.452 L 550.179,93.100 L 553.893,94.769 L 557.606,96.455 L 561.320,98.160 L 565.034,99.880 L 568.748,101.616 L 572.461,103.366 L 576.175,105.130 L 579.889,106.905 L 583.603,108.692 L 587.316,110.488 L 591.030,112.295 L 594.744,114.110 L 598.458,115.934 L 602.171,117.765 L 605.885,119.603 L 609.599,121.447 L 613.313,123.296 L 617.026,125.151 L 620.740,127.011 L 624.454,128.876 L 628.168,130.744 L 631.881,132.616 L 635.595,134.491 L 639.309,136.370 L 643.023,138.251 L 646.736,140.135 L 650.450,142.021 L 654.164,143.909 L 657.878,145.799 L 661.591,147.691 L 665.305,149.584 L 669.019,151.479 L 672.733,153.376 L 676.446,155.273 L 680.160,157.172 L 683.874,159.072 L 687.588,160.972 L 691.301,162.873 L 695.015,164.776 L 698.729,166.678 L 702.443,168.582 L 706.156,170.486 L 709.870,172.390 L 713.584,174.295 L 717.298,176.201 L 721.011,178.107 L 724.725,180.013 L 728.439,181.919 L 732.153,183.826 L 735.866,185.733 L 739.580,187.640 L 743.294,189.548 L 747.008,191.456 L 750.721,193.364 L 754.435,195.272 L 758.149,197.180 L 761.863,199.088 L 765.576,200.997 L 769.290,202.905 L 773.004,204.814 L 776.718,206.723 L 780.431,208.631 L 784.145,210.540 L 787.859,212.449 L 791.573,214.358 L 795.286,216.268 L 799.000,218.177 " style="stroke:#00ff00;stroke-opacity:1.00;stroke-width:1;stroke-linejoin:round;fill:none"/>
	<text x="791.50" y="262.50" style="stroke:none;fill:#000000;fill-opacity:1.00;fill-rule:evenodd;font-size:15.0px;text-anchor:end">ω [rad/s] </text>
	<text x="63.75" y="18.25" style="stroke:none;fill:#000000;fill-opacity:1.00;fill-rule:evenodd;font-size:15.0px">Amplitude [dB]</text>
	<path d="M 56.250,270.000 L 799.000,270.000 L 799.000,1.000 L 56.250,1.000 Z" style="stroke:#000000;stroke-opacity:1.00;stroke-width:2;stroke-linejoin:round;fill:none"/>
	<text x="105.00" y="215.00" style="stroke:none;fill:#000000;fill-opacity:1.00;fill-rule:evenodd;font-size:15.0px">G</text>
	<path d="M 67.500,210.000 L 97.500,210.000 " style="stroke:#00ff00;stroke-opacity:1.00;stroke-width:1;stroke-linejoin:round;fill:none"/>
	<text x="105.00" y="237.50" style="stroke:none;fill:#000000;fill-opacity:1.00;fill-rule:evenodd;font-size:15.0px">K</text>
	<path d="M 67.500,232.500 L 97.500,232.500 " style="stroke:#0000ff;stroke-opacity:1.00;stroke-width:1;stroke-linejoin:round;fill:none"/>
	<text x="105.00" y="260.00" style="stroke:none;fill:#000000;fill-opacity:1.00;fill-rule:evenodd;font-size:15.0px">G₀</text>
	<path d="M 67.500,255.000 L 97.500,255.000 " style="stroke:#000000;stroke-opacity:1.00;stroke-width:1;stroke-linejoin:round;fill:none"/>
	<path d="M 62.364,573.750 L 62.364,570.000 " style="stroke:#000000;stroke-opacity:1.00;stroke-width:1;stroke-linejoin:round;fill:none"/>
	<path d="M 62.364,570.000 L 62.364,301.000 " style="stroke:#bebebe;stroke-opacity:1.00;stroke-width:1;stroke-linejoin:round;stroke-dasharray:5.00,5.00;fill:none"/>
	<text x="70.53" y="594.75" style="stroke:none;fill:#000000;fill-opacity:1.00;fill-rule:evenodd;font-size:15.0px;text-anchor:middle">0.01</text>
	<path d="M 70.534,577.500 L 70.534,570.000 " style="stroke:#000000;stroke-opacity:1.00;stroke-width:2;stroke-linejoin:round;fill:none"/>
	<path d="M 70.534,570.000 L 70.534,301.000 " style="stroke:#bebebe;stroke-opacity:1.00;stroke-width:1;stroke-linejoin:round;stroke-dasharray:5.00,5.00;fill:none"/>
	<path d="M 124.281,573.750 L 124.281,570.000 " style="stroke:#000000;stroke-opacity:1.00;stroke-width:1;stroke-linejoin:round;fill:none"/>
	<path d="M 124.281,570.000 L 124.281,301.000 " style="stroke:#bebebe;stroke-opacity:1.00;stroke-width:1;stroke-linejoin:round;stroke-dasharray:5.00,5.00;fill:none"/>
	<path d="M 155.722,573.750 L 155.722,570.000 " style="stroke:#000000;stroke-opacity:1.00;stroke-width:1;stroke-linejoin:round;fill:none"/>
	<path d="M 155.722,570.000 L 155.722,301.000 " style="stroke:#bebebe;stroke-opacity:1.00;stroke-width:1;stroke-linejoin:round;stroke-dasharray:5.00,5.00;fill:none"/>
	<path d="M 178.029,573.750 L 178.029,570.000 " style="stroke:#000000;stroke-opacity:1.00;stroke-width:1;stroke-linejoin:round;fill:none"/>
	<path d="M 178.029,570.000 L 178.029,301.000 " style="stroke:#bebebe;stroke-opacity:1.00;stroke-width:1;stroke-linejoin:round;stroke-dasharray:5.00,5.00;fill:none"/>
	<path d="M 195.332,573.750 L 195.332,570.000 " style="stroke:#000000;stroke-opacity:1.00;stroke-width:1;stroke-linejoin:round;fill:none"/>
	<path d="M 195.332,570.000 L 195.332,301.000 " style="stroke:#bebebe;stroke-opacity:1.00;stroke-width:1;stroke-linejoin:round;stroke-dasharray:5.00,5.00;fill:none"/>
	<path d="M 209.469,573.750 L 209.469,570.000 " style="stroke:#000000;stroke-opacity:1.00;stroke-width:1;stroke-linejoin:round;fill:none"/>
	<path d="M 209.469,570.000 L 209.469,301.000 " style="stroke:#bebebe;stroke-opacity:1.00;stroke-width:1;stroke-linejoin:round;stroke-dasharray:5.00,5.00;fill:none"/>
	<path d="M 221.422,573.750 L 221.422,570.000 " style="stroke:#000000;stroke-opacity:1.00;stroke-width:1;stroke-linejoin:round;fill:none"/>
	<path d="M 221.422,570.000 L 221.422,301.000 " style="stroke:#bebebe;stroke-opacity:1.00;stroke-width:1;stroke-linejoin:round;stroke-dasharray:5.00,5.00;fill:none"/>
	<path d="M 231.776,573.750 L 231.776,570.000 " style="stroke:#000000;stroke-opacity:1.00;stroke-width:1;stroke-linejoin:round;fill:none"/>
	<path d="M 231.776,570.000 L 231.776,301.000 " style="stroke:#bebebe;stroke-opacity:1.00;stroke-width:1;stroke-linejoin:round;stroke-dasharray:5.00,5.00;fill:none"/>
	<path d="M 240.910,573.750 L 240.910,570.000 " style="stroke:#000000;stroke-opacity:1.00;stroke-width:1;stroke-linejoin:round;fill:none"/>
	<path d="M 240.910,570.000 L 240.910,301.000 " style="stroke:#bebebe;stroke-opacity:1.00;stroke-width:1;stroke-linejoin:round;stroke-dasharray:5.00,5.00;fill:none"/>
	<text x="249.08" y="594.75" style="stroke:none;fill:#000000;fill-opacity:1.00;fill-rule:evenodd;font-size:15.0px;text-anchor:middle">0.1</text>
	<path d="M 249.079,577.500 L 249.079,570.000 " style="stroke:#000000;stroke-opacity:1.00;stroke-width:2;stroke-linejoin:round;fill:none"/>
	<path d="M 249.079,570.000 L 249.079,301.000 " style="stroke:#bebebe;stroke-opacity:1.00;stroke-width:1;stroke-linejoin:round;stroke-dasharray:5.00,5.00;fill:none"/>
	<path d="M 302.827,573.750 L 302.827,570.000 " style="stroke:#000000;stroke-opacity:1.00;stroke-width:1;stroke-linejoin:round;fill:none"/>
	<path d="M 302.827,570.000 L 302.827,301.000 " style="stroke:#bebebe;stroke-opacity:1.00;stroke-width:1;stroke-linejoin:round;stroke-dasharray:5.00,5.00;fill:none"/>
	<path d="M 334.267,573.750 L 334.267,570.000 " style="stroke:#000000;stroke-opacity:1.00;stroke-width:1;stroke-linejoin:round;fill:none"/>
	<path d="M 334.267,570.000 L 334.267,301.000 " style="stroke:#bebebe;stroke-opacity:1.00;stroke-width:1;stroke-linejoin:round;stroke-dasharray:5.00,5.00;fill:none"/>
	<path d="M 356.575,573.750 L 356.575,570.000 " style="stroke:#000000;stroke-opacity:1.00;stroke-width:1;stroke-linejoin:round;fill:none"/>
	<path d="M 356.575,570.000 L 356.575,301.000 " style="stroke:#bebebe;stroke-opacity:1.00;stroke-width:1;stroke-linejoin:round;stroke-dasharray:5.00,5.00;fill:none"/>
	<path d="M 373.877,573.750 L 373.877,570.000 " style="stroke:#000000;stroke-opacity:1.00;stroke-width:1;stroke-linejoin:round;fill:none"/>
	<path d="M 373.877,570.000 L 373.877,301.000 " style="stroke:#bebebe;stroke-opacity:1.00;stroke-width:1;stroke-linejoin:round;stroke-dasharray:5.00,5.00;fill:none"/>
	<path d="M 388.015,573.750 L 388.015,570.000 " style="stroke:#000000;stroke-opacity:1.00;stroke-width:1;stroke-linejoin:round;fill:none"/>
	<path d="M 388.015,570.000 L 388.015,301.000 " style="stroke:#bebebe;stroke-opacity:1.00;stroke-width:1;stroke-linejoin:round;stroke-dasharray:5.00,5.00;fill:none"/>
	<path d="M 399.968,573.750 L 399.968,570.000 " style="stroke:#000000;stroke-opacity:1.00;stroke-width:1;stroke-linejoin:round;fill:none"/>
	<path d="M 399.968,570.000 L 399.968,301.000 " style="stroke:#bebebe;stroke-opacity:1.00;stroke-width:1;stroke-linejoin:round;stroke-dasharray:5.00,5.00;fill:none"/>
	<path d="M 410.322,573.750 L 410.322,570.000 " style="stroke:#000000;stroke-opacity:1.00;stroke-width:1;stroke-linejoin:round;fill:none"/>
	<path d="M 410.322,570.000 L 410.322,301.000 " style="stroke:#bebebe;stroke-opacity:1.00;stroke-width:1;stroke-linejoin:round;stroke-dasharray:5.00,5.00;fill:none"/>
	<path d="M 419.455,573.750 L 419.455,570.000 " style="stroke:#000000;stroke-opacity:1.00;stroke-width:1;stroke-linejoin:round;fill:none"/>
	<path d="M 419.455,570.000 L 419.455,301.000 " style="stroke:#bebebe;stroke-opacity:1.00;stroke-width:1;stroke-linejoin:round;stroke-dasharray:5.00,5.00;fill:none"/>
	<text x="427.62" y="594.75" style="stroke:none;fill:#000000;fill-opacity:1.00;fill-rule:evenodd;font-size:15.0px;text-anchor:middle">1</text>
	<path d="M 427.625,577.500 L 427.625,570.000 " style="stroke:#000000;stroke-opacity:1.00;stroke-width:2;stroke-linejoin:round;fill:none"/>
	<path d="M 427.625,570.000 L 427.625,301.000 " style="stroke:#bebebe;stroke-opacity:1.00;stroke-width:1;stroke-linejoin:round;stroke-dasharray:5.00,5.00;fill:none"/>
	<path d="M 481.373,573.750 L 481.373,570.000 " style="stroke:#000000;stroke-opacity:1.00;stroke-width:1;stroke-linejoin:round;fill:none"/>
	<path d="M 481.373,570.000 L 481.373,301.000 " style="stroke:#bebebe;stroke-opacity:1.00;stroke-width:1;stroke-linejoin:round;stroke-dasharray:5.00,5.00;fill:none"/>
	<path d="M 512.813,573.750 L 512.813,570.000 " style="stroke:#000000;stroke-opacity:1.00;stroke-width:1;stroke-linejoin:round;fill:none"/>
	<path d="M 512.813,570.000 L 512.813,301.000 " style="stroke:#bebebe;stroke-opacity:1.00;stroke-width:1;stroke-linejoin:round;stroke-dasharray:5.00,5.00;fill:none"/>
	<path d="M 535.120,573.750 L 535.120,570.000 " style="stroke:#000000;stroke-opacity:1.00;stroke-width:1;stroke-linejoin:round;fill:none"/>
	<path d="M 535.120,570.000 L 535.120,301.000 " style="stroke:#bebebe;stroke-opacity:1.00;stroke-width:1;stroke-linejoin:round;stroke-dasharray:5.00,5.00;fill:none"/>
	<path d="M 552.423,573.750 L 552.423,570.000 " style="stroke:#000000;stroke-opacity:1.00;stroke-width:1;stroke-linejoin:round;fill:none"/>
	<path d="M 552.423,570.000 L 552.423,301.000 " style="stroke:#bebebe;stroke-opacity:1.00;stroke-width:1;stroke-linejoin:round;stroke-dasharray:5.00,5.00;fill:none"/>
	<path d="M 566.561,573.750 L 566.561,570.000 " style="stroke:#000000;stroke-opacity:1.00;stroke-width:1;stroke-linejoin:round;fill:none"/>
	<path d="M 566.561,570.000 L 566.561,301.000 " style="stroke:#bebebe;stroke-opacity:1.00;stroke-width:1;stroke-linejoin:round;stroke-dasharray:5.00,5.00;fill:none"/>
	<path d="M 578.514,573.750 L 578.514,570.000 " style="stroke:#000000;stroke-opacity:1.00;stroke-width:1;stroke-linejoin:round;fill:none"/>
	<path d="M 578.514,570.000 L 578.514,301.000 " style="stroke:#bebebe;stroke-opacity:1.00;stroke-width:1;stroke-linejoin:round;stroke-dasharray:5.00,5.00;fill:none"/>
	<path d="M 588.868,573.750 L 588.868,570.000 " style="stroke:#000000;stroke-opacity:1.00;stroke-width:1;stroke-linejoin:round;fill:none"/>
	<path d="M 588.868,570.000 L 588.868,301.000 " style="stroke:#bebebe;stroke-opacity:1.00;stroke-width:1;stroke-linejoin:round;stroke-dasharray:5.00,5.00;fill:none"/>
	<path d="M 598.001,573.750 L 598.001,570.000 " style="stroke:#000000;stroke-opacity:1.00;stroke-width:1;stroke-linejoin:round;fill:none"/>
	<path d="M 598.001,570.000 L 598.001,301.000 " style="stroke:#bebebe;stroke-opacity:1.00;stroke-width:1;stroke-linejoin:round;stroke-dasharray:5.00,5.00;fill:none"/>
	<text x="606.17" y="594.75" style="stroke:none;fill:#000000;fill-opacity:1.00;fill-rule:evenodd;font-size:15.0px;text-anchor:middle">10</text>
	<path d="M 606.171,577.500 L 606.171,570.000 " style="stroke:#000000;stroke-opacity:1.00;stroke-width:2;stroke-linejoin:round;fill:none"/>
	<path d="M 606.171,570.000 L 606.171,301.000 " style="stroke:#bebebe;stroke-opacity:1.00;stroke-width:1;stroke-linejoin:round;stroke-dasharray:5.00,5.00;fill:none"/>
	<path d="M 659.918,573.750 L 659.918,570.000 " style="stroke:#000000;stroke-opacity:1.00;stroke-width:1;stroke-linejoin:round;fill:none"/>
	<path d="M 659.918,570.000 L 659.918,301.000 " style="stroke:#bebebe;stroke-opacity:1.00;stroke-width:1;stroke-linejoin:round;stroke-dasharray:5.00,5.00;fill:none"/>
	<path d="M 691.359,573.750 L 691.359,570.000 " style="stroke:#000000;stroke-opacity:1.00;stroke-width:1;stroke-linejoin:round;fill:none"/>
	<path d="M 691.359,570.000 L 691.359,301.000 " style="stroke:#bebebe;stroke-opacity:1.00;stroke-width:1;stroke-linejoin:round;stroke-dasharray:5.00,5.00;fill:none"/>
	<path d="M 713.666,573.750 L 713.666,570.000 " style="stroke:#000000;stroke-opacity:1.00;stroke-width:1;stroke-linejoin:round;fill:none"/>
	<path d="M 713.666,570.000 L 713.666,301.000 " style="stroke:#bebebe;stroke-opacity:1.00;stroke-width:1;stroke-linejoin:round;stroke-dasharray:5.00,5.00;fill:none"/>
	<path d="M 730.969,573.750 L 730.969,570.000 " style="stroke:#000000;stroke-opacity:1.00;stroke-width:1;stroke-linejoin:round;fill:none"/>
	<path d="M 730.969,570.000 L 730.969,301.000 " style="stroke:#bebebe;stroke-opacity:1.00;stroke-width:1;stroke-linejoin:round;stroke-dasharray:5.00,5.00;fill:none"/>
	<path d="M 745.106,573.750 L 745.106,570.000 " style="stroke:#000000;stroke-opacity:1.00;stroke-width:1;stroke-linejoin:round;fill:none"/>
	<path d="M 745.106,570.000 L 745.106,301.000 " style="stroke:#bebebe;stroke-opacity:1.00;stroke-width:1;stroke-linejoin:round;stroke-dasharray:5.00,5.00;fill:none"/>
	<path d="M 757.059,573.750 L 757.059,570.000 " style="stroke:#000000;stroke-opacity:1.00;stroke-width:1;stroke-linejoin:round;fill:none"/>
	<path d="M 757.059,570.000 L 757.059,301.000 " style="stroke:#bebebe;stroke-opacity:1.00;stroke-width:1;stroke-linejoin:round;stroke-dasharray:5.00,5.00;fill:none"/>
	<path d="M 767.413,573.750 L 767.413,570.000 " style="stroke:#000000;stroke-opacity:1.00;stroke-width:1;stroke-linejoin:round;fill:none"/>
	<path d="M 767.413,570.000 L 767.413,301.000 " style="stroke:#bebebe;stroke-opacity:1.00;stroke-width:1;stroke-linejoin:round;stroke-dasharray:5.00,5.00;fill:none"/>
	<path d="M 776.547,573.750 L 776.547,570.000 " style="stroke:#000000;stroke-opacity:1.00;stroke-width:1;stroke-linejoin:round;fill:none"/>
	<path d="M 776.547,570.000 L 776.547,301.000 " style="stroke:#bebebe;stroke-opacity:1.00;stroke-width:1;stroke-linejoin:round;stroke-dasharray:5.00,5.00;fill:none"/>
	<text x="784.72" y="594.75" style="stroke:none;fill:#000000;fill-opacity:1.00;fill-rule:evenodd;font-size:15.0px;text-anchor:middle">100</text>
	<path d="M 784.716,577.500 L 784.716,570.000 " style="stroke:#000000;stroke-opacity:1.00;stroke-width:2;stroke-linejoin:round;fill:none"/>
	<path d="M 784.716,570.000 L 784.716,301.000 " style="stroke:#bebebe;stroke-opacity:1.00;stroke-width:1;stroke-linejoin:round;stroke-dasharray:5.00,5.00;fill:none"/>
	<text x="45.00" y="554.51" style="stroke:none;fill:#000000;fill-opacity:1.00;fill-rule:evenodd;font-size:15.0px;text-anchor:end">-270</text>
	<path d="M 48.750,549.510 L 56.250,549.510 " style="stroke:#000000;stroke-opacity:1.00;stroke-width:2;stroke-linejoin:round;fill:none"/>
	<path d="M 56.250,549.510 L 799.000,549.510 " style="stroke:#bebebe;stroke-opacity:1.00;stroke-width:1;stroke-linejoin:round;stroke-dasharray:5.00,5.00;fill:none"/>
	<text x="45.00" y="516.81" style="stroke:none;fill:#000000;fill-opacity:1.00;fill-rule:evenodd;font-size:15.0px;text-anchor:end">-225</text>
	<path d="M 48.750,511.806 L 56.250,511.806 " style="stroke:#000000;stroke-opacity:1.00;stroke-width:2;stroke-linejoin:round;fill:none"/>
	<path d="M 56.250,511.806 L 799.000,511.806 " style="stroke:#bebebe;stroke-opacity:1.00;stroke-width:1;stroke-linejoin:round;stroke-dasharray:5.00,5.00;fill:none"/>
	<text x="45.00" y="479.10" style="stroke:none;fill:#000000;fill-opacity:1.00;fill-rule:evenodd;font-size:15.0px;text-anchor:end">-180</text>
	<path d="M 48.750,474.102 L 56.250,474.102 " style="stroke:#000000;stroke-opacity:1.00;stroke-width:2;stroke-linejoin:round;fill:none"/>
	<path d="M 56.250,474.102 L 799.000,474.102 " style="stroke:#bebebe;stroke-opacity:1.00;stroke-width:1;stroke-linejoin:round;stroke-dasharray:5.00,5.00;fill:none"/>
	<text x="45.00" y="441.40" style="stroke:none;fill:#000000;fill-opacity:1.00;fill-rule:evenodd;font-size:15.0px;text-anchor:end">-135</text>
	<path d="M 48.750,436.398 L 56.250,436.398 " style="stroke:#000000;stroke-opacity:1.00;stroke-width:2;stroke-linejoin:round;fill:none"/>
	<path d="M 56.250,436.398 L 799.000,436.398 " style="stroke:#bebebe;stroke-opacity:1.00;stroke-width:1;stroke-linejoin:round;stroke-dasharray:5.00,5.00;fill:none"/>
	<text x="45.00" y="403.69" style="stroke:none;fill:#000000;fill-opacity:1.00;fill-rule:evenodd;font-size:15.0px;text-anchor:end">-90</text>
	<path d="M 48.750,398.694 L 56.250,398.694 " style="stroke:#000000;stroke-opacity:1.00;stroke-width:2;stroke-linejoin:round;fill:none"/>
	<path d="M 56.250,398.694 L 799.000,398.694 " style="stroke:#bebebe;stroke-opacity:1.00;stroke-width:1;stroke-linejoin:round;stroke-dasharray:5.00,5.00;fill:none"/>
	<text x="45.00" y="365.99" style="stroke:none;fill:#000000;fill-opacity:1.00;fill-rule:evenodd;font-size:15.0px;text-anchor:end">-45</text>
	<path d="M 48.750,360.990 L 56.250,360.990 " style="stroke:#000000;stroke-opacity:1.00;stroke-width:2;stroke-linejoin:round;fill:none"/>
	<path d="M 56.250,360.990 L 799.000,360.990 " style="stroke:#bebebe;stroke-opacity:1.00;stroke-width:1;stroke-linejoin:round;stroke-dasharray:5.00,5.00;fill:none"/>
	<text x="45.00" y="328.29" style="stroke:none;fill:#000000;fill-opacity:1.00;fill-rule:evenodd;font-size:15.0px;text-anchor:end">0</text>
	<path d="M 48.750,323.286 L 56.250,323.286 " style="stroke:#000000;stroke-opacity:1.00;stroke-width:2;stroke-linejoin:round;fill:none"/>
	<path d="M 56.250,323.286 L 799.000,323.286 " style="stroke:#bebebe;stroke-opacity:1.00;stroke-width:1;stroke-linejoin:round;stroke-dasharray:5.00,5.00;fill:none"/>
	<path d="M 56.250,398.654 L 59.964,398.653 L 63.678,398.650 L 67.391,398.648 L 71.105,398.646 L 74.819,398.644 L 78.532,398.641 L 82.246,398.639 L 85.960,398.636 L 89.674,398.633 L 93.388,398.630 L 97.101,398.627 L 100.815,398.624 L 104.529,398.620 L 108.243,398.617 L 111.956,398.613 L 115.670,398.609 L 119.384,398.605 L 123.098,398.601 L 126.811,398.596 L 130.525,398.591 L 134.239,398.586 L 137.953,398.581 L 141.666,398.576 L 145.380,398.570 L 149.094,398.564 L 152.808,398.558 L 156.521,398.552 L 160.235,398.545 L 163.949,398.538 L 167.663,398.531 L 171.376,398.523 L 175.090,398.516 L 178.804,398.508 L 182.518,398.499 L 186.231,398.490 L 189.945,398.481 L 193.659,398.472 L 197.373,398.463 L 201.086,398.453 L 204.800,398.443 L 208.514,398.432 L 212.228,398.422 L 215.941,398.411 L 219.655,398.400 L 223.369,398.390 L 227.083,398.379 L 230.796,398.368 L 234.510,398.357 L 238.224,398.347 L 241.938,398.337 L 245.651,398.328 L 249.365,398.320 L 253.079,398.312 L 256.793,398.306 L 260.506,398.302 L 264.220,398.299 L 267.934,398.299 L 271.648,398.301 L 275.361,398.307 L 279.075,398.316 L 282.789,398.330 L 286.503,398.349 L 290.216,398.375 L 293.930,398.407 L 297.644,398.448 L 301.358,398.498 L 305.071,398.559 L 308.785,398.632 L 312.499,398.720 L 316.213,398.823 L 319.926,398.944 L 323.640,399.085 L 327.354,399.249 L 331.068,399.438 L 334.781,399.655 L 338.495,399.903 L 342.209,400.186 L 345.923,400.505 L 349.636,400.866 L 353.350,401.271 L 357.064,401.725 L 360.778,402.230 L 364.491,402.792 L 368.205,403.413 L 371.919,404.097 L 375.633,404.849 L 379.346,405.671 L 383.060,406.566 L 386.774,407.538 L 390.488,408.590 L 394.201,409.723 L 397.915,410.940 L 401.629,412.242 L 405.343,413.631 L 409.056,415.106 L 412.770,416.668 L 416.484,418.317 L 420.198,420.052 L 423.911,421.871 L 427.625,423.773 L 431.339,425.755 L 435.053,427.815 L 438.766,429.949 L 442.480,432.154 L 446.194,434.425 L 449.908,436.758 L 453.621,439.150 L 457.335,441.593 L 461.049,444.084 L 464.763,446.616 L 468.476,449.184 L 472.190,451.781 L 475.904,454.403 L 479.618,457.041 L 483.331,459.691 L 487.045,462.346 L 490.759,464.999 L 494.473,467.646 L 498.186,470.279 L 501.900,472.892 L 505.614,475.482 L 509.328,478.042 L 513.041,480.567 L 516.755,483.053 L 520.469,485.496 L 524.183,487.892 L 527.896,490.238 L 531.610,492.530 L 535.324,494.766 L 539.038,496.945 L 542.751,499.064 L 546.465,501.122 L 550.179,503.118 L 553.893,505.052 L 557.606,506.922 L 561.320,508.730 L 565.034,510.475 L 568.748,512.159 L 572.461,513.780 L 576.175,515.342 L 579.889,516.843 L 583.603,518.287 L 587.316,519.673 L 591.030,521.004 L 594.744,522.281 L 598.458,523.505 L 602.171,524.679 L 605.885,525.803 L 609.599,526.879 L 613.313,527.909 L 617.026,528.894 L 620.740,529.837 L 624.454,530.738 L 628.168,531.600 L 631.881,532.424 L 635.595,533.210 L 639.309,533.962 L 643.023,534.680 L 646.736,535.365 L 650.450,536.020 L 654.164,536.645 L 657.878,537.241 L 661.591,537.810 L 665.305,538.354 L 669.019,538.872 L 672.733,539.366 L 676.446,539.838 L 680.160,540.288 L 683.874,540.718 L 687.588,541.127 L 691.301,541.518 L 695.015,541.890 L 698.729,542.246 L 702.443,542.584 L 706.156,542.907 L 709.870,543.215 L 713.584,543.509 L 717.298,543.789 L 721.011,544.056 L 724.725,544.311 L 728.439,544.554 L 732.153,544.785 L 735.866,545.006 L 739.580,545.216 L 743.294,545.417 L 747.008,545.608 L 750.721,545.791 L 754.435,545.964 L 758.149,546.130 L 761.863,546.288 L 765.576,546.439 L 769.290,546.582 L 773.004,546.719 L 776.718,546.850 L 780.431,546.974 L 784.145,547.093 L 787.859,547.206 L 791.573,547.313 L 795.286,547.416 L 799.000,547.514 " style="stroke:#000000;stroke-opacity:1.00;stroke-width:1;stroke-linejoin:round;fill:none"/>
	<path d="M 56.250,397.896 L 59.964,397.857 L 63.678,397.816 L 67.391,397.772 L 71.105,397.727 L 74.819,397.680 L 78.532,397.630 L 82.246,397.578 L 85.960,397.523 L 89.674,397.466 L 93.388,397.405 L 97.101,397.342 L 100.815,397.276 L 104.529,397.206 L 108.243,397.133 L 111.956,397.057 L 115.670,396.977 L 119.384,396.892 L 123.098,396.804 L 126.811,396.712 L 130.525,396.614 L 134.239,396.512 L 137.953,396.406 L 141.666,396.293 L 145.380,396.176 L 149.094,396.053 L 152.808,395.923 L 156.521,395.788 L 160.235,395.645 L 163.949,395.496 L 167.663,395.340 L 171.376,395.176 L 175.090,395.004 L 178.804,394.824 L 182.518,394.635 L 186.231,394.437 L 189.945,394.229 L 193.659,394.011 L 197.373,393.783 L 201.086,393.544 L 204.800,393.293 L 208.514,393.031 L 212.228,392.755 L 215.941,392.467 L 219.655,392.165 L 223.369,391.849 L 227.083,391.518 L 230.796,391.172 L 234.510,390.809 L 238.224,390.430 L 241.938,390.033 L 245.651,389.618 L 249.365,389.184 L 253.079,388.730 L 256.793,388.257 L 260.506,387.762 L 264.220,387.245 L 267.934,386.706 L 271.648,386.144 L 275.361,385.557 L 279.075,384.947 L 282.789,384.311 L 286.503,383.650 L 290.216,382.963 L 293.930,382.248 L 297.644,381.507 L 301.358,380.739 L 305.071,379.944 L 308.785,379.120 L 312.499,378.270 L 316.213,377.392 L 319.926,376.487 L 323.640,375.555 L 327.354,374.598 L 331.068,373.616 L 334.781,372.610 L 338.495,371.582 L 342.209,370.532 L 345.923,369.462 L 349.636,368.375 L 353.350,367.272 L 357.064,366.155 L 360.778,365.026 L 364.491,363.889 L 368.205,362.745 L 371.919,361.597 L 375.633,360.447 L 379.346,359.299 L 383.060,358.155 L 386.774,357.017 L 390.488,355.888 L 394.201,354.770 L 397.915,353.666 L 401.629,352.578 L 405.343,351.507 L 409.056,350.456 L 412.770,349.426 L 416.484,348.419 L 420.198,347.436 L 423.911,346.477 L 427.625,345.544 L 431.339,344.638 L 435.053,343.759 L 438.766,342.906 L 442.480,342.082 L 446.194,341.284 L 449.908,340.515 L 453.621,339.772 L 457.335,339.057 L 461.049,338.368 L 464.763,337.705 L 468.476,337.068 L 472.190,336.456 L 475.904,335.869 L 479.618,335.305 L 483.331,334.765 L 487.045,334.247 L 490.759,333.751 L 494.473,333.276 L 498.186,332.821 L 501.900,332.386 L 505.614,331.970 L 509.328,331.572 L 513.041,331.192 L 516.755,330.828 L 520.469,330.481 L 524.183,330.149 L 527.896,329.832 L 531.610,329.530 L 535.324,329.241 L 539.038,328.965 L 542.751,328.702 L 546.465,328.450 L 550.179,328.211 L 553.893,327.982 L 557.606,327.764 L 561.320,327.555 L 565.034,327.357 L 568.748,327.167 L 572.461,326.986 L 576.175,326.814 L 579.889,326.650 L 583.603,326.493 L 587.316,326.343 L 591.030,326.201 L 594.744,326.065 L 598.458,325.935 L 602.171,325.811 L 605.885,325.694 L 609.599,325.581 L 613.313,325.474 L 617.026,325.372 L 620.740,325.274 L 624.454,325.182 L 628.168,325.093 L 631.881,325.009 L 635.595,324.928 L 639.309,324.851 L 643.023,324.778 L 646.736,324.709 L 650.450,324.642 L 654.164,324.579 L 657.878,324.518 L 661.591,324.461 L 665.305,324.406 L 669.019,324.353 L 672.733,324.304 L 676.446,324.256 L 680.160,324.211 L 683.874,324.168 L 687.588,324.126 L 691.301,324.087 L 695.015,324.050 L 698.729,324.014 L 702.443,323.980 L 706.156,323.947 L 709.870,323.917 L 713.584,323.887 L 717.298,323.859 L 721.011,323.832 L 724.725,323.807 L 728.439,323.782 L 732.153,323.759 L 735.866,323.737 L 739.580,323.716 L 743.294,323.696 L 747.008,323.677 L 750.721,323.659 L 754.435,323.641 L 758.149,323.625 L 761.863,323.609 L 765.576,323.594 L 769.290,323.579 L 773.004,323.566 L 776.718,323.553 L 780.431,323.540 L 784.145,323.528 L 787.859,323.517 L 791.573,323.506 L 795.286,323.496 L 799.000,323.486 " style="stroke:#0000ff;stroke-opacity:1.00;stroke-width:1;stroke-linejoin:round;fill:none"/>
	<path d="M 56.250,324.045 L 59.964,324.082 L 63.678,324.121 L 67.391,324.162 L 71.105,324.205 L 74.819,324.250 L 78.532,324.298 L 82.246,324.347 L 85.960,324.399 L 89.674,324.454 L 93.388,324.511 L 97.101,324.571 L 100.815,324.634 L 104.529,324.700 L 108.243,324.770 L 111.956,324.842 L 115.670,324.919 L 119.384,324.999 L 123.098,325.083 L 126.811,325.171 L 130.525,325.263 L 134.239,325.360 L 137.953,325.462 L 141.666,325.569 L 145.380,325.681 L 149.094,325.798 L 152.808,325.921 L 156.521,326.051 L 160.235,326.186 L 163.949,326.328 L 167.663,326.478 L 171.376,326.634 L 175.090,326.798 L 178.804,326.970 L 182.518,327.151 L 186.231,327.340 L 189.945,327.539 L 193.659,327.747 L 197.373,327.966 L 201.086,328.195 L 204.800,328.436 L 208.514,328.688 L 212.228,328.953 L 215.941,329.230 L 219.655,329.521 L 223.369,329.827 L 227.083,330.147 L 230.796,330.482 L 234.510,330.834 L 238.224,331.204 L 241.938,331.591 L 245.651,331.997 L 249.365,332.422 L 253.079,332.868 L 256.793,333.336 L 260.506,333.826 L 264.220,334.340 L 267.934,334.879 L 271.648,335.444 L 275.361,336.036 L 279.075,336.656 L 282.789,337.305 L 286.503,337.986 L 290.216,338.699 L 293.930,339.445 L 297.644,340.227 L 301.358,341.045 L 305.071,341.902 L 308.785,342.799 L 312.499,343.737 L 316.213,344.718 L 319.926,345.744 L 323.640,346.816 L 327.354,347.937 L 331.068,349.109 L 334.781,350.332 L 338.495,351.608 L 342.209,352.940 L 345.923,354.329 L 349.636,355.777 L 353.350,357.286 L 357.064,358.856 L 360.778,360.490 L 364.491,362.189 L 368.205,363.954 L 371.919,365.787 L 375.633,367.688 L 379.346,369.658 L 383.060,371.698 L 386.774,373.808 L 390.488,375.989 L 394.201,378.240 L 397.915,380.561 L 401.629,382.951 L 405.343,385.410 L 409.056,387.936 L 412.770,390.528 L 416.484,393.184 L 420.198,395.903 L 423.911,398.680 L 427.625,401.515 L 431.339,404.404 L 435.053,407.343 L 438.766,410.329 L 442.480,413.358 L 446.194,416.427 L 449.908,419.530 L 453.621,422.664 L 457.335,425.823 L 461.049,429.002 L 464.763,432.197 L 468.476,435.402 L 472.190,438.612 L 475.904,441.820 L 479.618,445.023 L 483.331,448.213 L 487.045,451.385 L 490.759,454.535 L 494.473,457.656 L 498.186,460.744 L 501.900,463.793 L 505.614,466.798 L 509.328,469.756 L 513.041,472.662 L 516.755,475.511 L 520.469,478.302 L 524.183,481.029 L 527.896,483.692 L 531.610,486.287 L 535.324,488.812 L 539.038,491.267 L 542.751,493.649 L 546.465,495.958 L 550.179,498.194 L 553.893,500.356 L 557.606,502.445 L 561.320,504.461 L 565.034,506.405 L 568.748,508.278 L 572.461,510.080 L 576.175,511.814 L 579.889,513.480 L 583.603,515.080 L 587.316,516.616 L 591.030,518.090 L 594.744,519.503 L 598.458,520.857 L 602.171,522.154 L 605.885,523.395 L 609.599,524.584 L 613.313,525.721 L 617.026,526.809 L 620.740,527.849 L 624.454,528.843 L 628.168,529.793 L 631.881,530.701 L 635.595,531.569 L 639.309,532.397 L 643.023,533.188 L 646.736,533.943 L 650.450,534.664 L 654.164,535.352 L 657.878,536.009 L 661.591,536.636 L 665.305,537.234 L 669.019,537.805 L 672.733,538.349 L 676.446,538.869 L 680.160,539.364 L 683.874,539.837 L 687.588,540.287 L 691.301,540.717 L 695.015,541.127 L 698.729,541.518 L 702.443,541.891 L 706.156,542.246 L 709.870,542.585 L 713.584,542.909 L 717.298,543.217 L 721.011,543.511 L 724.725,543.791 L 728.439,544.058 L 732.153,544.313 L 735.866,544.555 L 739.580,544.787 L 743.294,545.008 L 747.008,545.218 L 750.721,545.418 L 754.435,545.610 L 758.149,545.792 L 761.863,545.966 L 765.576,546.131 L 769.290,546.289 L 773.004,546.440 L 776.718,546.583 L 780.431,546.720 L 784.145,546.851 L 787.859,546.975 L 791.573,547.094 L 795.286,547.207 L 799.000,547.314 " style="stroke:#00ff00;stroke-opacity:1.00;stroke-width:1;stroke-linejoin:round;fill:none"/>
	<text x="791.50" y="562.50" style="stroke:none;fill:#000000;fill-opacity:1.00;fill-rule:evenodd;font-size:15.0px;text-anchor:end">ω [rad/s] </text>
	<text x="63.75" y="318.25" style="stroke:none;fill:#000000;fill-opacity:1.00;fill-rule:evenodd;font-size:15.0px">Phase [°] </text>
	<path d="M 56.250,570.000 L 799.000,570.000 L 799.000,301.000 L 56.250,301.000 Z" style="stroke:#000000;stroke-opacity:1.00;stroke-width:2;stroke-linejoin:round;fill:none"/>
</svg>
