<?xml version="1.0" encoding="utf-8"?>
<svg class="svg" xmlns:svg="http://www.w3.org/2000/svg" xmlns="http://www.w3.org/2000/svg" width="800" height="600" viewBox="0 0 800 600">
	<text x="70.34" y="594.75" style="stroke:none;fill:#000000;fill-opacity:1.00;fill-rule:evenodd;font-size:15.0px;text-anchor:middle">-4.5</text>
	<path d="M 70.337,577.500 L 70.337,570.000 " style="stroke:#000000;stroke-opacity:1.00;stroke-width:2;stroke-linejoin:round;fill:none"/>
	<text x="145.26" y="594.75" style="stroke:none;fill:#000000;fill-opacity:1.00;fill-rule:evenodd;font-size:15.0px;text-anchor:middle">-4.0</text>
	<path d="M 145.265,577.500 L 145.265,570.000 " style="stroke:#000000;stroke-opacity:1.00;stroke-width:2;stroke-linejoin:round;fill:none"/>
	<text x="220.19" y="594.75" style="stroke:none;fill:#000000;fill-opacity:1.00;fill-rule:evenodd;font-size:15.0px;text-anchor:middle">-3.5</text>
	<path d="M 220.193,577.500 L 220.193,570.000 " style="stroke:#000000;stroke-opacity:1.00;stroke-width:2;stroke-linejoin:round;fill:none"/>
	<text x="295.12" y="594.75" style="stroke:none;fill:#000000;fill-opacity:1.00;fill-rule:evenodd;font-size:15.0px;text-anchor:middle">-3.0</text>
	<path d="M 295.122,577.500 L 295.122,570.000 " style="stroke:#000000;stroke-opacity:1.00;stroke-width:2;stroke-linejoin:round;fill:none"/>
	<text x="370.05" y="594.75" style="stroke:none;fill:#000000;fill-opacity:1.00;fill-rule:evenodd;font-size:15.0px;text-anchor:middle">-2.5</text>
	<path d="M 370.050,577.500 L 370.050,570.000 " style="stroke:#000000;stroke-opacity:1.00;stroke-width:2;stroke-linejoin:round;fill:none"/>
	<text x="444.98" y="594.75" style="stroke:none;fill:#000000;fill-opacity:1.00;fill-rule:evenodd;font-size:15.0px;text-anchor:middle">-2.0</text>
	<path d="M 444.979,577.500 L 444.979,570.000 " style="stroke:#000000;stroke-opacity:1.00;stroke-width:2;stroke-linejoin:round;fill:none"/>
	<text x="519.91" y="594.75" style="stroke:none;fill:#000000;fill-opacity:1.00;fill-rule:evenodd;font-size:15.0px;text-anchor:middle">-1.5</text>
	<path d="M 519.907,577.500 L 519.907,570.000 " style="stroke:#000000;stroke-opacity:1.00;stroke-width:2;stroke-linejoin:round;fill:none"/>
	<text x="594.84" y="594.75" style="stroke:none;fill:#000000;fill-opacity:1.00;fill-rule:evenodd;font-size:15.0px;text-anchor:middle">-1.0</text>
	<path d="M 594.835,577.500 L 594.835,570.000 " style="stroke:#000000;stroke-opacity:1.00;stroke-width:2;stroke-linejoin:round;fill:none"/>
	<text x="669.76" y="594.75" style="stroke:none;fill:#000000;fill-opacity:1.00;fill-rule:evenodd;font-size:15.0px;text-anchor:middle">-0.5</text>
	<path d="M 669.764,577.500 L 669.764,570.000 " style="stroke:#000000;stroke-opacity:1.00;stroke-width:2;stroke-linejoin:round;fill:none"/>
	<text x="744.69" y="594.75" style="stroke:none;fill:#000000;fill-opacity:1.00;fill-rule:evenodd;font-size:15.0px;text-anchor:middle">0.0</text>
	<path d="M 744.692,577.500 L 744.692,570.000 " style="stroke:#000000;stroke-opacity:1.00;stroke-width:2;stroke-linejoin:round;fill:none"/>
	<text x="45.00" y="564.18" style="stroke:none;fill:#000000;fill-opacity:1.00;fill-rule:evenodd;font-size:15.0px;text-anchor:end">-2.00</text>
	<path d="M 48.750,559.183 L 56.250,559.183 " style="stroke:#000000;stroke-opacity:1.00;stroke-width:2;stroke-linejoin:round;fill:none"/>
	<text x="45.00" y="530.38" style="stroke:none;fill:#000000;fill-opacity:1.00;fill-rule:evenodd;font-size:15.0px;text-anchor:end">-1.75</text>
	<path d="M 48.750,525.379 L 56.250,525.379 " style="stroke:#000000;stroke-opacity:1.00;stroke-width:2;stroke-linejoin:round;fill:none"/>
	<text x="45.00" y="496.57" style="stroke:none;fill:#000000;fill-opacity:1.00;fill-rule:evenodd;font-size:15.0px;text-anchor:end">-1.50</text>
	<path d="M 48.750,491.575 L 56.250,491.575 " style="stroke:#000000;stroke-opacity:1.00;stroke-width:2;stroke-linejoin:round;fill:none"/>
	<text x="45.00" y="462.77" style="stroke:none;fill:#000000;fill-opacity:1.00;fill-rule:evenodd;font-size:15.0px;text-anchor:end">-1.25</text>
	<path d="M 48.750,457.770 L 56.250,457.770 " style="stroke:#000000;stroke-opacity:1.00;stroke-width:2;stroke-linejoin:round;fill:none"/>
	<text x="45.00" y="428.97" style="stroke:none;fill:#000000;fill-opacity:1.00;fill-rule:evenodd;font-size:15.0px;text-anchor:end">-1.00</text>
	<path d="M 48.750,423.966 L 56.250,423.966 " style="stroke:#000000;stroke-opacity:1.00;stroke-width:2;stroke-linejoin:round;fill:none"/>
	<text x="45.00" y="395.16" style="stroke:none;fill:#000000;fill-opacity:1.00;fill-rule:evenodd;font-size:15.0px;text-anchor:end">-0.75</text>
	<path d="M 48.750,390.162 L 56.250,390.162 " style="stroke:#000000;stroke-opacity:1.00;stroke-width:2;stroke-linejoin:round;fill:none"/>
	<text x="45.00" y="361.36" style="stroke:none;fill:#000000;fill-opacity:1.00;fill-rule:evenodd;font-size:15.0px;text-anchor:end">-0.50</text>
	<path d="M 48.750,356.358 L 56.250,356.358 " style="stroke:#000000;stroke-opacity:1.00;stroke-width:2;stroke-linejoin:round;fill:none"/>
	<text x="45.00" y="327.55" style="stroke:none;fill:#000000;fill-opacity:1.00;fill-rule:evenodd;font-size:15.0px;text-anchor:end">-0.25</text>
	<path d="M 48.750,322.554 L 56.250,322.554 " style="stroke:#000000;stroke-opacity:1.00;stroke-width:2;stroke-linejoin:round;fill:none"/>
	<text x="45.00" y="293.75" style="stroke:none;fill:#000000;fill-opacity:1.00;fill-rule:evenodd;font-size:15.0px;text-anchor:end">0.00</text>
	<path d="M 48.750,288.750 L 56.250,288.750 " style="stroke:#000000;stroke-opacity:1.00;stroke-width:2;stroke-linejoin:round;fill:none"/>
	<text x="45.00" y="259.95" style="stroke:none;fill:#000000;fill-opacity:1.00;fill-rule:evenodd;font-size:15.0px;text-anchor:end">0.25</text>
	<path d="M 48.750,254.946 L 56.250,254.946 " style="stroke:#000000;stroke-opacity:1.00;stroke-width:2;stroke-linejoin:round;fill:none"/>
	<text x="45.00" y="226.14" style="stroke:none;fill:#000000;fill-opacity:1.00;fill-rule:evenodd;font-size:15.0px;text-anchor:end">0.50</text>
	<path d="M 48.750,221.142 L 56.250,221.142 " style="stroke:#000000;stroke-opacity:1.00;stroke-width:2;stroke-linejoin:round;fill:none"/>
	<text x="45.00" y="192.34" style="stroke:none;fill:#000000;fill-opacity:1.00;fill-rule:evenodd;font-size:15.0px;text-anchor:end">0.75</text>
	<path d="M 48.750,187.338 L 56.250,187.338 " style="stroke:#000000;stroke-opacity:1.00;stroke-width:2;stroke-linejoin:round;fill:none"/>
	<text x="45.00" y="158.53" style="stroke:none;fill:#000000;fill-opacity:1.00;fill-rule:evenodd;font-size:15.0px;text-anchor:end">1.00</text>
	<path d="M 48.750,153.534 L 56.250,153.534 " style="stroke:#000000;stroke-opacity:1.00;stroke-width:2;stroke-linejoin:round;fill:none"/>
	<text x="45.00" y="124.73" style="stroke:none;fill:#000000;fill-opacity:1.00;fill-rule:evenodd;font-size:15.0px;text-anchor:end">1.25</text>
	<path d="M 48.750,119.730 L 56.250,119.730 " style="stroke:#000000;stroke-opacity:1.00;stroke-width:2;stroke-linejoin:round;fill:none"/>
	<text x="45.00" y="90.93" style="stroke:none;fill:#000000;fill-opacity:1.00;fill-rule:evenodd;font-size:15.0px;text-anchor:end">1.50</text>
	<path d="M 48.750,85.925 L 56.250,85.925 " style="stroke:#000000;stroke-opacity:1.00;stroke-width:2;stroke-linejoin:round;fill:none"/>
	<text x="45.00" y="57.12" style="stroke:none;fill:#000000;fill-opacity:1.00;fill-rule:evenodd;font-size:15.0px;text-anchor:end">1.75</text>
	<path d="M 48.750,52.121 L 56.250,52.121 " style="stroke:#000000;stroke-opacity:1.00;stroke-width:2;stroke-linejoin:round;fill:none"/>
	<text x="45.00" y="23.32" style="stroke:none;fill:#000000;fill-opacity:1.00;fill-rule:evenodd;font-size:15.0px;text-anchor:end">2.00</text>
	<path d="M 48.750,18.317 L 56.250,18.317 " style="stroke:#000000;stroke-opacity:1.00;stroke-width:2;stroke-linejoin:round;fill:none"/>
	<path d="M 744.692,288.750 L 744.692,7.500 " style="stroke:#bebebe;stroke-opacity:1.00;stroke-width:1;stroke-linejoin:round;stroke-dasharray:5.00,5.00;fill:none"/>
	<text x="741.69" y="18.30" style="stroke:none;fill:#bebebe;fill-opacity:1.00;fill-rule:evenodd;font-size:12.0px;text-anchor:end">90°</text>
	<path d="M 744.692,288.750 L 661.172,7.500 " style="stroke:#bebebe;stroke-opacity:1.00;stroke-width:1;stroke-linejoin:round;stroke-dasharray:5.00,5.00;fill:none"/>
	<text x="658.17" y="18.30" style="stroke:none;fill:#bebebe;fill-opacity:1.00;fill-rule:evenodd;font-size:12.0px;text-anchor:end">75°</text>
	<path d="M 744.692,288.750 L 564.731,7.500 " style="stroke:#bebebe;stroke-opacity:1.00;stroke-width:1;stroke-linejoin:round;stroke-dasharray:5.00,5.00;fill:none"/>
	<text x="561.73" y="18.30" style="stroke:none;fill:#bebebe;fill-opacity:1.00;fill-rule:evenodd;font-size:12.0px;text-anchor:end">60°</text>
	<path d="M 744.692,288.750 L 432.990,7.500 " style="stroke:#bebebe;stroke-opacity:1.00;stroke-width:1;stroke-linejoin:round;stroke-dasharray:5.00,5.00;fill:none"/>
	<text x="429.99" y="18.30" style="stroke:none;fill:#bebebe;fill-opacity:1.00;fill-rule:evenodd;font-size:12.0px;text-anchor:end">45°</text>
	<path d="M 744.692,288.750 L 204.808,7.500 " style="stroke:#bebebe;stroke-opacity:1.00;stroke-width:1;stroke-linejoin:round;stroke-dasharray:5.00,5.00;fill:none"/>
	<text x="201.81" y="18.30" style="stroke:none;fill:#bebebe;fill-opacity:1.00;fill-rule:evenodd;font-size:12.0px;text-anchor:end">30°</text>
	<path d="M 744.692,288.750 L 56.250,122.304 " style="stroke:#bebebe;stroke-opacity:1.00;stroke-width:1;stroke-linejoin:round;stroke-dasharray:5.00,5.00;fill:none"/>
	<text x="59.25" y="119.30" style="stroke:none;fill:#bebebe;fill-opacity:1.00;fill-rule:evenodd;font-size:12.0px">15°</text>
	<path d="M 744.692,288.750 L 56.250,455.196 " style="stroke:#bebebe;stroke-opacity:1.00;stroke-width:1;stroke-linejoin:round;stroke-dasharray:5.00,5.00;fill:none"/>
	<text x="59.25" y="466.00" style="stroke:none;fill:#bebebe;fill-opacity:1.00;fill-rule:evenodd;font-size:12.0px">-15°</text>
	<path d="M 744.692,288.750 L 204.808,570.000 " style="stroke:#bebebe;stroke-opacity:1.00;stroke-width:1;stroke-linejoin:round;stroke-dasharray:5.00,5.00;fill:none"/>
	<text x="201.81" y="567.00" style="stroke:none;fill:#bebebe;fill-opacity:1.00;fill-rule:evenodd;font-size:12.0px;text-anchor:end">-30°</text>
	<path d="M 744.692,288.750 L 432.990,570.000 " style="stroke:#bebebe;stroke-opacity:1.00;stroke-width:1;stroke-linejoin:round;stroke-dasharray:5.00,5.00;fill:none"/>
	<text x="429.99" y="567.00" style="stroke:none;fill:#bebebe;fill-opacity:1.00;fill-rule:evenodd;font-size:12.0px;text-anchor:end">-45°</text>
	<path d="M 744.692,288.750 L 564.731,570.000 " style="stroke:#bebebe;stroke-opacity:1.00;stroke-width:1;stroke-linejoin:round;stroke-dasharray:5.00,5.00;fill:none"/>
	<text x="561.73" y="567.00" style="stroke:none;fill:#bebebe;fill-opacity:1.00;fill-rule:evenodd;font-size:12.0px;text-anchor:end">-60°</text>
	<path d="M 744.692,288.750 L 661.172,570.000 " style="stroke:#bebebe;stroke-opacity:1.00;stroke-width:1;stroke-linejoin:round;stroke-dasharray:5.00,5.00;fill:none"/>
	<text x="658.17" y="567.00" style="stroke:none;fill:#bebebe;fill-opacity:1.00;fill-rule:evenodd;font-size:12.0px;text-anchor:end">-75°</text>
	<path d="M 744.692,288.750 L 744.692,570.000 " style="stroke:#bebebe;stroke-opacity:1.00;stroke-width:1;stroke-linejoin:round;stroke-dasharray:5.00,5.00;fill:none"/>
	<text x="741.69" y="567.00" style="stroke:none;fill:#bebebe;fill-opacity:1.00;fill-rule:evenodd;font-size:12.0px;text-anchor:end">-90°</text>
	<path d="M 146.781,7.500 L 138.585,22.013 L 128.638,41.262 L 119.441,60.812 L 111.005,80.640 L 103.342,100.721 L 96.460,121.032 L 90.368,141.547 L 85.073,162.241 L 80.582,183.090 L 76.899,204.067 L 74.031,225.147 L 71.979,246.305 L 70.747,267.515 L 70.337,288.750 L 70.747,309.985 L 71.979,331.195 L 74.031,352.353 L 76.899,373.433 L 80.582,394.410 L 85.073,415.259 L 90.368,435.953 L 96.460,456.468 L 103.342,476.779 L 111.005,496.860 L 119.441,516.688 L 128.638,536.238 L 138.585,555.487 L 146.781,570.000 " style="stroke:#bebebe;stroke-opacity:1.00;stroke-width:1;stroke-linejoin:round;stroke-dasharray:5.00,5.00;fill:none"/>
	<path d="M 232.776,7.500 L 225.573,18.317 L 215.429,34.829 L 205.931,51.650 L 197.088,68.760 L 188.913,86.138 L 181.415,103.763 L 174.603,121.613 L 168.486,139.667 L 163.070,157.903 L 158.364,176.298 L 154.372,194.830 L 151.099,213.476 L 148.549,232.214 L 146.725,251.021 L 145.630,269.874 L 145.265,288.750 L 145.630,307.626 L 146.725,326.479 L 148.549,345.286 L 151.099,364.024 L 154.372,382.670 L 158.364,401.202 L 163.070,419.597 L 168.486,437.833 L 174.603,455.887 L 181.415,473.737 L 188.913,491.362 L 197.088,508.740 L 205.931,525.850 L 215.429,542.671 L 225.573,559.183 L 232.776,570.000 " style="stroke:#bebebe;stroke-opacity:1.00;stroke-width:1;stroke-linejoin:round;stroke-dasharray:5.00,5.00;fill:none"/>
	<path d="M 322.933,7.500 L 320.364,10.576 L 309.863,24.108 L 299.892,37.962 L 290.463,52.121 L 281.587,66.569 L 273.276,81.288 L 265.539,96.259 L 258.385,111.465 L 251.824,126.887 L 245.864,142.505 L 240.512,158.303 L 235.773,174.259 L 231.655,190.354 L 228.162,206.570 L 225.298,222.885 L 223.067,239.281 L 221.471,255.737 L 220.513,272.234 L 220.193,288.750 L 220.513,305.266 L 221.471,321.763 L 223.067,338.219 L 225.298,354.615 L 228.162,370.930 L 231.655,387.146 L 235.773,403.241 L 240.512,419.197 L 245.864,434.995 L 251.824,450.613 L 258.385,466.035 L 265.539,481.241 L 273.276,496.212 L 281.587,510.931 L 290.463,525.379 L 299.892,539.538 L 309.863,553.392 L 320.364,566.924 L 322.933,570.000 " style="stroke:#bebebe;stroke-opacity:1.00;stroke-width:1;stroke-linejoin:round;stroke-dasharray:5.00,5.00;fill:none"/>
	<path d="M 420.743,7.500 L 410.596,17.318 L 400.301,28.004 L 390.426,39.008 L 380.982,50.315 L 371.981,61.914 L 363.435,73.789 L 355.353,85.925 L 347.745,98.309 L 340.621,110.925 L 333.989,123.758 L 327.858,136.791 L 322.234,150.010 L 317.125,163.398 L 312.537,176.938 L 308.476,190.615 L 304.946,204.411 L 301.952,218.310 L 299.497,232.295 L 297.585,246.348 L 296.217,260.453 L 295.396,274.593 L 295.122,288.750 L 295.396,302.907 L 296.217,317.047 L 297.585,331.152 L 299.497,345.205 L 301.952,359.190 L 304.946,373.089 L 308.476,386.885 L 312.537,400.562 L 317.125,414.102 L 322.234,427.490 L 327.858,440.709 L 333.989,453.742 L 340.621,466.575 L 347.745,479.191 L 355.353,491.575 L 363.435,503.711 L 371.981,515.586 L 380.982,527.185 L 390.426,538.492 L 400.301,549.496 L 410.596,560.182 L 420.743,570.000 " style="stroke:#bebebe;stroke-opacity:1.00;stroke-width:1;stroke-linejoin:round;stroke-dasharray:5.00,5.00;fill:none"/>
	<path d="M 536.904,7.500 L 535.195,8.501 L 524.483,15.269 L 514.039,22.370 L 503.877,29.796 L 494.008,37.537 L 484.444,45.584 L 475.197,53.927 L 466.279,62.557 L 457.700,71.462 L 449.470,80.631 L 441.600,90.055 L 434.100,99.720 L 426.978,109.616 L 420.243,119.730 L 413.903,130.049 L 407.966,140.563 L 402.440,151.256 L 397.330,162.118 L 392.644,173.133 L 388.386,184.290 L 384.563,195.573 L 381.179,206.971 L 378.237,218.467 L 375.742,230.050 L 373.696,241.704 L 372.102,253.415 L 370.963,265.169 L 370.278,276.953 L 370.050,288.750 L 370.278,300.547 L 370.963,312.331 L 372.102,324.085 L 373.696,335.796 L 375.742,347.450 L 378.237,359.033 L 381.179,370.529 L 384.563,381.927 L 388.386,393.210 L 392.644,404.367 L 397.330,415.382 L 402.440,426.244 L 407.966,436.937 L 413.903,447.451 L 420.243,457.770 L 426.978,467.884 L 434.100,477.780 L 441.600,487.445 L 449.470,496.869 L 457.700,506.038 L 466.279,514.943 L 475.197,523.573 L 484.444,531.916 L 494.008,539.963 L 503.877,547.704 L 514.039,555.130 L 524.483,562.231 L 535.195,568.999 L 536.904,570.000 " style="stroke:#bebebe;stroke-opacity:1.00;stroke-width:1;stroke-linejoin:round;stroke-dasharray:5.00,5.00;fill:none"/>
	<path d="M 744.692,18.317 L 734.232,18.482 L 723.785,18.976 L 713.364,19.799 L 702.980,20.949 L 692.647,22.426 L 682.378,24.227 L 672.185,26.350 L 662.080,28.793 L 652.076,31.553 L 642.184,34.626 L 632.417,38.009 L 622.788,41.697 L 613.306,45.687 L 603.985,49.972 L 594.835,54.548 L 585.868,59.410 L 577.094,64.551 L 568.525,69.965 L 560.170,75.646 L 552.040,81.587 L 544.145,87.779 L 536.494,94.217 L 529.096,100.892 L 521.962,107.795 L 515.098,114.919 L 508.515,122.255 L 502.219,129.794 L 496.218,137.526 L 490.521,145.443 L 485.133,153.534 L 480.061,161.790 L 475.311,170.200 L 470.890,178.755 L 466.803,187.444 L 463.053,196.257 L 459.648,205.182 L 456.589,214.209 L 453.881,223.326 L 451.528,232.524 L 449.532,241.790 L 447.895,251.113 L 446.620,260.482 L 445.709,269.886 L 445.161,279.312 L 444.979,288.750 L 445.161,298.188 L 445.709,307.614 L 446.620,317.018 L 447.895,326.387 L 449.532,335.710 L 451.528,344.976 L 453.881,354.174 L 456.589,363.291 L 459.648,372.318 L 463.053,381.243 L 466.803,390.056 L 470.890,398.745 L 475.311,407.300 L 480.061,415.710 L 485.133,423.966 L 490.521,432.057 L 496.218,439.974 L 502.219,447.706 L 508.515,455.245 L 515.098,462.581 L 521.962,469.705 L 529.096,476.608 L 536.494,483.283 L 544.145,489.721 L 552.040,495.913 L 560.170,501.854 L 568.525,507.535 L 577.094,512.949 L 585.868,518.090 L 594.835,522.952 L 603.985,527.528 L 613.306,531.813 L 622.788,535.803 L 632.417,539.491 L 642.184,542.874 L 652.076,545.947 L 662.080,548.707 L 672.185,551.150 L 682.378,553.273 L 692.647,555.074 L 702.980,556.551 L 713.364,557.701 L 723.785,558.524 L 734.232,559.018 L 744.692,559.183 " style="stroke:#bebebe;stroke-opacity:1.00;stroke-width:1;stroke-linejoin:round;stroke-dasharray:5.00,5.00;fill:none"/>
	<text x="747.69" y="22.32" style="stroke:none;fill:#bebebe;fill-opacity:1.00;fill-rule:evenodd;font-size:12.0px">-2.0</text>
	<path d="M 744.692,85.925 L 736.847,86.049 L 729.012,86.420 L 721.196,87.037 L 713.408,87.899 L 705.659,89.007 L 697.957,90.358 L 690.312,91.950 L 682.733,93.783 L 675.230,95.852 L 667.811,98.157 L 660.486,100.694 L 653.264,103.461 L 646.153,106.453 L 639.162,109.667 L 632.300,113.099 L 625.574,116.745 L 618.994,120.601 L 612.567,124.662 L 606.301,128.922 L 600.203,133.377 L 594.281,138.022 L 588.543,142.850 L 582.995,147.856 L 577.644,153.034 L 572.497,158.377 L 567.559,163.879 L 562.837,169.533 L 558.337,175.332 L 554.063,181.269 L 550.022,187.338 L 546.219,193.530 L 542.657,199.838 L 539.341,206.254 L 536.275,212.771 L 533.463,219.380 L 530.909,226.074 L 528.615,232.844 L 526.584,239.682 L 524.819,246.580 L 523.322,253.530 L 522.095,260.522 L 521.138,267.549 L 520.454,274.602 L 520.044,281.672 L 519.907,288.750 L 520.044,295.828 L 520.454,302.898 L 521.138,309.951 L 522.095,316.978 L 523.322,323.970 L 524.819,330.920 L 526.584,337.818 L 528.615,344.656 L 530.909,351.426 L 533.463,358.120 L 536.275,364.729 L 539.341,371.246 L 542.657,377.662 L 546.219,383.970 L 550.022,390.162 L 554.063,396.231 L 558.337,402.168 L 562.837,407.967 L 567.559,413.621 L 572.497,419.123 L 577.644,424.466 L 582.995,429.644 L 588.543,434.650 L 594.281,439.478 L 600.203,444.123 L 606.301,448.578 L 612.567,452.838 L 618.994,456.899 L 625.574,460.755 L 632.300,464.401 L 639.162,467.833 L 646.153,471.047 L 653.264,474.039 L 660.486,476.806 L 667.811,479.343 L 675.230,481.648 L 682.733,483.717 L 690.312,485.550 L 697.957,487.142 L 705.659,488.493 L 713.408,489.601 L 721.196,490.463 L 729.012,491.080 L 736.847,491.451 L 744.692,491.575 " style="stroke:#bebebe;stroke-opacity:1.00;stroke-width:1;stroke-linejoin:round;stroke-dasharray:5.00,5.00;fill:none"/>
	<text x="747.69" y="89.93" style="stroke:none;fill:#bebebe;fill-opacity:1.00;fill-rule:evenodd;font-size:12.0px">-1.5</text>
	<path d="M 744.692,153.534 L 739.462,153.616 L 734.239,153.863 L 729.028,154.274 L 723.836,154.850 L 718.670,155.588 L 713.535,156.488 L 708.438,157.550 L 703.386,158.772 L 698.384,160.152 L 693.438,161.688 L 688.555,163.380 L 683.740,165.224 L 678.999,167.218 L 674.339,169.361 L 669.764,171.649 L 665.280,174.080 L 660.893,176.651 L 656.608,179.358 L 652.431,182.198 L 648.366,185.168 L 644.418,188.265 L 640.593,191.484 L 636.894,194.821 L 633.327,198.273 L 629.895,201.835 L 626.603,205.503 L 623.455,209.272 L 620.455,213.138 L 617.606,217.096 L 614.912,221.142 L 612.376,225.270 L 610.002,229.475 L 607.791,233.753 L 605.747,238.097 L 603.873,242.503 L 602.170,246.966 L 600.641,251.479 L 599.287,256.038 L 598.110,260.637 L 597.112,265.270 L 596.294,269.932 L 595.656,274.616 L 595.200,279.318 L 594.927,284.031 L 594.835,288.750 L 594.927,293.469 L 595.200,298.182 L 595.656,302.884 L 596.294,307.568 L 597.112,312.230 L 598.110,316.863 L 599.287,321.462 L 600.641,326.021 L 602.170,330.534 L 603.873,334.997 L 605.747,339.403 L 607.791,343.747 L 610.002,348.025 L 612.376,352.230 L 614.912,356.358 L 617.606,360.404 L 620.455,364.362 L 623.455,368.228 L 626.603,371.997 L 629.895,375.665 L 633.327,379.227 L 636.894,382.679 L 640.593,386.016 L 644.418,389.235 L 648.366,392.332 L 652.431,395.302 L 656.608,398.142 L 660.893,400.849 L 665.280,403.420 L 669.764,405.851 L 674.339,408.139 L 678.999,410.282 L 683.740,412.276 L 688.555,414.120 L 693.438,415.812 L 698.384,417.348 L 703.386,418.728 L 708.438,419.950 L 713.535,421.012 L 718.670,421.912 L 723.836,422.650 L 729.028,423.226 L 734.239,423.637 L 739.462,423.884 L 744.692,423.966 " style="stroke:#bebebe;stroke-opacity:1.00;stroke-width:1;stroke-linejoin:round;stroke-dasharray:5.00,5.00;fill:none"/>
	<text x="747.69" y="157.53" style="stroke:none;fill:#bebebe;fill-opacity:1.00;fill-rule:evenodd;font-size:12.0px">-1.0</text>
	<path d="M 744.692,221.142 L 742.077,221.183 L 739.465,221.307 L 736.860,221.512 L 734.264,221.800 L 731.681,222.169 L 729.114,222.619 L 726.565,223.150 L 724.039,223.761 L 721.538,224.451 L 719.065,225.219 L 716.623,226.065 L 714.216,226.987 L 711.846,227.984 L 709.515,229.056 L 707.228,230.200 L 704.986,231.415 L 702.793,232.700 L 700.650,234.054 L 698.562,235.474 L 696.529,236.959 L 694.555,238.507 L 692.642,240.117 L 690.793,241.785 L 689.009,243.511 L 687.294,245.292 L 685.648,247.126 L 684.074,249.011 L 682.574,250.944 L 681.149,252.923 L 679.802,254.946 L 678.534,257.010 L 677.347,259.113 L 676.242,261.251 L 675.220,263.424 L 674.282,265.627 L 673.431,267.858 L 672.666,270.115 L 671.989,272.394 L 671.401,274.693 L 670.902,277.010 L 670.493,279.341 L 670.174,281.683 L 669.946,284.034 L 669.809,286.391 L 669.764,288.750 L 669.809,291.109 L 669.946,293.466 L 670.174,295.817 L 670.493,298.159 L 670.902,300.490 L 671.401,302.807 L 671.989,305.106 L 672.666,307.385 L 673.431,309.642 L 674.282,311.873 L 675.220,314.076 L 676.242,316.249 L 677.347,318.387 L 678.534,320.490 L 679.802,322.554 L 681.149,324.577 L 682.574,326.556 L 684.074,328.489 L 685.648,330.374 L 687.294,332.208 L 689.009,333.989 L 690.793,335.715 L 692.642,337.383 L 694.555,338.993 L 696.529,340.541 L 698.562,342.026 L 700.650,343.446 L 702.793,344.800 L 704.986,346.085 L 707.228,347.300 L 709.515,348.444 L 711.846,349.516 L 714.216,350.513 L 716.623,351.435 L 719.065,352.281 L 721.538,353.049 L 724.039,353.739 L 726.565,354.350 L 729.114,354.881 L 731.681,355.331 L 734.264,355.700 L 736.860,355.988 L 739.465,356.193 L 742.077,356.317 L 744.692,356.358 " style="stroke:#bebebe;stroke-opacity:1.00;stroke-width:1;stroke-linejoin:round;stroke-dasharray:5.00,5.00;fill:none"/>
	<text x="747.69" y="225.14" style="stroke:none;fill:#bebebe;fill-opacity:1.00;fill-rule:evenodd;font-size:12.0px">-0.5</text>
	<path d="M 370.050,288.750 L 550.011,7.500 " style="stroke:#bebebe;stroke-opacity:1.00;stroke-width:2;stroke-linejoin:round;fill:none"/>
	<path d="M 370.050,288.750 L 56.250,288.750 " style="stroke:#bebebe;stroke-opacity:1.00;stroke-width:2;stroke-linejoin:round;fill:none"/>
	<path d="M 370.050,288.750 L 550.011,570.000 " style="stroke:#bebebe;stroke-opacity:1.00;stroke-width:2;stroke-linejoin:round;fill:none"/>
	<path d="M 295.122,288.750 L 296.054,288.750 L 299.764,288.750 L 303.472,288.750 L 307.193,288.750 L 310.940,288.750 L 314.731,288.750 L 318.582,288.750 L 322.516,288.750 L 324.522,288.750 L 326.558,288.750 L 328.630,288.750 L 330.741,288.750 L 332.899,288.750 L 335.110,288.750 L 337.382,288.750 L 339.726,288.750 L 342.155,288.750 L 344.685,288.750 L 347.338,288.750 L 350.144,288.750 L 353.146,288.750 L 356.410,288.750 L 360.048,288.750 L 362.067,288.750 L 364.277,288.750 L 366.756,288.750 L 369.659,288.750 L 373.383,288.750 L 375.979,288.750 L 377.796,288.750 L 379.073,288.750 L 382.126,288.750 L 382.157,285.312 L 382.187,283.890 L 382.247,281.879 L 382.367,279.040 L 382.487,276.867 L 382.607,275.040 L 382.845,271.984 L 383.081,269.419 L 383.316,267.170 L 383.549,265.145 L 384.011,261.573 L 384.467,258.453 L 384.918,255.655 L 385.363,253.104 L 385.803,250.748 L 386.238,248.552 L 386.668,246.492 L 387.515,242.701 L 388.345,239.266 L 389.158,236.114 L 389.956,233.193 L 390.740,230.466 L 391.510,227.906 L 392.268,225.490 L 393.013,223.200 L 393.747,221.022 L 394.470,218.945 L 395.183,216.958 L 396.580,213.223 L 397.940,209.762 L 399.268,206.535 L 400.567,203.509 L 401.205,202.063 L 401.837,200.659 L 402.462,199.294 L 403.082,197.964 L 403.695,196.670 L 404.303,195.408 L 404.605,194.789 L 404.905,194.177 L 405.204,193.573 L 405.353,193.273 L 405.428,193.124 L 405.502,192.975 L 405.583,192.814 L 405.664,192.653 L 405.825,192.332 L 406.147,191.697 L 406.467,191.069 L 406.786,190.450 L 407.420,189.232 L 408.048,188.044 L 408.671,186.882 L 409.288,185.746 L 410.509,183.547 L 411.712,181.438 L 412.897,179.412 L 414.066,177.463 L 415.219,175.584 L 416.193,174.032 L 417.157,172.525 L 419.056,169.637 L 420.921,166.901 L 422.754,164.302 L 424.558,161.828 L 426.336,159.466 L 428.089,157.208 L 429.820,155.045 L 431.530,152.970 L 433.221,150.976 L 434.895,149.058 L 436.552,147.210 L 438.194,145.427 L 439.822,143.707 L 441.436,142.044 L 443.039,140.435 L 444.631,138.878 L 446.213,137.370 L 447.785,135.908 L 449.349,134.490 L 450.905,133.113 L 452.454,131.776 L 453.996,130.477 L 455.532,129.215 L 457.064,127.987 L 458.590,126.792 L 460.112,125.629 L 461.631,124.497 L 463.147,123.394 L 464.660,122.320 L 466.172,121.274 L 467.682,120.254 L 470.699,118.290 L 473.717,116.423 L 476.740,114.648 L 479.771,112.960 L 482.814,111.354 L 485.874,109.828 L 488.956,108.378 L 492.065,107.002 L 495.205,105.699 L 498.382,104.466 L 501.604,103.303 L 504.877,102.210 L 508.209,101.187 L 511.611,100.234 L 515.094,99.353 L 518.671,98.547 L 522.360,97.819 L 526.181,97.175 L 528.150,96.887 L 530.163,96.622 L 532.225,96.383 L 534.342,96.171 L 536.520,95.988 L 538.769,95.836 L 541.097,95.719 L 543.518,95.641 L 546.047,95.607 L 548.707,95.623 L 551.525,95.699 L 554.542,95.848 L 556.678,95.995 L 558.952,96.191 L 561.404,96.447 L 564.089,96.781 L 567.104,97.223 L 570.638,97.830 L 572.724,98.232 L 575.179,98.745 L 578.353,99.456 L 580.586,99.964 L 582.164,100.285 L 584.913,100.265 L 586.665,98.284 L 587.369,96.905 L 588.298,94.877 L 589.580,91.917 L 590.569,89.587 L 591.413,87.587 L 592.855,84.161 L 594.099,81.206 L 595.218,78.554 L 596.249,76.118 L 597.212,73.847 L 598.123,71.706 L 598.991,69.673 L 599.822,67.730 L 601.397,64.067 L 602.876,60.643 L 604.279,57.411 L 605.287,55.099 L 606.264,52.866 L 607.215,50.701 L 608.140,48.598 L 609.044,46.552 L 609.928,44.556 L 610.794,42.608 L 611.643,40.704 L 612.476,38.839 L 613.294,37.012 L 614.892,33.461 L 616.441,30.034 L 617.947,26.718 L 619.415,23.501 L 620.847,20.375 L 622.248,17.332 L 623.619,14.364 L 624.963,11.467 L 626.281,8.636 L 626.812,7.500 " style="stroke:#e6194b;stroke-opacity:1.00;stroke-width:2;stroke-linejoin:round;fill:none"/>
	<path d="M 145.265,288.750 L 144.753,288.750 L 142.760,288.750 L 140.836,288.750 L 138.976,288.750 L 137.175,288.750 L 135.427,288.750 L 133.729,288.750 L 132.077,288.750 L 131.268,288.750 L 130.468,288.750 L 129.679,288.750 L 128.899,288.750 L 128.129,288.750 L 127.367,288.750 L 126.615,288.750 L 125.871,288.750 L 125.135,288.750 L 124.407,288.750 L 123.687,288.750 L 122.975,288.750 L 122.270,288.750 L 121.572,288.750 L 120.881,288.750 L 120.538,288.750 L 120.197,288.750 L 119.857,288.750 L 119.519,288.750 L 119.183,288.750 L 119.015,288.750 L 118.931,288.750 L 118.890,288.750 L 118.848,288.750 L 118.782,288.750 L 118.716,288.750 L 118.585,288.750 L 118.323,288.750 L 118.062,288.750 L 117.802,288.750 L 117.285,288.750 L 116.771,288.750 L 116.261,288.750 L 115.754,288.750 L 114.752,288.750 L 113.763,288.750 L 112.787,288.750 L 111.823,288.750 L 110.872,288.750 L 109.932,288.750 L 109.004,288.750 L 107.179,288.750 L 105.397,288.750 L 103.653,288.750 L 101.945,288.750 L 100.273,288.750 L 98.634,288.750 L 97.026,288.750 L 95.447,288.750 L 93.897,288.750 L 92.374,288.750 L 90.877,288.750 L 87.956,288.750 L 85.126,288.750 L 82.379,288.750 L 79.710,288.750 L 78.403,288.750 L 77.113,288.750 L 75.840,288.750 L 74.584,288.750 L 73.342,288.750 L 72.116,288.750 L 71.509,288.750 L 70.905,288.750 L 70.305,288.750 L 70.006,288.750 L 69.857,288.750 L 69.708,288.750 L 69.546,288.750 L 69.384,288.750 L 69.061,288.750 L 68.419,288.750 L 67.780,288.750 L 67.145,288.750 L 65.887,288.750 L 64.644,288.750 L 63.415,288.750 L 62.200,288.750 L 59.811,288.750 L 57.473,288.750 L 56.250,288.750 " style="stroke:#3cb44b;stroke-opacity:1.00;stroke-width:2;stroke-linejoin:round;fill:none"/>
	<path d="M 444.979,288.750 L 444.514,288.750 L 442.627,288.750 L 440.676,288.750 L 438.654,288.750 L 436.551,288.750 L 434.355,288.750 L 432.054,288.750 L 429.628,288.750 L 428.362,288.750 L 427.056,288.750 L 425.705,288.750 L 424.306,288.750 L 422.852,288.750 L 421.337,288.750 L 419.753,288.750 L 418.090,288.750 L 416.334,288.750 L 414.470,288.750 L 412.476,288.750 L 410.323,288.750 L 407.967,288.750 L 405.343,288.750 L 402.338,288.750 L 400.634,288.750 L 398.737,288.750 L 396.570,288.750 L 393.977,288.750 L 390.562,288.750 L 388.120,288.750 L 386.379,288.750 L 385.141,288.750 L 382.126,288.750 L 382.157,292.188 L 382.187,293.610 L 382.247,295.621 L 382.367,298.460 L 382.487,300.633 L 382.607,302.460 L 382.845,305.516 L 383.081,308.081 L 383.316,310.330 L 383.549,312.355 L 384.011,315.927 L 384.467,319.047 L 384.918,321.845 L 385.363,324.396 L 385.803,326.752 L 386.238,328.948 L 386.668,331.008 L 387.515,334.799 L 388.345,338.234 L 389.158,341.386 L 389.956,344.307 L 390.740,347.034 L 391.510,349.594 L 392.268,352.010 L 393.013,354.300 L 393.747,356.478 L 394.470,358.555 L 395.183,360.542 L 396.580,364.277 L 397.940,367.738 L 399.268,370.965 L 400.567,373.991 L 401.205,375.437 L 401.837,376.841 L 402.462,378.206 L 403.082,379.536 L 403.695,380.830 L 404.303,382.092 L 404.605,382.711 L 404.905,383.323 L 405.204,383.927 L 405.353,384.227 L 405.428,384.376 L 405.502,384.525 L 405.583,384.686 L 405.664,384.847 L 405.825,385.168 L 406.147,385.803 L 406.467,386.431 L 406.786,387.050 L 407.420,388.268 L 408.048,389.456 L 408.671,390.618 L 409.288,391.754 L 410.509,393.953 L 411.712,396.062 L 412.897,398.088 L 414.066,400.037 L 415.219,401.916 L 416.193,403.468 L 417.157,404.975 L 419.056,407.863 L 420.921,410.599 L 422.754,413.198 L 424.558,415.672 L 426.336,418.034 L 428.089,420.292 L 429.820,422.455 L 431.530,424.530 L 433.221,426.524 L 434.895,428.442 L 436.552,430.290 L 438.194,432.073 L 439.822,433.793 L 441.436,435.456 L 443.039,437.065 L 444.631,438.622 L 446.213,440.130 L 447.785,441.592 L 449.349,443.010 L 450.905,444.387 L 452.454,445.724 L 453.996,447.023 L 455.532,448.285 L 457.064,449.513 L 458.590,450.708 L 460.112,451.871 L 461.631,453.003 L 463.147,454.106 L 464.660,455.180 L 466.172,456.226 L 467.682,457.246 L 470.699,459.210 L 473.717,461.077 L 476.740,462.852 L 479.771,464.540 L 482.814,466.146 L 485.874,467.672 L 488.956,469.122 L 492.065,470.498 L 495.205,471.801 L 498.382,473.034 L 501.604,474.197 L 504.877,475.290 L 508.209,476.313 L 511.611,477.266 L 515.094,478.147 L 518.671,478.953 L 522.360,479.681 L 526.181,480.325 L 528.150,480.613 L 530.163,480.878 L 532.225,481.117 L 534.342,481.329 L 536.520,481.512 L 538.769,481.664 L 541.097,481.781 L 543.518,481.859 L 546.047,481.893 L 548.707,481.877 L 551.525,481.801 L 554.542,481.652 L 556.678,481.505 L 558.952,481.309 L 561.404,481.053 L 564.089,480.719 L 567.104,480.277 L 570.638,479.670 L 572.724,479.268 L 575.179,478.755 L 578.353,478.044 L 580.586,477.536 L 582.164,477.215 L 584.913,477.235 L 586.665,479.216 L 587.369,480.595 L 588.298,482.623 L 589.580,485.583 L 590.569,487.913 L 591.413,489.913 L 592.855,493.339 L 594.099,496.294 L 595.218,498.946 L 596.249,501.382 L 597.212,503.653 L 598.123,505.794 L 598.991,507.827 L 599.822,509.770 L 601.397,513.433 L 602.876,516.857 L 604.279,520.089 L 605.287,522.401 L 606.264,524.634 L 607.215,526.799 L 608.140,528.902 L 609.044,530.948 L 609.928,532.944 L 610.794,534.892 L 611.643,536.796 L 612.476,538.661 L 613.294,540.488 L 614.892,544.039 L 616.441,547.466 L 617.947,550.782 L 619.415,553.999 L 620.847,557.125 L 622.248,560.168 L 623.619,563.136 L 624.963,566.033 L 626.281,568.864 L 626.812,570.000 " style="stroke:#0082c8;stroke-opacity:1.00;stroke-width:2;stroke-linejoin:round;fill:none"/>
	<path d="M 594.835,288.750 L 595.019,288.750 L 595.749,288.750 L 596.479,288.750 L 597.208,288.750 L 597.937,288.750 L 598.666,288.750 L 599.395,288.750 L 600.124,288.750 L 600.489,288.750 L 600.854,288.750 L 601.219,288.750 L 601.585,288.750 L 601.951,288.750 L 602.317,288.750 L 602.683,288.750 L 603.050,288.750 L 603.417,288.750 L 603.785,288.750 L 604.153,288.750 L 604.521,288.750 L 604.890,288.750 L 605.260,288.750 L 605.630,288.750 L 605.815,288.750 L 606.000,288.750 L 606.186,288.750 L 606.372,288.750 L 606.557,288.750 L 606.650,288.750 L 606.697,288.750 L 606.720,288.750 L 606.743,288.750 L 606.780,288.750 L 606.817,288.750 L 606.890,288.750 L 607.037,288.750 L 607.184,288.750 L 607.332,288.750 L 607.626,288.750 L 607.922,288.750 L 608.217,288.750 L 608.514,288.750 L 609.108,288.750 L 609.704,288.750 L 610.303,288.750 L 610.904,288.750 L 611.508,288.750 L 612.114,288.750 L 612.724,288.750 L 613.952,288.750 L 615.195,288.750 L 616.453,288.750 L 617.727,288.750 L 619.020,288.750 L 620.334,288.750 L 621.670,288.750 L 623.030,288.750 L 624.419,288.750 L 625.837,288.750 L 627.289,288.750 L 630.310,288.750 L 633.521,288.750 L 636.977,288.750 L 640.764,288.750 L 642.823,288.750 L 645.027,288.750 L 647.413,288.750 L 650.042,288.750 L 653.016,288.750 L 656.532,288.750 L 658.623,288.750 L 661.099,288.750 L 664.322,288.750 L 666.598,288.750 L 668.207,288.750 L 672.090,288.750 L 672.090,285.092 L 672.090,283.578 L 672.090,281.437 L 672.090,278.412 L 672.089,276.094 L 672.087,274.142 L 672.083,270.873 L 672.077,268.123 L 672.068,265.707 L 672.058,263.526 L 672.032,259.667 L 671.998,256.281 L 671.957,253.232 L 671.910,250.438 L 671.856,247.846 L 671.805,245.765 L 671.749,243.788 L 671.624,240.093 L 671.482,236.682 L 671.324,233.501 L 671.150,230.510 L 670.961,227.680 L 670.758,224.989 L 670.540,222.419 L 670.309,219.955 L 670.064,217.585 L 669.807,215.300 L 669.537,213.091 L 669.254,210.952 L 668.959,208.875 L 668.652,206.856 L 668.334,204.890 L 668.004,202.972 L 667.662,201.100 L 667.309,199.270 L 666.945,197.479 L 666.570,195.725 L 666.183,194.004 L 665.786,192.316 L 665.377,190.657 L 664.958,189.026 L 664.527,187.422 L 664.086,185.843 L 663.633,184.287 L 663.170,182.754 L 662.695,181.241 L 662.209,179.749 L 661.712,178.275 L 660.682,175.380 L 659.607,172.548 L 658.483,169.774 L 657.309,167.050 L 656.083,164.373 L 654.804,161.736 L 653.468,159.135 L 652.072,156.566 L 650.612,154.024 L 649.085,151.504 L 647.484,149.003 L 645.805,146.516 L 644.040,144.039 L 642.179,141.566 L 640.214,139.093 L 638.130,136.613 L 635.913,134.119 L 633.541,131.604 L 632.289,130.335 L 630.987,129.057 L 629.632,127.768 L 628.217,126.465 L 626.736,125.147 L 625.180,123.811 L 623.539,122.453 L 621.801,121.068 L 619.950,119.653 L 617.964,118.199 L 615.816,116.698 L 613.464,115.135 L 611.766,114.058 L 609.927,112.938 L 607.910,111.763 L 605.658,110.514 L 603.073,109.162 L 599.968,107.650 L 598.097,106.797 L 595.855,105.835 L 592.894,104.674 L 590.767,103.943 L 589.242,103.510 L 586.546,103.418 L 584.848,105.286 L 584.198,106.552 L 583.376,108.355 L 582.307,110.865 L 581.532,112.746 L 580.901,114.299 L 579.884,116.833 L 579.064,118.901 L 578.366,120.670 L 577.756,122.228 L 577.210,123.625 L 576.716,124.896 L 576.263,126.064 L 575.845,127.145 L 575.093,129.098 L 574.430,130.828 L 573.837,132.382 L 573.430,133.449 L 573.051,134.447 L 572.696,135.385 L 572.362,136.269 L 572.046,137.104 L 571.748,137.896 L 571.465,138.650 L 571.195,139.367 L 570.939,140.052 L 570.694,140.707 L 570.235,141.935 L 569.813,143.068 L 569.422,144.119 L 569.060,145.097 L 568.722,146.010 L 568.406,146.867 L 568.109,147.672 L 567.830,148.431 L 567.567,149.148 L 567.318,149.827 L 567.082,150.471 L 566.858,151.084 L 566.646,151.666 L 566.443,152.222 L 566.250,152.752 L 566.065,153.260 L 565.889,153.745 L 565.720,154.210 L 565.559,154.657 L 565.403,155.085 L 565.254,155.498 L 565.111,155.894 L 564.973,156.276 L 564.841,156.644 L 564.713,156.999 L 564.589,157.342 L 564.470,157.673 L 564.355,157.993 L 564.244,158.303 L 564.136,158.603 L 564.032,158.893 L 563.932,159.174 L 563.834,159.447 L 563.739,159.712 L 563.647,159.968 L 563.558,160.218 L 563.472,160.460 L 563.388,160.696 L 563.306,160.925 L 563.226,161.148 L 563.149,161.364 L 563.001,161.781 L 562.860,162.177 L 562.726,162.553 L 562.599,162.911 L 562.478,163.253 L 562.362,163.579 L 562.252,163.890 L 562.147,164.188 L 562.046,164.474 L 561.949,164.747 L 561.856,165.010 L 561.768,165.261 L 561.682,165.504 L 561.600,165.737 L 561.521,165.961 L 561.445,166.177 L 561.372,166.385 L 561.301,166.586 L 561.233,166.780 L 561.167,166.967 L 561.104,167.148 L 561.042,167.323 L 560.983,167.493 L 560.925,167.657 L 560.870,167.816 L 560.816,167.970 L 560.764,168.119 L 560.713,168.264 L 560.664,168.405 L 560.616,168.541 L 560.569,168.674 L 560.524,168.803 L 560.481,168.928 L 560.438,169.050 L 560.397,169.169 L 560.356,169.284 L 560.317,169.397 L 560.279,169.507 L 560.242,169.613 L 560.205,169.718 L 560.170,169.819 L 560.135,169.918 L 560.102,170.015 L 560.069,170.109 L 560.037,170.201 L 560.006,170.291 L 559.975,170.379 L 559.945,170.465 L 559.916,170.549 L 559.887,170.631 L 559.860,170.711 L 559.832,170.789 L 559.806,170.866 L 559.779,170.941 L 559.754,171.015 L 559.729,171.087 L 559.704,171.158 L 559.680,171.227 L 559.657,171.294 L 559.634,171.361 L 559.611,171.426 L 559.589,171.489 L 559.568,171.552 L 559.546,171.613 L 559.526,171.673 L 559.505,171.732 L 559.485,171.790 L 559.465,171.847 L 559.446,171.903 L 559.408,172.011 L 559.372,172.116 L 559.337,172.217 L 559.303,172.315 L 559.271,172.409 L 559.239,172.500 L 559.209,172.588 L 559.179,172.674 L 559.151,172.757 L 559.123,172.837 L 559.096,172.914 L 559.070,172.990 L 559.045,173.063 L 559.020,173.134 L 558.997,173.203 L 558.973,173.270 L 558.951,173.335 L 558.929,173.398 L 558.908,173.460 L 558.887,173.520 " style="stroke:#f58230;stroke-opacity:1.00;stroke-width:2;stroke-linejoin:round;fill:none"/>
	<path d="M 744.692,288.750 L 744.552,288.750 L 743.993,288.750 L 743.430,288.750 L 742.862,288.750 L 742.290,288.750 L 741.713,288.750 L 741.132,288.750 L 740.547,288.750 L 740.252,288.750 L 739.957,288.750 L 739.660,288.750 L 739.362,288.750 L 739.062,288.750 L 738.761,288.750 L 738.460,288.750 L 738.156,288.750 L 737.852,288.750 L 737.546,288.750 L 737.239,288.750 L 736.930,288.750 L 736.620,288.750 L 736.309,288.750 L 735.996,288.750 L 735.839,288.750 L 735.682,288.750 L 735.524,288.750 L 735.366,288.750 L 735.207,288.750 L 735.128,288.750 L 735.088,288.750 L 735.069,288.750 L 735.049,288.750 L 735.017,288.750 L 734.986,288.750 L 734.923,288.750 L 734.797,288.750 L 734.671,288.750 L 734.545,288.750 L 734.292,288.750 L 734.038,288.750 L 733.783,288.750 L 733.527,288.750 L 733.011,288.750 L 732.492,288.750 L 731.968,288.750 L 731.440,288.750 L 730.908,288.750 L 730.371,288.750 L 729.829,288.750 L 728.730,288.750 L 727.612,288.750 L 726.471,288.750 L 725.307,288.750 L 724.119,288.750 L 722.904,288.750 L 721.662,288.750 L 720.388,288.750 L 719.082,288.750 L 717.740,288.750 L 716.360,288.750 L 713.467,288.750 L 710.365,288.750 L 706.999,288.750 L 703.285,288.750 L 701.256,288.750 L 699.079,288.750 L 696.715,288.750 L 694.103,288.750 L 691.144,288.750 L 687.638,288.750 L 685.551,288.750 L 683.078,288.750 L 679.857,288.750 L 677.581,288.750 L 675.973,288.750 L 672.090,288.750 L 672.090,292.408 L 672.090,293.922 L 672.090,296.063 L 672.090,299.088 L 672.089,301.406 L 672.087,303.358 L 672.083,306.627 L 672.077,309.377 L 672.068,311.793 L 672.058,313.974 L 672.032,317.833 L 671.998,321.219 L 671.957,324.268 L 671.910,327.062 L 671.856,329.654 L 671.805,331.735 L 671.749,333.712 L 671.624,337.407 L 671.482,340.818 L 671.324,343.999 L 671.150,346.990 L 670.961,349.820 L 670.758,352.511 L 670.540,355.081 L 670.309,357.545 L 670.064,359.915 L 669.807,362.200 L 669.537,364.409 L 669.254,366.548 L 668.959,368.625 L 668.652,370.644 L 668.334,372.610 L 668.004,374.528 L 667.662,376.400 L 667.309,378.230 L 666.945,380.021 L 666.570,381.775 L 666.183,383.496 L 665.786,385.184 L 665.377,386.843 L 664.958,388.474 L 664.527,390.078 L 664.086,391.657 L 663.633,393.213 L 663.170,394.746 L 662.695,396.259 L 662.209,397.751 L 661.712,399.225 L 660.682,402.120 L 659.607,404.952 L 658.483,407.726 L 657.309,410.450 L 656.083,413.127 L 654.804,415.764 L 653.468,418.365 L 652.072,420.934 L 650.612,423.476 L 649.085,425.996 L 647.484,428.497 L 645.805,430.984 L 644.040,433.461 L 642.179,435.934 L 640.214,438.407 L 638.130,440.887 L 635.913,443.381 L 633.541,445.896 L 632.289,447.165 L 630.987,448.443 L 629.632,449.732 L 628.217,451.035 L 626.736,452.353 L 625.180,453.689 L 623.539,455.047 L 621.801,456.432 L 619.950,457.847 L 617.964,459.301 L 615.816,460.802 L 613.464,462.365 L 611.766,463.442 L 609.927,464.562 L 607.910,465.737 L 605.658,466.986 L 603.073,468.338 L 599.968,469.850 L 598.097,470.703 L 595.855,471.665 L 592.894,472.826 L 590.767,473.557 L 589.242,473.990 L 586.546,474.082 L 584.848,472.214 L 584.198,470.948 L 583.376,469.145 L 582.307,466.635 L 581.532,464.754 L 580.901,463.201 L 579.884,460.667 L 579.064,458.599 L 578.366,456.830 L 577.756,455.272 L 577.210,453.875 L 576.716,452.604 L 576.263,451.436 L 575.845,450.355 L 575.093,448.402 L 574.430,446.672 L 573.837,445.118 L 573.430,444.051 L 573.051,443.053 L 572.696,442.115 L 572.362,441.231 L 572.046,440.396 L 571.748,439.604 L 571.465,438.850 L 571.195,438.133 L 570.939,437.448 L 570.694,436.793 L 570.235,435.565 L 569.813,434.432 L 569.422,433.381 L 569.060,432.403 L 568.722,431.490 L 568.406,430.633 L 568.109,429.828 L 567.830,429.069 L 567.567,428.352 L 567.318,427.673 L 567.082,427.029 L 566.858,426.416 L 566.646,425.834 L 566.443,425.278 L 566.250,424.748 L 566.065,424.240 L 565.889,423.755 L 565.720,423.290 L 565.559,422.843 L 565.403,422.415 L 565.254,422.002 L 565.111,421.606 L 564.973,421.224 L 564.841,420.856 L 564.713,420.501 L 564.589,420.158 L 564.470,419.827 L 564.355,419.507 L 564.244,419.197 L 564.136,418.897 L 564.032,418.607 L 563.932,418.326 L 563.834,418.053 L 563.739,417.788 L 563.647,417.532 L 563.558,417.282 L 563.472,417.040 L 563.388,416.804 L 563.306,416.575 L 563.226,416.352 L 563.149,416.136 L 563.001,415.719 L 562.860,415.323 L 562.726,414.947 L 562.599,414.589 L 562.478,414.247 L 562.362,413.921 L 562.252,413.610 L 562.147,413.312 L 562.046,413.026 L 561.949,412.753 L 561.856,412.490 L 561.768,412.239 L 561.682,411.996 L 561.600,411.763 L 561.521,411.539 L 561.445,411.323 L 561.372,411.115 L 561.301,410.914 L 561.233,410.720 L 561.167,410.533 L 561.104,410.352 L 561.042,410.177 L 560.983,410.007 L 560.925,409.843 L 560.870,409.684 L 560.816,409.530 L 560.764,409.381 L 560.713,409.236 L 560.664,409.095 L 560.616,408.959 L 560.569,408.826 L 560.524,408.697 L 560.481,408.572 L 560.438,408.450 L 560.397,408.331 L 560.356,408.216 L 560.317,408.103 L 560.279,407.993 L 560.242,407.887 L 560.205,407.782 L 560.170,407.681 L 560.135,407.582 L 560.102,407.485 L 560.069,407.391 L 560.037,407.299 L 560.006,407.209 L 559.975,407.121 L 559.945,407.035 L 559.916,406.951 L 559.887,406.869 L 559.860,406.789 L 559.832,406.711 L 559.806,406.634 L 559.779,406.559 L 559.754,406.485 L 559.729,406.413 L 559.704,406.342 L 559.680,406.273 L 559.657,406.206 L 559.634,406.139 L 559.611,406.074 L 559.589,406.011 L 559.568,405.948 L 559.546,405.887 L 559.526,405.827 L 559.505,405.768 L 559.485,405.710 L 559.465,405.653 L 559.446,405.597 L 559.408,405.489 L 559.372,405.384 L 559.337,405.283 L 559.303,405.185 L 559.271,405.091 L 559.239,405.000 L 559.209,404.912 L 559.179,404.826 L 559.151,404.743 L 559.123,404.663 L 559.096,404.586 L 559.070,404.510 L 559.045,404.437 L 559.020,404.366 L 558.997,404.297 L 558.973,404.230 L 558.951,404.165 L 558.929,404.102 L 558.908,404.040 L 558.887,403.980 " style="stroke:#911eb4;stroke-opacity:1.00;stroke-width:2;stroke-linejoin:round;fill:none"/>
	<path d="M 291.122,292.750 L 299.122,284.750 M 291.122,284.750 L 299.122,292.750 " style="stroke:#000000;stroke-opacity:1.00;stroke-width:2;stroke-linejoin:round;fill:none"/>
	<path d="M 141.265,292.750 L 149.265,284.750 M 141.265,284.750 L 149.265,292.750 " style="stroke:#000000;stroke-opacity:1.00;stroke-width:2;stroke-linejoin:round;fill:none"/>
	<path d="M 440.979,292.750 L 448.979,284.750 M 440.979,284.750 L 448.979,292.750 " style="stroke:#000000;stroke-opacity:1.00;stroke-width:2;stroke-linejoin:round;fill:none"/>
	<path d="M 590.835,292.750 L 598.835,284.750 M 590.835,284.750 L 598.835,292.750 " style="stroke:#000000;stroke-opacity:1.00;stroke-width:2;stroke-linejoin:round;fill:none"/>
	<path d="M 740.692,292.750 L 748.692,284.750 M 740.692,284.750 L 748.692,292.750 " style="stroke:#000000;stroke-opacity:1.00;stroke-width:2;stroke-linejoin:round;fill:none"/>
	<ellipse cx="557.37" cy="177.95" rx="4.00" ry="4.00" style="stroke:#000000;stroke-opacity:1.00;stroke-width:2;stroke-linejoin:round;fill:none"/>
	<ellipse cx="557.37" cy="399.55" rx="4.00" ry="4.00" style="stroke:#000000;stroke-opacity:1.00;stroke-width:2;stroke-linejoin:round;fill:none"/>
	<path d="M 206.237,292.750 L 214.237,284.750 M 206.237,284.750 L 214.237,292.750 " style="stroke:#ff0000;stroke-opacity:1.00;stroke-width:2;stroke-linejoin:round;fill:none"/>
	<path d="M 378.126,292.750 L 386.126,284.750 M 378.126,284.750 L 386.126,292.750 " style="stroke:#ff0000;stroke-opacity:1.00;stroke-width:2;stroke-linejoin:round;fill:none"/>
	<path d="M 529.642,292.750 L 537.642,284.750 M 529.642,284.750 L 537.642,292.750 " style="stroke:#ff0000;stroke-opacity:1.00;stroke-width:2;stroke-linejoin:round;fill:none"/>
	<path d="M 581.745,479.653 L 589.745,471.653 M 581.745,471.653 L 589.745,479.653 " style="stroke:#ff0000;stroke-opacity:1.00;stroke-width:2;stroke-linejoin:round;fill:none"/>
	<path d="M 581.745,105.847 L 589.745,97.847 M 581.745,97.847 L 589.745,105.847 " style="stroke:#ff0000;stroke-opacity:1.00;stroke-width:2;stroke-linejoin:round;fill:none"/>
	<path d="M 668.090,292.750 L 676.090,284.750 M 668.090,284.750 L 676.090,292.750 " style="stroke:#ff0000;stroke-opacity:1.00;stroke-width:2;stroke-linejoin:round;fill:none"/>
	<path d="M 116.294,220.142 L 354.064,220.142 L 354.064,46.361 L 116.294,46.361 Z" style="stroke:none;fill:#ffffff;fill-opacity:1.00;fill-rule:evenodd"/>
	<path d="M 116.294,101.274 L 116.669,101.347 L 119.612,101.928 L 122.626,102.529 L 125.718,103.151 L 128.894,103.796 L 132.161,104.466 L 135.529,105.163 L 139.007,105.890 L 142.608,106.649 L 146.347,107.444 L 150.241,108.278 L 152.253,108.712 L 154.312,109.157 L 156.423,109.615 L 158.589,110.086 L 160.815,110.571 L 163.106,111.071 L 165.470,111.587 L 167.912,112.121 L 170.443,112.674 L 173.072,113.247 L 175.812,113.842 L 178.679,114.462 L 181.693,115.107 L 184.880,115.780 L 188.273,116.482 L 191.918,117.216 L 193.855,117.593 L 195.882,117.978 L 198.013,118.367 L 200.265,118.760 L 202.659,119.151 L 205.227,119.532 L 208.006,119.891 L 211.052,120.200 L 214.440,120.404 L 218.260,120.386 L 220.353,120.226 L 222.557,119.904 L 224.828,119.368 L 227.079,118.583 L 229.570,117.352 L 231.756,115.900 L 233.622,114.353 L 235.212,112.797 L 237.442,110.241 L 239.263,107.843 L 240.812,105.599 L 242.169,103.494 L 243.384,101.507 L 244.490,99.624 L 245.510,97.829 L 246.461,96.113 L 248.196,92.880 L 249.763,89.867 L 251.200,87.034 L 252.536,84.352 L 253.788,81.799 L 254.972,79.356 L 256.097,77.011 L 257.171,74.751 L 258.202,72.569 L 259.193,70.455 L 260.150,68.404 L 261.076,66.410 L 261.974,64.468 L 262.846,62.575 L 263.695,60.725 L 264.523,58.918 L 266.120,55.415 L 267.649,52.047 L 269.117,48.799 L 270.217,46.361 " style="stroke:#e6194b;stroke-opacity:1.00;stroke-width:2;stroke-linejoin:round;fill:none"/>
	<path d="M 354.064,178.534 L 353.109,178.132 L 350.556,177.065 L 347.940,175.980 L 345.257,174.877 L 342.503,173.754 L 339.672,172.610 L 336.756,171.443 L 333.749,170.251 L 330.642,169.033 L 327.424,167.785 L 324.083,166.504 L 320.604,165.189 L 316.969,163.834 L 315.087,163.140 L 313.158,162.434 L 311.177,161.716 L 309.141,160.985 L 307.045,160.240 L 304.883,159.480 L 302.650,158.703 L 300.337,157.909 L 297.936,157.097 L 295.437,156.263 L 292.826,155.408 L 290.089,154.529 L 287.204,153.624 L 284.147,152.691 L 280.884,151.729 L 277.368,150.736 L 275.496,150.228 L 273.534,149.714 L 271.468,149.195 L 269.281,148.673 L 266.951,148.152 L 264.449,147.640 L 261.734,147.152 L 258.753,146.713 L 255.430,146.380 L 251.675,146.267 L 249.615,146.363 L 247.443,146.620 L 245.204,147.091 L 242.985,147.811 L 240.533,148.965 L 238.385,150.341 L 236.557,151.811 L 235.006,153.291 L 232.841,155.716 L 231.084,157.984 L 229.601,160.097 L 228.309,162.073 L 227.159,163.929 L 226.118,165.682 L 225.163,167.346 L 224.277,168.932 L 222.672,171.905 L 221.235,174.658 L 219.928,177.230 L 218.723,179.652 L 217.600,181.945 L 216.546,184.127 L 215.551,186.213 L 214.607,188.212 L 213.706,190.134 L 212.844,191.988 L 212.017,193.779 L 211.221,195.513 L 210.453,197.195 L 209.711,198.829 L 208.992,200.418 L 208.294,201.966 L 206.957,204.950 L 205.687,207.798 L 204.478,210.527 L 203.321,213.149 L 202.211,215.676 L 201.143,218.115 L 200.259,220.142 " style="stroke:#911eb4;stroke-opacity:1.00;stroke-width:2;stroke-linejoin:round;fill:none"/>
	<path d="M 231.179,137.251 L 239.179,129.251 M 231.179,129.251 L 239.179,137.251 " style="stroke:#ff0000;stroke-opacity:1.00;stroke-width:2;stroke-linejoin:round;fill:none"/>
	<path d="M 116.294,220.142 L 354.064,220.142 L 354.064,46.361 L 116.294,46.361 Z" style="stroke:#000000;stroke-opacity:1.00;stroke-width:2;stroke-linejoin:round;fill:none"/>
	<path d="M 573.536,111.222 L 597.953,111.222 L 597.953,92.472 L 573.536,92.472 Z" style="stroke:#000000;stroke-opacity:1.00;stroke-width:1;stroke-linejoin:round;fill:none"/>
	<path d="M 597.953,92.472 L 354.064,46.361 " style="stroke:#000000;stroke-opacity:1.00;stroke-width:1;stroke-linejoin:round;fill:none"/>
	<path d="M 597.953,111.222 L 354.064,220.142 " style="stroke:#000000;stroke-opacity:1.00;stroke-width:1;stroke-linejoin:round;fill:none"/>
	<text x="781.25" y="562.50" style="stroke:none;fill:#000000;fill-opacity:1.00;fill-rule:evenodd;font-size:15.0px;text-anchor:end">Re </text>
	<text x="63.75" y="24.75" style="stroke:none;fill:#000000;fill-opacity:1.00;fill-rule:evenodd;font-size:15.0px">Im </text>
	<path d="M 56.250,570.000 L 788.750,570.000 L 788.750,7.500 L 56.250,7.500 Z" style="stroke:#000000;stroke-opacity:1.00;stroke-width:2;stroke-linejoin:round;fill:none"/>
	<text x="105.00" y="492.50" style="stroke:none;fill:#000000;fill-opacity:1.00;fill-rule:evenodd;font-size:15.0px">Asymptotes</text>
	<path d="M 67.500,487.500 L 97.500,487.500 " style="stroke:#bebebe;stroke-opacity:1.00;stroke-width:2;stroke-linejoin:round;fill:none"/>
	<text x="105.00" y="515.00" style="stroke:none;fill:#000000;fill-opacity:1.00;fill-rule:evenodd;font-size:15.0px">Poles</text>
	<path d="M 78.500,514.000 L 86.500,506.000 M 78.500,506.000 L 86.500,514.000 " style="stroke:#000000;stroke-opacity:1.00;stroke-width:2;stroke-linejoin:round;fill:none"/>
	<text x="105.00" y="537.50" style="stroke:none;fill:#000000;fill-opacity:1.00;fill-rule:evenodd;font-size:15.0px">Zeros</text>
	<ellipse cx="82.50" cy="532.50" rx="4.00" ry="4.00" style="stroke:#000000;stroke-opacity:1.00;stroke-width:2;stroke-linejoin:round;fill:none"/>
	<text x="105.00" y="560.00" style="stroke:none;fill:#000000;fill-opacity:1.00;fill-rule:evenodd;font-size:15.0px">Merge Points</text>
	<path d="M 78.500,559.000 L 86.500,551.000 M 78.500,551.000 L 86.500,559.000 " style="stroke:#ff0000;stroke-opacity:1.00;stroke-width:2;stroke-linejoin:round;fill:none"/>
</svg>
