<?xml version="1.0" encoding="utf-8"?>
<svg class="svg" xmlns:svg="http://www.w3.org/2000/svg" xmlns="http://www.w3.org/2000/svg" width="800" height="600" viewBox="0 0 800 600">
	<text x="70.34" y="594.75" style="stroke:none;fill:#000000;fill-opacity:1.00;fill-rule:evenodd;font-size:15.0px;text-anchor:middle">-4.5</text>
	<path d="M 70.337,577.500 L 70.337,570.000 " style="stroke:#000000;stroke-opacity:1.00;stroke-width:2;stroke-linejoin:round;fill:none"/>
	<text x="145.26" y="594.75" style="stroke:none;fill:#000000;fill-opacity:1.00;fill-rule:evenodd;font-size:15.0px;text-anchor:middle">-4.0</text>
	<path d="M 145.265,577.500 L 145.265,570.000 " style="stroke:#000000;stroke-opacity:1.00;stroke-width:2;stroke-linejoin:round;fill:none"/>
	<text x="220.19" y="594.75" style="stroke:none;fill:#000000;fill-opacity:1.00;fill-rule:evenodd;font-size:15.0px;text-anchor:middle">-3.5</text>
	<path d="M 220.193,577.500 L 220.193,570.000 " style="stroke:#000000;stroke-opacity:1.00;stroke-width:2;stroke-linejoin:round;fill:none"/>
	<text x="295.12" y="594.75" style="stroke:none;fill:#000000;fill-opacity:1.00;fill-rule:evenodd;font-size:15.0px;text-anchor:middle">-3.0</text>
	<path d="M 295.122,577.500 L 295.122,570.000 " style="stroke:#000000;stroke-opacity:1.00;stroke-width:2;stroke-linejoin:round;fill:none"/>
	<text x="370.05" y="594.75" style="stroke:none;fill:#000000;fill-opacity:1.00;fill-rule:evenodd;font-size:15.0px;text-anchor:middle">-2.5</text>
	<path d="M 370.050,577.500 L 370.050,570.000 " style="stroke:#000000;stroke-opacity:1.00;stroke-width:2;stroke-linejoin:round;fill:none"/>
	<text x="444.98" y="594.75" style="stroke:none;fill:#000000;fill-opacity:1.00;fill-rule:evenodd;font-size:15.0px;text-anchor:middle">-2.0</text>
	<path d="M 444.979,577.500 L 444.979,570.000 " style="stroke:#000000;stroke-opacity:1.00;stroke-width:2;stroke-linejoin:round;fill:none"/>
	<text x="519.91" y="594.75" style="stroke:none;fill:#000000;fill-opacity:1.00;fill-rule:evenodd;font-size:15.0px;text-anchor:middle">-1.5</text>
	<path d="M 519.907,577.500 L 519.907,570.000 " style="stroke:#000000;stroke-opacity:1.00;stroke-width:2;stroke-linejoin:round;fill:none"/>
	<text x="594.84" y="594.75" style="stroke:none;fill:#000000;fill-opacity:1.00;fill-rule:evenodd;font-size:15.0px;text-anchor:middle">-1.0</text>
	<path d="M 594.835,577.500 L 594.835,570.000 " style="stroke:#000000;stroke-opacity:1.00;stroke-width:2;stroke-linejoin:round;fill:none"/>
	<text x="669.76" y="594.75" style="stroke:none;fill:#000000;fill-opacity:1.00;fill-rule:evenodd;font-size:15.0px;text-anchor:middle">-0.5</text>
	<path d="M 669.764,577.500 L 669.764,570.000 " style="stroke:#000000;stroke-opacity:1.00;stroke-width:2;stroke-linejoin:round;fill:none"/>
	<text x="744.69" y="594.75" style="stroke:none;fill:#000000;fill-opacity:1.00;fill-rule:evenodd;font-size:15.0px;text-anchor:middle">0.0</text>
	<path d="M 744.692,577.500 L 744.692,570.000 " style="stroke:#000000;stroke-opacity:1.00;stroke-width:2;stroke-linejoin:round;fill:none"/>
	<text x="45.00" y="564.18" style="stroke:none;fill:#000000;fill-opacity:1.00;fill-rule:evenodd;font-size:15.0px;text-anchor:end">-2.00</text>
	<path d="M 48.750,559.183 L 56.250,559.183 " style="stroke:#000000;stroke-opacity:1.00;stroke-width:2;stroke-linejoin:round;fill:none"/>
	<text x="45.00" y="530.38" style="stroke:none;fill:#000000;fill-opacity:1.00;fill-rule:evenodd;font-size:15.0px;text-anchor:end">-1.75</text>
	<path d="M 48.750,525.379 L 56.250,525.379 " style="stroke:#000000;stroke-opacity:1.00;stroke-width:2;stroke-linejoin:round;fill:none"/>
	<text x="45.00" y="496.57" style="stroke:none;fill:#000000;fill-opacity:1.00;fill-rule:evenodd;font-size:15.0px;text-anchor:end">-1.50</text>
	<path d="M 48.750,491.575 L 56.250,491.575 " style="stroke:#000000;stroke-opacity:1.00;stroke-width:2;stroke-linejoin:round;fill:none"/>
	<text x="45.00" y="462.77" style="stroke:none;fill:#000000;fill-opacity:1.00;fill-rule:evenodd;font-size:15.0px;text-anchor:end">-1.25</text>
	<path d="M 48.750,457.770 L 56.250,457.770 " style="stroke:#000000;stroke-opacity:1.00;stroke-width:2;stroke-linejoin:round;fill:none"/>
	<text x="45.00" y="428.97" style="stroke:none;fill:#000000;fill-opacity:1.00;fill-rule:evenodd;font-size:15.0px;text-anchor:end">-1.00</text>
	<path d="M 48.750,423.966 L 56.250,423.966 " style="stroke:#000000;stroke-opacity:1.00;stroke-width:2;stroke-linejoin:round;fill:none"/>
	<text x="45.00" y="395.16" style="stroke:none;fill:#000000;fill-opacity:1.00;fill-rule:evenodd;font-size:15.0px;text-anchor:end">-0.75</text>
	<path d="M 48.750,390.162 L 56.250,390.162 " style="stroke:#000000;stroke-opacity:1.00;stroke-width:2;stroke-linejoin:round;fill:none"/>
	<text x="45.00" y="361.36" style="stroke:none;fill:#000000;fill-opacity:1.00;fill-rule:evenodd;font-size:15.0px;text-anchor:end">-0.50</text>
	<path d="M 48.750,356.358 L 56.250,356.358 " style="stroke:#000000;stroke-opacity:1.00;stroke-width:2;stroke-linejoin:round;fill:none"/>
	<text x="45.00" y="327.55" style="stroke:none;fill:#000000;fill-opacity:1.00;fill-rule:evenodd;font-size:15.0px;text-anchor:end">-0.25</text>
	<path d="M 48.750,322.554 L 56.250,322.554 " style="stroke:#000000;stroke-opacity:1.00;stroke-width:2;stroke-linejoin:round;fill:none"/>
	<text x="45.00" y="293.75" style="stroke:none;fill:#000000;fill-opacity:1.00;fill-rule:evenodd;font-size:15.0px;text-anchor:end">0.00</text>
	<path d="M 48.750,288.750 L 56.250,288.750 " style="stroke:#000000;stroke-opacity:1.00;stroke-width:2;stroke-linejoin:round;fill:none"/>
	<text x="45.00" y="259.95" style="stroke:none;fill:#000000;fill-opacity:1.00;fill-rule:evenodd;font-size:15.0px;text-anchor:end">0.25</text>
	<path d="M 48.750,254.946 L 56.250,254.946 " style="stroke:#000000;stroke-opacity:1.00;stroke-width:2;stroke-linejoin:round;fill:none"/>
	<text x="45.00" y="226.14" style="stroke:none;fill:#000000;fill-opacity:1.00;fill-rule:evenodd;font-size:15.0px;text-anchor:end">0.50</text>
	<path d="M 48.750,221.142 L 56.250,221.142 " style="stroke:#000000;stroke-opacity:1.00;stroke-width:2;stroke-linejoin:round;fill:none"/>
	<text x="45.00" y="192.34" style="stroke:none;fill:#000000;fill-opacity:1.00;fill-rule:evenodd;font-size:15.0px;text-anchor:end">0.75</text>
	<path d="M 48.750,187.338 L 56.250,187.338 " style="stroke:#000000;stroke-opacity:1.00;stroke-width:2;stroke-linejoin:round;fill:none"/>
	<text x="45.00" y="158.53" style="stroke:none;fill:#000000;fill-opacity:1.00;fill-rule:evenodd;font-size:15.0px;text-anchor:end">1.00</text>
	<path d="M 48.750,153.534 L 56.250,153.534 " style="stroke:#000000;stroke-opacity:1.00;stroke-width:2;stroke-linejoin:round;fill:none"/>
	<text x="45.00" y="124.73" style="stroke:none;fill:#000000;fill-opacity:1.00;fill-rule:evenodd;font-size:15.0px;text-anchor:end">1.25</text>
	<path d="M 48.750,119.730 L 56.250,119.730 " style="stroke:#000000;stroke-opacity:1.00;stroke-width:2;stroke-linejoin:round;fill:none"/>
	<text x="45.00" y="90.93" style="stroke:none;fill:#000000;fill-opacity:1.00;fill-rule:evenodd;font-size:15.0px;text-anchor:end">1.50</text>
	<path d="M 48.750,85.925 L 56.250,85.925 " style="stroke:#000000;stroke-opacity:1.00;stroke-width:2;stroke-linejoin:round;fill:none"/>
	<text x="45.00" y="57.12" style="stroke:none;fill:#000000;fill-opacity:1.00;fill-rule:evenodd;font-size:15.0px;text-anchor:end">1.75</text>
	<path d="M 48.750,52.121 L 56.250,52.121 " style="stroke:#000000;stroke-opacity:1.00;stroke-width:2;stroke-linejoin:round;fill:none"/>
	<text x="45.00" y="23.32" style="stroke:none;fill:#000000;fill-opacity:1.00;fill-rule:evenodd;font-size:15.0px;text-anchor:end">2.00</text>
	<path d="M 48.750,18.317 L 56.250,18.317 " style="stroke:#000000;stroke-opacity:1.00;stroke-width:2;stroke-linejoin:round;fill:none"/>
	<path d="M 370.050,288.750 L 550.011,7.500 " style="stroke:#bebebe;stroke-opacity:1.00;stroke-width:2;stroke-linejoin:round;fill:none"/>
	<path d="M 370.050,288.750 L 56.250,288.750 " style="stroke:#bebebe;stroke-opacity:1.00;stroke-width:2;stroke-linejoin:round;fill:none"/>
	<path d="M 370.050,288.750 L 550.011,570.000 " style="stroke:#bebebe;stroke-opacity:1.00;stroke-width:2;stroke-linejoin:round;fill:none"/>
	<path d="M 744.692,288.750 L 744.692,7.500 " style="stroke:#bebebe;stroke-opacity:1.00;stroke-width:1;stroke-linejoin:round;stroke-dasharray:5.00,5.00;fill:none"/>
	<text x="741.69" y="18.30" style="stroke:none;fill:#bebebe;fill-opacity:1.00;fill-rule:evenodd;font-size:12.0px;text-anchor:end">90°</text>
	<path d="M 744.692,288.750 L 661.172,7.500 " style="stroke:#bebebe;stroke-opacity:1.00;stroke-width:1;stroke-linejoin:round;stroke-dasharray:5.00,5.00;fill:none"/>
	<text x="658.17" y="18.30" style="stroke:none;fill:#bebebe;fill-opacity:1.00;fill-rule:evenodd;font-size:12.0px;text-anchor:end">75°</text>
	<path d="M 744.692,288.750 L 564.731,7.500 " style="stroke:#bebebe;stroke-opacity:1.00;stroke-width:1;stroke-linejoin:round;stroke-dasharray:5.00,5.00;fill:none"/>
	<text x="561.73" y="18.30" style="stroke:none;fill:#bebebe;fill-opacity:1.00;fill-rule:evenodd;font-size:12.0px;text-anchor:end">60°</text>
	<path d="M 744.692,288.750 L 432.990,7.500 " style="stroke:#bebebe;stroke-opacity:1.00;stroke-width:1;stroke-linejoin:round;stroke-dasharray:5.00,5.00;fill:none"/>
	<text x="429.99" y="18.30" style="stroke:none;fill:#bebebe;fill-opacity:1.00;fill-rule:evenodd;font-size:12.0px;text-anchor:end">45°</text>
	<path d="M 744.692,288.750 L 204.808,7.500 " style="stroke:#bebebe;stroke-opacity:1.00;stroke-width:1;stroke-linejoin:round;stroke-dasharray:5.00,5.00;fill:none"/>
	<text x="201.81" y="18.30" style="stroke:none;fill:#bebebe;fill-opacity:1.00;fill-rule:evenodd;font-size:12.0px;text-anchor:end">30°</text>
	<path d="M 744.692,288.750 L 56.250,122.304 " style="stroke:#bebebe;stroke-opacity:1.00;stroke-width:1;stroke-linejoin:round;stroke-dasharray:5.00,5.00;fill:none"/>
	<text x="59.25" y="119.30" style="stroke:none;fill:#bebebe;fill-opacity:1.00;fill-rule:evenodd;font-size:12.0px">15°</text>
	<path d="M 744.692,288.750 L 56.250,455.196 " style="stroke:#bebebe;stroke-opacity:1.00;stroke-width:1;stroke-linejoin:round;stroke-dasharray:5.00,5.00;fill:none"/>
	<text x="59.25" y="466.00" style="stroke:none;fill:#bebebe;fill-opacity:1.00;fill-rule:evenodd;font-size:12.0px">-15°</text>
	<path d="M 744.692,288.750 L 204.808,570.000 " style="stroke:#bebebe;stroke-opacity:1.00;stroke-width:1;stroke-linejoin:round;stroke-dasharray:5.00,5.00;fill:none"/>
	<text x="201.81" y="567.00" style="stroke:none;fill:#bebebe;fill-opacity:1.00;fill-rule:evenodd;font-size:12.0px;text-anchor:end">-30°</text>
	<path d="M 744.692,288.750 L 432.990,570.000 " style="stroke:#bebebe;stroke-opacity:1.00;stroke-width:1;stroke-linejoin:round;stroke-dasharray:5.00,5.00;fill:none"/>
	<text x="429.99" y="567.00" style="stroke:none;fill:#bebebe;fill-opacity:1.00;fill-rule:evenodd;font-size:12.0px;text-anchor:end">-45°</text>
	<path d="M 744.692,288.750 L 564.731,570.000 " style="stroke:#bebebe;stroke-opacity:1.00;stroke-width:1;stroke-linejoin:round;stroke-dasharray:5.00,5.00;fill:none"/>
	<text x="561.73" y="567.00" style="stroke:none;fill:#bebebe;fill-opacity:1.00;fill-rule:evenodd;font-size:12.0px;text-anchor:end">-60°</text>
	<path d="M 744.692,288.750 L 661.172,570.000 " style="stroke:#bebebe;stroke-opacity:1.00;stroke-width:1;stroke-linejoin:round;stroke-dasharray:5.00,5.00;fill:none"/>
	<text x="658.17" y="567.00" style="stroke:none;fill:#bebebe;fill-opacity:1.00;fill-rule:evenodd;font-size:12.0px;text-anchor:end">-75°</text>
	<path d="M 744.692,288.750 L 744.692,570.000 " style="stroke:#bebebe;stroke-opacity:1.00;stroke-width:1;stroke-linejoin:round;stroke-dasharray:5.00,5.00;fill:none"/>
	<text x="741.69" y="567.00" style="stroke:none;fill:#bebebe;fill-opacity:1.00;fill-rule:evenodd;font-size:12.0px;text-anchor:end">-90°</text>
	<path d="M 146.781,7.500 L 138.585,22.013 L 128.638,41.262 L 119.441,60.812 L 111.005,80.640 L 103.342,100.721 L 96.460,121.032 L 90.368,141.547 L 85.073,162.241 L 80.582,183.090 L 76.899,204.067 L 74.031,225.147 L 71.979,246.305 L 70.747,267.515 L 70.337,288.750 L 70.747,309.985 L 71.979,331.195 L 74.031,352.353 L 76.899,373.433 L 80.582,394.410 L 85.073,415.259 L 90.368,435.953 L 96.460,456.468 L 103.342,476.779 L 111.005,496.860 L 119.441,516.688 L 128.638,536.238 L 138.585,555.487 L 146.781,570.000 " style="stroke:#bebebe;stroke-opacity:1.00;stroke-width:1;stroke-linejoin:round;stroke-dasharray:5.00,5.00;fill:none"/>
	<path d="M 232.776,7.500 L 225.573,18.317 L 215.429,34.829 L 205.931,51.650 L 197.088,68.760 L 188.913,86.138 L 181.415,103.763 L 174.603,121.613 L 168.486,139.667 L 163.070,157.903 L 158.364,176.298 L 154.372,194.830 L 151.099,213.476 L 148.549,232.214 L 146.725,251.021 L 145.630,269.874 L 145.265,288.750 L 145.630,307.626 L 146.725,326.479 L 148.549,345.286 L 151.099,364.024 L 154.372,382.670 L 158.364,401.202 L 163.070,419.597 L 168.486,437.833 L 174.603,455.887 L 181.415,473.737 L 188.913,491.362 L 197.088,508.740 L 205.931,525.850 L 215.429,542.671 L 225.573,559.183 L 232.776,570.000 " style="stroke:#bebebe;stroke-opacity:1.00;stroke-width:1;stroke-linejoin:round;stroke-dasharray:5.00,5.00;fill:none"/>
	<path d="M 322.933,7.500 L 320.364,10.576 L 309.863,24.108 L 299.892,37.962 L 290.463,52.121 L 281.587,66.569 L 273.276,81.288 L 265.539,96.259 L 258.385,111.465 L 251.824,126.887 L 245.864,142.505 L 240.512,158.303 L 235.773,174.259 L 231.655,190.354 L 228.162,206.570 L 225.298,222.885 L 223.067,239.281 L 221.471,255.737 L 220.513,272.234 L 220.193,288.750 L 220.513,305.266 L 221.471,321.763 L 223.067,338.219 L 225.298,354.615 L 228.162,370.930 L 231.655,387.146 L 235.773,403.241 L 240.512,419.197 L 245.864,434.995 L 251.824,450.613 L 258.385,466.035 L 265.539,481.241 L 273.276,496.212 L 281.587,510.931 L 290.463,525.379 L 299.892,539.538 L 309.863,553.392 L 320.364,566.924 L 322.933,570.000 " style="stroke:#bebebe;stroke-opacity:1.00;stroke-width:1;stroke-linejoin:round;stroke-dasharray:5.00,5.00;fill:none"/>
	<path d="M 420.743,7.500 L 410.596,17.318 L 400.301,28.004 L 390.426,39.008 L 380.982,50.315 L 371.981,61.914 L 363.435,73.789 L 355.353,85.925 L 347.745,98.309 L 340.621,110.925 L 333.989,123.758 L 327.858,136.791 L 322.234,150.010 L 317.125,163.398 L 312.537,176.938 L 308.476,190.615 L 304.946,204.411 L 301.952,218.310 L 299.497,232.295 L 297.585,246.348 L 296.217,260.453 L 295.396,274.593 L 295.122,288.750 L 295.396,302.907 L 296.217,317.047 L 297.585,331.152 L 299.497,345.205 L 301.952,359.190 L 304.946,373.089 L 308.476,386.885 L 312.537,400.562 L 317.125,414.102 L 322.234,427.490 L 327.858,440.709 L 333.989,453.742 L 340.621,466.575 L 347.745,479.191 L 355.353,491.575 L 363.435,503.711 L 371.981,515.586 L 380.982,527.185 L 390.426,538.492 L 400.301,549.496 L 410.596,560.182 L 420.743,570.000 " style="stroke:#bebebe;stroke-opacity:1.00;stroke-width:1;stroke-linejoin:round;stroke-dasharray:5.00,5.00;fill:none"/>
	<path d="M 536.904,7.500 L 535.195,8.501 L 524.483,15.269 L 514.039,22.370 L 503.877,29.796 L 494.008,37.537 L 484.444,45.584 L 475.197,53.927 L 466.279,62.557 L 457.700,71.462 L 449.470,80.631 L 441.600,90.055 L 434.100,99.720 L 426.978,109.616 L 420.243,119.730 L 413.903,130.049 L 407.966,140.563 L 402.440,151.256 L 397.330,162.118 L 392.644,173.133 L 388.386,184.290 L 384.563,195.573 L 381.179,206.971 L 378.237,218.467 L 375.742,230.050 L 373.696,241.704 L 372.102,253.415 L 370.963,265.169 L 370.278,276.953 L 370.050,288.750 L 370.278,300.547 L 370.963,312.331 L 372.102,324.085 L 373.696,335.796 L 375.742,347.450 L 378.237,359.033 L 381.179,370.529 L 384.563,381.927 L 388.386,393.210 L 392.644,404.367 L 397.330,415.382 L 402.440,426.244 L 407.966,436.937 L 413.903,447.451 L 420.243,457.770 L 426.978,467.884 L 434.100,477.780 L 441.600,487.445 L 449.470,496.869 L 457.700,506.038 L 466.279,514.943 L 475.197,523.573 L 484.444,531.916 L 494.008,539.963 L 503.877,547.704 L 514.039,555.130 L 524.483,562.231 L 535.195,568.999 L 536.904,570.000 " style="stroke:#bebebe;stroke-opacity:1.00;stroke-width:1;stroke-linejoin:round;stroke-dasharray:5.00,5.00;fill:none"/>
	<path d="M 744.692,18.317 L 734.232,18.482 L 723.785,18.976 L 713.364,19.799 L 702.980,20.949 L 692.647,22.426 L 682.378,24.227 L 672.185,26.350 L 662.080,28.793 L 652.076,31.553 L 642.184,34.626 L 632.417,38.009 L 622.788,41.697 L 613.306,45.687 L 603.985,49.972 L 594.835,54.548 L 585.868,59.410 L 577.094,64.551 L 568.525,69.965 L 560.170,75.646 L 552.040,81.587 L 544.145,87.779 L 536.494,94.217 L 529.096,100.892 L 521.962,107.795 L 515.098,114.919 L 508.515,122.255 L 502.219,129.794 L 496.218,137.526 L 490.521,145.443 L 485.133,153.534 L 480.061,161.790 L 475.311,170.200 L 470.890,178.755 L 466.803,187.444 L 463.053,196.257 L 459.648,205.182 L 456.589,214.209 L 453.881,223.326 L 451.528,232.524 L 449.532,241.790 L 447.895,251.113 L 446.620,260.482 L 445.709,269.886 L 445.161,279.312 L 444.979,288.750 L 445.161,298.188 L 445.709,307.614 L 446.620,317.018 L 447.895,326.387 L 449.532,335.710 L 451.528,344.976 L 453.881,354.174 L 456.589,363.291 L 459.648,372.318 L 463.053,381.243 L 466.803,390.056 L 470.890,398.745 L 475.311,407.300 L 480.061,415.710 L 485.133,423.966 L 490.521,432.057 L 496.218,439.974 L 502.219,447.706 L 508.515,455.245 L 515.098,462.581 L 521.962,469.705 L 529.096,476.608 L 536.494,483.283 L 544.145,489.721 L 552.040,495.913 L 560.170,501.854 L 568.525,507.535 L 577.094,512.949 L 585.868,518.090 L 594.835,522.952 L 603.985,527.528 L 613.306,531.813 L 622.788,535.803 L 632.417,539.491 L 642.184,542.874 L 652.076,545.947 L 662.080,548.707 L 672.185,551.150 L 682.378,553.273 L 692.647,555.074 L 702.980,556.551 L 713.364,557.701 L 723.785,558.524 L 734.232,559.018 L 744.692,559.183 " style="stroke:#bebebe;stroke-opacity:1.00;stroke-width:1;stroke-linejoin:round;stroke-dasharray:5.00,5.00;fill:none"/>
	<text x="747.69" y="22.32" style="stroke:none;fill:#bebebe;fill-opacity:1.00;fill-rule:evenodd;font-size:12.0px">-2.0</text>
	<path d="M 744.692,85.925 L 736.847,86.049 L 729.012,86.420 L 721.196,87.037 L 713.408,87.899 L 705.659,89.007 L 697.957,90.358 L 690.312,91.950 L 682.733,93.783 L 675.230,95.852 L 667.811,98.157 L 660.486,100.694 L 653.264,103.461 L 646.153,106.453 L 639.162,109.667 L 632.300,113.099 L 625.574,116.745 L 618.994,120.601 L 612.567,124.662 L 606.301,128.922 L 600.203,133.377 L 594.281,138.022 L 588.543,142.850 L 582.995,147.856 L 577.644,153.034 L 572.497,158.377 L 567.559,163.879 L 562.837,169.533 L 558.337,175.332 L 554.063,181.269 L 550.022,187.338 L 546.219,193.530 L 542.657,199.838 L 539.341,206.254 L 536.275,212.771 L 533.463,219.380 L 530.909,226.074 L 528.615,232.844 L 526.584,239.682 L 524.819,246.580 L 523.322,253.530 L 522.095,260.522 L 521.138,267.549 L 520.454,274.602 L 520.044,281.672 L 519.907,288.750 L 520.044,295.828 L 520.454,302.898 L 521.138,309.951 L 522.095,316.978 L 523.322,323.970 L 524.819,330.920 L 526.584,337.818 L 528.615,344.656 L 530.909,351.426 L 533.463,358.120 L 536.275,364.729 L 539.341,371.246 L 542.657,377.662 L 546.219,383.970 L 550.022,390.162 L 554.063,396.231 L 558.337,402.168 L 562.837,407.967 L 567.559,413.621 L 572.497,419.123 L 577.644,424.466 L 582.995,429.644 L 588.543,434.650 L 594.281,439.478 L 600.203,444.123 L 606.301,448.578 L 612.567,452.838 L 618.994,456.899 L 625.574,460.755 L 632.300,464.401 L 639.162,467.833 L 646.153,471.047 L 653.264,474.039 L 660.486,476.806 L 667.811,479.343 L 675.230,481.648 L 682.733,483.717 L 690.312,485.550 L 697.957,487.142 L 705.659,488.493 L 713.408,489.601 L 721.196,490.463 L 729.012,491.080 L 736.847,491.451 L 744.692,491.575 " style="stroke:#bebebe;stroke-opacity:1.00;stroke-width:1;stroke-linejoin:round;stroke-dasharray:5.00,5.00;fill:none"/>
	<text x="747.69" y="89.93" style="stroke:none;fill:#bebebe;fill-opacity:1.00;fill-rule:evenodd;font-size:12.0px">-1.5</text>
	<path d="M 744.692,153.534 L 739.462,153.616 L 734.239,153.863 L 729.028,154.274 L 723.836,154.850 L 718.670,155.588 L 713.535,156.488 L 708.438,157.550 L 703.386,158.772 L 698.384,160.152 L 693.438,161.688 L 688.555,163.380 L 683.740,165.224 L 678.999,167.218 L 674.339,169.361 L 669.764,171.649 L 665.280,174.080 L 660.893,176.651 L 656.608,179.358 L 652.431,182.198 L 648.366,185.168 L 644.418,188.265 L 640.593,191.484 L 636.894,194.821 L 633.327,198.273 L 629.895,201.835 L 626.603,205.503 L 623.455,209.272 L 620.455,213.138 L 617.606,217.096 L 614.912,221.142 L 612.376,225.270 L 610.002,229.475 L 607.791,233.753 L 605.747,238.097 L 603.873,242.503 L 602.170,246.966 L 600.641,251.479 L 599.287,256.038 L 598.110,260.637 L 597.112,265.270 L 596.294,269.932 L 595.656,274.616 L 595.200,279.318 L 594.927,284.031 L 594.835,288.750 L 594.927,293.469 L 595.200,298.182 L 595.656,302.884 L 596.294,307.568 L 597.112,312.230 L 598.110,316.863 L 599.287,321.462 L 600.641,326.021 L 602.170,330.534 L 603.873,334.997 L 605.747,339.403 L 607.791,343.747 L 610.002,348.025 L 612.376,352.230 L 614.912,356.358 L 617.606,360.404 L 620.455,364.362 L 623.455,368.228 L 626.603,371.997 L 629.895,375.665 L 633.327,379.227 L 636.894,382.679 L 640.593,386.016 L 644.418,389.235 L 648.366,392.332 L 652.431,395.302 L 656.608,398.142 L 660.893,400.849 L 665.280,403.420 L 669.764,405.851 L 674.339,408.139 L 678.999,410.282 L 683.740,412.276 L 688.555,414.120 L 693.438,415.812 L 698.384,417.348 L 703.386,418.728 L 708.438,419.950 L 713.535,421.012 L 718.670,421.912 L 723.836,422.650 L 729.028,423.226 L 734.239,423.637 L 739.462,423.884 L 744.692,423.966 " style="stroke:#bebebe;stroke-opacity:1.00;stroke-width:1;stroke-linejoin:round;stroke-dasharray:5.00,5.00;fill:none"/>
	<text x="747.69" y="157.53" style="stroke:none;fill:#bebebe;fill-opacity:1.00;fill-rule:evenodd;font-size:12.0px">-1.0</text>
	<path d="M 744.692,221.142 L 742.077,221.183 L 739.465,221.307 L 736.860,221.512 L 734.264,221.800 L 731.681,222.169 L 729.114,222.619 L 726.565,223.150 L 724.039,223.761 L 721.538,224.451 L 719.065,225.219 L 716.623,226.065 L 714.216,226.987 L 711.846,227.984 L 709.515,229.056 L 707.228,230.200 L 704.986,231.415 L 702.793,232.700 L 700.650,234.054 L 698.562,235.474 L 696.529,236.959 L 694.555,238.507 L 692.642,240.117 L 690.793,241.785 L 689.009,243.511 L 687.294,245.292 L 685.648,247.126 L 684.074,249.011 L 682.574,250.944 L 681.149,252.923 L 679.802,254.946 L 678.534,257.010 L 677.347,259.113 L 676.242,261.251 L 675.220,263.424 L 674.282,265.627 L 673.431,267.858 L 672.666,270.115 L 671.989,272.394 L 671.401,274.693 L 670.902,277.010 L 670.493,279.341 L 670.174,281.683 L 669.946,284.034 L 669.809,286.391 L 669.764,288.750 L 669.809,291.109 L 669.946,293.466 L 670.174,295.817 L 670.493,298.159 L 670.902,300.490 L 671.401,302.807 L 671.989,305.106 L 672.666,307.385 L 673.431,309.642 L 674.282,311.873 L 675.220,314.076 L 676.242,316.249 L 677.347,318.387 L 678.534,320.490 L 679.802,322.554 L 681.149,324.577 L 682.574,326.556 L 684.074,328.489 L 685.648,330.374 L 687.294,332.208 L 689.009,333.989 L 690.793,335.715 L 692.642,337.383 L 694.555,338.993 L 696.529,340.541 L 698.562,342.026 L 700.650,343.446 L 702.793,344.800 L 704.986,346.085 L 707.228,347.300 L 709.515,348.444 L 711.846,349.516 L 714.216,350.513 L 716.623,351.435 L 719.065,352.281 L 721.538,353.049 L 724.039,353.739 L 726.565,354.350 L 729.114,354.881 L 731.681,355.331 L 734.264,355.700 L 736.860,355.988 L 739.465,356.193 L 742.077,356.317 L 744.692,356.358 " style="stroke:#bebebe;stroke-opacity:1.00;stroke-width:1;stroke-linejoin:round;stroke-dasharray:5.00,5.00;fill:none"/>
	<text x="747.69" y="225.14" style="stroke:none;fill:#bebebe;fill-opacity:1.00;fill-rule:evenodd;font-size:12.0px">-0.5</text>
	<path d="M 295.122,288.750 L 298.900,288.750 L 302.673,288.750 L 306.454,288.750 L 310.260,288.750 L 314.107,288.750 L 318.013,288.750 L 321.999,288.750 L 324.031,288.750 L 326.093,288.750 L 328.191,288.750 L 330.328,288.750 L 332.512,288.750 L 334.748,288.750 L 337.047,288.750 L 339.417,288.750 L 341.872,288.750 L 344.429,288.750 L 347.109,288.750 L 349.944,288.750 L 352.976,288.750 L 356.272,288.750 L 359.943,288.750 L 361.981,288.750 L 364.211,288.750 L 366.712,288.750 L 369.639,288.750 L 373.395,288.750 L 376.012,288.750 L 377.844,288.750 L 379.130,288.750 L 382.207,288.750 L 382.238,285.307 L 382.269,283.881 L 382.330,281.867 L 382.451,279.024 L 382.572,276.847 L 382.693,275.016 L 382.933,271.955 L 383.172,269.387 L 383.409,267.134 L 383.645,265.106 L 384.112,261.528 L 384.572,258.403 L 385.027,255.601 L 385.477,253.046 L 385.922,250.687 L 386.361,248.488 L 386.796,246.424 L 387.651,242.629 L 388.489,239.190 L 389.310,236.033 L 390.116,233.109 L 390.908,230.379 L 391.686,227.816 L 392.451,225.397 L 393.203,223.104 L 393.944,220.924 L 394.675,218.845 L 395.394,216.856 L 396.804,213.117 L 398.178,209.653 L 399.519,206.423 L 400.830,203.395 L 401.474,201.949 L 402.112,200.543 L 402.744,199.177 L 403.369,197.846 L 403.988,196.551 L 404.602,195.288 L 404.907,194.668 L 405.210,194.056 L 405.512,193.451 L 405.662,193.152 L 405.738,193.003 L 405.813,192.854 L 405.892,192.698 L 405.970,192.542 L 406.128,192.232 L 406.442,191.618 L 406.754,191.011 L 407.065,190.411 L 407.684,189.232 L 408.297,188.080 L 408.905,186.953 L 409.508,185.851 L 410.701,183.715 L 411.876,181.664 L 413.035,179.692 L 414.178,177.792 L 415.307,175.960 L 416.286,174.405 L 417.255,172.895 L 419.164,170.001 L 421.038,167.260 L 422.881,164.656 L 424.694,162.177 L 426.481,159.812 L 428.243,157.551 L 429.983,155.385 L 431.701,153.307 L 433.401,151.310 L 435.083,149.389 L 436.748,147.539 L 438.398,145.754 L 440.035,144.031 L 441.658,142.367 L 443.269,140.756 L 444.869,139.198 L 446.459,137.688 L 448.040,136.224 L 449.612,134.805 L 451.176,133.427 L 452.733,132.088 L 454.284,130.788 L 455.829,129.524 L 457.368,128.295 L 458.904,127.099 L 460.434,125.935 L 461.962,124.802 L 463.487,123.698 L 465.009,122.623 L 466.529,121.575 L 468.049,120.554 L 471.085,118.588 L 474.122,116.720 L 477.165,114.943 L 480.217,113.252 L 483.282,111.644 L 486.365,110.116 L 489.471,108.664 L 492.605,107.287 L 495.772,105.981 L 498.978,104.746 L 502.231,103.581 L 505.537,102.485 L 508.907,101.459 L 512.349,100.502 L 515.876,99.618 L 519.504,98.808 L 523.249,98.076 L 527.137,97.426 L 529.143,97.135 L 531.196,96.867 L 533.303,96.624 L 535.469,96.407 L 537.702,96.219 L 540.011,96.062 L 542.410,95.939 L 544.912,95.853 L 547.536,95.809 L 550.310,95.814 L 553.269,95.875 L 556.466,96.003 L 558.485,96.115 L 560.639,96.260 L 562.965,96.442 L 565.519,96.668 L 568.395,96.940 L 571.775,97.255 L 573.768,97.409 L 576.092,97.516 L 578.937,97.419 L 582.365,96.527 L 584.218,95.352 L 585.608,94.004 L 587.504,91.476 L 588.844,89.274 L 589.919,87.318 L 591.660,83.896 L 593.100,80.906 L 594.364,78.205 L 595.509,75.714 L 596.568,73.386 L 597.561,71.188 L 598.501,69.098 L 599.397,67.098 L 600.256,65.177 L 601.084,63.323 L 602.661,59.792 L 604.152,56.454 L 605.163,54.192 L 606.144,52.001 L 607.097,49.875 L 608.026,47.806 L 608.933,45.790 L 609.819,43.823 L 610.687,41.900 L 611.538,40.019 L 612.373,38.176 L 613.193,36.368 L 614.794,32.853 L 616.346,29.456 L 617.855,26.167 L 619.325,22.974 L 620.760,19.869 L 622.162,16.845 L 623.535,13.895 L 624.881,11.014 L 626.201,8.197 L 626.528,7.500 " style="stroke:#e6194b;stroke-opacity:1.00;stroke-width:2;stroke-linejoin:round;fill:none"/>
	<path d="M 145.265,288.750 L 143.215,288.750 L 141.239,288.750 L 139.331,288.750 L 137.485,288.750 L 135.695,288.750 L 133.958,288.750 L 132.268,288.750 L 131.441,288.750 L 130.624,288.750 L 129.817,288.750 L 129.021,288.750 L 128.234,288.750 L 127.457,288.750 L 126.689,288.750 L 125.930,288.750 L 125.180,288.750 L 124.437,288.750 L 123.703,288.750 L 122.977,288.750 L 122.258,288.750 L 121.547,288.750 L 120.843,288.750 L 120.494,288.750 L 120.146,288.750 L 119.800,288.750 L 119.456,288.750 L 119.114,288.750 L 118.943,288.750 L 118.858,288.750 L 118.815,288.750 L 118.773,288.750 L 118.707,288.750 L 118.641,288.750 L 118.508,288.750 L 118.245,288.750 L 117.982,288.750 L 117.721,288.750 L 117.200,288.750 L 116.683,288.750 L 116.170,288.750 L 115.661,288.750 L 114.652,288.750 L 113.657,288.750 L 112.676,288.750 L 111.707,288.750 L 110.750,288.750 L 109.805,288.750 L 108.871,288.750 L 107.037,288.750 L 105.244,288.750 L 103.491,288.750 L 101.775,288.750 L 100.094,288.750 L 98.446,288.750 L 96.830,288.750 L 95.244,288.750 L 93.686,288.750 L 92.156,288.750 L 90.651,288.750 L 87.716,288.750 L 84.873,288.750 L 82.113,288.750 L 79.432,288.750 L 78.119,288.750 L 76.824,288.750 L 75.545,288.750 L 74.283,288.750 L 73.036,288.750 L 71.805,288.750 L 71.195,288.750 L 70.588,288.750 L 69.985,288.750 L 69.685,288.750 L 69.536,288.750 L 69.386,288.750 L 69.229,288.750 L 69.072,288.750 L 68.759,288.750 L 68.135,288.750 L 67.515,288.750 L 66.899,288.750 L 65.677,288.750 L 64.470,288.750 L 63.276,288.750 L 62.095,288.750 L 59.772,288.750 L 57.497,288.750 L 56.250,288.750 " style="stroke:#3cb44b;stroke-opacity:1.00;stroke-width:2;stroke-linejoin:round;fill:none"/>
	<path d="M 444.979,288.750 L 443.081,288.750 L 441.120,288.750 L 439.088,288.750 L 436.974,288.750 L 434.767,288.750 L 432.453,288.750 L 430.014,288.750 L 428.741,288.750 L 427.428,288.750 L 426.070,288.750 L 424.663,288.750 L 423.201,288.750 L 421.678,288.750 L 420.085,288.750 L 418.411,288.750 L 416.646,288.750 L 414.771,288.750 L 412.765,288.750 L 410.598,288.750 L 408.228,288.750 L 405.587,288.750 L 402.563,288.750 L 400.847,288.750 L 398.938,288.750 L 396.756,288.750 L 394.145,288.750 L 390.706,288.750 L 388.246,288.750 L 386.493,288.750 L 385.245,288.750 L 382.208,288.750 L 382.238,292.193 L 382.269,293.619 L 382.330,295.633 L 382.451,298.476 L 382.572,300.653 L 382.693,302.484 L 382.933,305.545 L 383.172,308.113 L 383.409,310.366 L 383.645,312.394 L 384.112,315.972 L 384.572,319.097 L 385.027,321.899 L 385.477,324.454 L 385.922,326.813 L 386.361,329.012 L 386.796,331.076 L 387.651,334.871 L 388.489,338.310 L 389.310,341.467 L 390.116,344.391 L 390.908,347.121 L 391.686,349.684 L 392.451,352.103 L 393.203,354.396 L 393.944,356.576 L 394.675,358.655 L 395.394,360.644 L 396.804,364.383 L 398.178,367.847 L 399.519,371.077 L 400.830,374.105 L 401.474,375.551 L 402.112,376.957 L 402.744,378.323 L 403.369,379.654 L 403.988,380.949 L 404.602,382.212 L 404.907,382.832 L 405.210,383.444 L 405.512,384.049 L 405.662,384.348 L 405.738,384.497 L 405.813,384.646 L 405.892,384.802 L 405.970,384.958 L 406.128,385.268 L 406.442,385.882 L 406.754,386.489 L 407.065,387.089 L 407.684,388.268 L 408.297,389.420 L 408.905,390.547 L 409.508,391.649 L 410.701,393.785 L 411.876,395.836 L 413.035,397.808 L 414.178,399.708 L 415.307,401.540 L 416.286,403.095 L 417.255,404.605 L 419.164,407.499 L 421.038,410.240 L 422.881,412.844 L 424.694,415.323 L 426.481,417.688 L 428.243,419.949 L 429.983,422.115 L 431.701,424.193 L 433.401,426.190 L 435.083,428.111 L 436.748,429.961 L 438.398,431.746 L 440.035,433.469 L 441.658,435.133 L 443.269,436.744 L 444.869,438.302 L 446.459,439.812 L 448.040,441.276 L 449.612,442.695 L 451.176,444.073 L 452.733,445.412 L 454.284,446.712 L 455.829,447.976 L 457.368,449.205 L 458.904,450.401 L 460.434,451.565 L 461.962,452.698 L 463.487,453.802 L 465.009,454.877 L 466.529,455.925 L 468.049,456.946 L 471.085,458.912 L 474.122,460.780 L 477.165,462.557 L 480.217,464.248 L 483.282,465.856 L 486.365,467.384 L 489.471,468.836 L 492.605,470.213 L 495.772,471.519 L 498.978,472.754 L 502.231,473.919 L 505.537,475.015 L 508.907,476.041 L 512.349,476.998 L 515.876,477.882 L 519.504,478.692 L 523.249,479.424 L 527.137,480.074 L 529.143,480.365 L 531.196,480.633 L 533.303,480.876 L 535.469,481.093 L 537.702,481.281 L 540.011,481.438 L 542.410,481.561 L 544.912,481.647 L 547.536,481.691 L 550.310,481.686 L 553.269,481.625 L 556.466,481.497 L 558.485,481.385 L 560.639,481.240 L 562.965,481.058 L 565.519,480.832 L 568.395,480.560 L 571.775,480.245 L 573.768,480.091 L 576.092,479.984 L 578.937,480.081 L 582.365,480.973 L 584.218,482.148 L 585.608,483.496 L 587.504,486.024 L 588.844,488.226 L 589.919,490.182 L 591.660,493.604 L 593.100,496.594 L 594.364,499.295 L 595.509,501.786 L 596.568,504.114 L 597.561,506.312 L 598.501,508.402 L 599.397,510.402 L 600.256,512.323 L 601.084,514.177 L 602.661,517.708 L 604.152,521.046 L 605.163,523.308 L 606.144,525.499 L 607.097,527.625 L 608.026,529.694 L 608.933,531.710 L 609.819,533.677 L 610.687,535.600 L 611.538,537.481 L 612.373,539.324 L 613.193,541.132 L 614.794,544.647 L 616.346,548.044 L 617.855,551.333 L 619.325,554.526 L 620.760,557.631 L 622.162,560.655 L 623.535,563.605 L 624.881,566.486 L 626.201,569.303 L 626.528,570.000 " style="stroke:#0082c8;stroke-opacity:1.00;stroke-width:2;stroke-linejoin:round;fill:none"/>
	<path d="M 594.835,288.750 L 595.572,288.750 L 596.307,288.750 L 597.042,288.750 L 597.777,288.750 L 598.512,288.750 L 599.247,288.750 L 599.982,288.750 L 600.350,288.750 L 600.718,288.750 L 601.086,288.750 L 601.455,288.750 L 601.823,288.750 L 602.192,288.750 L 602.562,288.750 L 602.932,288.750 L 603.302,288.750 L 603.673,288.750 L 604.044,288.750 L 604.415,288.750 L 604.787,288.750 L 605.160,288.750 L 605.533,288.750 L 605.720,288.750 L 605.907,288.750 L 606.094,288.750 L 606.282,288.750 L 606.469,288.750 L 606.563,288.750 L 606.610,288.750 L 606.633,288.750 L 606.657,288.750 L 606.693,288.750 L 606.730,288.750 L 606.803,288.750 L 606.950,288.750 L 607.096,288.750 L 607.243,288.750 L 607.537,288.750 L 607.831,288.750 L 608.126,288.750 L 608.421,288.750 L 609.014,288.750 L 609.608,288.750 L 610.205,288.750 L 610.805,288.750 L 611.407,288.750 L 612.012,288.750 L 612.619,288.750 L 613.845,288.750 L 615.084,288.750 L 616.339,288.750 L 617.610,288.750 L 618.900,288.750 L 620.211,288.750 L 621.544,288.750 L 622.902,288.750 L 624.287,288.750 L 625.703,288.750 L 627.153,288.750 L 630.169,288.750 L 633.375,288.750 L 636.827,288.750 L 640.611,288.750 L 642.669,288.750 L 644.870,288.750 L 647.255,288.750 L 649.884,288.750 L 652.857,288.750 L 656.373,288.750 L 658.465,288.750 L 660.942,288.750 L 664.166,288.750 L 666.444,288.750 L 668.054,288.750 L 671.941,288.750 L 671.940,292.348 L 671.940,293.838 L 671.939,295.944 L 671.937,298.920 L 671.934,301.201 L 671.931,303.122 L 671.924,306.338 L 671.915,309.044 L 671.904,311.423 L 671.891,313.569 L 671.859,317.368 L 671.821,320.701 L 671.777,323.704 L 671.726,326.456 L 671.669,329.009 L 671.613,331.112 L 671.554,333.109 L 671.421,336.835 L 671.272,340.271 L 671.106,343.472 L 670.924,346.478 L 670.728,349.321 L 670.517,352.023 L 670.292,354.603 L 670.054,357.075 L 669.802,359.452 L 669.537,361.743 L 669.259,363.958 L 668.969,366.102 L 668.667,368.183 L 668.353,370.206 L 668.027,372.176 L 667.690,374.096 L 667.340,375.971 L 666.980,377.804 L 666.608,379.597 L 666.225,381.354 L 665.831,383.076 L 665.426,384.767 L 665.010,386.427 L 664.582,388.059 L 664.144,389.665 L 663.694,391.245 L 663.234,392.802 L 662.762,394.336 L 662.279,395.850 L 661.784,397.343 L 661.278,398.818 L 660.231,401.714 L 659.137,404.547 L 657.994,407.322 L 656.800,410.046 L 655.553,412.723 L 654.252,415.360 L 652.892,417.960 L 651.472,420.529 L 649.986,423.071 L 648.430,425.590 L 646.799,428.090 L 645.087,430.575 L 643.285,433.051 L 641.385,435.521 L 639.376,437.992 L 637.242,440.469 L 634.968,442.959 L 632.531,445.469 L 631.242,446.735 L 629.900,448.010 L 628.501,449.296 L 627.037,450.595 L 625.501,451.909 L 623.884,453.240 L 622.173,454.592 L 620.354,455.968 L 618.408,457.375 L 616.309,458.817 L 614.020,460.304 L 611.488,461.846 L 609.857,462.783 L 608.090,463.748 L 606.150,464.747 L 603.980,465.784 L 601.487,466.866 L 598.488,467.985 L 596.685,468.541 L 594.551,469.048 L 591.895,469.351 L 588.656,468.857 L 586.917,467.921 L 585.641,466.813 L 583.972,464.762 L 582.858,463.036 L 582.009,461.554 L 580.718,459.078 L 579.727,457.029 L 578.910,455.263 L 578.209,453.703 L 577.593,452.301 L 577.041,451.024 L 576.540,449.850 L 576.082,448.762 L 575.658,447.747 L 575.264,446.796 L 574.549,445.055 L 573.915,443.491 L 573.505,442.473 L 573.123,441.518 L 572.764,440.619 L 572.428,439.770 L 572.110,438.965 L 571.809,438.200 L 571.524,437.473 L 571.252,436.779 L 570.994,436.115 L 570.747,435.481 L 570.285,434.288 L 569.861,433.185 L 569.468,432.162 L 569.103,431.208 L 568.763,430.316 L 568.445,429.479 L 568.147,428.691 L 567.866,427.948 L 567.602,427.246 L 567.352,426.580 L 567.115,425.949 L 566.890,425.348 L 566.676,424.776 L 566.473,424.231 L 566.279,423.709 L 566.093,423.211 L 565.916,422.734 L 565.747,422.276 L 565.584,421.837 L 565.429,421.415 L 565.279,421.010 L 565.135,420.619 L 564.997,420.243 L 564.863,419.881 L 564.735,419.531 L 564.611,419.193 L 564.491,418.867 L 564.376,418.551 L 564.264,418.246 L 564.156,417.951 L 564.052,417.664 L 563.951,417.387 L 563.853,417.118 L 563.758,416.857 L 563.665,416.604 L 563.576,416.357 L 563.489,416.118 L 563.405,415.886 L 563.323,415.660 L 563.243,415.440 L 563.165,415.226 L 563.016,414.814 L 562.875,414.423 L 562.741,414.052 L 562.613,413.698 L 562.492,413.360 L 562.376,413.038 L 562.265,412.731 L 562.160,412.436 L 562.058,412.154 L 561.961,411.884 L 561.868,411.624 L 561.779,411.375 L 561.694,411.136 L 561.611,410.905 L 561.532,410.684 L 561.456,410.470 L 561.382,410.264 L 561.312,410.065 L 561.243,409.874 L 561.177,409.688 L 561.113,409.509 L 561.052,409.336 L 560.992,409.168 L 560.935,409.006 L 560.879,408.849 L 560.825,408.696 L 560.772,408.548 L 560.721,408.405 L 560.672,408.266 L 560.624,408.130 L 560.578,407.999 L 560.532,407.871 L 560.488,407.747 L 560.446,407.626 L 560.404,407.509 L 560.364,407.395 L 560.324,407.283 L 560.286,407.175 L 560.249,407.069 L 560.212,406.966 L 560.177,406.865 L 560.142,406.767 L 560.108,406.671 L 560.076,406.578 L 560.043,406.487 L 560.012,406.398 L 559.981,406.311 L 559.951,406.226 L 559.922,406.143 L 559.894,406.061 L 559.866,405.982 L 559.838,405.904 L 559.812,405.828 L 559.785,405.754 L 559.760,405.681 L 559.735,405.609 L 559.710,405.540 L 559.686,405.471 L 559.662,405.404 L 559.639,405.338 L 559.617,405.274 L 559.595,405.211 L 559.573,405.149 L 559.552,405.088 L 559.531,405.029 L 559.510,404.970 L 559.490,404.913 L 559.470,404.856 L 559.451,404.801 L 559.413,404.694 L 559.377,404.590 L 559.342,404.490 L 559.308,404.393 L 559.275,404.300 L 559.244,404.209 L 559.213,404.122 L 559.184,404.037 L 559.155,403.955 L 559.127,403.876 L 559.100,403.799 L 559.074,403.724 L 559.049,403.651 L 559.024,403.581 L 559.000,403.513 L 558.977,403.446 L 558.955,403.382 L 558.933,403.319 L 558.911,403.258 L 558.891,403.198 " style="stroke:#f58230;stroke-opacity:1.00;stroke-width:2;stroke-linejoin:round;fill:none"/>
	<path d="M 744.692,288.750 L 744.125,288.750 L 743.553,288.750 L 742.977,288.750 L 742.397,288.750 L 741.812,288.750 L 741.223,288.750 L 740.629,288.750 L 740.330,288.750 L 740.030,288.750 L 739.728,288.750 L 739.426,288.750 L 739.122,288.750 L 738.817,288.750 L 738.510,288.750 L 738.203,288.750 L 737.894,288.750 L 737.583,288.750 L 737.271,288.750 L 736.958,288.750 L 736.643,288.750 L 736.327,288.750 L 736.010,288.750 L 735.850,288.750 L 735.690,288.750 L 735.530,288.750 L 735.370,288.750 L 735.209,288.750 L 735.128,288.750 L 735.088,288.750 L 735.068,288.750 L 735.048,288.750 L 735.016,288.750 L 734.985,288.750 L 734.922,288.750 L 734.796,288.750 L 734.669,288.750 L 734.543,288.750 L 734.289,288.750 L 734.034,288.750 L 733.778,288.750 L 733.521,288.750 L 733.004,288.750 L 732.482,288.750 L 731.957,288.750 L 731.427,288.750 L 730.893,288.750 L 730.354,288.750 L 729.810,288.750 L 728.709,288.750 L 727.586,288.750 L 726.442,288.750 L 725.275,288.750 L 724.083,288.750 L 722.864,288.750 L 721.617,288.750 L 720.340,288.750 L 719.030,288.750 L 717.685,288.750 L 716.300,288.750 L 713.399,288.750 L 710.288,288.750 L 706.914,288.750 L 703.190,288.750 L 701.156,288.750 L 698.974,288.750 L 696.605,288.750 L 693.988,288.750 L 691.022,288.750 L 687.511,288.750 L 685.420,288.750 L 682.942,288.750 L 679.717,288.750 L 677.438,288.750 L 675.827,288.750 L 671.941,288.750 L 671.940,285.152 L 671.940,283.662 L 671.939,281.556 L 671.937,278.580 L 671.934,276.299 L 671.931,274.378 L 671.924,271.162 L 671.915,268.456 L 671.904,266.077 L 671.891,263.931 L 671.859,260.132 L 671.821,256.799 L 671.777,253.796 L 671.726,251.044 L 671.669,248.491 L 671.613,246.388 L 671.554,244.391 L 671.421,240.665 L 671.272,237.229 L 671.106,234.028 L 670.924,231.022 L 670.728,228.179 L 670.517,225.477 L 670.292,222.897 L 670.054,220.425 L 669.802,218.048 L 669.537,215.757 L 669.259,213.542 L 668.969,211.398 L 668.667,209.317 L 668.353,207.294 L 668.027,205.324 L 667.690,203.404 L 667.340,201.529 L 666.980,199.696 L 666.608,197.903 L 666.225,196.146 L 665.831,194.424 L 665.426,192.733 L 665.010,191.073 L 664.582,189.441 L 664.144,187.835 L 663.694,186.255 L 663.234,184.698 L 662.762,183.164 L 662.279,181.650 L 661.784,180.157 L 661.278,178.682 L 660.231,175.786 L 659.137,172.953 L 657.994,170.178 L 656.800,167.454 L 655.553,164.777 L 654.252,162.140 L 652.892,159.540 L 651.472,156.971 L 649.986,154.429 L 648.430,151.910 L 646.799,149.410 L 645.087,146.925 L 643.285,144.449 L 641.385,141.979 L 639.376,139.508 L 637.242,137.031 L 634.968,134.541 L 632.531,132.031 L 631.242,130.765 L 629.900,129.490 L 628.501,128.204 L 627.037,126.905 L 625.501,125.591 L 623.884,124.260 L 622.173,122.908 L 620.354,121.532 L 618.408,120.125 L 616.309,118.683 L 614.020,117.196 L 611.488,115.654 L 609.857,114.717 L 608.090,113.752 L 606.150,112.753 L 603.980,111.716 L 601.487,110.634 L 598.488,109.515 L 596.685,108.959 L 594.551,108.452 L 591.895,108.149 L 588.656,108.643 L 586.917,109.579 L 585.641,110.687 L 583.972,112.738 L 582.858,114.464 L 582.009,115.946 L 580.718,118.422 L 579.727,120.471 L 578.910,122.237 L 578.209,123.797 L 577.593,125.199 L 577.041,126.476 L 576.540,127.650 L 576.082,128.738 L 575.658,129.753 L 575.264,130.704 L 574.549,132.445 L 573.915,134.009 L 573.505,135.027 L 573.123,135.982 L 572.764,136.881 L 572.428,137.730 L 572.110,138.535 L 571.809,139.300 L 571.524,140.027 L 571.252,140.721 L 570.994,141.385 L 570.747,142.019 L 570.285,143.212 L 569.861,144.315 L 569.468,145.338 L 569.103,146.292 L 568.763,147.184 L 568.445,148.021 L 568.147,148.809 L 567.866,149.552 L 567.602,150.254 L 567.352,150.920 L 567.115,151.551 L 566.890,152.152 L 566.676,152.724 L 566.473,153.269 L 566.279,153.791 L 566.093,154.289 L 565.916,154.766 L 565.747,155.224 L 565.584,155.663 L 565.429,156.085 L 565.279,156.490 L 565.135,156.881 L 564.997,157.257 L 564.863,157.619 L 564.735,157.969 L 564.611,158.307 L 564.491,158.633 L 564.376,158.949 L 564.264,159.254 L 564.156,159.549 L 564.052,159.836 L 563.951,160.113 L 563.853,160.382 L 563.758,160.643 L 563.665,160.896 L 563.576,161.143 L 563.489,161.382 L 563.405,161.614 L 563.323,161.840 L 563.243,162.060 L 563.165,162.274 L 563.016,162.686 L 562.875,163.077 L 562.741,163.448 L 562.613,163.802 L 562.492,164.140 L 562.376,164.462 L 562.265,164.769 L 562.160,165.064 L 562.058,165.346 L 561.961,165.616 L 561.868,165.876 L 561.779,166.125 L 561.694,166.364 L 561.611,166.595 L 561.532,166.816 L 561.456,167.030 L 561.382,167.236 L 561.312,167.435 L 561.243,167.626 L 561.177,167.812 L 561.113,167.991 L 561.052,168.164 L 560.992,168.332 L 560.935,168.494 L 560.879,168.651 L 560.825,168.804 L 560.772,168.952 L 560.721,169.095 L 560.672,169.234 L 560.624,169.370 L 560.578,169.501 L 560.532,169.629 L 560.488,169.753 L 560.446,169.874 L 560.404,169.991 L 560.364,170.105 L 560.324,170.217 L 560.286,170.325 L 560.249,170.431 L 560.212,170.534 L 560.177,170.635 L 560.142,170.733 L 560.108,170.829 L 560.076,170.922 L 560.043,171.013 L 560.012,171.102 L 559.981,171.189 L 559.951,171.274 L 559.922,171.357 L 559.894,171.439 L 559.866,171.518 L 559.838,171.596 L 559.812,171.672 L 559.785,171.746 L 559.760,171.819 L 559.735,171.891 L 559.710,171.960 L 559.686,172.029 L 559.662,172.096 L 559.639,172.162 L 559.617,172.226 L 559.595,172.289 L 559.573,172.351 L 559.552,172.412 L 559.531,172.471 L 559.510,172.530 L 559.490,172.587 L 559.470,172.644 L 559.451,172.699 L 559.413,172.806 L 559.377,172.910 L 559.342,173.010 L 559.308,173.107 L 559.275,173.200 L 559.244,173.291 L 559.213,173.378 L 559.184,173.463 L 559.155,173.545 L 559.127,173.624 L 559.100,173.701 L 559.074,173.776 L 559.049,173.849 L 559.024,173.919 L 559.000,173.987 L 558.977,174.054 L 558.955,174.118 L 558.933,174.181 L 558.911,174.242 L 558.891,174.302 " style="stroke:#911eb4;stroke-opacity:1.00;stroke-width:2;stroke-linejoin:round;fill:none"/>
	<ellipse cx="557.37" cy="178.69" rx="4.00" ry="4.00" style="stroke:#000000;stroke-opacity:1.00;stroke-width:2;stroke-linejoin:round;fill:none"/>
	<ellipse cx="557.37" cy="398.81" rx="4.00" ry="4.00" style="stroke:#000000;stroke-opacity:1.00;stroke-width:2;stroke-linejoin:round;fill:none"/>
	<path d="M 291.122,292.750 L 299.122,284.750 M 291.122,284.750 L 299.122,292.750 " style="stroke:#000000;stroke-opacity:1.00;stroke-width:2;stroke-linejoin:round;fill:none"/>
	<path d="M 141.265,292.750 L 149.265,284.750 M 141.265,284.750 L 149.265,292.750 " style="stroke:#000000;stroke-opacity:1.00;stroke-width:2;stroke-linejoin:round;fill:none"/>
	<path d="M 440.979,292.750 L 448.979,284.750 M 440.979,284.750 L 448.979,292.750 " style="stroke:#000000;stroke-opacity:1.00;stroke-width:2;stroke-linejoin:round;fill:none"/>
	<path d="M 590.835,292.750 L 598.835,284.750 M 590.835,284.750 L 598.835,292.750 " style="stroke:#000000;stroke-opacity:1.00;stroke-width:2;stroke-linejoin:round;fill:none"/>
	<path d="M 740.692,292.750 L 748.692,284.750 M 740.692,284.750 L 748.692,292.750 " style="stroke:#000000;stroke-opacity:1.00;stroke-width:2;stroke-linejoin:round;fill:none"/>
	<path d="M 206.257,292.750 L 214.257,284.750 M 206.257,284.750 L 214.257,292.750 " style="stroke:#ff0000;stroke-opacity:1.00;stroke-width:2;stroke-linejoin:round;fill:none"/>
	<path d="M 378.207,292.750 L 386.207,284.750 M 378.207,284.750 L 386.207,292.750 " style="stroke:#ff0000;stroke-opacity:1.00;stroke-width:2;stroke-linejoin:round;fill:none"/>
	<path d="M 529.713,292.750 L 537.713,284.750 M 529.713,284.750 L 537.713,292.750 " style="stroke:#ff0000;stroke-opacity:1.00;stroke-width:2;stroke-linejoin:round;fill:none"/>
	<path d="M 581.734,478.829 L 589.734,470.829 M 581.734,470.829 L 589.734,478.829 " style="stroke:#ff0000;stroke-opacity:1.00;stroke-width:2;stroke-linejoin:round;fill:none"/>
	<path d="M 581.734,106.671 L 589.734,98.671 M 581.734,98.671 L 589.734,106.671 " style="stroke:#ff0000;stroke-opacity:1.00;stroke-width:2;stroke-linejoin:round;fill:none"/>
	<path d="M 667.941,292.750 L 675.941,284.750 M 667.941,284.750 L 675.941,292.750 " style="stroke:#ff0000;stroke-opacity:1.00;stroke-width:2;stroke-linejoin:round;fill:none"/>
	<text x="781.25" y="562.50" style="stroke:none;fill:#000000;fill-opacity:1.00;fill-rule:evenodd;font-size:15.0px;text-anchor:end">Re </text>
	<text x="63.75" y="24.75" style="stroke:none;fill:#000000;fill-opacity:1.00;fill-rule:evenodd;font-size:15.0px">Im </text>
	<path d="M 56.250,570.000 L 788.750,570.000 L 788.750,7.500 L 56.250,7.500 Z" style="stroke:#000000;stroke-opacity:1.00;stroke-width:2;stroke-linejoin:round;fill:none"/>
	<text x="105.00" y="492.50" style="stroke:none;fill:#000000;fill-opacity:1.00;fill-rule:evenodd;font-size:15.0px">Merge Points</text>
	<path d="M 78.500,491.500 L 86.500,483.500 M 78.500,483.500 L 86.500,491.500 " style="stroke:#ff0000;stroke-opacity:1.00;stroke-width:2;stroke-linejoin:round;fill:none"/>
	<text x="105.00" y="515.00" style="stroke:none;fill:#000000;fill-opacity:1.00;fill-rule:evenodd;font-size:15.0px">Poles</text>
	<path d="M 78.500,514.000 L 86.500,506.000 M 78.500,506.000 L 86.500,514.000 " style="stroke:#000000;stroke-opacity:1.00;stroke-width:2;stroke-linejoin:round;fill:none"/>
	<text x="105.00" y="537.50" style="stroke:none;fill:#000000;fill-opacity:1.00;fill-rule:evenodd;font-size:15.0px">Zeros</text>
	<ellipse cx="82.50" cy="532.50" rx="4.00" ry="4.00" style="stroke:#000000;stroke-opacity:1.00;stroke-width:2;stroke-linejoin:round;fill:none"/>
	<text x="105.00" y="560.00" style="stroke:none;fill:#000000;fill-opacity:1.00;fill-rule:evenodd;font-size:15.0px">Asymptotes</text>
	<path d="M 67.500,555.000 L 97.500,555.000 " style="stroke:#bebebe;stroke-opacity:1.00;stroke-width:2;stroke-linejoin:round;fill:none"/>
</svg>
