<?xml version="1.0" encoding="utf-8"?>
<svg class="svg" style="stroke-linejoin:round;stroke-linecap:round" xmlns:svg="http://www.w3.org/2000/svg" xmlns="http://www.w3.org/2000/svg" width="800" height="600" viewBox="0 0 800 600">
	<text x="70.53" y="594.75" style="stroke:none;fill:#000000;font-size:15.00px;text-anchor:middle">-4.5</text>
	<path d="M 70.53,577.50 L 70.53,570.00 " style="stroke:#000000;stroke-width:2;fill:none"/>
	<text x="146.51" y="594.75" style="stroke:none;fill:#000000;font-size:15.00px;text-anchor:middle">-4.0</text>
	<path d="M 146.51,577.50 L 146.51,570.00 " style="stroke:#000000;stroke-width:2;fill:none"/>
	<text x="222.49" y="594.75" style="stroke:none;fill:#000000;font-size:15.00px;text-anchor:middle">-3.5</text>
	<path d="M 222.49,577.50 L 222.49,570.00 " style="stroke:#000000;stroke-width:2;fill:none"/>
	<text x="298.46" y="594.75" style="stroke:none;fill:#000000;font-size:15.00px;text-anchor:middle">-3.0</text>
	<path d="M 298.46,577.50 L 298.46,570.00 " style="stroke:#000000;stroke-width:2;fill:none"/>
	<text x="374.44" y="594.75" style="stroke:none;fill:#000000;font-size:15.00px;text-anchor:middle">-2.5</text>
	<path d="M 374.44,577.50 L 374.44,570.00 " style="stroke:#000000;stroke-width:2;fill:none"/>
	<text x="450.42" y="594.75" style="stroke:none;fill:#000000;font-size:15.00px;text-anchor:middle">-2.0</text>
	<path d="M 450.42,577.50 L 450.42,570.00 " style="stroke:#000000;stroke-width:2;fill:none"/>
	<text x="526.39" y="594.75" style="stroke:none;fill:#000000;font-size:15.00px;text-anchor:middle">-1.5</text>
	<path d="M 526.39,577.50 L 526.39,570.00 " style="stroke:#000000;stroke-width:2;fill:none"/>
	<text x="602.37" y="594.75" style="stroke:none;fill:#000000;font-size:15.00px;text-anchor:middle">-1.0</text>
	<path d="M 602.37,577.50 L 602.37,570.00 " style="stroke:#000000;stroke-width:2;fill:none"/>
	<text x="678.35" y="594.75" style="stroke:none;fill:#000000;font-size:15.00px;text-anchor:middle">-0.5</text>
	<path d="M 678.35,577.50 L 678.35,570.00 " style="stroke:#000000;stroke-width:2;fill:none"/>
	<text x="754.33" y="594.75" style="stroke:none;fill:#000000;font-size:15.00px;text-anchor:middle">0.0</text>
	<path d="M 754.33,577.50 L 754.33,570.00 " style="stroke:#000000;stroke-width:2;fill:none"/>
	<text x="45.00" y="564.06" style="stroke:none;fill:#000000;font-size:15.00px;text-anchor:end">-2.00</text>
	<path d="M 48.75,559.06 L 56.25,559.06 " style="stroke:#000000;stroke-width:2;fill:none"/>
	<text x="45.00" y="529.86" style="stroke:none;fill:#000000;font-size:15.00px;text-anchor:end">-1.75</text>
	<path d="M 48.75,524.86 L 56.25,524.86 " style="stroke:#000000;stroke-width:2;fill:none"/>
	<text x="45.00" y="495.67" style="stroke:none;fill:#000000;font-size:15.00px;text-anchor:end">-1.50</text>
	<path d="M 48.75,490.67 L 56.25,490.67 " style="stroke:#000000;stroke-width:2;fill:none"/>
	<text x="45.00" y="461.47" style="stroke:none;fill:#000000;font-size:15.00px;text-anchor:end">-1.25</text>
	<path d="M 48.75,456.47 L 56.25,456.47 " style="stroke:#000000;stroke-width:2;fill:none"/>
	<text x="45.00" y="427.28" style="stroke:none;fill:#000000;font-size:15.00px;text-anchor:end">-1.00</text>
	<path d="M 48.75,422.28 L 56.25,422.28 " style="stroke:#000000;stroke-width:2;fill:none"/>
	<text x="45.00" y="393.08" style="stroke:none;fill:#000000;font-size:15.00px;text-anchor:end">-0.75</text>
	<path d="M 48.75,388.08 L 56.25,388.08 " style="stroke:#000000;stroke-width:2;fill:none"/>
	<text x="45.00" y="358.89" style="stroke:none;fill:#000000;font-size:15.00px;text-anchor:end">-0.50</text>
	<path d="M 48.75,353.89 L 56.25,353.89 " style="stroke:#000000;stroke-width:2;fill:none"/>
	<text x="45.00" y="324.69" style="stroke:none;fill:#000000;font-size:15.00px;text-anchor:end">-0.25</text>
	<path d="M 48.75,319.69 L 56.25,319.69 " style="stroke:#000000;stroke-width:2;fill:none"/>
	<text x="45.00" y="290.50" style="stroke:none;fill:#000000;font-size:15.00px;text-anchor:end">0.00</text>
	<path d="M 48.75,285.50 L 56.25,285.50 " style="stroke:#000000;stroke-width:2;fill:none"/>
	<text x="45.00" y="256.31" style="stroke:none;fill:#000000;font-size:15.00px;text-anchor:end">0.25</text>
	<path d="M 48.75,251.31 L 56.25,251.31 " style="stroke:#000000;stroke-width:2;fill:none"/>
	<text x="45.00" y="222.11" style="stroke:none;fill:#000000;font-size:15.00px;text-anchor:end">0.50</text>
	<path d="M 48.75,217.11 L 56.25,217.11 " style="stroke:#000000;stroke-width:2;fill:none"/>
	<text x="45.00" y="187.92" style="stroke:none;fill:#000000;font-size:15.00px;text-anchor:end">0.75</text>
	<path d="M 48.75,182.92 L 56.25,182.92 " style="stroke:#000000;stroke-width:2;fill:none"/>
	<text x="45.00" y="153.72" style="stroke:none;fill:#000000;font-size:15.00px;text-anchor:end">1.00</text>
	<path d="M 48.75,148.72 L 56.25,148.72 " style="stroke:#000000;stroke-width:2;fill:none"/>
	<text x="45.00" y="119.53" style="stroke:none;fill:#000000;font-size:15.00px;text-anchor:end">1.25</text>
	<path d="M 48.75,114.53 L 56.25,114.53 " style="stroke:#000000;stroke-width:2;fill:none"/>
	<text x="45.00" y="85.33" style="stroke:none;fill:#000000;font-size:15.00px;text-anchor:end">1.50</text>
	<path d="M 48.75,80.33 L 56.25,80.33 " style="stroke:#000000;stroke-width:2;fill:none"/>
	<text x="45.00" y="51.14" style="stroke:none;fill:#000000;font-size:15.00px;text-anchor:end">1.75</text>
	<path d="M 48.75,46.14 L 56.25,46.14 " style="stroke:#000000;stroke-width:2;fill:none"/>
	<text x="45.00" y="16.94" style="stroke:none;fill:#000000;font-size:15.00px;text-anchor:end">2.00</text>
	<path d="M 48.75,11.94 L 56.25,11.94 " style="stroke:#000000;stroke-width:2;fill:none"/>
	<path d="M 374.44,285.50 L 556.92,1.00 " style="stroke:#bebebe;stroke-width:2;fill:none"/>
	<path d="M 374.44,285.50 L 56.25,285.50 " style="stroke:#bebebe;stroke-width:2;fill:none"/>
	<path d="M 374.44,285.50 L 556.92,570.00 " style="stroke:#bebebe;stroke-width:2;fill:none"/>
	<path d="M 754.33,285.50 L 754.33,1.00 " style="stroke:#bebebe;stroke-width:1;stroke-dasharray:5.00,5.00;fill:none"/>
	<text x="751.33" y="11.80" style="stroke:none;fill:#bebebe;font-size:12.00px;text-anchor:end">90°</text>
	<path d="M 754.33,285.50 L 669.64,1.00 " style="stroke:#bebebe;stroke-width:1;stroke-dasharray:5.00,5.00;fill:none"/>
	<text x="666.64" y="11.80" style="stroke:none;fill:#bebebe;font-size:12.00px;text-anchor:end">75°</text>
	<path d="M 754.33,285.50 L 571.85,1.00 " style="stroke:#bebebe;stroke-width:1;stroke-dasharray:5.00,5.00;fill:none"/>
	<text x="568.85" y="11.80" style="stroke:none;fill:#bebebe;font-size:12.00px;text-anchor:end">60°</text>
	<path d="M 754.33,285.50 L 438.26,1.00 " style="stroke:#bebebe;stroke-width:1;stroke-dasharray:5.00,5.00;fill:none"/>
	<text x="435.26" y="11.80" style="stroke:none;fill:#bebebe;font-size:12.00px;text-anchor:end">45°</text>
	<path d="M 754.33,285.50 L 206.89,1.00 " style="stroke:#bebebe;stroke-width:1;stroke-dasharray:5.00,5.00;fill:none"/>
	<text x="203.89" y="11.80" style="stroke:none;fill:#bebebe;font-size:12.00px;text-anchor:end">30°</text>
	<path d="M 754.33,285.50 L 56.25,117.13 " style="stroke:#bebebe;stroke-width:1;stroke-dasharray:5.00,5.00;fill:none"/>
	<text x="59.25" y="114.13" style="stroke:none;fill:#bebebe;font-size:12.00px">15°</text>
	<path d="M 754.33,285.50 L 56.25,285.50 " style="stroke:#bebebe;stroke-width:1;stroke-dasharray:5.00,5.00;fill:none"/>
	<path d="M 754.33,285.50 L 56.25,453.87 " style="stroke:#bebebe;stroke-width:1;stroke-dasharray:5.00,5.00;fill:none"/>
	<text x="59.25" y="464.67" style="stroke:none;fill:#bebebe;font-size:12.00px">-15°</text>
	<path d="M 754.33,285.50 L 206.89,570.00 " style="stroke:#bebebe;stroke-width:1;stroke-dasharray:5.00,5.00;fill:none"/>
	<text x="203.89" y="567.00" style="stroke:none;fill:#bebebe;font-size:12.00px;text-anchor:end">-30°</text>
	<path d="M 754.33,285.50 L 438.26,570.00 " style="stroke:#bebebe;stroke-width:1;stroke-dasharray:5.00,5.00;fill:none"/>
	<text x="435.26" y="567.00" style="stroke:none;fill:#bebebe;font-size:12.00px;text-anchor:end">-45°</text>
	<path d="M 754.33,285.50 L 571.85,570.00 " style="stroke:#bebebe;stroke-width:1;stroke-dasharray:5.00,5.00;fill:none"/>
	<text x="568.85" y="567.00" style="stroke:none;fill:#bebebe;font-size:12.00px;text-anchor:end">-60°</text>
	<path d="M 754.33,285.50 L 669.64,570.00 " style="stroke:#bebebe;stroke-width:1;stroke-dasharray:5.00,5.00;fill:none"/>
	<text x="666.64" y="567.00" style="stroke:none;fill:#bebebe;font-size:12.00px;text-anchor:end">-75°</text>
	<path d="M 754.33,285.50 L 754.33,570.00 " style="stroke:#bebebe;stroke-width:1;stroke-dasharray:5.00,5.00;fill:none"/>
	<text x="751.33" y="567.00" style="stroke:none;fill:#bebebe;font-size:12.00px;text-anchor:end">-90°</text>
	<path d="M 148.05,1.00 L 139.74,15.68 L 129.65,35.15 L 120.32,54.93 L 111.77,74.98 L 104.00,95.30 L 97.02,115.84 L 90.85,136.60 L 85.48,157.53 L 80.92,178.62 L 77.19,199.84 L 74.28,221.16 L 72.20,242.56 L 70.95,264.02 L 70.53,285.50 L 70.95,306.98 L 72.20,328.44 L 74.28,349.84 L 77.19,371.16 L 80.92,392.38 L 85.48,413.47 L 90.85,434.40 L 97.02,455.16 L 104.00,475.70 L 111.77,496.02 L 120.32,516.07 L 129.65,535.85 L 139.74,555.32 L 148.05,570.00 " style="stroke:#bebebe;stroke-width:1;stroke-dasharray:5.00,5.00;fill:none"/>
	<text x="73.53" y="296.30" style="stroke:none;fill:#bebebe;font-size:12.00px">4.5</text>
	<path d="M 235.25,1.00 L 227.94,11.94 L 217.66,28.64 L 208.03,45.66 L 199.06,62.97 L 190.77,80.55 L 183.17,98.38 L 176.26,116.43 L 170.06,134.69 L 164.57,153.14 L 159.79,171.75 L 155.74,190.49 L 152.43,209.36 L 149.84,228.31 L 147.99,247.34 L 146.88,266.41 L 146.51,285.50 L 146.88,304.59 L 147.99,323.66 L 149.84,342.69 L 152.43,361.64 L 155.74,380.51 L 159.79,399.25 L 164.57,417.86 L 170.06,436.31 L 176.26,454.57 L 183.17,472.62 L 190.77,490.45 L 199.06,508.03 L 208.03,525.34 L 217.66,542.36 L 227.94,559.06 L 235.25,570.00 " style="stroke:#bebebe;stroke-width:1;stroke-dasharray:5.00,5.00;fill:none"/>
	<text x="149.51" y="296.30" style="stroke:none;fill:#bebebe;font-size:12.00px">4.0</text>
	<path d="M 326.66,1.00 L 324.06,4.11 L 313.41,17.80 L 303.30,31.81 L 293.74,46.14 L 284.74,60.75 L 276.31,75.64 L 268.47,90.78 L 261.21,106.17 L 254.56,121.77 L 248.52,137.57 L 243.09,153.55 L 238.29,169.69 L 234.11,185.97 L 230.57,202.37 L 227.66,218.87 L 225.40,235.46 L 223.78,252.11 L 222.81,268.79 L 222.49,285.50 L 222.81,302.21 L 223.78,318.89 L 225.40,335.54 L 227.66,352.13 L 230.57,368.63 L 234.11,385.03 L 238.29,401.31 L 243.09,417.45 L 248.52,433.43 L 254.56,449.23 L 261.21,464.83 L 268.47,480.22 L 276.31,495.36 L 284.74,510.25 L 293.74,524.86 L 303.30,539.19 L 313.41,553.20 L 324.06,566.89 L 326.66,570.00 " style="stroke:#bebebe;stroke-width:1;stroke-dasharray:5.00,5.00;fill:none"/>
	<text x="225.49" y="296.30" style="stroke:none;fill:#bebebe;font-size:12.00px">3.5</text>
	<path d="M 425.84,1.00 L 415.55,10.93 L 405.12,21.74 L 395.10,32.87 L 385.53,44.31 L 376.40,56.04 L 367.73,68.05 L 359.54,80.33 L 351.82,92.86 L 344.60,105.62 L 337.88,118.60 L 331.66,131.79 L 325.96,145.16 L 320.78,158.70 L 316.12,172.40 L 312.01,186.23 L 308.43,200.19 L 305.39,214.25 L 302.90,228.39 L 300.96,242.61 L 299.57,256.88 L 298.74,271.18 L 298.46,285.50 L 298.74,299.82 L 299.57,314.12 L 300.96,328.39 L 302.90,342.61 L 305.39,356.75 L 308.43,370.81 L 312.01,384.77 L 316.12,398.60 L 320.78,412.30 L 325.96,425.84 L 331.66,439.21 L 337.88,452.40 L 344.60,465.38 L 351.82,478.14 L 359.54,490.67 L 367.73,502.95 L 376.40,514.96 L 385.53,526.69 L 395.10,538.13 L 405.12,549.26 L 415.55,560.07 L 425.84,570.00 " style="stroke:#bebebe;stroke-width:1;stroke-dasharray:5.00,5.00;fill:none"/>
	<text x="301.46" y="296.30" style="stroke:none;fill:#bebebe;font-size:12.00px">3.0</text>
	<path d="M 543.63,1.00 L 541.90,2.01 L 531.04,8.86 L 520.45,16.04 L 510.14,23.55 L 500.13,31.38 L 490.44,39.52 L 481.06,47.96 L 472.02,56.69 L 463.32,65.70 L 454.97,74.98 L 446.99,84.51 L 439.39,94.29 L 432.17,104.30 L 425.34,114.53 L 418.91,124.97 L 412.89,135.60 L 407.28,146.42 L 402.10,157.40 L 397.35,168.55 L 393.03,179.83 L 389.16,191.25 L 385.73,202.78 L 382.74,214.41 L 380.21,226.12 L 378.14,237.91 L 376.52,249.76 L 375.37,261.65 L 374.67,273.57 L 374.44,285.50 L 374.67,297.43 L 375.37,309.35 L 376.52,321.24 L 378.14,333.09 L 380.21,344.88 L 382.74,356.59 L 385.73,368.22 L 389.16,379.75 L 393.03,391.17 L 397.35,402.45 L 402.10,413.60 L 407.28,424.58 L 412.89,435.40 L 418.91,446.03 L 425.34,456.47 L 432.17,466.70 L 439.39,476.71 L 446.99,486.49 L 454.97,496.02 L 463.32,505.30 L 472.02,514.31 L 481.06,523.04 L 490.44,531.48 L 500.13,539.62 L 510.14,547.45 L 520.45,554.96 L 531.04,562.14 L 541.90,568.99 L 543.63,570.00 " style="stroke:#bebebe;stroke-width:1;stroke-dasharray:5.00,5.00;fill:none"/>
	<text x="377.44" y="296.30" style="stroke:none;fill:#bebebe;font-size:12.00px">2.5</text>
	<path d="M 754.33,11.94 L 743.72,12.11 L 733.13,12.61 L 722.56,13.44 L 712.03,14.60 L 701.55,16.10 L 691.14,17.92 L 680.80,20.07 L 670.56,22.54 L 660.41,25.33 L 650.38,28.44 L 640.48,31.86 L 630.72,35.59 L 621.10,39.63 L 611.65,43.96 L 602.37,48.59 L 593.28,53.51 L 584.38,58.71 L 575.69,64.19 L 567.22,69.93 L 558.98,75.94 L 550.97,82.21 L 543.21,88.72 L 535.71,95.47 L 528.48,102.45 L 521.52,109.66 L 514.84,117.08 L 508.46,124.71 L 502.37,132.53 L 496.60,140.54 L 491.13,148.72 L 485.99,157.07 L 481.18,165.58 L 476.69,174.23 L 472.55,183.02 L 468.75,191.94 L 465.29,200.97 L 462.19,210.10 L 459.45,219.32 L 457.06,228.62 L 455.04,238.00 L 453.38,247.43 L 452.08,256.91 L 451.16,266.42 L 450.60,275.95 L 450.42,285.50 L 450.60,295.05 L 451.16,304.58 L 452.08,314.09 L 453.38,323.57 L 455.04,333.00 L 457.06,342.38 L 459.45,351.68 L 462.19,360.90 L 465.29,370.03 L 468.75,379.06 L 472.55,387.98 L 476.69,396.77 L 481.18,405.42 L 485.99,413.93 L 491.13,422.28 L 496.60,430.46 L 502.37,438.47 L 508.46,446.29 L 514.84,453.92 L 521.52,461.34 L 528.48,468.55 L 535.71,475.53 L 543.21,482.28 L 550.97,488.79 L 558.98,495.06 L 567.22,501.07 L 575.69,506.81 L 584.38,512.29 L 593.28,517.49 L 602.37,522.41 L 611.65,527.04 L 621.10,531.37 L 630.72,535.41 L 640.48,539.14 L 650.38,542.56 L 660.41,545.67 L 670.56,548.46 L 680.80,550.93 L 691.14,553.08 L 701.55,554.90 L 712.03,556.40 L 722.56,557.56 L 733.13,558.39 L 743.72,558.89 L 754.33,559.06 " style="stroke:#bebebe;stroke-width:1;stroke-dasharray:5.00,5.00;fill:none"/>
	<text x="453.42" y="296.30" style="stroke:none;fill:#bebebe;font-size:12.00px">2.0</text>
	<path d="M 754.33,80.33 L 746.37,80.46 L 738.43,80.83 L 730.50,81.46 L 722.60,82.33 L 714.75,83.45 L 706.94,84.82 L 699.18,86.43 L 691.50,88.28 L 683.89,90.37 L 676.37,92.70 L 668.94,95.27 L 661.62,98.07 L 654.41,101.10 L 647.32,104.35 L 640.36,107.82 L 633.54,111.51 L 626.87,115.41 L 620.35,119.52 L 614.00,123.83 L 607.81,128.33 L 601.81,133.03 L 595.99,137.91 L 590.37,142.98 L 584.94,148.22 L 579.72,153.62 L 574.71,159.19 L 569.93,164.91 L 565.36,170.77 L 561.03,176.78 L 556.93,182.92 L 553.07,189.18 L 549.46,195.56 L 546.10,202.05 L 542.99,208.64 L 540.14,215.33 L 537.55,222.10 L 535.22,228.95 L 533.17,235.87 L 531.38,242.84 L 529.86,249.87 L 528.61,256.95 L 527.64,264.05 L 526.95,271.19 L 526.53,278.34 L 526.39,285.50 L 526.53,292.66 L 526.95,299.81 L 527.64,306.95 L 528.61,314.05 L 529.86,321.13 L 531.38,328.16 L 533.17,335.13 L 535.22,342.05 L 537.55,348.90 L 540.14,355.67 L 542.99,362.36 L 546.10,368.95 L 549.46,375.44 L 553.07,381.82 L 556.93,388.08 L 561.03,394.22 L 565.36,400.23 L 569.93,406.09 L 574.71,411.81 L 579.72,417.38 L 584.94,422.78 L 590.37,428.02 L 595.99,433.09 L 601.81,437.97 L 607.81,442.67 L 614.00,447.17 L 620.35,451.48 L 626.87,455.59 L 633.54,459.49 L 640.36,463.18 L 647.32,466.65 L 654.41,469.90 L 661.62,472.93 L 668.94,475.73 L 676.37,478.30 L 683.89,480.63 L 691.50,482.72 L 699.18,484.57 L 706.94,486.18 L 714.75,487.55 L 722.60,488.67 L 730.50,489.54 L 738.43,490.17 L 746.37,490.54 L 754.33,490.67 " style="stroke:#bebebe;stroke-width:1;stroke-dasharray:5.00,5.00;fill:none"/>
	<text x="529.39" y="296.30" style="stroke:none;fill:#bebebe;font-size:12.00px">1.5</text>
	<path d="M 754.33,148.72 L 749.02,148.80 L 743.73,149.05 L 738.44,149.47 L 733.18,150.05 L 727.94,150.80 L 722.73,151.71 L 717.56,152.78 L 712.44,154.02 L 707.37,155.42 L 702.35,156.97 L 697.40,158.68 L 692.52,160.55 L 687.71,162.56 L 682.99,164.73 L 678.35,167.05 L 673.80,169.50 L 669.35,172.11 L 665.01,174.84 L 660.77,177.72 L 656.65,180.72 L 652.65,183.85 L 648.77,187.11 L 645.02,190.49 L 641.40,193.98 L 637.92,197.58 L 634.58,201.29 L 631.39,205.10 L 628.35,209.01 L 625.46,213.02 L 622.73,217.11 L 620.16,221.29 L 617.75,225.54 L 615.51,229.87 L 613.44,234.26 L 611.54,238.72 L 609.81,243.23 L 608.26,247.80 L 606.89,252.41 L 605.69,257.06 L 604.68,261.75 L 603.85,266.46 L 603.20,271.20 L 602.74,275.96 L 602.46,280.73 L 602.37,285.50 L 602.46,290.27 L 602.74,295.04 L 603.20,299.80 L 603.85,304.54 L 604.68,309.25 L 605.69,313.94 L 606.89,318.59 L 608.26,323.20 L 609.81,327.77 L 611.54,332.28 L 613.44,336.74 L 615.51,341.13 L 617.75,345.46 L 620.16,349.71 L 622.73,353.89 L 625.46,357.98 L 628.35,361.99 L 631.39,365.90 L 634.58,369.71 L 637.92,373.42 L 641.40,377.02 L 645.02,380.51 L 648.77,383.89 L 652.65,387.15 L 656.65,390.28 L 660.77,393.28 L 665.01,396.16 L 669.35,398.89 L 673.80,401.50 L 678.35,403.95 L 682.99,406.27 L 687.71,408.44 L 692.52,410.45 L 697.40,412.32 L 702.35,414.03 L 707.37,415.58 L 712.44,416.98 L 717.56,418.22 L 722.73,419.29 L 727.94,420.20 L 733.18,420.95 L 738.44,421.53 L 743.73,421.95 L 749.02,422.20 L 754.33,422.28 " style="stroke:#bebebe;stroke-width:1;stroke-dasharray:5.00,5.00;fill:none"/>
	<text x="605.37" y="296.30" style="stroke:none;fill:#bebebe;font-size:12.00px">1.0</text>
	<path d="M 754.33,217.11 L 751.67,217.15 L 749.03,217.28 L 746.38,217.49 L 743.75,217.78 L 741.13,218.15 L 738.53,218.61 L 735.95,219.14 L 733.38,219.76 L 730.85,220.46 L 728.34,221.23 L 725.86,222.09 L 723.42,223.02 L 721.02,224.03 L 718.66,225.12 L 716.34,226.27 L 714.06,227.50 L 711.84,228.80 L 709.67,230.17 L 707.55,231.61 L 705.49,233.11 L 703.49,234.68 L 701.55,236.30 L 699.67,237.99 L 697.86,239.74 L 696.12,241.54 L 694.45,243.40 L 692.86,245.30 L 691.34,247.26 L 689.89,249.26 L 688.53,251.31 L 687.24,253.39 L 686.04,255.52 L 684.92,257.68 L 683.88,259.88 L 682.93,262.11 L 682.07,264.37 L 681.29,266.65 L 680.61,268.96 L 680.01,271.28 L 679.50,273.62 L 679.09,275.98 L 678.76,278.35 L 678.53,280.73 L 678.39,283.11 L 678.35,285.50 L 678.39,287.89 L 678.53,290.27 L 678.76,292.65 L 679.09,295.02 L 679.50,297.38 L 680.01,299.72 L 680.61,302.04 L 681.29,304.35 L 682.07,306.63 L 682.93,308.89 L 683.88,311.12 L 684.92,313.32 L 686.04,315.48 L 687.24,317.61 L 688.53,319.69 L 689.89,321.74 L 691.34,323.74 L 692.86,325.70 L 694.45,327.60 L 696.12,329.46 L 697.86,331.26 L 699.67,333.01 L 701.55,334.70 L 703.49,336.32 L 705.49,337.89 L 707.55,339.39 L 709.67,340.83 L 711.84,342.20 L 714.06,343.50 L 716.34,344.73 L 718.66,345.88 L 721.02,346.97 L 723.42,347.98 L 725.86,348.91 L 728.34,349.77 L 730.85,350.54 L 733.38,351.24 L 735.95,351.86 L 738.53,352.39 L 741.13,352.85 L 743.75,353.22 L 746.38,353.51 L 749.03,353.72 L 751.67,353.85 L 754.33,353.89 " style="stroke:#bebebe;stroke-width:1;stroke-dasharray:5.00,5.00;fill:none"/>
	<text x="681.35" y="296.30" style="stroke:none;fill:#bebebe;font-size:12.00px">0.5</text>
	<path d="M 298.46,285.50 L 302.30,285.50 L 306.12,285.50 L 309.96,285.50 L 313.81,285.50 L 317.71,285.50 L 321.68,285.50 L 323.68,285.50 L 325.72,285.50 L 327.78,285.50 L 329.87,285.50 L 332.00,285.50 L 334.16,285.50 L 336.38,285.50 L 338.65,285.50 L 340.98,285.50 L 343.38,285.50 L 345.87,285.50 L 348.46,285.50 L 351.18,285.50 L 354.05,285.50 L 357.13,285.50 L 360.47,285.50 L 364.19,285.50 L 366.26,285.50 L 368.52,285.50 L 371.06,285.50 L 374.02,285.50 L 377.83,285.50 L 380.49,285.50 L 382.34,285.50 L 383.65,285.50 L 386.77,285.50 L 386.80,282.02 L 386.83,280.58 L 386.89,278.54 L 387.02,275.66 L 387.14,273.46 L 387.26,271.61 L 387.50,268.51 L 387.75,265.91 L 387.99,263.63 L 388.23,261.58 L 388.70,257.96 L 389.17,254.80 L 389.63,251.97 L 390.08,249.38 L 390.53,247.00 L 390.98,244.77 L 391.42,242.69 L 392.29,238.85 L 393.14,235.37 L 393.97,232.17 L 394.79,229.22 L 395.59,226.45 L 396.38,223.86 L 397.16,221.41 L 397.92,219.10 L 398.67,216.89 L 399.41,214.79 L 400.14,212.78 L 400.86,210.85 L 401.57,208.99 L 402.96,205.49 L 404.32,202.22 L 405.65,199.16 L 406.31,197.70 L 406.95,196.27 L 407.59,194.89 L 408.23,193.55 L 408.85,192.24 L 409.48,190.96 L 409.79,190.33 L 410.09,189.71 L 410.40,189.10 L 410.55,188.80 L 410.63,188.65 L 410.70,188.50 L 410.78,188.34 L 410.86,188.18 L 411.02,187.87 L 411.34,187.25 L 411.66,186.63 L 411.97,186.02 L 412.60,184.83 L 413.22,183.67 L 413.84,182.53 L 414.45,181.41 L 415.66,179.25 L 416.85,177.18 L 418.03,175.18 L 419.19,173.26 L 420.33,171.41 L 421.32,169.83 L 422.31,168.31 L 424.24,165.38 L 426.14,162.61 L 428.01,159.97 L 429.85,157.46 L 431.66,155.07 L 433.45,152.78 L 435.21,150.59 L 436.96,148.49 L 438.68,146.47 L 440.38,144.53 L 442.07,142.66 L 443.75,140.85 L 445.41,139.11 L 447.05,137.42 L 448.68,135.80 L 450.31,134.22 L 451.92,132.69 L 453.52,131.21 L 455.12,129.78 L 456.70,128.38 L 458.28,127.03 L 459.85,125.71 L 461.42,124.43 L 462.98,123.19 L 464.54,121.98 L 466.09,120.80 L 467.64,119.66 L 469.19,118.54 L 470.73,117.45 L 472.27,116.39 L 473.81,115.36 L 475.35,114.35 L 476.89,113.37 L 479.97,111.48 L 483.05,109.68 L 486.15,107.97 L 489.26,106.35 L 492.38,104.80 L 495.53,103.33 L 498.71,101.94 L 501.92,100.62 L 505.17,99.37 L 508.47,98.19 L 511.82,97.08 L 515.24,96.04 L 518.73,95.08 L 522.31,94.18 L 525.99,93.36 L 529.78,92.62 L 533.73,91.97 L 535.76,91.67 L 537.84,91.40 L 539.98,91.15 L 542.17,90.93 L 544.44,90.74 L 546.78,90.59 L 549.21,90.46 L 551.75,90.37 L 554.41,90.33 L 557.22,90.33 L 560.22,90.40 L 563.47,90.53 L 565.51,90.64 L 567.70,90.79 L 570.06,90.97 L 572.65,91.20 L 575.56,91.47 L 578.99,91.79 L 581.01,91.95 L 583.37,92.06 L 586.25,91.96 L 589.73,91.06 L 591.61,89.87 L 593.02,88.50 L 594.94,85.95 L 596.30,83.72 L 597.39,81.74 L 599.15,78.28 L 600.61,75.25 L 601.89,72.52 L 603.05,70.00 L 604.13,67.65 L 605.14,65.42 L 606.09,63.31 L 607.00,61.29 L 607.87,59.34 L 608.71,57.47 L 610.31,53.90 L 611.82,50.52 L 612.84,48.23 L 613.84,46.02 L 614.81,43.86 L 615.75,41.77 L 616.67,39.73 L 617.57,37.74 L 618.45,35.80 L 619.31,33.89 L 620.15,32.03 L 620.99,30.20 L 622.61,26.65 L 624.18,23.21 L 625.71,19.88 L 627.20,16.65 L 628.66,13.51 L 630.08,10.45 L 631.47,7.47 L 632.84,4.55 L 634.18,1.71 L 634.51,1.00 " style="stroke:#e6194b;stroke-width:2;fill:none"/>
	<path d="M 146.51,285.50 L 144.43,285.50 L 142.43,285.50 L 140.49,285.50 L 138.62,285.50 L 136.81,285.50 L 135.04,285.50 L 134.18,285.50 L 133.33,285.50 L 132.49,285.50 L 131.66,285.50 L 130.85,285.50 L 130.04,285.50 L 129.24,285.50 L 128.45,285.50 L 127.67,285.50 L 126.91,285.50 L 126.14,285.50 L 125.39,285.50 L 124.65,285.50 L 123.91,285.50 L 123.18,285.50 L 122.46,285.50 L 121.75,285.50 L 121.39,285.50 L 121.04,285.50 L 120.69,285.50 L 120.34,285.50 L 119.99,285.50 L 119.82,285.50 L 119.73,285.50 L 119.69,285.50 L 119.65,285.50 L 119.58,285.50 L 119.51,285.50 L 119.38,285.50 L 119.11,285.50 L 118.85,285.50 L 118.58,285.50 L 118.05,285.50 L 117.53,285.50 L 117.01,285.50 L 116.49,285.50 L 115.47,285.50 L 114.46,285.50 L 113.47,285.50 L 112.48,285.50 L 111.51,285.50 L 110.55,285.50 L 109.61,285.50 L 107.75,285.50 L 105.93,285.50 L 104.15,285.50 L 102.41,285.50 L 100.71,285.50 L 99.04,285.50 L 97.40,285.50 L 95.79,285.50 L 94.21,285.50 L 92.66,285.50 L 91.13,285.50 L 89.63,285.50 L 88.16,285.50 L 85.27,285.50 L 82.48,285.50 L 79.76,285.50 L 78.43,285.50 L 77.11,285.50 L 75.81,285.50 L 74.53,285.50 L 73.27,285.50 L 72.02,285.50 L 71.40,285.50 L 70.79,285.50 L 70.18,285.50 L 69.87,285.50 L 69.72,285.50 L 69.57,285.50 L 69.41,285.50 L 69.25,285.50 L 68.93,285.50 L 68.30,285.50 L 67.67,285.50 L 67.05,285.50 L 65.81,285.50 L 64.58,285.50 L 63.37,285.50 L 62.18,285.50 L 59.82,285.50 L 57.51,285.50 L 56.25,285.50 " style="stroke:#3cb44b;stroke-width:2;fill:none"/>
	<path d="M 450.42,285.50 L 448.49,285.50 L 446.51,285.50 L 444.44,285.50 L 442.30,285.50 L 440.06,285.50 L 437.72,285.50 L 436.50,285.50 L 435.24,285.50 L 433.95,285.50 L 432.62,285.50 L 431.25,285.50 L 429.82,285.50 L 428.34,285.50 L 426.79,285.50 L 425.18,285.50 L 423.48,285.50 L 421.69,285.50 L 419.79,285.50 L 417.75,285.50 L 415.56,285.50 L 413.15,285.50 L 410.48,285.50 L 407.41,285.50 L 405.67,285.50 L 403.73,285.50 L 401.52,285.50 L 398.87,285.50 L 395.39,285.50 L 392.89,285.50 L 391.11,285.50 L 389.85,285.50 L 386.77,285.50 L 386.80,288.98 L 386.83,290.42 L 386.89,292.46 L 387.02,295.34 L 387.14,297.54 L 387.26,299.39 L 387.50,302.49 L 387.75,305.09 L 387.99,307.37 L 388.23,309.42 L 388.70,313.04 L 389.17,316.20 L 389.63,319.03 L 390.08,321.62 L 390.53,324.00 L 390.98,326.23 L 391.42,328.31 L 392.29,332.15 L 393.14,335.63 L 393.97,338.83 L 394.79,341.78 L 395.59,344.55 L 396.38,347.14 L 397.16,349.59 L 397.92,351.90 L 398.67,354.11 L 399.41,356.21 L 400.14,358.22 L 400.86,360.15 L 401.57,362.01 L 402.96,365.51 L 404.32,368.78 L 405.65,371.84 L 406.31,373.30 L 406.95,374.73 L 407.59,376.11 L 408.23,377.45 L 408.85,378.76 L 409.48,380.04 L 409.79,380.67 L 410.09,381.29 L 410.40,381.90 L 410.55,382.20 L 410.63,382.35 L 410.70,382.50 L 410.78,382.66 L 410.86,382.82 L 411.02,383.13 L 411.34,383.75 L 411.66,384.37 L 411.97,384.98 L 412.60,386.17 L 413.22,387.33 L 413.84,388.47 L 414.45,389.59 L 415.66,391.75 L 416.85,393.82 L 418.03,395.82 L 419.19,397.74 L 420.33,399.59 L 421.32,401.17 L 422.31,402.69 L 424.24,405.62 L 426.14,408.39 L 428.01,411.03 L 429.85,413.54 L 431.66,415.93 L 433.45,418.22 L 435.21,420.41 L 436.96,422.51 L 438.68,424.53 L 440.38,426.47 L 442.07,428.34 L 443.75,430.15 L 445.41,431.89 L 447.05,433.58 L 448.68,435.20 L 450.31,436.78 L 451.92,438.31 L 453.52,439.79 L 455.12,441.22 L 456.70,442.62 L 458.28,443.97 L 459.85,445.29 L 461.42,446.57 L 462.98,447.81 L 464.54,449.02 L 466.09,450.20 L 467.64,451.34 L 469.19,452.46 L 470.73,453.55 L 472.27,454.61 L 473.81,455.64 L 475.35,456.65 L 476.89,457.63 L 479.97,459.52 L 483.05,461.32 L 486.15,463.03 L 489.26,464.65 L 492.38,466.20 L 495.53,467.67 L 498.71,469.06 L 501.92,470.38 L 505.17,471.63 L 508.47,472.81 L 511.82,473.92 L 515.24,474.96 L 518.73,475.92 L 522.31,476.82 L 525.99,477.64 L 529.78,478.38 L 533.73,479.03 L 535.76,479.33 L 537.84,479.60 L 539.98,479.85 L 542.17,480.07 L 544.44,480.26 L 546.78,480.41 L 549.21,480.54 L 551.75,480.63 L 554.41,480.67 L 557.22,480.67 L 560.22,480.60 L 563.47,480.47 L 565.51,480.36 L 567.70,480.21 L 570.06,480.03 L 572.65,479.80 L 575.56,479.53 L 578.99,479.21 L 581.01,479.05 L 583.37,478.94 L 586.25,479.04 L 589.73,479.94 L 591.61,481.13 L 593.02,482.50 L 594.94,485.05 L 596.30,487.28 L 597.39,489.26 L 599.15,492.72 L 600.61,495.75 L 601.89,498.48 L 603.05,501.00 L 604.13,503.35 L 605.14,505.58 L 606.09,507.69 L 607.00,509.71 L 607.87,511.66 L 608.71,513.53 L 610.31,517.10 L 611.82,520.48 L 612.84,522.77 L 613.84,524.98 L 614.81,527.14 L 615.75,529.23 L 616.67,531.27 L 617.57,533.26 L 618.45,535.20 L 619.31,537.11 L 620.15,538.97 L 620.99,540.80 L 622.61,544.35 L 624.18,547.79 L 625.71,551.12 L 627.20,554.35 L 628.66,557.49 L 630.08,560.55 L 631.47,563.53 L 632.84,566.45 L 634.18,569.29 L 634.51,570.00 " style="stroke:#0082c8;stroke-width:2;fill:none"/>
	<path d="M 602.37,285.50 L 603.12,285.50 L 603.86,285.50 L 604.61,285.50 L 605.35,285.50 L 606.10,285.50 L 606.84,285.50 L 607.22,285.50 L 607.59,285.50 L 607.96,285.50 L 608.34,285.50 L 608.71,285.50 L 609.08,285.50 L 609.46,285.50 L 609.83,285.50 L 610.21,285.50 L 610.58,285.50 L 610.96,285.50 L 611.33,285.50 L 611.71,285.50 L 612.09,285.50 L 612.46,285.50 L 612.84,285.50 L 613.22,285.50 L 613.41,285.50 L 613.60,285.50 L 613.79,285.50 L 613.98,285.50 L 614.17,285.50 L 614.26,285.50 L 614.31,285.50 L 614.34,285.50 L 614.36,285.50 L 614.40,285.50 L 614.43,285.50 L 614.51,285.50 L 614.66,285.50 L 614.80,285.50 L 614.95,285.50 L 615.25,285.50 L 615.55,285.50 L 615.85,285.50 L 616.15,285.50 L 616.75,285.50 L 617.35,285.50 L 617.96,285.50 L 618.56,285.50 L 619.18,285.50 L 619.79,285.50 L 620.40,285.50 L 621.65,285.50 L 622.90,285.50 L 624.18,285.50 L 625.47,285.50 L 626.77,285.50 L 628.10,285.50 L 629.45,285.50 L 630.83,285.50 L 632.24,285.50 L 633.67,285.50 L 635.14,285.50 L 636.65,285.50 L 638.20,285.50 L 641.45,285.50 L 644.95,285.50 L 648.79,285.50 L 650.87,285.50 L 653.11,285.50 L 655.53,285.50 L 658.19,285.50 L 661.21,285.50 L 664.77,285.50 L 666.89,285.50 L 669.40,285.50 L 672.67,285.50 L 674.98,285.50 L 676.62,285.50 L 680.56,285.50 L 680.56,281.86 L 680.56,280.35 L 680.55,278.22 L 680.55,275.21 L 680.55,272.90 L 680.55,270.96 L 680.54,267.71 L 680.53,264.97 L 680.52,262.57 L 680.51,260.39 L 680.47,256.55 L 680.44,253.18 L 680.39,250.14 L 680.34,247.36 L 680.28,244.78 L 680.22,242.65 L 680.16,240.63 L 680.03,236.86 L 679.88,233.38 L 679.71,230.15 L 679.53,227.10 L 679.33,224.23 L 679.11,221.50 L 678.88,218.89 L 678.64,216.39 L 678.39,213.98 L 678.12,211.66 L 677.84,209.42 L 677.54,207.25 L 677.24,205.15 L 676.92,203.10 L 676.59,201.11 L 676.25,199.17 L 675.89,197.27 L 675.53,195.42 L 675.15,193.60 L 674.76,191.83 L 674.36,190.08 L 673.95,188.37 L 673.53,186.69 L 673.09,185.04 L 672.65,183.42 L 672.19,181.82 L 671.73,180.25 L 671.25,178.69 L 670.76,177.16 L 670.26,175.65 L 669.74,174.16 L 669.22,172.69 L 668.68,171.23 L 667.57,168.37 L 666.41,165.56 L 665.20,162.80 L 663.94,160.09 L 662.62,157.43 L 661.24,154.80 L 659.80,152.20 L 658.29,149.63 L 656.72,147.08 L 655.06,144.55 L 653.33,142.04 L 651.50,139.53 L 649.57,137.03 L 647.54,134.53 L 645.37,132.03 L 643.07,129.51 L 640.59,126.97 L 639.29,125.69 L 637.93,124.40 L 636.51,123.10 L 635.02,121.78 L 633.47,120.46 L 631.83,119.11 L 630.09,117.74 L 628.25,116.35 L 626.27,114.93 L 624.15,113.47 L 621.82,111.96 L 619.26,110.40 L 617.60,109.46 L 615.81,108.48 L 613.84,107.47 L 611.64,106.42 L 609.12,105.33 L 606.08,104.19 L 604.25,103.63 L 602.08,103.12 L 599.39,102.81 L 596.11,103.31 L 594.34,104.26 L 593.05,105.38 L 591.36,107.45 L 590.23,109.20 L 589.37,110.70 L 588.06,113.20 L 587.05,115.28 L 586.22,117.06 L 585.51,118.64 L 584.89,120.06 L 584.33,121.35 L 583.82,122.54 L 583.36,123.64 L 582.93,124.67 L 582.53,125.63 L 581.80,127.39 L 581.16,128.97 L 580.74,130.00 L 580.36,130.97 L 579.99,131.88 L 579.65,132.74 L 579.33,133.55 L 579.02,134.32 L 578.73,135.06 L 578.46,135.76 L 578.20,136.43 L 577.95,137.07 L 577.48,138.28 L 577.05,139.40 L 576.65,140.43 L 576.28,141.40 L 575.93,142.30 L 575.61,143.14 L 575.31,143.94 L 575.03,144.69 L 574.76,145.40 L 574.50,146.08 L 574.26,146.72 L 574.04,147.32 L 573.82,147.90 L 573.61,148.45 L 573.42,148.98 L 573.23,149.49 L 573.05,149.97 L 572.88,150.43 L 572.71,150.88 L 572.55,151.30 L 572.40,151.71 L 572.26,152.11 L 572.12,152.49 L 571.98,152.85 L 571.85,153.21 L 571.72,153.55 L 571.60,153.88 L 571.49,154.20 L 571.37,154.51 L 571.26,154.81 L 571.16,155.10 L 571.06,155.38 L 570.96,155.65 L 570.86,155.91 L 570.77,156.17 L 570.68,156.42 L 570.59,156.66 L 570.50,156.89 L 570.42,157.12 L 570.34,157.35 L 570.26,157.56 L 570.18,157.77 L 570.11,157.98 L 569.96,158.37 L 569.83,158.75 L 569.70,159.11 L 569.58,159.45 L 569.46,159.78 L 569.35,160.09 L 569.24,160.38 L 569.14,160.67 L 569.04,160.94 L 568.94,161.21 L 568.85,161.46 L 568.77,161.70 L 568.68,161.93 L 568.60,162.16 L 568.53,162.37 L 568.45,162.58 L 568.38,162.78 L 568.31,162.98 L 568.24,163.16 L 568.18,163.35 L 568.12,163.52 L 568.06,163.69 L 568.00,163.85 L 567.94,164.01 L 567.89,164.17 L 567.83,164.32 L 567.78,164.46 L 567.73,164.60 L 567.68,164.74 L 567.63,164.87 L 567.59,165.00 L 567.54,165.13 L 567.50,165.25 L 567.46,165.37 L 567.42,165.48 L 567.38,165.60 L 567.34,165.71 L 567.30,165.81 L 567.26,165.92 L 567.23,166.02 L 567.19,166.12 L 567.16,166.22 L 567.13,166.31 L 567.09,166.40 L 567.06,166.49 L 567.03,166.58 L 567.00,166.67 L 566.97,166.75 L 566.94,166.83 L 566.91,166.91 L 566.89,166.99 L 566.86,167.07 L 566.83,167.14 L 566.81,167.22 L 566.78,167.29 L 566.76,167.36 L 566.73,167.43 L 566.71,167.50 L 566.68,167.56 L 566.66,167.63 L 566.64,167.69 L 566.62,167.76 L 566.59,167.82 L 566.57,167.88 L 566.55,167.94 L 566.53,167.99 L 566.51,168.05 L 566.49,168.11 L 566.47,168.16 L 566.45,168.22 L 566.42,168.32 L 566.38,168.42 L 566.35,168.52 L 566.31,168.62 L 566.28,168.71 L 566.25,168.80 L 566.22,168.88 L 566.19,168.96 L 566.16,169.04 L 566.14,169.12 L 566.11,169.20 L 566.08,169.27 L 566.06,169.34 L 566.04,169.41 L 566.01,169.48 L 565.99,169.54 L 565.97,169.61 L 565.95,169.67 L 565.92,169.73 " style="stroke:#f58230;stroke-width:2;fill:none"/>
	<path d="M 754.33,285.50 L 753.75,285.50 L 753.17,285.50 L 752.59,285.50 L 752.00,285.50 L 751.41,285.50 L 750.81,285.50 L 750.51,285.50 L 750.21,285.50 L 749.90,285.50 L 749.60,285.50 L 749.29,285.50 L 748.99,285.50 L 748.68,285.50 L 748.37,285.50 L 748.06,285.50 L 747.75,285.50 L 747.43,285.50 L 747.12,285.50 L 746.80,285.50 L 746.48,285.50 L 746.16,285.50 L 745.84,285.50 L 745.52,285.50 L 745.36,285.50 L 745.20,285.50 L 745.04,285.50 L 744.87,285.50 L 744.71,285.50 L 744.63,285.50 L 744.59,285.50 L 744.57,285.50 L 744.55,285.50 L 744.51,285.50 L 744.48,285.50 L 744.42,285.50 L 744.29,285.50 L 744.16,285.50 L 744.03,285.50 L 743.78,285.50 L 743.52,285.50 L 743.26,285.50 L 743.00,285.50 L 742.47,285.50 L 741.94,285.50 L 741.41,285.50 L 740.87,285.50 L 740.33,285.50 L 739.79,285.50 L 739.24,285.50 L 738.12,285.50 L 736.98,285.50 L 735.82,285.50 L 734.64,285.50 L 733.43,285.50 L 732.19,285.50 L 730.93,285.50 L 729.63,285.50 L 728.30,285.50 L 726.94,285.50 L 725.54,285.50 L 724.09,285.50 L 722.59,285.50 L 719.44,285.50 L 716.02,285.50 L 712.24,285.50 L 710.18,285.50 L 707.97,285.50 L 705.57,285.50 L 702.91,285.50 L 699.90,285.50 L 696.34,285.50 L 694.22,285.50 L 691.71,285.50 L 688.44,285.50 L 686.13,285.50 L 684.50,285.50 L 680.56,285.50 L 680.56,289.14 L 680.56,290.65 L 680.55,292.78 L 680.55,295.79 L 680.55,298.10 L 680.55,300.04 L 680.54,303.29 L 680.53,306.03 L 680.52,308.43 L 680.51,310.61 L 680.47,314.45 L 680.44,317.82 L 680.39,320.86 L 680.34,323.64 L 680.28,326.22 L 680.22,328.35 L 680.16,330.37 L 680.03,334.14 L 679.88,337.62 L 679.71,340.85 L 679.53,343.90 L 679.33,346.77 L 679.11,349.50 L 678.88,352.11 L 678.64,354.61 L 678.39,357.02 L 678.12,359.34 L 677.84,361.58 L 677.54,363.75 L 677.24,365.85 L 676.92,367.90 L 676.59,369.89 L 676.25,371.83 L 675.89,373.73 L 675.53,375.58 L 675.15,377.40 L 674.76,379.17 L 674.36,380.92 L 673.95,382.63 L 673.53,384.31 L 673.09,385.96 L 672.65,387.58 L 672.19,389.18 L 671.73,390.75 L 671.25,392.31 L 670.76,393.84 L 670.26,395.35 L 669.74,396.84 L 669.22,398.31 L 668.68,399.77 L 667.57,402.63 L 666.41,405.44 L 665.20,408.20 L 663.94,410.91 L 662.62,413.57 L 661.24,416.20 L 659.80,418.80 L 658.29,421.37 L 656.72,423.92 L 655.06,426.45 L 653.33,428.96 L 651.50,431.47 L 649.57,433.97 L 647.54,436.47 L 645.37,438.97 L 643.07,441.49 L 640.59,444.03 L 639.29,445.31 L 637.93,446.60 L 636.51,447.90 L 635.02,449.22 L 633.47,450.54 L 631.83,451.89 L 630.09,453.26 L 628.25,454.65 L 626.27,456.07 L 624.15,457.53 L 621.82,459.04 L 619.26,460.60 L 617.60,461.54 L 615.81,462.52 L 613.84,463.53 L 611.64,464.58 L 609.12,465.67 L 606.08,466.81 L 604.25,467.37 L 602.08,467.88 L 599.39,468.19 L 596.11,467.69 L 594.34,466.74 L 593.05,465.62 L 591.36,463.55 L 590.23,461.80 L 589.37,460.30 L 588.06,457.80 L 587.05,455.72 L 586.22,453.94 L 585.51,452.36 L 584.89,450.94 L 584.33,449.65 L 583.82,448.46 L 583.36,447.36 L 582.93,446.33 L 582.53,445.37 L 581.80,443.61 L 581.16,442.03 L 580.74,441.00 L 580.36,440.03 L 579.99,439.12 L 579.65,438.26 L 579.33,437.45 L 579.02,436.68 L 578.73,435.94 L 578.46,435.24 L 578.20,434.57 L 577.95,433.93 L 577.48,432.72 L 577.05,431.60 L 576.65,430.57 L 576.28,429.60 L 575.93,428.70 L 575.61,427.86 L 575.31,427.06 L 575.03,426.31 L 574.76,425.60 L 574.50,424.92 L 574.26,424.28 L 574.04,423.68 L 573.82,423.10 L 573.61,422.55 L 573.42,422.02 L 573.23,421.51 L 573.05,421.03 L 572.88,420.57 L 572.71,420.12 L 572.55,419.70 L 572.40,419.29 L 572.26,418.89 L 572.12,418.51 L 571.98,418.15 L 571.85,417.79 L 571.72,417.45 L 571.60,417.12 L 571.49,416.80 L 571.37,416.49 L 571.26,416.19 L 571.16,415.90 L 571.06,415.62 L 570.96,415.35 L 570.86,415.09 L 570.77,414.83 L 570.68,414.58 L 570.59,414.34 L 570.50,414.11 L 570.42,413.88 L 570.34,413.65 L 570.26,413.44 L 570.18,413.23 L 570.11,413.02 L 569.96,412.63 L 569.83,412.25 L 569.70,411.89 L 569.58,411.55 L 569.46,411.22 L 569.35,410.91 L 569.24,410.62 L 569.14,410.33 L 569.04,410.06 L 568.94,409.79 L 568.85,409.54 L 568.77,409.30 L 568.68,409.07 L 568.60,408.84 L 568.53,408.63 L 568.45,408.42 L 568.38,408.22 L 568.31,408.02 L 568.24,407.84 L 568.18,407.65 L 568.12,407.48 L 568.06,407.31 L 568.00,407.15 L 567.94,406.99 L 567.89,406.83 L 567.83,406.68 L 567.78,406.54 L 567.73,406.40 L 567.68,406.26 L 567.63,406.13 L 567.59,406.00 L 567.54,405.87 L 567.50,405.75 L 567.46,405.63 L 567.42,405.52 L 567.38,405.40 L 567.34,405.29 L 567.30,405.19 L 567.26,405.08 L 567.23,404.98 L 567.19,404.88 L 567.16,404.78 L 567.13,404.69 L 567.09,404.60 L 567.06,404.51 L 567.03,404.42 L 567.00,404.33 L 566.97,404.25 L 566.94,404.17 L 566.91,404.09 L 566.89,404.01 L 566.86,403.93 L 566.83,403.86 L 566.81,403.78 L 566.78,403.71 L 566.76,403.64 L 566.73,403.57 L 566.71,403.50 L 566.68,403.44 L 566.66,403.37 L 566.64,403.31 L 566.62,403.24 L 566.59,403.18 L 566.57,403.12 L 566.55,403.06 L 566.53,403.01 L 566.51,402.95 L 566.49,402.89 L 566.47,402.84 L 566.45,402.78 L 566.42,402.68 L 566.38,402.58 L 566.35,402.48 L 566.31,402.38 L 566.28,402.29 L 566.25,402.20 L 566.22,402.12 L 566.19,402.04 L 566.16,401.96 L 566.14,401.88 L 566.11,401.80 L 566.08,401.73 L 566.06,401.66 L 566.04,401.59 L 566.01,401.52 L 565.99,401.46 L 565.97,401.39 L 565.95,401.33 L 565.92,401.27 " style="stroke:#911eb4;stroke-width:2;fill:none"/>
	<ellipse cx="564.38" cy="174.17" rx="4.00" ry="4.00" style="stroke:#000000;stroke-width:2;fill:none"/>
	<ellipse cx="564.38" cy="396.83" rx="4.00" ry="4.00" style="stroke:#000000;stroke-width:2;fill:none"/>
	<path d="M 294.46,289.50 L 302.46,281.50 M 294.46,281.50 L 302.46,289.50 " style="stroke:#000000;stroke-width:2;fill:none"/>
	<path d="M 142.51,289.50 L 150.51,281.50 M 142.51,281.50 L 150.51,289.50 " style="stroke:#000000;stroke-width:2;fill:none"/>
	<path d="M 446.42,289.50 L 454.42,281.50 M 446.42,281.50 L 454.42,289.50 " style="stroke:#000000;stroke-width:2;fill:none"/>
	<path d="M 598.37,289.50 L 606.37,281.50 M 598.37,281.50 L 606.37,289.50 " style="stroke:#000000;stroke-width:2;fill:none"/>
	<path d="M 750.33,289.50 L 758.33,281.50 M 750.33,281.50 L 758.33,289.50 " style="stroke:#000000;stroke-width:2;fill:none"/>
	<text x="791.50" y="562.50" style="stroke:none;fill:#000000;font-size:15.00px;text-anchor:end">Re</text>
	<text x="63.75" y="18.25" style="stroke:none;fill:#000000;font-size:15.00px">Im</text>
	<path d="M 56.25,570.00 L 799.00,570.00 L 799.00,1.00 L 56.25,1.00 Z" style="stroke:#000000;stroke-width:2;fill:none"/>
	<text x="105.00" y="515.00" style="stroke:none;fill:#000000;font-size:15.00px">Poles</text>
	<path d="M 78.50,514.00 L 86.50,506.00 M 78.50,506.00 L 86.50,514.00 " style="stroke:#000000;stroke-width:2;fill:none"/>
	<text x="105.00" y="537.50" style="stroke:none;fill:#000000;font-size:15.00px">Zeros</text>
	<ellipse cx="82.50" cy="532.50" rx="4.00" ry="4.00" style="stroke:#000000;stroke-width:2;fill:none"/>
	<text x="105.00" y="560.00" style="stroke:none;fill:#000000;font-size:15.00px">Asymptotes</text>
	<path d="M 67.50,555.00 L 97.50,555.00 " style="stroke:#bebebe;stroke-width:2;fill:none"/>
</svg>
