<?xml version="1.0" encoding="utf-8"?>
<svg class="svg" xmlns:svg="http://www.w3.org/2000/svg" xmlns="http://www.w3.org/2000/svg" width="800" height="600" viewBox="0 0 800 600">
	<text x="70.53" y="594.75" style="stroke:none;fill:#000000;fill-opacity:1.00;fill-rule:evenodd;font-size:15.0px;text-anchor:middle">-4.5</text>
	<path d="M 70.534,577.500 L 70.534,570.000 " style="stroke:#000000;stroke-opacity:1.00;stroke-width:2;stroke-linejoin:round;fill:none"/>
	<text x="146.51" y="594.75" style="stroke:none;fill:#000000;fill-opacity:1.00;fill-rule:evenodd;font-size:15.0px;text-anchor:middle">-4.0</text>
	<path d="M 146.511,577.500 L 146.511,570.000 " style="stroke:#000000;stroke-opacity:1.00;stroke-width:2;stroke-linejoin:round;fill:none"/>
	<text x="222.49" y="594.75" style="stroke:none;fill:#000000;fill-opacity:1.00;fill-rule:evenodd;font-size:15.0px;text-anchor:middle">-3.5</text>
	<path d="M 222.487,577.500 L 222.487,570.000 " style="stroke:#000000;stroke-opacity:1.00;stroke-width:2;stroke-linejoin:round;fill:none"/>
	<text x="298.46" y="594.75" style="stroke:none;fill:#000000;fill-opacity:1.00;fill-rule:evenodd;font-size:15.0px;text-anchor:middle">-3.0</text>
	<path d="M 298.464,577.500 L 298.464,570.000 " style="stroke:#000000;stroke-opacity:1.00;stroke-width:2;stroke-linejoin:round;fill:none"/>
	<text x="374.44" y="594.75" style="stroke:none;fill:#000000;fill-opacity:1.00;fill-rule:evenodd;font-size:15.0px;text-anchor:middle">-2.5</text>
	<path d="M 374.441,577.500 L 374.441,570.000 " style="stroke:#000000;stroke-opacity:1.00;stroke-width:2;stroke-linejoin:round;fill:none"/>
	<text x="450.42" y="594.75" style="stroke:none;fill:#000000;fill-opacity:1.00;fill-rule:evenodd;font-size:15.0px;text-anchor:middle">-2.0</text>
	<path d="M 450.418,577.500 L 450.418,570.000 " style="stroke:#000000;stroke-opacity:1.00;stroke-width:2;stroke-linejoin:round;fill:none"/>
	<text x="526.39" y="594.75" style="stroke:none;fill:#000000;fill-opacity:1.00;fill-rule:evenodd;font-size:15.0px;text-anchor:middle">-1.5</text>
	<path d="M 526.395,577.500 L 526.395,570.000 " style="stroke:#000000;stroke-opacity:1.00;stroke-width:2;stroke-linejoin:round;fill:none"/>
	<text x="602.37" y="594.75" style="stroke:none;fill:#000000;fill-opacity:1.00;fill-rule:evenodd;font-size:15.0px;text-anchor:middle">-1.0</text>
	<path d="M 602.372,577.500 L 602.372,570.000 " style="stroke:#000000;stroke-opacity:1.00;stroke-width:2;stroke-linejoin:round;fill:none"/>
	<text x="678.35" y="594.75" style="stroke:none;fill:#000000;fill-opacity:1.00;fill-rule:evenodd;font-size:15.0px;text-anchor:middle">-0.5</text>
	<path d="M 678.349,577.500 L 678.349,570.000 " style="stroke:#000000;stroke-opacity:1.00;stroke-width:2;stroke-linejoin:round;fill:none"/>
	<text x="754.33" y="594.75" style="stroke:none;fill:#000000;fill-opacity:1.00;fill-rule:evenodd;font-size:15.0px;text-anchor:middle">0.0</text>
	<path d="M 754.326,577.500 L 754.326,570.000 " style="stroke:#000000;stroke-opacity:1.00;stroke-width:2;stroke-linejoin:round;fill:none"/>
	<text x="45.00" y="564.06" style="stroke:none;fill:#000000;fill-opacity:1.00;fill-rule:evenodd;font-size:15.0px;text-anchor:end">-2.00</text>
	<path d="M 48.750,559.058 L 56.250,559.058 " style="stroke:#000000;stroke-opacity:1.00;stroke-width:2;stroke-linejoin:round;fill:none"/>
	<text x="45.00" y="529.86" style="stroke:none;fill:#000000;fill-opacity:1.00;fill-rule:evenodd;font-size:15.0px;text-anchor:end">-1.75</text>
	<path d="M 48.750,524.863 L 56.250,524.863 " style="stroke:#000000;stroke-opacity:1.00;stroke-width:2;stroke-linejoin:round;fill:none"/>
	<text x="45.00" y="495.67" style="stroke:none;fill:#000000;fill-opacity:1.00;fill-rule:evenodd;font-size:15.0px;text-anchor:end">-1.50</text>
	<path d="M 48.750,490.668 L 56.250,490.668 " style="stroke:#000000;stroke-opacity:1.00;stroke-width:2;stroke-linejoin:round;fill:none"/>
	<text x="45.00" y="461.47" style="stroke:none;fill:#000000;fill-opacity:1.00;fill-rule:evenodd;font-size:15.0px;text-anchor:end">-1.25</text>
	<path d="M 48.750,456.474 L 56.250,456.474 " style="stroke:#000000;stroke-opacity:1.00;stroke-width:2;stroke-linejoin:round;fill:none"/>
	<text x="45.00" y="427.28" style="stroke:none;fill:#000000;fill-opacity:1.00;fill-rule:evenodd;font-size:15.0px;text-anchor:end">-1.00</text>
	<path d="M 48.750,422.279 L 56.250,422.279 " style="stroke:#000000;stroke-opacity:1.00;stroke-width:2;stroke-linejoin:round;fill:none"/>
	<text x="45.00" y="393.08" style="stroke:none;fill:#000000;fill-opacity:1.00;fill-rule:evenodd;font-size:15.0px;text-anchor:end">-0.75</text>
	<path d="M 48.750,388.084 L 56.250,388.084 " style="stroke:#000000;stroke-opacity:1.00;stroke-width:2;stroke-linejoin:round;fill:none"/>
	<text x="45.00" y="358.89" style="stroke:none;fill:#000000;fill-opacity:1.00;fill-rule:evenodd;font-size:15.0px;text-anchor:end">-0.50</text>
	<path d="M 48.750,353.889 L 56.250,353.889 " style="stroke:#000000;stroke-opacity:1.00;stroke-width:2;stroke-linejoin:round;fill:none"/>
	<text x="45.00" y="324.69" style="stroke:none;fill:#000000;fill-opacity:1.00;fill-rule:evenodd;font-size:15.0px;text-anchor:end">-0.25</text>
	<path d="M 48.750,319.695 L 56.250,319.695 " style="stroke:#000000;stroke-opacity:1.00;stroke-width:2;stroke-linejoin:round;fill:none"/>
	<text x="45.00" y="290.50" style="stroke:none;fill:#000000;fill-opacity:1.00;fill-rule:evenodd;font-size:15.0px;text-anchor:end">0.00</text>
	<path d="M 48.750,285.500 L 56.250,285.500 " style="stroke:#000000;stroke-opacity:1.00;stroke-width:2;stroke-linejoin:round;fill:none"/>
	<text x="45.00" y="256.31" style="stroke:none;fill:#000000;fill-opacity:1.00;fill-rule:evenodd;font-size:15.0px;text-anchor:end">0.25</text>
	<path d="M 48.750,251.305 L 56.250,251.305 " style="stroke:#000000;stroke-opacity:1.00;stroke-width:2;stroke-linejoin:round;fill:none"/>
	<text x="45.00" y="222.11" style="stroke:none;fill:#000000;fill-opacity:1.00;fill-rule:evenodd;font-size:15.0px;text-anchor:end">0.50</text>
	<path d="M 48.750,217.111 L 56.250,217.111 " style="stroke:#000000;stroke-opacity:1.00;stroke-width:2;stroke-linejoin:round;fill:none"/>
	<text x="45.00" y="187.92" style="stroke:none;fill:#000000;fill-opacity:1.00;fill-rule:evenodd;font-size:15.0px;text-anchor:end">0.75</text>
	<path d="M 48.750,182.916 L 56.250,182.916 " style="stroke:#000000;stroke-opacity:1.00;stroke-width:2;stroke-linejoin:round;fill:none"/>
	<text x="45.00" y="153.72" style="stroke:none;fill:#000000;fill-opacity:1.00;fill-rule:evenodd;font-size:15.0px;text-anchor:end">1.00</text>
	<path d="M 48.750,148.721 L 56.250,148.721 " style="stroke:#000000;stroke-opacity:1.00;stroke-width:2;stroke-linejoin:round;fill:none"/>
	<text x="45.00" y="119.53" style="stroke:none;fill:#000000;fill-opacity:1.00;fill-rule:evenodd;font-size:15.0px;text-anchor:end">1.25</text>
	<path d="M 48.750,114.526 L 56.250,114.526 " style="stroke:#000000;stroke-opacity:1.00;stroke-width:2;stroke-linejoin:round;fill:none"/>
	<text x="45.00" y="85.33" style="stroke:none;fill:#000000;fill-opacity:1.00;fill-rule:evenodd;font-size:15.0px;text-anchor:end">1.50</text>
	<path d="M 48.750,80.332 L 56.250,80.332 " style="stroke:#000000;stroke-opacity:1.00;stroke-width:2;stroke-linejoin:round;fill:none"/>
	<text x="45.00" y="51.14" style="stroke:none;fill:#000000;fill-opacity:1.00;fill-rule:evenodd;font-size:15.0px;text-anchor:end">1.75</text>
	<path d="M 48.750,46.137 L 56.250,46.137 " style="stroke:#000000;stroke-opacity:1.00;stroke-width:2;stroke-linejoin:round;fill:none"/>
	<text x="45.00" y="16.94" style="stroke:none;fill:#000000;fill-opacity:1.00;fill-rule:evenodd;font-size:15.0px;text-anchor:end">2.00</text>
	<path d="M 48.750,11.942 L 56.250,11.942 " style="stroke:#000000;stroke-opacity:1.00;stroke-width:2;stroke-linejoin:round;fill:none"/>
	<path d="M 374.441,285.500 L 556.921,1.000 " style="stroke:#bebebe;stroke-opacity:1.00;stroke-width:2;stroke-linejoin:round;fill:none"/>
	<path d="M 374.441,285.500 L 56.250,285.500 " style="stroke:#bebebe;stroke-opacity:1.00;stroke-width:2;stroke-linejoin:round;fill:none"/>
	<path d="M 374.441,285.500 L 556.921,570.000 " style="stroke:#bebebe;stroke-opacity:1.00;stroke-width:2;stroke-linejoin:round;fill:none"/>
	<path d="M 754.326,285.500 L 754.326,1.000 " style="stroke:#bebebe;stroke-opacity:1.00;stroke-width:1;stroke-linejoin:round;stroke-dasharray:5.00,5.00;fill:none"/>
	<text x="751.33" y="11.80" style="stroke:none;fill:#bebebe;fill-opacity:1.00;fill-rule:evenodd;font-size:12.0px;text-anchor:end">90°</text>
	<path d="M 754.326,285.500 L 669.637,1.000 " style="stroke:#bebebe;stroke-opacity:1.00;stroke-width:1;stroke-linejoin:round;stroke-dasharray:5.00,5.00;fill:none"/>
	<text x="666.64" y="11.80" style="stroke:none;fill:#bebebe;fill-opacity:1.00;fill-rule:evenodd;font-size:12.0px;text-anchor:end">75°</text>
	<path d="M 754.326,285.500 L 571.846,1.000 " style="stroke:#bebebe;stroke-opacity:1.00;stroke-width:1;stroke-linejoin:round;stroke-dasharray:5.00,5.00;fill:none"/>
	<text x="568.85" y="11.80" style="stroke:none;fill:#bebebe;fill-opacity:1.00;fill-rule:evenodd;font-size:12.0px;text-anchor:end">60°</text>
	<path d="M 754.326,285.500 L 438.262,1.000 " style="stroke:#bebebe;stroke-opacity:1.00;stroke-width:1;stroke-linejoin:round;stroke-dasharray:5.00,5.00;fill:none"/>
	<text x="435.26" y="11.80" style="stroke:none;fill:#bebebe;fill-opacity:1.00;fill-rule:evenodd;font-size:12.0px;text-anchor:end">45°</text>
	<path d="M 754.326,285.500 L 206.887,1.000 " style="stroke:#bebebe;stroke-opacity:1.00;stroke-width:1;stroke-linejoin:round;stroke-dasharray:5.00,5.00;fill:none"/>
	<text x="203.89" y="11.80" style="stroke:none;fill:#bebebe;fill-opacity:1.00;fill-rule:evenodd;font-size:12.0px;text-anchor:end">30°</text>
	<path d="M 754.326,285.500 L 56.250,117.131 " style="stroke:#bebebe;stroke-opacity:1.00;stroke-width:1;stroke-linejoin:round;stroke-dasharray:5.00,5.00;fill:none"/>
	<text x="59.25" y="114.13" style="stroke:none;fill:#bebebe;fill-opacity:1.00;fill-rule:evenodd;font-size:12.0px">15°</text>
	<path d="M 754.326,285.500 L 56.250,453.869 " style="stroke:#bebebe;stroke-opacity:1.00;stroke-width:1;stroke-linejoin:round;stroke-dasharray:5.00,5.00;fill:none"/>
	<text x="59.25" y="464.67" style="stroke:none;fill:#bebebe;fill-opacity:1.00;fill-rule:evenodd;font-size:12.0px">-15°</text>
	<path d="M 754.326,285.500 L 206.887,570.000 " style="stroke:#bebebe;stroke-opacity:1.00;stroke-width:1;stroke-linejoin:round;stroke-dasharray:5.00,5.00;fill:none"/>
	<text x="203.89" y="567.00" style="stroke:none;fill:#bebebe;fill-opacity:1.00;fill-rule:evenodd;font-size:12.0px;text-anchor:end">-30°</text>
	<path d="M 754.326,285.500 L 438.262,570.000 " style="stroke:#bebebe;stroke-opacity:1.00;stroke-width:1;stroke-linejoin:round;stroke-dasharray:5.00,5.00;fill:none"/>
	<text x="435.26" y="567.00" style="stroke:none;fill:#bebebe;fill-opacity:1.00;fill-rule:evenodd;font-size:12.0px;text-anchor:end">-45°</text>
	<path d="M 754.326,285.500 L 571.846,570.000 " style="stroke:#bebebe;stroke-opacity:1.00;stroke-width:1;stroke-linejoin:round;stroke-dasharray:5.00,5.00;fill:none"/>
	<text x="568.85" y="567.00" style="stroke:none;fill:#bebebe;fill-opacity:1.00;fill-rule:evenodd;font-size:12.0px;text-anchor:end">-60°</text>
	<path d="M 754.326,285.500 L 669.637,570.000 " style="stroke:#bebebe;stroke-opacity:1.00;stroke-width:1;stroke-linejoin:round;stroke-dasharray:5.00,5.00;fill:none"/>
	<text x="666.64" y="567.00" style="stroke:none;fill:#bebebe;fill-opacity:1.00;fill-rule:evenodd;font-size:12.0px;text-anchor:end">-75°</text>
	<path d="M 754.326,285.500 L 754.326,570.000 " style="stroke:#bebebe;stroke-opacity:1.00;stroke-width:1;stroke-linejoin:round;stroke-dasharray:5.00,5.00;fill:none"/>
	<text x="751.33" y="567.00" style="stroke:none;fill:#bebebe;fill-opacity:1.00;fill-rule:evenodd;font-size:12.0px;text-anchor:end">-90°</text>
	<path d="M 148.047,1.000 L 139.737,15.680 L 129.651,35.152 L 120.325,54.928 L 111.771,74.985 L 104.001,95.299 L 97.023,115.844 L 90.845,136.596 L 85.476,157.529 L 80.922,178.619 L 77.188,199.838 L 74.280,221.162 L 72.199,242.565 L 70.950,264.019 L 70.534,285.500 L 70.950,306.981 L 72.199,328.435 L 74.280,349.838 L 77.188,371.162 L 80.922,392.381 L 85.476,413.471 L 90.845,434.404 L 97.023,455.156 L 104.001,475.701 L 111.771,496.015 L 120.325,516.072 L 129.651,535.848 L 139.737,555.320 L 148.047,570.000 " style="stroke:#bebebe;stroke-opacity:1.00;stroke-width:1;stroke-linejoin:round;stroke-dasharray:5.00,5.00;fill:none"/>
	<path d="M 235.247,1.000 L 227.942,11.942 L 217.657,28.645 L 208.025,45.660 L 199.059,62.968 L 190.769,80.547 L 183.166,98.376 L 176.259,116.432 L 170.056,134.695 L 164.565,153.141 L 159.793,171.748 L 155.745,190.494 L 152.426,209.356 L 149.840,228.311 L 147.991,247.335 L 146.881,266.406 L 146.511,285.500 L 146.881,304.594 L 147.991,323.665 L 149.840,342.689 L 152.426,361.644 L 155.745,380.506 L 159.793,399.252 L 164.565,417.859 L 170.056,436.305 L 176.259,454.568 L 183.166,472.624 L 190.769,490.453 L 199.059,508.032 L 208.025,525.340 L 217.657,542.355 L 227.942,559.058 L 235.247,570.000 " style="stroke:#bebebe;stroke-opacity:1.00;stroke-width:1;stroke-linejoin:round;stroke-dasharray:5.00,5.00;fill:none"/>
	<path d="M 326.665,1.000 L 324.059,4.112 L 313.412,17.800 L 303.301,31.814 L 293.740,46.137 L 284.740,60.752 L 276.313,75.640 L 268.467,90.785 L 261.214,106.166 L 254.561,121.766 L 248.517,137.566 L 243.090,153.545 L 238.285,169.686 L 234.109,185.967 L 230.567,202.370 L 227.663,218.874 L 225.401,235.460 L 223.783,252.106 L 222.811,268.793 L 222.487,285.500 L 222.811,302.207 L 223.783,318.894 L 225.401,335.540 L 227.663,352.126 L 230.567,368.630 L 234.109,385.033 L 238.285,401.314 L 243.090,417.455 L 248.517,433.434 L 254.561,449.234 L 261.214,464.834 L 268.467,480.215 L 276.313,495.360 L 284.740,510.248 L 293.740,524.863 L 303.301,539.186 L 313.412,553.200 L 324.059,566.888 L 326.665,570.000 " style="stroke:#bebebe;stroke-opacity:1.00;stroke-width:1;stroke-linejoin:round;stroke-dasharray:5.00,5.00;fill:none"/>
	<path d="M 425.843,1.000 L 415.555,10.931 L 405.116,21.741 L 395.102,32.872 L 385.526,44.310 L 376.399,56.043 L 367.733,68.055 L 359.538,80.332 L 351.824,92.859 L 344.600,105.620 L 337.876,118.601 L 331.658,131.785 L 325.956,145.157 L 320.776,158.699 L 316.124,172.396 L 312.005,186.231 L 308.426,200.186 L 305.390,214.246 L 302.901,228.392 L 300.962,242.608 L 299.575,256.876 L 298.742,271.179 L 298.464,285.500 L 298.742,299.821 L 299.575,314.124 L 300.962,328.392 L 302.901,342.608 L 305.390,356.754 L 308.426,370.814 L 312.005,384.769 L 316.124,398.604 L 320.776,412.301 L 325.956,425.843 L 331.658,439.215 L 337.876,452.399 L 344.600,465.380 L 351.824,478.141 L 359.538,490.668 L 367.733,502.945 L 376.399,514.957 L 385.526,526.690 L 395.102,538.128 L 405.116,549.259 L 415.555,560.069 L 425.843,570.000 " style="stroke:#bebebe;stroke-opacity:1.00;stroke-width:1;stroke-linejoin:round;stroke-dasharray:5.00,5.00;fill:none"/>
	<path d="M 543.630,1.000 L 541.897,2.013 L 531.035,8.859 L 520.445,16.042 L 510.141,23.553 L 500.133,31.384 L 490.436,39.524 L 481.060,47.964 L 472.016,56.693 L 463.317,65.701 L 454.973,74.976 L 446.993,84.509 L 439.387,94.286 L 432.165,104.296 L 425.336,114.526 L 418.908,124.966 L 412.888,135.600 L 407.284,146.418 L 402.103,157.404 L 397.351,168.547 L 393.034,179.833 L 389.157,191.247 L 385.725,202.776 L 382.743,214.405 L 380.212,226.122 L 378.138,237.910 L 376.522,249.757 L 375.367,261.647 L 374.673,273.566 L 374.441,285.500 L 374.673,297.434 L 375.367,309.353 L 376.522,321.243 L 378.138,333.090 L 380.212,344.878 L 382.743,356.595 L 385.725,368.224 L 389.157,379.753 L 393.034,391.167 L 397.351,402.453 L 402.103,413.596 L 407.284,424.582 L 412.888,435.400 L 418.908,446.034 L 425.336,456.474 L 432.165,466.704 L 439.387,476.714 L 446.993,486.491 L 454.973,496.024 L 463.317,505.299 L 472.016,514.307 L 481.060,523.036 L 490.436,531.476 L 500.133,539.616 L 510.141,547.447 L 520.445,554.958 L 531.035,562.141 L 541.897,568.987 L 543.630,570.000 " style="stroke:#bebebe;stroke-opacity:1.00;stroke-width:1;stroke-linejoin:round;stroke-dasharray:5.00,5.00;fill:none"/>
	<path d="M 754.326,11.942 L 743.719,12.109 L 733.126,12.609 L 722.559,13.441 L 712.030,14.605 L 701.553,16.098 L 691.140,17.920 L 680.804,20.068 L 670.557,22.539 L 660.413,25.331 L 650.383,28.440 L 640.480,31.862 L 630.715,35.593 L 621.101,39.628 L 611.650,43.963 L 602.372,48.592 L 593.279,53.510 L 584.383,58.710 L 575.693,64.187 L 567.221,69.934 L 558.978,75.943 L 550.972,82.207 L 543.214,88.719 L 535.713,95.471 L 528.478,102.454 L 521.519,109.661 L 514.843,117.081 L 508.459,124.707 L 502.375,132.528 L 496.597,140.537 L 491.134,148.721 L 485.991,157.072 L 481.175,165.580 L 476.692,174.234 L 472.547,183.023 L 468.746,191.938 L 465.292,200.966 L 462.191,210.097 L 459.445,219.320 L 457.059,228.624 L 455.035,237.997 L 453.376,247.428 L 452.083,256.905 L 451.158,266.418 L 450.603,275.953 L 450.418,285.500 L 450.603,295.047 L 451.158,304.582 L 452.083,314.095 L 453.376,323.572 L 455.035,333.003 L 457.059,342.376 L 459.445,351.680 L 462.191,360.903 L 465.292,370.034 L 468.746,379.062 L 472.547,387.977 L 476.692,396.766 L 481.175,405.420 L 485.991,413.928 L 491.134,422.279 L 496.597,430.463 L 502.375,438.472 L 508.459,446.293 L 514.843,453.919 L 521.519,461.339 L 528.478,468.546 L 535.713,475.529 L 543.214,482.281 L 550.972,488.793 L 558.978,495.057 L 567.221,501.066 L 575.693,506.813 L 584.383,512.290 L 593.279,517.490 L 602.372,522.408 L 611.650,527.037 L 621.101,531.372 L 630.715,535.407 L 640.480,539.138 L 650.383,542.560 L 660.413,545.669 L 670.557,548.461 L 680.804,550.932 L 691.140,553.080 L 701.553,554.902 L 712.030,556.395 L 722.559,557.559 L 733.126,558.391 L 743.719,558.891 L 754.326,559.058 " style="stroke:#bebebe;stroke-opacity:1.00;stroke-width:1;stroke-linejoin:round;stroke-dasharray:5.00,5.00;fill:none"/>
	<text x="757.33" y="15.94" style="stroke:none;fill:#bebebe;fill-opacity:1.00;fill-rule:evenodd;font-size:12.0px">-2.0</text>
	<path d="M 754.326,80.332 L 746.371,80.457 L 738.426,80.832 L 730.500,81.456 L 722.604,82.328 L 714.746,83.449 L 706.936,84.815 L 699.184,86.426 L 691.499,88.280 L 683.891,90.373 L 676.369,92.705 L 668.941,95.271 L 661.618,98.069 L 654.407,101.096 L 647.319,104.347 L 640.360,107.819 L 633.541,111.507 L 626.868,115.408 L 620.351,119.515 L 613.997,123.825 L 607.815,128.332 L 601.810,133.030 L 595.992,137.914 L 590.366,142.978 L 584.940,148.216 L 579.721,153.620 L 574.714,159.186 L 569.926,164.905 L 565.363,170.771 L 561.029,176.777 L 556.932,182.916 L 553.075,189.179 L 549.463,195.560 L 546.101,202.051 L 542.992,208.643 L 540.141,215.328 L 537.551,222.100 L 535.225,228.948 L 533.165,235.865 L 531.376,242.843 L 529.858,249.873 L 528.613,256.946 L 527.644,264.054 L 526.950,271.188 L 526.534,278.340 L 526.395,285.500 L 526.534,292.660 L 526.950,299.812 L 527.644,306.946 L 528.613,314.054 L 529.858,321.127 L 531.376,328.157 L 533.165,335.135 L 535.225,342.052 L 537.551,348.900 L 540.141,355.672 L 542.992,362.357 L 546.101,368.949 L 549.463,375.440 L 553.075,381.821 L 556.932,388.084 L 561.029,394.223 L 565.363,400.229 L 569.926,406.095 L 574.714,411.814 L 579.721,417.380 L 584.940,422.784 L 590.366,428.022 L 595.992,433.086 L 601.810,437.970 L 607.815,442.668 L 613.997,447.175 L 620.351,451.485 L 626.868,455.592 L 633.541,459.493 L 640.360,463.181 L 647.319,466.653 L 654.407,469.904 L 661.618,472.931 L 668.941,475.729 L 676.369,478.295 L 683.891,480.627 L 691.499,482.720 L 699.184,484.574 L 706.936,486.185 L 714.746,487.551 L 722.604,488.672 L 730.500,489.544 L 738.426,490.168 L 746.371,490.543 L 754.326,490.668 " style="stroke:#bebebe;stroke-opacity:1.00;stroke-width:1;stroke-linejoin:round;stroke-dasharray:5.00,5.00;fill:none"/>
	<text x="757.33" y="84.33" style="stroke:none;fill:#bebebe;fill-opacity:1.00;fill-rule:evenodd;font-size:12.0px">-1.5</text>
	<path d="M 754.326,148.721 L 749.022,148.804 L 743.726,149.054 L 738.442,149.470 L 733.178,150.052 L 727.939,150.799 L 722.733,151.710 L 717.565,152.784 L 712.441,154.020 L 707.369,155.416 L 702.354,156.970 L 697.403,158.681 L 692.520,160.546 L 687.713,162.564 L 682.988,164.731 L 678.349,167.046 L 673.802,169.505 L 669.354,172.105 L 665.009,174.844 L 660.774,177.717 L 656.652,180.721 L 652.649,183.854 L 648.770,187.110 L 645.019,190.485 L 641.402,193.977 L 637.922,197.580 L 634.584,201.291 L 631.392,205.103 L 628.350,209.014 L 625.461,213.018 L 622.730,217.111 L 620.158,221.286 L 617.750,225.540 L 615.509,229.867 L 613.437,234.262 L 611.536,238.719 L 609.809,243.233 L 608.258,247.799 L 606.886,252.410 L 605.692,257.062 L 604.680,261.749 L 603.851,266.464 L 603.204,271.203 L 602.742,275.959 L 602.464,280.726 L 602.372,285.500 L 602.464,290.274 L 602.742,295.041 L 603.204,299.797 L 603.851,304.536 L 604.680,309.251 L 605.692,313.938 L 606.886,318.590 L 608.258,323.201 L 609.809,327.767 L 611.536,332.281 L 613.437,336.738 L 615.509,341.133 L 617.750,345.460 L 620.158,349.714 L 622.730,353.889 L 625.461,357.982 L 628.350,361.986 L 631.392,365.897 L 634.584,369.709 L 637.922,373.420 L 641.402,377.023 L 645.019,380.515 L 648.770,383.890 L 652.649,387.146 L 656.652,390.279 L 660.774,393.283 L 665.009,396.156 L 669.354,398.895 L 673.802,401.495 L 678.349,403.954 L 682.988,406.269 L 687.713,408.436 L 692.520,410.454 L 697.403,412.319 L 702.354,414.030 L 707.369,415.584 L 712.441,416.980 L 717.565,418.216 L 722.733,419.290 L 727.939,420.201 L 733.178,420.948 L 738.442,421.530 L 743.726,421.946 L 749.022,422.196 L 754.326,422.279 " style="stroke:#bebebe;stroke-opacity:1.00;stroke-width:1;stroke-linejoin:round;stroke-dasharray:5.00,5.00;fill:none"/>
	<text x="757.33" y="152.72" style="stroke:none;fill:#bebebe;fill-opacity:1.00;fill-rule:evenodd;font-size:12.0px">-1.0</text>
	<path d="M 754.326,217.111 L 751.674,217.152 L 749.026,217.277 L 746.384,217.485 L 743.752,217.776 L 741.132,218.150 L 738.529,218.605 L 735.945,219.142 L 733.384,219.760 L 730.847,220.458 L 728.340,221.235 L 725.864,222.090 L 723.423,223.023 L 721.020,224.032 L 718.657,225.116 L 716.337,226.273 L 714.064,227.502 L 711.840,228.803 L 709.668,230.172 L 707.550,231.608 L 705.489,233.111 L 703.487,234.677 L 701.548,236.305 L 699.672,237.993 L 697.864,239.739 L 696.124,241.540 L 694.455,243.395 L 692.859,245.302 L 691.338,247.257 L 689.894,249.259 L 688.528,251.305 L 687.242,253.393 L 686.038,255.520 L 684.917,257.684 L 683.881,259.881 L 682.931,262.109 L 682.067,264.367 L 681.292,266.649 L 680.606,268.955 L 680.009,271.281 L 679.503,273.624 L 679.088,275.982 L 678.765,278.351 L 678.534,280.729 L 678.395,283.113 L 678.349,285.500 L 678.395,287.887 L 678.534,290.271 L 678.765,292.649 L 679.088,295.018 L 679.503,297.376 L 680.009,299.719 L 680.606,302.045 L 681.292,304.351 L 682.067,306.633 L 682.931,308.891 L 683.881,311.119 L 684.917,313.316 L 686.038,315.480 L 687.242,317.607 L 688.528,319.695 L 689.894,321.741 L 691.338,323.743 L 692.859,325.698 L 694.455,327.605 L 696.124,329.460 L 697.864,331.261 L 699.672,333.007 L 701.548,334.695 L 703.487,336.323 L 705.489,337.889 L 707.550,339.392 L 709.668,340.828 L 711.840,342.197 L 714.064,343.498 L 716.337,344.727 L 718.657,345.884 L 721.020,346.968 L 723.423,347.977 L 725.864,348.910 L 728.340,349.765 L 730.847,350.542 L 733.384,351.240 L 735.945,351.858 L 738.529,352.395 L 741.132,352.850 L 743.752,353.224 L 746.384,353.515 L 749.026,353.723 L 751.674,353.848 L 754.326,353.889 " style="stroke:#bebebe;stroke-opacity:1.00;stroke-width:1;stroke-linejoin:round;stroke-dasharray:5.00,5.00;fill:none"/>
	<text x="757.33" y="221.11" style="stroke:none;fill:#bebebe;fill-opacity:1.00;fill-rule:evenodd;font-size:12.0px">-0.5</text>
	<path d="M 298.464,285.500 L 302.295,285.500 L 306.121,285.500 L 309.955,285.500 L 313.814,285.500 L 317.715,285.500 L 321.675,285.500 L 323.685,285.500 L 325.718,285.500 L 327.778,285.500 L 329.869,285.500 L 331.996,285.500 L 334.163,285.500 L 336.377,285.500 L 338.645,285.500 L 340.976,285.500 L 343.379,285.500 L 345.869,285.500 L 348.461,285.500 L 351.180,285.500 L 354.054,285.500 L 357.128,285.500 L 360.470,285.500 L 364.193,285.500 L 366.259,285.500 L 368.520,285.500 L 371.056,285.500 L 374.025,285.500 L 377.833,285.500 L 380.486,285.500 L 382.344,285.500 L 383.649,285.500 L 386.769,285.500 L 386.800,282.017 L 386.831,280.575 L 386.892,278.538 L 387.016,275.661 L 387.139,273.460 L 387.261,271.608 L 387.505,268.511 L 387.747,265.913 L 387.987,263.634 L 388.226,261.582 L 388.699,257.963 L 389.167,254.802 L 389.628,251.968 L 390.084,249.383 L 390.535,246.997 L 390.980,244.773 L 391.421,242.685 L 392.289,238.846 L 393.138,235.367 L 393.971,232.174 L 394.788,229.216 L 395.591,226.454 L 396.380,223.861 L 397.155,221.415 L 397.918,219.096 L 398.670,216.891 L 399.410,214.787 L 400.140,212.775 L 400.860,210.846 L 401.570,208.993 L 402.963,205.489 L 404.322,202.222 L 405.651,199.159 L 406.305,197.695 L 406.952,196.274 L 407.592,194.891 L 408.226,193.546 L 408.854,192.236 L 409.476,190.958 L 409.785,190.331 L 410.093,189.712 L 410.399,189.100 L 410.552,188.797 L 410.628,188.646 L 410.704,188.496 L 410.784,188.338 L 410.864,188.180 L 411.024,187.867 L 411.342,187.245 L 411.659,186.631 L 411.974,186.024 L 412.601,184.832 L 413.223,183.667 L 413.840,182.527 L 414.451,181.412 L 415.661,179.251 L 416.852,177.177 L 418.027,175.182 L 419.187,173.260 L 420.332,171.407 L 421.324,169.833 L 422.306,168.306 L 424.242,165.378 L 426.143,162.606 L 428.011,159.972 L 429.850,157.465 L 431.661,155.072 L 433.448,152.785 L 435.212,150.594 L 436.955,148.492 L 438.679,146.472 L 440.384,144.529 L 442.073,142.657 L 443.746,140.852 L 445.405,139.109 L 447.051,137.425 L 448.685,135.796 L 450.307,134.220 L 451.920,132.692 L 453.522,131.212 L 455.117,129.776 L 456.703,128.382 L 458.282,127.028 L 459.854,125.713 L 461.420,124.434 L 462.981,123.191 L 464.538,121.981 L 466.090,120.803 L 467.639,119.657 L 469.185,118.541 L 470.729,117.453 L 472.271,116.393 L 473.811,115.360 L 475.350,114.354 L 476.890,113.372 L 479.970,111.482 L 483.055,109.684 L 486.149,107.974 L 489.257,106.348 L 492.384,104.802 L 495.533,103.333 L 498.711,101.940 L 501.922,100.619 L 505.174,99.370 L 508.472,98.191 L 511.824,97.083 L 515.241,96.044 L 518.731,95.077 L 522.308,94.183 L 525.986,93.363 L 529.784,92.622 L 533.726,91.965 L 535.760,91.670 L 537.842,91.399 L 539.978,91.153 L 542.174,90.934 L 544.439,90.744 L 546.781,90.585 L 549.213,90.461 L 551.750,90.374 L 554.411,90.330 L 557.223,90.335 L 560.224,90.396 L 563.466,90.526 L 565.513,90.639 L 567.697,90.786 L 570.055,90.970 L 572.645,91.198 L 575.561,91.474 L 578.989,91.792 L 581.010,91.948 L 583.366,92.056 L 586.251,91.958 L 589.727,91.056 L 591.606,89.867 L 593.015,88.504 L 594.938,85.946 L 596.297,83.719 L 597.387,81.740 L 599.152,78.279 L 600.612,75.254 L 601.894,72.522 L 603.055,70.002 L 604.129,67.647 L 605.136,65.424 L 606.089,63.309 L 606.997,61.287 L 607.869,59.343 L 608.708,57.469 L 610.308,53.896 L 611.819,50.520 L 612.844,48.232 L 613.839,46.016 L 614.805,43.865 L 615.747,41.772 L 616.666,39.733 L 617.565,37.743 L 618.445,35.798 L 619.308,33.894 L 620.155,32.030 L 620.987,30.202 L 622.609,26.646 L 624.183,23.210 L 625.713,19.883 L 627.204,16.653 L 628.659,13.512 L 630.081,10.453 L 631.473,7.469 L 632.838,4.555 L 634.176,1.705 L 634.508,1.000 " style="stroke:#e6194b;stroke-opacity:1.00;stroke-width:2;stroke-linejoin:round;fill:none"/>
	<path d="M 146.511,285.500 L 144.432,285.500 L 142.429,285.500 L 140.494,285.500 L 138.622,285.500 L 136.807,285.500 L 135.045,285.500 L 134.183,285.500 L 133.332,285.500 L 132.493,285.500 L 131.664,285.500 L 130.847,285.500 L 130.039,285.500 L 129.242,285.500 L 128.454,285.500 L 127.675,285.500 L 126.905,285.500 L 126.144,285.500 L 125.392,285.500 L 124.647,285.500 L 123.911,285.500 L 123.182,285.500 L 122.461,285.500 L 121.747,285.500 L 121.393,285.500 L 121.040,285.500 L 120.690,285.500 L 120.341,285.500 L 119.993,285.500 L 119.820,285.500 L 119.734,285.500 L 119.691,285.500 L 119.648,285.500 L 119.581,285.500 L 119.514,285.500 L 119.380,285.500 L 119.112,285.500 L 118.846,285.500 L 118.581,285.500 L 118.053,285.500 L 117.529,285.500 L 117.009,285.500 L 116.492,285.500 L 115.470,285.500 L 114.461,285.500 L 113.465,285.500 L 112.483,285.500 L 111.512,285.500 L 110.554,285.500 L 109.607,285.500 L 107.747,285.500 L 105.930,285.500 L 104.152,285.500 L 102.412,285.500 L 100.707,285.500 L 99.037,285.500 L 97.398,285.500 L 95.789,285.500 L 94.210,285.500 L 92.658,285.500 L 91.133,285.500 L 89.632,285.500 L 88.157,285.500 L 85.273,285.500 L 82.475,285.500 L 79.757,285.500 L 78.425,285.500 L 77.112,285.500 L 75.815,285.500 L 74.535,285.500 L 73.271,285.500 L 72.022,285.500 L 71.404,285.500 L 70.789,285.500 L 70.178,285.500 L 69.873,285.500 L 69.722,285.500 L 69.570,285.500 L 69.411,285.500 L 69.251,285.500 L 68.934,285.500 L 68.301,285.500 L 67.673,285.500 L 67.048,285.500 L 65.809,285.500 L 64.585,285.500 L 63.374,285.500 L 62.177,285.500 L 59.821,285.500 L 57.515,285.500 L 56.250,285.500 " style="stroke:#3cb44b;stroke-opacity:1.00;stroke-width:2;stroke-linejoin:round;fill:none"/>
	<path d="M 450.418,285.500 L 448.494,285.500 L 446.506,285.500 L 444.445,285.500 L 442.301,285.500 L 440.064,285.500 L 437.717,285.500 L 436.498,285.500 L 435.245,285.500 L 433.954,285.500 L 432.622,285.500 L 431.245,285.500 L 429.818,285.500 L 428.336,285.500 L 426.791,285.500 L 425.176,285.500 L 423.479,285.500 L 421.689,285.500 L 419.788,285.500 L 417.754,285.500 L 415.557,285.500 L 413.153,285.500 L 410.475,285.500 L 407.409,285.500 L 405.669,285.500 L 403.733,285.500 L 401.520,285.500 L 398.874,285.500 L 395.386,285.500 L 392.892,285.500 L 391.114,285.500 L 389.849,285.500 L 386.769,285.500 L 386.800,288.983 L 386.831,290.425 L 386.892,292.462 L 387.016,295.339 L 387.139,297.540 L 387.261,299.392 L 387.505,302.489 L 387.747,305.087 L 387.987,307.366 L 388.226,309.418 L 388.699,313.037 L 389.167,316.198 L 389.628,319.032 L 390.084,321.617 L 390.535,324.003 L 390.980,326.227 L 391.421,328.315 L 392.289,332.154 L 393.138,335.633 L 393.971,338.826 L 394.788,341.784 L 395.591,344.546 L 396.380,347.139 L 397.155,349.585 L 397.918,351.904 L 398.670,354.109 L 399.410,356.213 L 400.140,358.225 L 400.860,360.154 L 401.570,362.007 L 402.963,365.511 L 404.322,368.778 L 405.651,371.841 L 406.305,373.305 L 406.952,374.726 L 407.592,376.109 L 408.226,377.454 L 408.854,378.764 L 409.476,380.042 L 409.785,380.669 L 410.093,381.288 L 410.399,381.900 L 410.552,382.203 L 410.628,382.354 L 410.704,382.504 L 410.784,382.662 L 410.864,382.820 L 411.024,383.133 L 411.342,383.755 L 411.659,384.369 L 411.974,384.976 L 412.601,386.168 L 413.223,387.333 L 413.840,388.473 L 414.451,389.588 L 415.661,391.749 L 416.852,393.823 L 418.027,395.818 L 419.187,397.740 L 420.332,399.593 L 421.324,401.167 L 422.306,402.694 L 424.242,405.622 L 426.143,408.394 L 428.011,411.028 L 429.850,413.535 L 431.661,415.928 L 433.448,418.215 L 435.212,420.406 L 436.955,422.508 L 438.679,424.528 L 440.384,426.471 L 442.073,428.343 L 443.746,430.148 L 445.405,431.891 L 447.051,433.575 L 448.685,435.204 L 450.307,436.780 L 451.920,438.308 L 453.522,439.788 L 455.117,441.224 L 456.703,442.618 L 458.282,443.972 L 459.854,445.287 L 461.420,446.566 L 462.981,447.809 L 464.538,449.019 L 466.090,450.197 L 467.639,451.343 L 469.185,452.459 L 470.729,453.547 L 472.271,454.607 L 473.811,455.640 L 475.350,456.646 L 476.890,457.628 L 479.970,459.518 L 483.055,461.316 L 486.149,463.026 L 489.257,464.652 L 492.384,466.198 L 495.533,467.667 L 498.711,469.060 L 501.922,470.381 L 505.174,471.630 L 508.472,472.809 L 511.824,473.917 L 515.241,474.956 L 518.731,475.923 L 522.308,476.817 L 525.986,477.637 L 529.784,478.378 L 533.726,479.035 L 535.760,479.330 L 537.842,479.601 L 539.978,479.847 L 542.174,480.066 L 544.439,480.256 L 546.781,480.415 L 549.213,480.539 L 551.750,480.626 L 554.411,480.670 L 557.223,480.665 L 560.224,480.604 L 563.466,480.474 L 565.513,480.361 L 567.697,480.214 L 570.055,480.030 L 572.645,479.802 L 575.561,479.526 L 578.989,479.208 L 581.010,479.052 L 583.366,478.944 L 586.251,479.042 L 589.727,479.944 L 591.606,481.133 L 593.015,482.496 L 594.938,485.054 L 596.297,487.281 L 597.387,489.260 L 599.152,492.721 L 600.612,495.746 L 601.894,498.478 L 603.055,500.998 L 604.129,503.353 L 605.136,505.576 L 606.089,507.691 L 606.997,509.713 L 607.869,511.657 L 608.708,513.531 L 610.308,517.104 L 611.819,520.480 L 612.844,522.768 L 613.839,524.984 L 614.805,527.135 L 615.747,529.228 L 616.666,531.267 L 617.565,533.257 L 618.445,535.202 L 619.308,537.106 L 620.155,538.970 L 620.987,540.798 L 622.609,544.354 L 624.183,547.790 L 625.713,551.117 L 627.204,554.347 L 628.659,557.488 L 630.081,560.547 L 631.473,563.531 L 632.838,566.445 L 634.176,569.295 L 634.508,570.000 " style="stroke:#0082c8;stroke-opacity:1.00;stroke-width:2;stroke-linejoin:round;fill:none"/>
	<path d="M 602.372,285.500 L 603.119,285.500 L 603.864,285.500 L 604.610,285.500 L 605.355,285.500 L 606.100,285.500 L 606.845,285.500 L 607.218,285.500 L 607.590,285.500 L 607.963,285.500 L 608.337,285.500 L 608.710,285.500 L 609.084,285.500 L 609.458,285.500 L 609.832,285.500 L 610.207,285.500 L 610.582,285.500 L 610.957,285.500 L 611.333,285.500 L 611.709,285.500 L 612.086,285.500 L 612.463,285.500 L 612.841,285.500 L 613.220,285.500 L 613.409,285.500 L 613.599,285.500 L 613.788,285.500 L 613.978,285.500 L 614.168,285.500 L 614.264,285.500 L 614.311,285.500 L 614.335,285.500 L 614.359,285.500 L 614.396,285.500 L 614.433,285.500 L 614.507,285.500 L 614.656,285.500 L 614.805,285.500 L 614.953,285.500 L 615.251,285.500 L 615.550,285.500 L 615.849,285.500 L 616.148,285.500 L 616.749,285.500 L 617.351,285.500 L 617.957,285.500 L 618.565,285.500 L 619.175,285.500 L 619.788,285.500 L 620.405,285.500 L 621.647,285.500 L 622.904,285.500 L 624.176,285.500 L 625.465,285.500 L 626.774,285.500 L 628.102,285.500 L 629.454,285.500 L 630.831,285.500 L 632.236,285.500 L 633.672,285.500 L 635.141,285.500 L 636.649,285.500 L 638.200,285.500 L 641.451,285.500 L 644.951,285.500 L 648.788,285.500 L 650.874,285.500 L 653.107,285.500 L 655.525,285.500 L 658.191,285.500 L 661.206,285.500 L 664.771,285.500 L 666.892,285.500 L 669.404,285.500 L 672.673,285.500 L 674.983,285.500 L 676.615,285.500 L 680.556,285.500 L 680.556,281.860 L 680.555,280.353 L 680.554,278.223 L 680.552,275.212 L 680.550,272.905 L 680.547,270.962 L 680.539,267.708 L 680.530,264.971 L 680.519,262.565 L 680.505,260.394 L 680.474,256.552 L 680.435,253.179 L 680.390,250.142 L 680.338,247.358 L 680.280,244.776 L 680.224,242.648 L 680.164,240.628 L 680.029,236.859 L 679.878,233.384 L 679.710,230.146 L 679.526,227.105 L 679.327,224.229 L 679.113,221.495 L 678.885,218.886 L 678.643,216.385 L 678.387,213.981 L 678.119,211.663 L 677.837,209.423 L 677.543,207.254 L 677.237,205.149 L 676.918,203.102 L 676.588,201.110 L 676.246,199.167 L 675.892,197.271 L 675.526,195.417 L 675.149,193.603 L 674.761,191.826 L 674.361,190.084 L 673.950,188.374 L 673.528,186.694 L 673.095,185.043 L 672.650,183.419 L 672.195,181.821 L 671.727,180.246 L 671.249,178.694 L 670.759,177.163 L 670.257,175.652 L 669.744,174.161 L 669.220,172.687 L 668.683,171.230 L 667.573,168.365 L 666.414,165.558 L 665.203,162.803 L 663.939,160.094 L 662.620,157.427 L 661.241,154.796 L 659.801,152.198 L 658.294,149.627 L 656.717,147.079 L 655.063,144.550 L 653.327,142.036 L 651.500,139.532 L 649.573,137.033 L 647.535,134.533 L 645.372,132.028 L 643.066,129.509 L 640.595,126.970 L 639.288,125.689 L 637.928,124.399 L 636.509,123.098 L 635.024,121.785 L 633.467,120.456 L 631.827,119.110 L 630.092,117.742 L 628.248,116.349 L 626.275,114.927 L 624.146,113.467 L 621.825,111.963 L 619.257,110.403 L 617.604,109.456 L 615.812,108.480 L 613.845,107.470 L 611.645,106.420 L 609.116,105.326 L 606.076,104.193 L 604.247,103.631 L 602.083,103.118 L 599.391,102.812 L 596.107,103.311 L 594.343,104.258 L 593.049,105.380 L 591.356,107.454 L 590.227,109.200 L 589.366,110.699 L 588.057,113.204 L 587.052,115.277 L 586.223,117.063 L 585.513,118.641 L 584.888,120.059 L 584.328,121.351 L 583.821,122.539 L 583.356,123.639 L 582.926,124.666 L 582.526,125.628 L 581.802,127.389 L 581.159,128.971 L 580.743,130.000 L 580.355,130.966 L 579.992,131.876 L 579.651,132.735 L 579.328,133.549 L 579.023,134.323 L 578.734,135.059 L 578.459,135.761 L 578.197,136.432 L 577.947,137.074 L 577.478,138.281 L 577.048,139.396 L 576.649,140.431 L 576.280,141.396 L 575.935,142.298 L 575.613,143.145 L 575.310,143.942 L 575.026,144.693 L 574.757,145.404 L 574.504,146.077 L 574.263,146.716 L 574.035,147.323 L 573.819,147.902 L 573.612,148.454 L 573.416,148.981 L 573.228,149.485 L 573.048,149.968 L 572.876,150.431 L 572.712,150.875 L 572.554,151.302 L 572.402,151.712 L 572.256,152.107 L 572.116,152.487 L 571.980,152.854 L 571.850,153.208 L 571.725,153.549 L 571.603,153.880 L 571.486,154.199 L 571.373,154.507 L 571.264,154.806 L 571.158,155.096 L 571.055,155.377 L 570.956,155.649 L 570.859,155.913 L 570.766,156.169 L 570.675,156.418 L 570.587,156.660 L 570.501,156.895 L 570.418,157.124 L 570.337,157.346 L 570.259,157.563 L 570.182,157.774 L 570.108,157.979 L 569.965,158.374 L 569.828,158.750 L 569.699,159.108 L 569.576,159.450 L 569.458,159.775 L 569.346,160.087 L 569.239,160.385 L 569.136,160.670 L 569.038,160.943 L 568.944,161.206 L 568.853,161.458 L 568.766,161.700 L 568.683,161.933 L 568.603,162.157 L 568.525,162.373 L 568.451,162.582 L 568.379,162.783 L 568.310,162.977 L 568.243,163.164 L 568.178,163.345 L 568.116,163.521 L 568.055,163.690 L 567.997,163.855 L 567.940,164.014 L 567.885,164.168 L 567.832,164.317 L 567.780,164.462 L 567.730,164.603 L 567.682,164.740 L 567.635,164.873 L 567.589,165.002 L 567.544,165.128 L 567.501,165.250 L 567.459,165.369 L 567.418,165.484 L 567.378,165.597 L 567.339,165.707 L 567.301,165.814 L 567.264,165.918 L 567.228,166.020 L 567.193,166.119 L 567.159,166.216 L 567.126,166.310 L 567.093,166.403 L 567.061,166.493 L 567.030,166.581 L 567.000,166.667 L 566.970,166.751 L 566.941,166.833 L 566.913,166.913 L 566.885,166.992 L 566.858,167.069 L 566.831,167.144 L 566.805,167.218 L 566.780,167.290 L 566.755,167.361 L 566.731,167.430 L 566.707,167.498 L 566.683,167.564 L 566.661,167.630 L 566.638,167.693 L 566.616,167.756 L 566.594,167.818 L 566.573,167.878 L 566.552,167.937 L 566.532,167.995 L 566.512,168.052 L 566.492,168.108 L 566.473,168.163 L 566.454,168.217 L 566.417,168.321 L 566.382,168.423 L 566.347,168.521 L 566.314,168.615 L 566.282,168.707 L 566.251,168.795 L 566.221,168.881 L 566.192,168.964 L 566.164,169.044 L 566.137,169.122 L 566.110,169.197 L 566.085,169.271 L 566.060,169.342 L 566.035,169.411 L 566.012,169.478 L 565.989,169.544 L 565.967,169.607 L 565.945,169.669 L 565.924,169.729 " style="stroke:#f58230;stroke-opacity:1.00;stroke-width:2;stroke-linejoin:round;fill:none"/>
	<path d="M 754.326,285.500 L 753.750,285.500 L 753.171,285.500 L 752.587,285.500 L 751.998,285.500 L 751.405,285.500 L 750.808,285.500 L 750.507,285.500 L 750.205,285.500 L 749.902,285.500 L 749.598,285.500 L 749.292,285.500 L 748.986,285.500 L 748.678,285.500 L 748.368,285.500 L 748.057,285.500 L 747.745,285.500 L 747.432,285.500 L 747.117,285.500 L 746.801,285.500 L 746.483,285.500 L 746.164,285.500 L 745.844,285.500 L 745.522,285.500 L 745.360,285.500 L 745.198,285.500 L 745.036,285.500 L 744.873,285.500 L 744.710,285.500 L 744.628,285.500 L 744.587,285.500 L 744.567,285.500 L 744.546,285.500 L 744.514,285.500 L 744.483,285.500 L 744.419,285.500 L 744.291,285.500 L 744.163,285.500 L 744.034,285.500 L 743.776,285.500 L 743.518,285.500 L 743.258,285.500 L 742.998,285.500 L 742.473,285.500 L 741.945,285.500 L 741.412,285.500 L 740.875,285.500 L 740.333,285.500 L 739.787,285.500 L 739.236,285.500 L 738.118,285.500 L 736.980,285.500 L 735.820,285.500 L 734.636,285.500 L 733.428,285.500 L 732.192,285.500 L 730.928,285.500 L 729.633,285.500 L 728.305,285.500 L 726.940,285.500 L 725.536,285.500 L 724.089,285.500 L 722.594,285.500 L 719.441,285.500 L 716.019,285.500 L 712.243,285.500 L 710.181,285.500 L 707.968,285.500 L 705.566,285.500 L 702.912,285.500 L 699.905,285.500 L 696.344,285.500 L 694.224,285.500 L 691.712,285.500 L 688.441,285.500 L 686.131,285.500 L 684.497,285.500 L 680.556,285.500 L 680.556,289.140 L 680.555,290.647 L 680.554,292.777 L 680.552,295.788 L 680.550,298.095 L 680.547,300.038 L 680.539,303.292 L 680.530,306.029 L 680.519,308.435 L 680.505,310.606 L 680.474,314.448 L 680.435,317.821 L 680.390,320.858 L 680.338,323.642 L 680.280,326.224 L 680.224,328.352 L 680.164,330.372 L 680.029,334.141 L 679.878,337.616 L 679.710,340.854 L 679.526,343.895 L 679.327,346.771 L 679.113,349.505 L 678.885,352.114 L 678.643,354.615 L 678.387,357.019 L 678.119,359.337 L 677.837,361.577 L 677.543,363.746 L 677.237,365.851 L 676.918,367.898 L 676.588,369.890 L 676.246,371.833 L 675.892,373.729 L 675.526,375.583 L 675.149,377.397 L 674.761,379.174 L 674.361,380.916 L 673.950,382.626 L 673.528,384.306 L 673.095,385.957 L 672.650,387.581 L 672.195,389.179 L 671.727,390.754 L 671.249,392.306 L 670.759,393.837 L 670.257,395.348 L 669.744,396.839 L 669.220,398.313 L 668.683,399.770 L 667.573,402.635 L 666.414,405.442 L 665.203,408.197 L 663.939,410.906 L 662.620,413.573 L 661.241,416.204 L 659.801,418.802 L 658.294,421.373 L 656.717,423.921 L 655.063,426.450 L 653.327,428.964 L 651.500,431.468 L 649.573,433.967 L 647.535,436.467 L 645.372,438.972 L 643.066,441.491 L 640.595,444.030 L 639.288,445.311 L 637.928,446.601 L 636.509,447.902 L 635.024,449.215 L 633.467,450.544 L 631.827,451.890 L 630.092,453.258 L 628.248,454.651 L 626.275,456.073 L 624.146,457.533 L 621.825,459.037 L 619.257,460.597 L 617.604,461.544 L 615.812,462.520 L 613.845,463.530 L 611.645,464.580 L 609.116,465.674 L 606.076,466.807 L 604.247,467.369 L 602.083,467.882 L 599.391,468.188 L 596.107,467.689 L 594.343,466.742 L 593.049,465.620 L 591.356,463.546 L 590.227,461.800 L 589.366,460.301 L 588.057,457.796 L 587.052,455.723 L 586.223,453.937 L 585.513,452.359 L 584.888,450.941 L 584.328,449.649 L 583.821,448.461 L 583.356,447.361 L 582.926,446.334 L 582.526,445.372 L 581.802,443.611 L 581.159,442.029 L 580.743,441.000 L 580.355,440.034 L 579.992,439.124 L 579.651,438.265 L 579.328,437.451 L 579.023,436.677 L 578.734,435.941 L 578.459,435.239 L 578.197,434.568 L 577.947,433.926 L 577.478,432.719 L 577.048,431.604 L 576.649,430.569 L 576.280,429.604 L 575.935,428.702 L 575.613,427.855 L 575.310,427.058 L 575.026,426.307 L 574.757,425.596 L 574.504,424.923 L 574.263,424.284 L 574.035,423.677 L 573.819,423.098 L 573.612,422.546 L 573.416,422.019 L 573.228,421.515 L 573.048,421.032 L 572.876,420.569 L 572.712,420.125 L 572.554,419.698 L 572.402,419.288 L 572.256,418.893 L 572.116,418.513 L 571.980,418.146 L 571.850,417.792 L 571.725,417.451 L 571.603,417.120 L 571.486,416.801 L 571.373,416.493 L 571.264,416.194 L 571.158,415.904 L 571.055,415.623 L 570.956,415.351 L 570.859,415.087 L 570.766,414.831 L 570.675,414.582 L 570.587,414.340 L 570.501,414.105 L 570.418,413.876 L 570.337,413.654 L 570.259,413.437 L 570.182,413.226 L 570.108,413.021 L 569.965,412.626 L 569.828,412.250 L 569.699,411.892 L 569.576,411.550 L 569.458,411.225 L 569.346,410.913 L 569.239,410.615 L 569.136,410.330 L 569.038,410.057 L 568.944,409.794 L 568.853,409.542 L 568.766,409.300 L 568.683,409.067 L 568.603,408.843 L 568.525,408.627 L 568.451,408.418 L 568.379,408.217 L 568.310,408.023 L 568.243,407.836 L 568.178,407.655 L 568.116,407.479 L 568.055,407.310 L 567.997,407.145 L 567.940,406.986 L 567.885,406.832 L 567.832,406.683 L 567.780,406.538 L 567.730,406.397 L 567.682,406.260 L 567.635,406.127 L 567.589,405.998 L 567.544,405.872 L 567.501,405.750 L 567.459,405.631 L 567.418,405.516 L 567.378,405.403 L 567.339,405.293 L 567.301,405.186 L 567.264,405.082 L 567.228,404.980 L 567.193,404.881 L 567.159,404.784 L 567.126,404.690 L 567.093,404.597 L 567.061,404.507 L 567.030,404.419 L 567.000,404.333 L 566.970,404.249 L 566.941,404.167 L 566.913,404.087 L 566.885,404.008 L 566.858,403.931 L 566.831,403.856 L 566.805,403.782 L 566.780,403.710 L 566.755,403.639 L 566.731,403.570 L 566.707,403.502 L 566.683,403.436 L 566.661,403.370 L 566.638,403.307 L 566.616,403.244 L 566.594,403.182 L 566.573,403.122 L 566.552,403.063 L 566.532,403.005 L 566.512,402.948 L 566.492,402.892 L 566.473,402.837 L 566.454,402.783 L 566.417,402.679 L 566.382,402.577 L 566.347,402.479 L 566.314,402.385 L 566.282,402.293 L 566.251,402.205 L 566.221,402.119 L 566.192,402.036 L 566.164,401.956 L 566.137,401.878 L 566.110,401.803 L 566.085,401.729 L 566.060,401.658 L 566.035,401.589 L 566.012,401.522 L 565.989,401.456 L 565.967,401.393 L 565.945,401.331 L 565.924,401.271 " style="stroke:#911eb4;stroke-opacity:1.00;stroke-width:2;stroke-linejoin:round;fill:none"/>
	<ellipse cx="564.38" cy="174.17" rx="4.00" ry="4.00" style="stroke:#000000;stroke-opacity:1.00;stroke-width:2;stroke-linejoin:round;fill:none"/>
	<ellipse cx="564.38" cy="396.83" rx="4.00" ry="4.00" style="stroke:#000000;stroke-opacity:1.00;stroke-width:2;stroke-linejoin:round;fill:none"/>
	<path d="M 294.464,289.500 L 302.464,281.500 M 294.464,281.500 L 302.464,289.500 " style="stroke:#000000;stroke-opacity:1.00;stroke-width:2;stroke-linejoin:round;fill:none"/>
	<path d="M 142.511,289.500 L 150.511,281.500 M 142.511,281.500 L 150.511,289.500 " style="stroke:#000000;stroke-opacity:1.00;stroke-width:2;stroke-linejoin:round;fill:none"/>
	<path d="M 446.418,289.500 L 454.418,281.500 M 446.418,281.500 L 454.418,289.500 " style="stroke:#000000;stroke-opacity:1.00;stroke-width:2;stroke-linejoin:round;fill:none"/>
	<path d="M 598.372,289.500 L 606.372,281.500 M 598.372,281.500 L 606.372,289.500 " style="stroke:#000000;stroke-opacity:1.00;stroke-width:2;stroke-linejoin:round;fill:none"/>
	<path d="M 750.326,289.500 L 758.326,281.500 M 750.326,281.500 L 758.326,289.500 " style="stroke:#000000;stroke-opacity:1.00;stroke-width:2;stroke-linejoin:round;fill:none"/>
	<text x="791.50" y="562.50" style="stroke:none;fill:#000000;fill-opacity:1.00;fill-rule:evenodd;font-size:15.0px;text-anchor:end">Re </text>
	<text x="63.75" y="18.25" style="stroke:none;fill:#000000;fill-opacity:1.00;fill-rule:evenodd;font-size:15.0px">Im </text>
	<path d="M 56.250,570.000 L 799.000,570.000 L 799.000,1.000 L 56.250,1.000 Z" style="stroke:#000000;stroke-opacity:1.00;stroke-width:2;stroke-linejoin:round;fill:none"/>
	<text x="105.00" y="515.00" style="stroke:none;fill:#000000;fill-opacity:1.00;fill-rule:evenodd;font-size:15.0px">Poles</text>
	<path d="M 78.500,514.000 L 86.500,506.000 M 78.500,506.000 L 86.500,514.000 " style="stroke:#000000;stroke-opacity:1.00;stroke-width:2;stroke-linejoin:round;fill:none"/>
	<text x="105.00" y="537.50" style="stroke:none;fill:#000000;fill-opacity:1.00;fill-rule:evenodd;font-size:15.0px">Zeros</text>
	<ellipse cx="82.50" cy="532.50" rx="4.00" ry="4.00" style="stroke:#000000;stroke-opacity:1.00;stroke-width:2;stroke-linejoin:round;fill:none"/>
	<text x="105.00" y="560.00" style="stroke:none;fill:#000000;fill-opacity:1.00;fill-rule:evenodd;font-size:15.0px">Asymptotes</text>
	<path d="M 67.500,555.000 L 97.500,555.000 " style="stroke:#bebebe;stroke-opacity:1.00;stroke-width:2;stroke-linejoin:round;fill:none"/>
</svg>
