<svg class="svg" style="stroke-linejoin:round;stroke-linecap:round" xmlns:svg="http://www.w3.org/2000/svg" xmlns="http://www.w3.org/2000/svg" width="800" height="600" viewBox="0 0 800 600">
	<text x="121.45" y="594.75" style="stroke:none;fill:#000000;font-size:15.00px;text-anchor:middle">-3.5</text>
	<path d="M 121.45,577.50 L 121.45,570.00 " style="stroke:#000000;stroke-width:2;fill:#000000"/>
	<text x="200.08" y="594.75" style="stroke:none;fill:#000000;font-size:15.00px;text-anchor:middle">-3.0</text>
	<path d="M 200.08,577.50 L 200.08,570.00 " style="stroke:#000000;stroke-width:2;fill:#000000"/>
	<text x="278.72" y="594.75" style="stroke:none;fill:#000000;font-size:15.00px;text-anchor:middle">-2.5</text>
	<path d="M 278.72,577.50 L 278.72,570.00 " style="stroke:#000000;stroke-width:2;fill:#000000"/>
	<text x="357.35" y="594.75" style="stroke:none;fill:#000000;font-size:15.00px;text-anchor:middle">-2.0</text>
	<path d="M 357.35,577.50 L 357.35,570.00 " style="stroke:#000000;stroke-width:2;fill:#000000"/>
	<text x="435.99" y="594.75" style="stroke:none;fill:#000000;font-size:15.00px;text-anchor:middle">-1.5</text>
	<path d="M 435.99,577.50 L 435.99,570.00 " style="stroke:#000000;stroke-width:2;fill:#000000"/>
	<text x="514.63" y="594.75" style="stroke:none;fill:#000000;font-size:15.00px;text-anchor:middle">-1.0</text>
	<path d="M 514.63,577.50 L 514.63,570.00 " style="stroke:#000000;stroke-width:2;fill:#000000"/>
	<text x="593.26" y="594.75" style="stroke:none;fill:#000000;font-size:15.00px;text-anchor:middle">-0.5</text>
	<path d="M 593.26,577.50 L 593.26,570.00 " style="stroke:#000000;stroke-width:2;fill:#000000"/>
	<text x="671.90" y="594.75" style="stroke:none;fill:#000000;font-size:15.00px;text-anchor:middle">0.0</text>
	<path d="M 671.90,577.50 L 671.90,570.00 " style="stroke:#000000;stroke-width:2;fill:#000000"/>
	<text x="750.53" y="594.75" style="stroke:none;fill:#000000;font-size:15.00px;text-anchor:middle">0.5</text>
	<path d="M 750.53,577.50 L 750.53,570.00 " style="stroke:#000000;stroke-width:2;fill:#000000"/>
	<text x="45.00" y="555.79" style="stroke:none;fill:#000000;font-size:15.00px;text-anchor:end">-2.00</text>
	<path d="M 48.75,550.79 L 56.25,550.79 " style="stroke:#000000;stroke-width:2;fill:#000000"/>
	<text x="45.00" y="522.63" style="stroke:none;fill:#000000;font-size:15.00px;text-anchor:end">-1.75</text>
	<path d="M 48.75,517.63 L 56.25,517.63 " style="stroke:#000000;stroke-width:2;fill:#000000"/>
	<text x="45.00" y="489.47" style="stroke:none;fill:#000000;font-size:15.00px;text-anchor:end">-1.50</text>
	<path d="M 48.75,484.47 L 56.25,484.47 " style="stroke:#000000;stroke-width:2;fill:#000000"/>
	<text x="45.00" y="456.30" style="stroke:none;fill:#000000;font-size:15.00px;text-anchor:end">-1.25</text>
	<path d="M 48.75,451.30 L 56.25,451.30 " style="stroke:#000000;stroke-width:2;fill:#000000"/>
	<text x="45.00" y="423.14" style="stroke:none;fill:#000000;font-size:15.00px;text-anchor:end">-1.00</text>
	<path d="M 48.75,418.14 L 56.25,418.14 " style="stroke:#000000;stroke-width:2;fill:#000000"/>
	<text x="45.00" y="389.98" style="stroke:none;fill:#000000;font-size:15.00px;text-anchor:end">-0.75</text>
	<path d="M 48.75,384.98 L 56.25,384.98 " style="stroke:#000000;stroke-width:2;fill:#000000"/>
	<text x="45.00" y="356.82" style="stroke:none;fill:#000000;font-size:15.00px;text-anchor:end">-0.50</text>
	<path d="M 48.75,351.82 L 56.25,351.82 " style="stroke:#000000;stroke-width:2;fill:#000000"/>
	<text x="45.00" y="323.66" style="stroke:none;fill:#000000;font-size:15.00px;text-anchor:end">-0.25</text>
	<path d="M 48.75,318.66 L 56.25,318.66 " style="stroke:#000000;stroke-width:2;fill:#000000"/>
	<text x="45.00" y="290.50" style="stroke:none;fill:#000000;font-size:15.00px;text-anchor:end">0.00</text>
	<path d="M 48.75,285.50 L 56.25,285.50 " style="stroke:#000000;stroke-width:2;fill:#000000"/>
	<text x="45.00" y="257.34" style="stroke:none;fill:#000000;font-size:15.00px;text-anchor:end">0.25</text>
	<path d="M 48.75,252.34 L 56.25,252.34 " style="stroke:#000000;stroke-width:2;fill:#000000"/>
	<text x="45.00" y="224.18" style="stroke:none;fill:#000000;font-size:15.00px;text-anchor:end">0.50</text>
	<path d="M 48.75,219.18 L 56.25,219.18 " style="stroke:#000000;stroke-width:2;fill:#000000"/>
	<text x="45.00" y="191.02" style="stroke:none;fill:#000000;font-size:15.00px;text-anchor:end">0.75</text>
	<path d="M 48.75,186.02 L 56.25,186.02 " style="stroke:#000000;stroke-width:2;fill:#000000"/>
	<text x="45.00" y="157.86" style="stroke:none;fill:#000000;font-size:15.00px;text-anchor:end">1.00</text>
	<path d="M 48.75,152.86 L 56.25,152.86 " style="stroke:#000000;stroke-width:2;fill:#000000"/>
	<text x="45.00" y="124.70" style="stroke:none;fill:#000000;font-size:15.00px;text-anchor:end">1.25</text>
	<path d="M 48.75,119.70 L 56.25,119.70 " style="stroke:#000000;stroke-width:2;fill:#000000"/>
	<text x="45.00" y="91.53" style="stroke:none;fill:#000000;font-size:15.00px;text-anchor:end">1.50</text>
	<path d="M 48.75,86.53 L 56.25,86.53 " style="stroke:#000000;stroke-width:2;fill:#000000"/>
	<text x="45.00" y="58.37" style="stroke:none;fill:#000000;font-size:15.00px;text-anchor:end">1.75</text>
	<path d="M 48.75,53.37 L 56.25,53.37 " style="stroke:#000000;stroke-width:2;fill:#000000"/>
	<text x="45.00" y="25.21" style="stroke:none;fill:#000000;font-size:15.00px;text-anchor:end">2.00</text>
	<path d="M 48.75,20.21 L 56.25,20.21 " style="stroke:#000000;stroke-width:2;fill:#000000"/>
	<path d="M 671.90,285.50 L 671.90,1.00 " style="stroke:#bebebe;stroke-width:1;stroke-dasharray:5.00,5.00;fill:none"/>
	<text x="668.90" y="11.80" style="stroke:none;fill:#bebebe;font-size:12.00px;text-anchor:end">90°</text>
	<path d="M 671.90,285.50 L 581.51,1.00 " style="stroke:#bebebe;stroke-width:1;stroke-dasharray:5.00,5.00;fill:none"/>
	<text x="578.51" y="11.80" style="stroke:none;fill:#bebebe;font-size:12.00px;text-anchor:end">75°</text>
	<path d="M 671.90,285.50 L 477.14,1.00 " style="stroke:#bebebe;stroke-width:1;stroke-dasharray:5.00,5.00;fill:none"/>
	<text x="474.14" y="11.80" style="stroke:none;fill:#bebebe;font-size:12.00px;text-anchor:end">60°</text>
	<path d="M 671.90,285.50 L 334.58,1.00 " style="stroke:#bebebe;stroke-width:1;stroke-dasharray:5.00,5.00;fill:none"/>
	<text x="331.58" y="11.80" style="stroke:none;fill:#bebebe;font-size:12.00px;text-anchor:end">45°</text>
	<path d="M 671.90,285.50 L 87.64,1.00 " style="stroke:#bebebe;stroke-width:1;stroke-dasharray:5.00,5.00;fill:none"/>
	<text x="90.64" y="11.80" style="stroke:none;fill:#bebebe;font-size:12.00px">30°</text>
	<path d="M 671.90,285.50 L 56.25,146.37 " style="stroke:#bebebe;stroke-width:1;stroke-dasharray:5.00,5.00;fill:none"/>
	<text x="59.25" y="143.37" style="stroke:none;fill:#bebebe;font-size:12.00px">15°</text>
	<path d="M 671.90,285.50 L 56.25,285.50 " style="stroke:#bebebe;stroke-width:1;stroke-dasharray:5.00,5.00;fill:none"/>
	<path d="M 671.90,285.50 L 56.25,424.63 " style="stroke:#bebebe;stroke-width:1;stroke-dasharray:5.00,5.00;fill:none"/>
	<text x="59.25" y="435.43" style="stroke:none;fill:#bebebe;font-size:12.00px">-15°</text>
	<path d="M 671.90,285.50 L 87.64,570.00 " style="stroke:#bebebe;stroke-width:1;stroke-dasharray:5.00,5.00;fill:none"/>
	<text x="90.64" y="567.00" style="stroke:none;fill:#bebebe;font-size:12.00px">-30°</text>
	<path d="M 671.90,285.50 L 334.58,570.00 " style="stroke:#bebebe;stroke-width:1;stroke-dasharray:5.00,5.00;fill:none"/>
	<text x="331.58" y="567.00" style="stroke:none;fill:#bebebe;font-size:12.00px;text-anchor:end">-45°</text>
	<path d="M 671.90,285.50 L 477.14,570.00 " style="stroke:#bebebe;stroke-width:1;stroke-dasharray:5.00,5.00;fill:none"/>
	<text x="474.14" y="567.00" style="stroke:none;fill:#bebebe;font-size:12.00px;text-anchor:end">-60°</text>
	<path d="M 671.90,285.50 L 581.51,570.00 " style="stroke:#bebebe;stroke-width:1;stroke-dasharray:5.00,5.00;fill:none"/>
	<text x="578.51" y="567.00" style="stroke:none;fill:#bebebe;font-size:12.00px;text-anchor:end">-75°</text>
	<path d="M 671.90,285.50 L 671.90,570.00 " style="stroke:#bebebe;stroke-width:1;stroke-dasharray:5.00,5.00;fill:none"/>
	<text x="668.90" y="567.00" style="stroke:none;fill:#bebebe;font-size:12.00px;text-anchor:end">-90°</text>
	<path d="M 236.96,1.00 L 226.57,12.62 L 215.55,25.89 L 205.09,39.48 L 195.19,53.37 L 185.88,67.55 L 177.16,81.98 L 169.04,96.67 L 161.53,111.59 L 154.64,126.72 L 148.39,142.04 L 142.77,157.53 L 137.80,173.19 L 133.48,188.98 L 129.81,204.88 L 126.81,220.89 L 124.46,236.97 L 122.79,253.12 L 121.78,269.30 L 121.45,285.50 L 121.78,301.70 L 122.79,317.88 L 124.46,334.03 L 126.81,350.11 L 129.81,366.12 L 133.48,382.02 L 137.80,397.81 L 142.77,413.47 L 148.39,428.96 L 154.64,444.28 L 161.53,459.41 L 169.04,474.33 L 177.16,489.02 L 185.88,503.45 L 195.19,517.63 L 205.09,531.52 L 215.55,545.11 L 226.57,558.38 L 236.96,570.00 " style="stroke:#bebebe;stroke-width:1;stroke-dasharray:5.00,5.00;fill:none"/>
	<text x="124.45" y="296.30" style="stroke:none;fill:#bebebe;font-size:12.00px">3.5</text>
	<path d="M 342.08,1.00 L 332.50,9.07 L 321.27,19.23 L 310.47,29.71 L 300.10,40.51 L 290.19,51.60 L 280.75,62.98 L 271.78,74.63 L 263.29,86.53 L 255.31,98.68 L 247.83,111.06 L 240.87,123.65 L 234.44,136.43 L 228.54,149.40 L 223.18,162.53 L 218.36,175.82 L 214.10,189.23 L 210.39,202.77 L 207.25,216.40 L 204.68,230.12 L 202.67,243.90 L 201.23,257.74 L 200.37,271.61 L 200.08,285.50 L 200.37,299.39 L 201.23,313.26 L 202.67,327.10 L 204.68,340.88 L 207.25,354.60 L 210.39,368.23 L 214.10,381.77 L 218.36,395.18 L 223.18,408.47 L 228.54,421.60 L 234.44,434.57 L 240.87,447.35 L 247.83,459.94 L 255.31,472.32 L 263.29,484.47 L 271.78,496.37 L 280.75,508.02 L 290.19,519.40 L 300.10,530.49 L 310.47,541.29 L 321.27,551.77 L 332.50,561.93 L 342.08,570.00 " style="stroke:#bebebe;stroke-width:1;stroke-dasharray:5.00,5.00;fill:none"/>
	<text x="203.08" y="296.30" style="stroke:none;fill:#bebebe;font-size:12.00px">3.0</text>
	<path d="M 470.01,1.00 L 463.54,4.28 L 452.03,10.58 L 440.79,17.22 L 429.83,24.19 L 419.17,31.47 L 408.81,39.07 L 398.77,46.96 L 389.07,55.14 L 379.71,63.61 L 370.70,72.35 L 362.07,81.34 L 353.81,90.58 L 345.94,100.07 L 338.46,109.77 L 331.39,119.70 L 324.74,129.82 L 318.51,140.13 L 312.71,150.62 L 307.35,161.28 L 302.43,172.08 L 297.96,183.03 L 293.95,194.10 L 290.40,205.28 L 287.31,216.55 L 284.69,227.92 L 282.55,239.35 L 280.87,250.84 L 279.68,262.37 L 278.96,273.93 L 278.72,285.50 L 278.96,297.07 L 279.68,308.63 L 280.87,320.16 L 282.55,331.65 L 284.69,343.08 L 287.31,354.45 L 290.40,365.72 L 293.95,376.90 L 297.96,387.97 L 302.43,398.92 L 307.35,409.72 L 312.71,420.38 L 318.51,430.87 L 324.74,441.18 L 331.39,451.30 L 338.46,461.23 L 345.94,470.93 L 353.81,480.42 L 362.07,489.66 L 370.70,498.65 L 379.71,507.39 L 389.07,515.86 L 398.77,524.04 L 408.81,531.93 L 419.17,539.53 L 429.83,546.81 L 440.79,553.78 L 452.03,560.42 L 463.54,566.72 L 470.01,570.00 " style="stroke:#bebebe;stroke-width:1;stroke-dasharray:5.00,5.00;fill:none"/>
	<text x="281.72" y="296.30" style="stroke:none;fill:#bebebe;font-size:12.00px">2.5</text>
	<path d="M 671.90,20.21 L 660.92,20.37 L 649.95,20.86 L 639.02,21.67 L 628.12,22.79 L 617.28,24.24 L 606.50,26.01 L 595.80,28.09 L 585.20,30.49 L 574.70,33.20 L 564.32,36.21 L 554.07,39.53 L 543.96,43.15 L 534.01,47.06 L 524.23,51.26 L 514.63,55.75 L 505.21,60.52 L 496.01,65.57 L 487.01,70.88 L 478.24,76.45 L 469.71,82.28 L 461.43,88.35 L 453.40,94.67 L 445.63,101.22 L 438.15,107.99 L 430.94,114.98 L 424.03,122.17 L 417.43,129.57 L 411.13,137.15 L 405.15,144.92 L 399.50,152.86 L 394.17,160.96 L 389.19,169.21 L 384.55,177.60 L 380.26,186.12 L 376.32,194.77 L 372.75,203.52 L 369.54,212.38 L 366.70,221.32 L 364.23,230.34 L 362.13,239.43 L 360.42,248.58 L 359.08,257.77 L 358.12,266.99 L 357.55,276.24 L 357.35,285.50 L 357.55,294.76 L 358.12,304.01 L 359.08,313.23 L 360.42,322.42 L 362.13,331.57 L 364.23,340.66 L 366.70,349.68 L 369.54,358.62 L 372.75,367.48 L 376.32,376.23 L 380.26,384.88 L 384.55,393.40 L 389.19,401.79 L 394.17,410.04 L 399.50,418.14 L 405.15,426.08 L 411.13,433.85 L 417.43,441.43 L 424.03,448.83 L 430.94,456.02 L 438.15,463.01 L 445.63,469.78 L 453.40,476.33 L 461.43,482.65 L 469.71,488.72 L 478.24,494.55 L 487.01,500.12 L 496.01,505.43 L 505.21,510.48 L 514.63,515.25 L 524.23,519.74 L 534.01,523.94 L 543.96,527.85 L 554.07,531.47 L 564.32,534.79 L 574.70,537.80 L 585.20,540.51 L 595.80,542.91 L 606.50,544.99 L 617.28,546.76 L 628.12,548.21 L 639.02,549.33 L 649.95,550.14 L 660.92,550.63 L 671.90,550.79 " style="stroke:#bebebe;stroke-width:1;stroke-dasharray:5.00,5.00;fill:none"/>
	<text x="360.35" y="296.30" style="stroke:none;fill:#bebebe;font-size:12.00px">2.0</text>
	<path d="M 671.90,86.53 L 663.66,86.66 L 655.44,87.02 L 647.24,87.62 L 639.06,88.47 L 630.93,89.56 L 622.85,90.88 L 614.83,92.44 L 606.87,94.24 L 599.00,96.27 L 591.21,98.53 L 583.52,101.02 L 575.94,103.74 L 568.48,106.67 L 561.14,109.82 L 553.94,113.19 L 546.88,116.77 L 539.98,120.55 L 533.23,124.53 L 526.66,128.71 L 520.26,133.08 L 514.04,137.64 L 508.02,142.38 L 502.20,147.29 L 496.58,152.37 L 491.18,157.61 L 486.00,163.00 L 481.04,168.55 L 476.32,174.24 L 471.84,180.06 L 467.60,186.02 L 463.60,192.09 L 459.86,198.28 L 456.38,204.57 L 453.17,210.97 L 450.22,217.45 L 447.54,224.02 L 445.13,230.66 L 443.00,237.37 L 441.14,244.13 L 439.57,250.95 L 438.29,257.81 L 437.28,264.70 L 436.56,271.62 L 436.13,278.56 L 435.99,285.50 L 436.13,292.44 L 436.56,299.38 L 437.28,306.30 L 438.29,313.19 L 439.57,320.05 L 441.14,326.87 L 443.00,333.63 L 445.13,340.34 L 447.54,346.98 L 450.22,353.55 L 453.17,360.03 L 456.38,366.43 L 459.86,372.72 L 463.60,378.91 L 467.60,384.98 L 471.84,390.94 L 476.32,396.76 L 481.04,402.45 L 486.00,408.00 L 491.18,413.39 L 496.58,418.63 L 502.20,423.71 L 508.02,428.62 L 514.04,433.36 L 520.26,437.92 L 526.66,442.29 L 533.23,446.47 L 539.98,450.45 L 546.88,454.23 L 553.94,457.81 L 561.14,461.18 L 568.48,464.33 L 575.94,467.26 L 583.52,469.98 L 591.21,472.47 L 599.00,474.73 L 606.87,476.76 L 614.83,478.56 L 622.85,480.12 L 630.93,481.44 L 639.06,482.53 L 647.24,483.38 L 655.44,483.98 L 663.66,484.34 L 671.90,484.47 " style="stroke:#bebebe;stroke-width:1;stroke-dasharray:5.00,5.00;fill:none"/>
	<text x="438.99" y="296.30" style="stroke:none;fill:#bebebe;font-size:12.00px">1.5</text>
	<path d="M 671.90,152.86 L 666.41,152.94 L 660.93,153.18 L 655.46,153.58 L 650.01,154.15 L 644.59,154.87 L 639.20,155.75 L 633.85,156.80 L 628.55,157.99 L 623.30,159.35 L 618.11,160.86 L 612.98,162.51 L 607.93,164.32 L 602.95,166.28 L 598.06,168.38 L 593.26,170.63 L 588.56,173.01 L 583.95,175.53 L 579.45,178.19 L 575.07,180.98 L 570.80,183.89 L 566.66,186.93 L 562.65,190.08 L 558.76,193.36 L 555.02,196.74 L 551.42,200.24 L 547.96,203.84 L 544.66,207.53 L 541.51,211.33 L 538.52,215.21 L 535.70,219.18 L 533.03,223.23 L 530.54,227.35 L 528.22,231.55 L 526.08,235.81 L 524.11,240.13 L 522.32,244.51 L 520.72,248.94 L 519.30,253.41 L 518.06,257.92 L 517.01,262.47 L 516.16,267.04 L 515.49,271.63 L 515.01,276.25 L 514.72,280.87 L 514.63,285.50 L 514.72,290.13 L 515.01,294.75 L 515.49,299.37 L 516.16,303.96 L 517.01,308.53 L 518.06,313.08 L 519.30,317.59 L 520.72,322.06 L 522.32,326.49 L 524.11,330.87 L 526.08,335.19 L 528.22,339.45 L 530.54,343.65 L 533.03,347.77 L 535.70,351.82 L 538.52,355.79 L 541.51,359.67 L 544.66,363.47 L 547.96,367.16 L 551.42,370.76 L 555.02,374.26 L 558.76,377.64 L 562.65,380.92 L 566.66,384.07 L 570.80,387.11 L 575.07,390.02 L 579.45,392.81 L 583.95,395.47 L 588.56,397.99 L 593.26,400.37 L 598.06,402.62 L 602.95,404.72 L 607.93,406.68 L 612.98,408.49 L 618.11,410.14 L 623.30,411.65 L 628.55,413.01 L 633.85,414.20 L 639.20,415.25 L 644.59,416.13 L 650.01,416.85 L 655.46,417.42 L 660.93,417.82 L 666.41,418.06 L 671.90,418.14 " style="stroke:#bebebe;stroke-width:1;stroke-dasharray:5.00,5.00;fill:none"/>
	<text x="517.63" y="296.30" style="stroke:none;fill:#bebebe;font-size:12.00px">1.0</text>
	<path d="M 671.90,219.18 L 669.15,219.22 L 666.41,219.34 L 663.68,219.54 L 660.95,219.82 L 658.24,220.19 L 655.55,220.63 L 652.87,221.15 L 650.22,221.75 L 647.60,222.42 L 645.00,223.18 L 642.44,224.01 L 639.91,224.91 L 637.42,225.89 L 634.98,226.94 L 632.58,228.06 L 630.23,229.26 L 627.92,230.52 L 625.68,231.84 L 623.48,233.24 L 621.35,234.69 L 619.28,236.21 L 617.27,237.79 L 615.33,239.43 L 613.46,241.12 L 611.66,242.87 L 609.93,244.67 L 608.28,246.52 L 606.70,248.41 L 605.21,250.35 L 603.80,252.34 L 602.47,254.36 L 601.22,256.43 L 600.06,258.52 L 598.99,260.66 L 598.00,262.82 L 597.11,265.01 L 596.31,267.22 L 595.60,269.46 L 594.98,271.71 L 594.46,273.98 L 594.03,276.27 L 593.69,278.57 L 593.45,280.87 L 593.31,283.19 L 593.26,285.50 L 593.31,287.81 L 593.45,290.13 L 593.69,292.43 L 594.03,294.73 L 594.46,297.02 L 594.98,299.29 L 595.60,301.54 L 596.31,303.78 L 597.11,305.99 L 598.00,308.18 L 598.99,310.34 L 600.06,312.48 L 601.22,314.57 L 602.47,316.64 L 603.80,318.66 L 605.21,320.65 L 606.70,322.59 L 608.28,324.48 L 609.93,326.33 L 611.66,328.13 L 613.46,329.88 L 615.33,331.57 L 617.27,333.21 L 619.28,334.79 L 621.35,336.31 L 623.48,337.76 L 625.68,339.16 L 627.92,340.48 L 630.23,341.74 L 632.58,342.94 L 634.98,344.06 L 637.42,345.11 L 639.91,346.09 L 642.44,346.99 L 645.00,347.82 L 647.60,348.58 L 650.22,349.25 L 652.87,349.85 L 655.55,350.37 L 658.24,350.81 L 660.95,351.18 L 663.68,351.46 L 666.41,351.66 L 669.15,351.78 L 671.90,351.82 " style="stroke:#bebebe;stroke-width:1;stroke-dasharray:5.00,5.00;fill:none"/>
	<text x="596.26" y="296.30" style="stroke:none;fill:#bebebe;font-size:12.00px">0.5</text>
	<path d="M 126.58,69.21 L 128.18,71.10 L 129.74,72.96 L 131.27,74.79 L 132.76,76.58 L 134.23,78.35 L 135.66,80.09 L 137.07,81.81 L 138.44,83.50 L 139.79,85.17 L 141.12,86.81 L 142.42,88.43 L 143.69,90.03 L 146.18,93.16 L 148.57,96.22 L 150.89,99.21 L 153.13,102.13 L 155.30,104.99 L 157.40,107.79 L 159.44,110.54 L 161.42,113.23 L 163.34,115.88 L 165.21,118.49 L 167.03,121.06 L 168.81,123.58 L 170.54,126.08 L 172.22,128.53 L 173.87,130.96 L 175.47,133.36 L 177.04,135.73 L 178.58,138.08 L 180.08,140.41 L 181.54,142.71 L 182.98,145.00 L 184.39,147.27 L 185.77,149.52 L 187.12,151.76 L 188.44,153.98 L 189.74,156.20 L 191.02,158.40 L 192.27,160.60 L 193.50,162.79 L 194.71,164.98 L 195.90,167.16 L 197.07,169.34 L 198.22,171.52 L 199.35,173.70 L 200.46,175.88 L 201.56,178.07 L 202.64,180.26 L 203.70,182.46 L 204.75,184.68 L 205.78,186.90 L 206.79,189.14 L 207.80,191.39 L 208.79,193.66 L 209.76,195.95 L 210.72,198.27 L 211.67,200.62 L 212.61,202.99 L 213.53,205.40 L 214.45,207.85 L 215.35,210.35 L 216.24,212.89 L 217.12,215.49 L 217.99,218.15 L 218.85,220.89 L 219.70,223.70 L 220.55,226.62 L 221.38,229.65 L 222.20,232.81 L 223.01,236.13 L 223.82,239.65 L 224.62,243.41 L 225.01,245.41 L 225.41,247.50 L 225.80,249.70 L 226.19,252.03 L 226.57,254.52 L 226.96,257.21 L 227.34,260.16 L 227.72,263.50 L 228.10,267.41 L 228.29,269.71 L 228.48,272.41 L 228.67,275.83 L 228.76,278.10 L 228.86,281.49 L 228.88,282.97 L 228.89,284.25 L 228.90,284.90 L 228.31,285.50 L 227.81,285.50 L 226.76,285.50 L 223.32,285.50 L 219.77,285.50 L 217.30,285.50 L 215.29,285.50 L 212.03,285.50 L 209.35,285.50 L 207.04,285.50 L 204.98,285.50 L 203.11,285.50 L 201.39,285.50 L 198.29,285.50 L 195.55,285.50 L 193.07,285.50 L 190.79,285.50 L 188.69,285.50 L 186.73,285.50 L 184.89,285.50 L 183.15,285.50 L 181.51,285.50 L 179.95,285.50 L 178.46,285.50 L 177.03,285.50 L 175.67,285.50 L 173.10,285.50 L 170.72,285.50 L 168.49,285.50 L 166.40,285.50 L 164.43,285.50 L 162.57,285.50 L 160.81,285.50 L 159.13,285.50 L 157.53,285.50 L 156.00,285.50 L 154.54,285.50 L 153.14,285.50 L 151.80,285.50 L 150.51,285.50 L 149.27,285.50 L 148.07,285.50 L 146.91,285.50 L 145.80,285.50 L 144.72,285.50 L 143.68,285.50 L 142.67,285.50 L 141.69,285.50 L 140.74,285.50 L 139.82,285.50 L 138.92,285.50 L 138.05,285.50 L 137.21,285.50 L 135.59,285.50 L 134.05,285.50 L 132.59,285.50 L 131.20,285.50 L 129.87,285.50 L 128.61,285.50 L 127.39,285.50 L 126.24,285.50 L 125.13,285.50 L 124.06,285.50 L 123.04,285.50 L 122.05,285.50 L 121.11,285.50 L 120.20,285.50 L 119.32,285.50 L 118.47,285.50 L 117.65,285.50 L 116.86,285.50 L 116.09,285.50 L 115.35,285.50 L 114.64,285.50 L 113.94,285.50 L 113.27,285.50 L 112.62,285.50 L 111.98,285.50 L 111.37,285.50 L 110.77,285.50 L 110.19,285.50 L 109.63,285.50 L 109.08,285.50 L 108.55,285.50 L 108.03,285.50 L 107.52,285.50 L 107.03,285.50 L 106.55,285.50 L 106.08,285.50 L 105.62,285.50 L 105.18,285.50 L 104.74,285.50 L 104.32,285.50 L 103.50,285.50 L 102.72,285.50 L 101.97,285.50 L 101.25,285.50 L 100.57,285.50 L 99.91,285.50 L 99.28,285.50 L 98.68,285.50 L 98.09,285.50 L 97.53,285.50 L 96.99,285.50 L 96.47,285.50 L 95.97,285.50 L 95.49,285.50 L 95.02,285.50 L 94.57,285.50 L 94.14,285.50 L 93.72,285.50 L 93.31,285.50 L 92.91,285.50 L 92.53,285.50 L 92.16,285.50 L 91.80,285.50 L 91.45,285.50 L 91.11,285.50 L 90.78,285.50 L 90.46,285.50 L 89.85,285.50 L 89.27,285.50 L 88.72,285.50 L 88.19,285.50 L 87.70,285.50 L 87.22,285.50 L 86.77,285.50 L 86.34,285.50 L 85.93,285.50 L 85.54,285.50 L 85.17,285.50 L 84.81,285.50 L 84.46,285.50 L 83.82,285.50 L 83.22,285.50 L 82.66,285.50 L 82.15,285.50 L 81.67,285.50 L 81.22,285.50 L 80.80,285.50 L 80.40,285.50 L 80.03,285.50 L 79.35,285.50 L 78.75,285.50 L 78.20,285.50 L 77.71,285.50 L 77.27,285.50 L 76.49,285.50 L 75.83,285.50 L 75.26,285.50 L 74.78,285.50 L 74.35,285.50 L 73.97,285.50 L 73.64,285.50 L 73.34,285.50 L 73.07,285.50 L 72.83,285.50 L 72.61,285.50 L 72.41,285.50 L 72.23,285.50 L 72.06,285.50 L 71.90,285.50 L 71.75,285.50 L 71.62,285.50 L 71.50,285.50 L 71.38,285.50 L 71.27,285.50 L 71.17,285.50 L 71.07,285.50 L 70.98,285.50 L 70.90,285.50 L 70.82,285.50 L 70.74,285.50 L 70.67,285.50 L 70.60,285.50 L 70.53,285.50 " style="stroke:#e6194b;stroke-width:2;fill:none"/>
	<path d="M 126.58,501.79 L 128.18,499.90 L 129.74,498.04 L 131.27,496.21 L 132.76,494.42 L 134.23,492.65 L 135.66,490.91 L 137.07,489.19 L 138.44,487.50 L 139.79,485.83 L 141.12,484.19 L 142.42,482.57 L 143.69,480.97 L 146.18,477.84 L 148.57,474.78 L 150.89,471.79 L 153.13,468.87 L 155.30,466.01 L 157.40,463.21 L 159.44,460.46 L 161.42,457.77 L 163.34,455.12 L 165.21,452.51 L 167.03,449.94 L 168.81,447.42 L 170.54,444.92 L 172.22,442.47 L 173.87,440.04 L 175.47,437.64 L 177.04,435.27 L 178.58,432.92 L 180.08,430.59 L 181.54,428.29 L 182.98,426.00 L 184.39,423.73 L 185.77,421.48 L 187.12,419.24 L 188.44,417.02 L 189.74,414.80 L 191.02,412.60 L 192.27,410.40 L 193.50,408.21 L 194.71,406.02 L 195.90,403.84 L 197.07,401.66 L 198.22,399.48 L 199.35,397.30 L 200.46,395.12 L 201.56,392.93 L 202.64,390.74 L 203.70,388.54 L 204.75,386.32 L 205.78,384.10 L 206.79,381.86 L 207.80,379.61 L 208.79,377.34 L 209.76,375.05 L 210.72,372.73 L 211.67,370.38 L 212.61,368.01 L 213.53,365.60 L 214.45,363.15 L 215.35,360.65 L 216.24,358.11 L 217.12,355.51 L 217.99,352.85 L 218.85,350.11 L 219.70,347.30 L 220.55,344.38 L 221.38,341.35 L 222.20,338.19 L 223.01,334.87 L 223.82,331.35 L 224.62,327.59 L 225.01,325.59 L 225.41,323.50 L 225.80,321.30 L 226.19,318.97 L 226.57,316.48 L 226.96,313.79 L 227.34,310.84 L 227.72,307.50 L 228.10,303.59 L 228.29,301.29 L 228.48,298.59 L 228.67,295.17 L 228.76,292.90 L 228.86,289.51 L 228.88,288.03 L 228.89,286.75 L 228.90,286.10 L 229.49,285.50 L 229.99,285.50 L 231.05,285.50 L 234.59,285.50 L 238.32,285.50 L 240.98,285.50 L 243.18,285.50 L 246.81,285.50 L 249.86,285.50 L 252.55,285.50 L 254.98,285.50 L 257.22,285.50 L 259.30,285.50 L 263.13,285.50 L 266.61,285.50 L 269.82,285.50 L 272.82,285.50 L 275.64,285.50 L 278.32,285.50 L 280.88,285.50 L 283.33,285.50 L 285.68,285.50 L 287.95,285.50 L 290.14,285.50 L 292.26,285.50 L 294.32,285.50 L 298.28,285.50 L 302.03,285.50 L 305.62,285.50 L 309.06,285.50 L 312.37,285.50 L 315.56,285.50 L 318.65,285.50 L 321.63,285.50 L 324.53,285.50 L 327.34,285.50 L 330.08,285.50 L 332.75,285.50 L 335.36,285.50 L 337.90,285.50 L 340.38,285.50 L 342.82,285.50 L 345.20,285.50 L 347.53,285.50 L 349.82,285.50 L 352.06,285.50 L 354.26,285.50 L 356.43,285.50 L 358.55,285.50 L 360.64,285.50 L 362.70,285.50 L 364.72,285.50 L 366.72,285.50 L 370.61,285.50 L 374.40,285.50 L 378.08,285.50 L 381.67,285.50 L 385.17,285.50 L 388.58,285.50 L 391.91,285.50 L 395.17,285.50 L 398.36,285.50 L 401.49,285.50 L 404.55,285.50 L 407.55,285.50 L 410.50,285.50 L 413.39,285.50 L 416.23,285.50 L 419.02,285.50 L 421.76,285.50 L 424.46,285.50 L 427.12,285.50 L 429.73,285.50 L 432.30,285.50 L 434.84,285.50 L 437.34,285.50 L 439.80,285.50 L 442.23,285.50 L 444.63,285.50 L 446.99,285.50 L 449.32,285.50 L 451.62,285.50 L 453.89,285.50 L 456.13,285.50 L 458.35,285.50 L 460.54,285.50 L 462.70,285.50 L 464.83,285.50 L 466.94,285.50 L 469.02,285.50 L 471.08,285.50 L 473.12,285.50 L 475.13,285.50 L 479.09,285.50 L 482.95,285.50 L 486.73,285.50 L 490.43,285.50 L 494.04,285.50 L 497.57,285.50 L 501.02,285.50 L 504.40,285.50 L 507.69,285.50 L 510.91,285.50 L 514.06,285.50 L 517.13,285.50 L 520.13,285.50 L 523.06,285.50 L 525.92,285.50 L 528.71,285.50 L 531.42,285.50 L 534.07,285.50 L 536.65,285.50 L 539.17,285.50 L 541.62,285.50 L 544.00,285.50 L 546.33,285.50 L 548.59,285.50 L 550.79,285.50 L 552.93,285.50 L 555.01,285.50 L 559.01,285.50 L 562.79,285.50 L 566.37,285.50 L 569.75,285.50 L 572.95,285.50 L 575.99,285.50 L 578.86,285.50 L 581.58,285.50 L 584.16,285.50 L 586.61,285.50 L 588.94,285.50 L 591.15,285.50 L 593.25,285.50 L 597.16,285.50 L 600.71,285.50 L 603.95,285.50 L 606.91,285.50 L 609.64,285.50 L 612.15,285.50 L 614.46,285.50 L 616.61,285.50 L 618.60,285.50 L 622.19,285.50 L 625.32,285.50 L 628.09,285.50 L 630.54,285.50 L 632.74,285.50 L 636.49,285.50 L 639.59,285.50 L 642.19,285.50 L 644.40,285.50 L 646.30,285.50 L 647.96,285.50 L 649.42,285.50 L 650.70,285.50 L 651.85,285.50 L 652.88,285.50 L 653.81,285.50 L 654.65,285.50 L 655.42,285.50 L 656.12,285.50 L 656.77,285.50 L 657.36,285.50 L 657.91,285.50 L 658.42,285.50 L 658.89,285.50 L 659.33,285.50 L 659.75,285.50 L 660.13,285.50 L 660.49,285.50 L 660.84,285.50 L 661.16,285.50 L 661.46,285.50 L 661.74,285.50 L 662.02,285.50 L 662.27,285.50 " style="stroke:#3cb44b;stroke-width:2;fill:none"/>
	<path d="M 784.72,11.94 L 783.12,13.18 L 781.56,14.40 L 780.03,15.58 L 778.53,16.73 L 777.07,17.86 L 775.64,18.97 L 774.23,20.05 L 772.85,21.11 L 771.50,22.14 L 770.18,23.15 L 768.88,24.14 L 767.60,25.12 L 765.12,27.00 L 762.72,28.82 L 760.41,30.56 L 758.17,32.25 L 756.00,33.87 L 753.90,35.44 L 751.86,36.95 L 749.88,38.42 L 747.95,39.84 L 746.08,41.22 L 744.26,42.55 L 742.49,43.84 L 740.76,45.10 L 739.07,46.32 L 737.43,47.51 L 735.82,48.66 L 734.26,49.78 L 732.72,50.88 L 731.22,51.94 L 729.75,52.98 L 728.32,54.00 L 726.91,54.98 L 725.53,55.95 L 724.18,56.89 L 722.85,57.81 L 721.55,58.71 L 720.28,59.59 L 719.02,60.45 L 717.79,61.29 L 716.58,62.11 L 715.40,62.92 L 714.23,63.71 L 713.08,64.48 L 711.95,65.24 L 710.83,65.98 L 709.74,66.71 L 708.66,67.42 L 707.60,68.12 L 706.55,68.81 L 705.52,69.48 L 704.50,70.14 L 703.50,70.79 L 702.51,71.43 L 701.54,72.05 L 700.58,72.67 L 699.63,73.27 L 698.69,73.87 L 697.76,74.45 L 696.85,75.03 L 695.95,75.59 L 695.06,76.14 L 694.17,76.69 L 693.30,77.23 L 692.44,77.76 L 691.59,78.28 L 690.75,78.79 L 689.92,79.29 L 689.10,79.79 L 688.28,80.28 L 687.48,80.76 L 686.68,81.23 L 686.29,81.46 L 685.89,81.70 L 685.50,81.93 L 685.11,82.16 L 684.72,82.38 L 684.34,82.61 L 683.95,82.83 L 683.57,83.06 L 683.19,83.28 L 683.00,83.39 L 682.81,83.50 L 682.63,83.60 L 682.53,83.66 L 682.44,83.71 L 682.42,83.73 L 682.40,83.73 L 682.40,83.73 L 682.40,83.74 L 682.40,83.74 L 682.39,83.74 L 682.34,83.77 L 682.25,83.82 L 682.16,83.87 L 682.06,83.93 L 681.88,84.04 L 681.69,84.14 L 681.51,84.25 L 681.32,84.36 L 681.14,84.46 L 680.95,84.57 L 680.58,84.78 L 680.22,84.98 L 679.85,85.19 L 679.49,85.40 L 679.13,85.60 L 678.77,85.80 L 678.41,86.00 L 678.06,86.20 L 677.70,86.40 L 677.35,86.60 L 677.00,86.79 L 676.65,86.99 L 676.30,87.18 L 675.61,87.56 L 674.92,87.94 L 674.24,88.31 L 673.57,88.68 L 672.90,89.04 L 672.23,89.39 L 671.57,89.74 L 670.92,90.09 L 670.27,90.43 L 669.62,90.77 L 668.98,91.11 L 668.35,91.43 L 667.72,91.76 L 667.09,92.08 L 666.47,92.40 L 665.85,92.71 L 665.24,93.02 L 664.63,93.32 L 664.03,93.62 L 663.43,93.92 L 662.83,94.21 L 662.24,94.50 L 661.65,94.79 L 661.07,95.07 L 660.49,95.35 L 659.91,95.62 L 659.33,95.89 L 658.20,96.42 L 657.07,96.94 L 655.96,97.45 L 654.86,97.94 L 653.78,98.42 L 652.71,98.89 L 651.64,99.34 L 650.59,99.79 L 649.55,100.22 L 648.52,100.64 L 647.50,101.05 L 646.49,101.45 L 645.50,101.84 L 644.51,102.22 L 643.53,102.59 L 642.55,102.95 L 641.59,103.30 L 640.64,103.64 L 639.69,103.97 L 638.76,104.29 L 637.83,104.60 L 636.91,104.91 L 635.99,105.20 L 635.09,105.48 L 634.19,105.76 L 633.30,106.03 L 632.42,106.29 L 631.54,106.54 L 630.67,106.78 L 629.81,107.01 L 628.96,107.24 L 628.11,107.46 L 627.27,107.67 L 626.43,107.87 L 625.61,108.06 L 624.79,108.25 L 623.97,108.43 L 623.17,108.60 L 622.37,108.76 L 621.57,108.92 L 620.00,109.21 L 618.46,109.48 L 616.95,109.71 L 615.46,109.92 L 613.99,110.10 L 612.56,110.26 L 611.15,110.40 L 609.76,110.50 L 608.40,110.59 L 607.07,110.66 L 605.77,110.70 L 604.49,110.72 L 603.24,110.72 L 602.02,110.71 L 600.83,110.67 L 599.66,110.62 L 598.52,110.56 L 597.40,110.48 L 596.32,110.38 L 595.26,110.27 L 594.22,110.15 L 593.22,110.02 L 592.24,109.88 L 591.28,109.73 L 590.35,109.57 L 589.44,109.40 L 588.56,109.23 L 586.87,108.86 L 585.27,108.47 L 583.76,108.07 L 582.32,107.65 L 580.97,107.23 L 579.69,106.80 L 578.48,106.37 L 577.33,105.94 L 576.25,105.51 L 575.22,105.08 L 574.25,104.66 L 573.32,104.25 L 572.44,103.84 L 570.81,103.04 L 569.33,102.27 L 567.99,101.54 L 566.77,100.84 L 565.65,100.17 L 564.62,99.54 L 563.67,98.93 L 562.79,98.36 L 561.98,97.81 L 560.53,96.79 L 559.26,95.87 L 558.15,95.02 L 557.17,94.26 L 556.30,93.56 L 554.81,92.32 L 553.59,91.26 L 552.57,90.35 L 551.71,89.56 L 550.97,88.87 L 550.33,88.26 L 549.77,87.71 L 549.27,87.23 L 548.83,86.79 L 548.44,86.39 L 548.09,86.03 L 547.77,85.70 L 547.47,85.40 L 547.21,85.12 L 546.96,84.86 L 546.74,84.62 L 546.53,84.40 L 546.34,84.20 L 546.16,84.01 L 546.00,83.83 L 545.84,83.66 L 545.70,83.50 L 545.56,83.35 L 545.43,83.21 L 545.31,83.08 L 545.20,82.95 L 545.09,82.84 L 544.99,82.72 L 544.89,82.62 " style="stroke:#0082c8;stroke-width:2;fill:none"/>
	<path d="M 784.72,559.06 L 783.12,557.82 L 781.56,556.60 L 780.03,555.42 L 778.53,554.27 L 777.07,553.14 L 775.64,552.03 L 774.23,550.95 L 772.85,549.89 L 771.50,548.86 L 770.18,547.85 L 768.88,546.86 L 767.60,545.88 L 765.12,544.00 L 762.72,542.18 L 760.41,540.44 L 758.17,538.75 L 756.00,537.13 L 753.90,535.56 L 751.86,534.05 L 749.88,532.58 L 747.95,531.16 L 746.08,529.78 L 744.26,528.45 L 742.49,527.16 L 740.76,525.90 L 739.07,524.68 L 737.43,523.49 L 735.82,522.34 L 734.26,521.22 L 732.72,520.12 L 731.22,519.06 L 729.75,518.02 L 728.32,517.00 L 726.91,516.02 L 725.53,515.05 L 724.18,514.11 L 722.85,513.19 L 721.55,512.29 L 720.28,511.41 L 719.02,510.55 L 717.79,509.71 L 716.58,508.89 L 715.40,508.08 L 714.23,507.29 L 713.08,506.52 L 711.95,505.76 L 710.83,505.02 L 709.74,504.29 L 708.66,503.58 L 707.60,502.88 L 706.55,502.19 L 705.52,501.52 L 704.50,500.86 L 703.50,500.21 L 702.51,499.57 L 701.54,498.95 L 700.58,498.33 L 699.63,497.73 L 698.69,497.13 L 697.76,496.55 L 696.85,495.97 L 695.95,495.41 L 695.06,494.86 L 694.17,494.31 L 693.30,493.77 L 692.44,493.24 L 691.59,492.72 L 690.75,492.21 L 689.92,491.71 L 689.10,491.21 L 688.28,490.72 L 687.48,490.24 L 686.68,489.77 L 686.29,489.54 L 685.89,489.30 L 685.50,489.07 L 685.11,488.84 L 684.72,488.62 L 684.34,488.39 L 683.95,488.17 L 683.57,487.94 L 683.19,487.72 L 683.00,487.61 L 682.81,487.50 L 682.63,487.40 L 682.53,487.34 L 682.44,487.29 L 682.42,487.27 L 682.40,487.27 L 682.40,487.27 L 682.40,487.26 L 682.40,487.26 L 682.39,487.26 L 682.34,487.23 L 682.25,487.18 L 682.16,487.13 L 682.06,487.07 L 681.88,486.96 L 681.69,486.86 L 681.51,486.75 L 681.32,486.64 L 681.14,486.54 L 680.95,486.43 L 680.58,486.22 L 680.22,486.02 L 679.85,485.81 L 679.49,485.60 L 679.13,485.40 L 678.77,485.20 L 678.41,485.00 L 678.06,484.80 L 677.70,484.60 L 677.35,484.40 L 677.00,484.21 L 676.65,484.01 L 676.30,483.82 L 675.61,483.44 L 674.92,483.06 L 674.24,482.69 L 673.57,482.32 L 672.90,481.96 L 672.23,481.61 L 671.57,481.26 L 670.92,480.91 L 670.27,480.57 L 669.62,480.23 L 668.98,479.89 L 668.35,479.57 L 667.72,479.24 L 667.09,478.92 L 666.47,478.60 L 665.85,478.29 L 665.24,477.98 L 664.63,477.68 L 664.03,477.38 L 663.43,477.08 L 662.83,476.79 L 662.24,476.50 L 661.65,476.21 L 661.07,475.93 L 660.49,475.65 L 659.91,475.38 L 659.33,475.11 L 658.20,474.58 L 657.07,474.06 L 655.96,473.55 L 654.86,473.06 L 653.78,472.58 L 652.71,472.11 L 651.64,471.66 L 650.59,471.21 L 649.55,470.78 L 648.52,470.36 L 647.50,469.95 L 646.49,469.55 L 645.50,469.16 L 644.51,468.78 L 643.53,468.41 L 642.55,468.05 L 641.59,467.70 L 640.64,467.36 L 639.69,467.03 L 638.76,466.71 L 637.83,466.40 L 636.91,466.09 L 635.99,465.80 L 635.09,465.52 L 634.19,465.24 L 633.30,464.97 L 632.42,464.71 L 631.54,464.46 L 630.67,464.22 L 629.81,463.99 L 628.96,463.76 L 628.11,463.54 L 627.27,463.33 L 626.43,463.13 L 625.61,462.94 L 624.79,462.75 L 623.97,462.57 L 623.17,462.40 L 622.37,462.24 L 621.57,462.08 L 620.00,461.79 L 618.46,461.52 L 616.95,461.29 L 615.46,461.08 L 613.99,460.90 L 612.56,460.74 L 611.15,460.60 L 609.76,460.50 L 608.40,460.41 L 607.07,460.34 L 605.77,460.30 L 604.49,460.28 L 603.24,460.28 L 602.02,460.29 L 600.83,460.33 L 599.66,460.38 L 598.52,460.44 L 597.40,460.52 L 596.32,460.62 L 595.26,460.73 L 594.22,460.85 L 593.22,460.98 L 592.24,461.12 L 591.28,461.27 L 590.35,461.43 L 589.44,461.60 L 588.56,461.77 L 586.87,462.14 L 585.27,462.53 L 583.76,462.93 L 582.32,463.35 L 580.97,463.77 L 579.69,464.20 L 578.48,464.63 L 577.33,465.06 L 576.25,465.49 L 575.22,465.92 L 574.25,466.34 L 573.32,466.75 L 572.44,467.16 L 570.81,467.96 L 569.33,468.73 L 567.99,469.46 L 566.77,470.16 L 565.65,470.83 L 564.62,471.46 L 563.67,472.07 L 562.79,472.64 L 561.98,473.19 L 560.53,474.21 L 559.26,475.13 L 558.15,475.98 L 557.17,476.74 L 556.30,477.44 L 554.81,478.68 L 553.59,479.74 L 552.57,480.65 L 551.71,481.44 L 550.97,482.13 L 550.33,482.74 L 549.77,483.29 L 549.27,483.77 L 548.83,484.21 L 548.44,484.61 L 548.09,484.97 L 547.77,485.30 L 547.47,485.60 L 547.21,485.88 L 546.96,486.14 L 546.74,486.38 L 546.53,486.60 L 546.34,486.80 L 546.16,486.99 L 546.00,487.17 L 545.84,487.34 L 545.70,487.50 L 545.56,487.65 L 545.43,487.79 L 545.31,487.92 L 545.20,488.05 L 545.09,488.16 L 544.99,488.28 L 544.89,488.38 " style="stroke:#f58230;stroke-width:2;fill:none"/>
	<ellipse cx="70.53" cy="285.50" rx="4.00" ry="4.00" style="stroke:#000000;stroke-width:2;fill:none"/>
	<ellipse cx="662.27" cy="285.50" rx="4.00" ry="4.00" style="stroke:#000000;stroke-width:2;fill:none"/>
	<ellipse cx="544.89" cy="82.62" rx="4.00" ry="4.00" style="stroke:#000000;stroke-width:2;fill:none"/>
	<ellipse cx="544.89" cy="488.38" rx="4.00" ry="4.00" style="stroke:#000000;stroke-width:2;fill:none"/>
	<path d="M 122.58,73.21 L 122.58,65.21 L 130.58,65.21 L 130.58,73.21 Z" style="stroke:#000000;stroke-width:2;fill:none"/>
	<path d="M 122.58,505.79 L 122.58,497.79 L 130.58,497.79 L 130.58,505.79 Z" style="stroke:#000000;stroke-width:2;fill:none"/>
	<path d="M 780.72,15.94 L 780.72,7.94 L 788.72,7.94 L 788.72,15.94 Z" style="stroke:#000000;stroke-width:2;fill:none"/>
	<path d="M 780.72,563.06 L 780.72,555.06 L 788.72,555.06 L 788.72,563.06 Z" style="stroke:#000000;stroke-width:2;fill:none"/>
	<text x="329.65" y="29.73" style="stroke:none;fill:#000000;font-size:15.00px">Root Locus Plot varying T<tspan style="font-size:70%;baseline-shift:sub">I</tspan></text>
	<text x="791.50" y="562.50" style="stroke:none;fill:#000000;font-size:15.00px;text-anchor:end">Re</text>
	<text x="63.75" y="18.25" style="stroke:none;fill:#000000;font-size:15.00px">Im</text>
	<path d="M 56.25,570.00 L 799.00,570.00 L 799.00,1.00 L 56.25,1.00 Z" style="stroke:#000000;stroke-width:2;fill:none"/>
	<text x="251.01" y="476.20" style="stroke:none;fill:#000000;font-size:15.00px">T<tspan style="font-size:70%;baseline-shift:sub">I</tspan> = 0.1</text>
	<path d="M 224.51,475.20 L 224.51,467.20 L 232.51,467.20 L 232.51,475.20 Z" style="stroke:#000000;stroke-width:2;fill:none"/>
	<text x="251.01" y="498.70" style="stroke:none;fill:#000000;font-size:15.00px">T<tspan style="font-size:70%;baseline-shift:sub">I</tspan> = 10</text>
	<ellipse cx="228.51" cy="493.70" rx="4.00" ry="4.00" style="stroke:#000000;stroke-width:2;fill:none"/>
</svg>
