<?xml version="1.0" encoding="utf-8"?>
<svg class="svg" xmlns:svg="http://www.w3.org/2000/svg" xmlns="http://www.w3.org/2000/svg" width="800" height="600" viewBox="0 0 800 600">
	<text x="74.02" y="594.75" style="stroke:none;fill:#000000;fill-opacity:1.00;fill-rule:evenodd;font-size:15.0px;text-anchor:middle">-3.8</text>
	<path d="M 74.018,577.500 L 74.018,570.000 " style="stroke:#000000;stroke-opacity:1.00;stroke-width:2;stroke-linejoin:round;fill:none"/>
	<text x="105.04" y="594.75" style="stroke:none;fill:#000000;fill-opacity:1.00;fill-rule:evenodd;font-size:15.0px;text-anchor:middle">-3.6</text>
	<path d="M 105.038,577.500 L 105.038,570.000 " style="stroke:#000000;stroke-opacity:1.00;stroke-width:2;stroke-linejoin:round;fill:none"/>
	<text x="136.06" y="594.75" style="stroke:none;fill:#000000;fill-opacity:1.00;fill-rule:evenodd;font-size:15.0px;text-anchor:middle">-3.4</text>
	<path d="M 136.059,577.500 L 136.059,570.000 " style="stroke:#000000;stroke-opacity:1.00;stroke-width:2;stroke-linejoin:round;fill:none"/>
	<text x="167.08" y="594.75" style="stroke:none;fill:#000000;fill-opacity:1.00;fill-rule:evenodd;font-size:15.0px;text-anchor:middle">-3.2</text>
	<path d="M 167.079,577.500 L 167.079,570.000 " style="stroke:#000000;stroke-opacity:1.00;stroke-width:2;stroke-linejoin:round;fill:none"/>
	<text x="198.10" y="594.75" style="stroke:none;fill:#000000;fill-opacity:1.00;fill-rule:evenodd;font-size:15.0px;text-anchor:middle">-3.0</text>
	<path d="M 198.099,577.500 L 198.099,570.000 " style="stroke:#000000;stroke-opacity:1.00;stroke-width:2;stroke-linejoin:round;fill:none"/>
	<text x="229.12" y="594.75" style="stroke:none;fill:#000000;fill-opacity:1.00;fill-rule:evenodd;font-size:15.0px;text-anchor:middle">-2.8</text>
	<path d="M 229.119,577.500 L 229.119,570.000 " style="stroke:#000000;stroke-opacity:1.00;stroke-width:2;stroke-linejoin:round;fill:none"/>
	<text x="260.14" y="594.75" style="stroke:none;fill:#000000;fill-opacity:1.00;fill-rule:evenodd;font-size:15.0px;text-anchor:middle">-2.6</text>
	<path d="M 260.139,577.500 L 260.139,570.000 " style="stroke:#000000;stroke-opacity:1.00;stroke-width:2;stroke-linejoin:round;fill:none"/>
	<text x="291.16" y="594.75" style="stroke:none;fill:#000000;fill-opacity:1.00;fill-rule:evenodd;font-size:15.0px;text-anchor:middle">-2.4</text>
	<path d="M 291.159,577.500 L 291.159,570.000 " style="stroke:#000000;stroke-opacity:1.00;stroke-width:2;stroke-linejoin:round;fill:none"/>
	<text x="322.18" y="594.75" style="stroke:none;fill:#000000;fill-opacity:1.00;fill-rule:evenodd;font-size:15.0px;text-anchor:middle">-2.2</text>
	<path d="M 322.179,577.500 L 322.179,570.000 " style="stroke:#000000;stroke-opacity:1.00;stroke-width:2;stroke-linejoin:round;fill:none"/>
	<text x="353.20" y="594.75" style="stroke:none;fill:#000000;fill-opacity:1.00;fill-rule:evenodd;font-size:15.0px;text-anchor:middle">-2.0</text>
	<path d="M 353.199,577.500 L 353.199,570.000 " style="stroke:#000000;stroke-opacity:1.00;stroke-width:2;stroke-linejoin:round;fill:none"/>
	<text x="384.22" y="594.75" style="stroke:none;fill:#000000;fill-opacity:1.00;fill-rule:evenodd;font-size:15.0px;text-anchor:middle">-1.8</text>
	<path d="M 384.219,577.500 L 384.219,570.000 " style="stroke:#000000;stroke-opacity:1.00;stroke-width:2;stroke-linejoin:round;fill:none"/>
	<text x="415.24" y="594.75" style="stroke:none;fill:#000000;fill-opacity:1.00;fill-rule:evenodd;font-size:15.0px;text-anchor:middle">-1.6</text>
	<path d="M 415.239,577.500 L 415.239,570.000 " style="stroke:#000000;stroke-opacity:1.00;stroke-width:2;stroke-linejoin:round;fill:none"/>
	<text x="446.26" y="594.75" style="stroke:none;fill:#000000;fill-opacity:1.00;fill-rule:evenodd;font-size:15.0px;text-anchor:middle">-1.4</text>
	<path d="M 446.259,577.500 L 446.259,570.000 " style="stroke:#000000;stroke-opacity:1.00;stroke-width:2;stroke-linejoin:round;fill:none"/>
	<text x="477.28" y="594.75" style="stroke:none;fill:#000000;fill-opacity:1.00;fill-rule:evenodd;font-size:15.0px;text-anchor:middle">-1.2</text>
	<path d="M 477.280,577.500 L 477.280,570.000 " style="stroke:#000000;stroke-opacity:1.00;stroke-width:2;stroke-linejoin:round;fill:none"/>
	<text x="508.30" y="594.75" style="stroke:none;fill:#000000;fill-opacity:1.00;fill-rule:evenodd;font-size:15.0px;text-anchor:middle">-1.0</text>
	<path d="M 508.300,577.500 L 508.300,570.000 " style="stroke:#000000;stroke-opacity:1.00;stroke-width:2;stroke-linejoin:round;fill:none"/>
	<text x="539.32" y="594.75" style="stroke:none;fill:#000000;fill-opacity:1.00;fill-rule:evenodd;font-size:15.0px;text-anchor:middle">-0.8</text>
	<path d="M 539.320,577.500 L 539.320,570.000 " style="stroke:#000000;stroke-opacity:1.00;stroke-width:2;stroke-linejoin:round;fill:none"/>
	<text x="570.34" y="594.75" style="stroke:none;fill:#000000;fill-opacity:1.00;fill-rule:evenodd;font-size:15.0px;text-anchor:middle">-0.6</text>
	<path d="M 570.340,577.500 L 570.340,570.000 " style="stroke:#000000;stroke-opacity:1.00;stroke-width:2;stroke-linejoin:round;fill:none"/>
	<text x="601.36" y="594.75" style="stroke:none;fill:#000000;fill-opacity:1.00;fill-rule:evenodd;font-size:15.0px;text-anchor:middle">-0.4</text>
	<path d="M 601.360,577.500 L 601.360,570.000 " style="stroke:#000000;stroke-opacity:1.00;stroke-width:2;stroke-linejoin:round;fill:none"/>
	<text x="632.38" y="594.75" style="stroke:none;fill:#000000;fill-opacity:1.00;fill-rule:evenodd;font-size:15.0px;text-anchor:middle">-0.2</text>
	<path d="M 632.380,577.500 L 632.380,570.000 " style="stroke:#000000;stroke-opacity:1.00;stroke-width:2;stroke-linejoin:round;fill:none"/>
	<text x="663.40" y="594.75" style="stroke:none;fill:#000000;fill-opacity:1.00;fill-rule:evenodd;font-size:15.0px;text-anchor:middle">0.0</text>
	<path d="M 663.400,577.500 L 663.400,570.000 " style="stroke:#000000;stroke-opacity:1.00;stroke-width:2;stroke-linejoin:round;fill:none"/>
	<text x="694.42" y="594.75" style="stroke:none;fill:#000000;fill-opacity:1.00;fill-rule:evenodd;font-size:15.0px;text-anchor:middle">0.2</text>
	<path d="M 694.420,577.500 L 694.420,570.000 " style="stroke:#000000;stroke-opacity:1.00;stroke-width:2;stroke-linejoin:round;fill:none"/>
	<text x="725.44" y="594.75" style="stroke:none;fill:#000000;fill-opacity:1.00;fill-rule:evenodd;font-size:15.0px;text-anchor:middle">0.4</text>
	<path d="M 725.440,577.500 L 725.440,570.000 " style="stroke:#000000;stroke-opacity:1.00;stroke-width:2;stroke-linejoin:round;fill:none"/>
	<text x="756.46" y="594.75" style="stroke:none;fill:#000000;fill-opacity:1.00;fill-rule:evenodd;font-size:15.0px;text-anchor:middle">0.6</text>
	<path d="M 756.460,577.500 L 756.460,570.000 " style="stroke:#000000;stroke-opacity:1.00;stroke-width:2;stroke-linejoin:round;fill:none"/>
	<text x="787.48" y="594.75" style="stroke:none;fill:#000000;fill-opacity:1.00;fill-rule:evenodd;font-size:15.0px;text-anchor:middle">0.8</text>
	<path d="M 787.480,577.500 L 787.480,570.000 " style="stroke:#000000;stroke-opacity:1.00;stroke-width:2;stroke-linejoin:round;fill:none"/>
	<text x="45.00" y="556.01" style="stroke:none;fill:#000000;fill-opacity:1.00;fill-rule:evenodd;font-size:15.0px;text-anchor:end">-2.00</text>
	<path d="M 48.750,551.007 L 56.250,551.007 " style="stroke:#000000;stroke-opacity:1.00;stroke-width:2;stroke-linejoin:round;fill:none"/>
	<text x="45.00" y="523.22" style="stroke:none;fill:#000000;fill-opacity:1.00;fill-rule:evenodd;font-size:15.0px;text-anchor:end">-1.75</text>
	<path d="M 48.750,518.225 L 56.250,518.225 " style="stroke:#000000;stroke-opacity:1.00;stroke-width:2;stroke-linejoin:round;fill:none"/>
	<text x="45.00" y="490.44" style="stroke:none;fill:#000000;fill-opacity:1.00;fill-rule:evenodd;font-size:15.0px;text-anchor:end">-1.50</text>
	<path d="M 48.750,485.443 L 56.250,485.443 " style="stroke:#000000;stroke-opacity:1.00;stroke-width:2;stroke-linejoin:round;fill:none"/>
	<text x="45.00" y="457.66" style="stroke:none;fill:#000000;fill-opacity:1.00;fill-rule:evenodd;font-size:15.0px;text-anchor:end">-1.25</text>
	<path d="M 48.750,452.661 L 56.250,452.661 " style="stroke:#000000;stroke-opacity:1.00;stroke-width:2;stroke-linejoin:round;fill:none"/>
	<text x="45.00" y="424.88" style="stroke:none;fill:#000000;fill-opacity:1.00;fill-rule:evenodd;font-size:15.0px;text-anchor:end">-1.00</text>
	<path d="M 48.750,419.879 L 56.250,419.879 " style="stroke:#000000;stroke-opacity:1.00;stroke-width:2;stroke-linejoin:round;fill:none"/>
	<text x="45.00" y="392.10" style="stroke:none;fill:#000000;fill-opacity:1.00;fill-rule:evenodd;font-size:15.0px;text-anchor:end">-0.75</text>
	<path d="M 48.750,387.096 L 56.250,387.096 " style="stroke:#000000;stroke-opacity:1.00;stroke-width:2;stroke-linejoin:round;fill:none"/>
	<text x="45.00" y="359.31" style="stroke:none;fill:#000000;fill-opacity:1.00;fill-rule:evenodd;font-size:15.0px;text-anchor:end">-0.50</text>
	<path d="M 48.750,354.314 L 56.250,354.314 " style="stroke:#000000;stroke-opacity:1.00;stroke-width:2;stroke-linejoin:round;fill:none"/>
	<text x="45.00" y="326.53" style="stroke:none;fill:#000000;fill-opacity:1.00;fill-rule:evenodd;font-size:15.0px;text-anchor:end">-0.25</text>
	<path d="M 48.750,321.532 L 56.250,321.532 " style="stroke:#000000;stroke-opacity:1.00;stroke-width:2;stroke-linejoin:round;fill:none"/>
	<text x="45.00" y="293.75" style="stroke:none;fill:#000000;fill-opacity:1.00;fill-rule:evenodd;font-size:15.0px;text-anchor:end">0.00</text>
	<path d="M 48.750,288.750 L 56.250,288.750 " style="stroke:#000000;stroke-opacity:1.00;stroke-width:2;stroke-linejoin:round;fill:none"/>
	<text x="45.00" y="260.97" style="stroke:none;fill:#000000;fill-opacity:1.00;fill-rule:evenodd;font-size:15.0px;text-anchor:end">0.25</text>
	<path d="M 48.750,255.968 L 56.250,255.968 " style="stroke:#000000;stroke-opacity:1.00;stroke-width:2;stroke-linejoin:round;fill:none"/>
	<text x="45.00" y="228.19" style="stroke:none;fill:#000000;fill-opacity:1.00;fill-rule:evenodd;font-size:15.0px;text-anchor:end">0.50</text>
	<path d="M 48.750,223.186 L 56.250,223.186 " style="stroke:#000000;stroke-opacity:1.00;stroke-width:2;stroke-linejoin:round;fill:none"/>
	<text x="45.00" y="195.40" style="stroke:none;fill:#000000;fill-opacity:1.00;fill-rule:evenodd;font-size:15.0px;text-anchor:end">0.75</text>
	<path d="M 48.750,190.404 L 56.250,190.404 " style="stroke:#000000;stroke-opacity:1.00;stroke-width:2;stroke-linejoin:round;fill:none"/>
	<text x="45.00" y="162.62" style="stroke:none;fill:#000000;fill-opacity:1.00;fill-rule:evenodd;font-size:15.0px;text-anchor:end">1.00</text>
	<path d="M 48.750,157.621 L 56.250,157.621 " style="stroke:#000000;stroke-opacity:1.00;stroke-width:2;stroke-linejoin:round;fill:none"/>
	<text x="45.00" y="129.84" style="stroke:none;fill:#000000;fill-opacity:1.00;fill-rule:evenodd;font-size:15.0px;text-anchor:end">1.25</text>
	<path d="M 48.750,124.839 L 56.250,124.839 " style="stroke:#000000;stroke-opacity:1.00;stroke-width:2;stroke-linejoin:round;fill:none"/>
	<text x="45.00" y="97.06" style="stroke:none;fill:#000000;fill-opacity:1.00;fill-rule:evenodd;font-size:15.0px;text-anchor:end">1.50</text>
	<path d="M 48.750,92.057 L 56.250,92.057 " style="stroke:#000000;stroke-opacity:1.00;stroke-width:2;stroke-linejoin:round;fill:none"/>
	<text x="45.00" y="64.28" style="stroke:none;fill:#000000;fill-opacity:1.00;fill-rule:evenodd;font-size:15.0px;text-anchor:end">1.75</text>
	<path d="M 48.750,59.275 L 56.250,59.275 " style="stroke:#000000;stroke-opacity:1.00;stroke-width:2;stroke-linejoin:round;fill:none"/>
	<text x="45.00" y="31.49" style="stroke:none;fill:#000000;fill-opacity:1.00;fill-rule:evenodd;font-size:15.0px;text-anchor:end">2.00</text>
	<path d="M 48.750,26.493 L 56.250,26.493 " style="stroke:#000000;stroke-opacity:1.00;stroke-width:2;stroke-linejoin:round;fill:none"/>
	<path d="M 663.400,288.750 L 663.400,7.500 " style="stroke:#bebebe;stroke-opacity:1.00;stroke-width:1;stroke-linejoin:round;stroke-dasharray:5.00,5.00;fill:none"/>
	<text x="660.40" y="18.30" style="stroke:none;fill:#bebebe;fill-opacity:1.00;fill-rule:evenodd;font-size:12.0px;text-anchor:end">90°</text>
	<path d="M 663.400,288.750 L 574.263,7.500 " style="stroke:#bebebe;stroke-opacity:1.00;stroke-width:1;stroke-linejoin:round;stroke-dasharray:5.00,5.00;fill:none"/>
	<text x="571.26" y="18.30" style="stroke:none;fill:#bebebe;fill-opacity:1.00;fill-rule:evenodd;font-size:12.0px;text-anchor:end">75°</text>
	<path d="M 663.400,288.750 L 471.335,7.500 " style="stroke:#bebebe;stroke-opacity:1.00;stroke-width:1;stroke-linejoin:round;stroke-dasharray:5.00,5.00;fill:none"/>
	<text x="468.34" y="18.30" style="stroke:none;fill:#bebebe;fill-opacity:1.00;fill-rule:evenodd;font-size:12.0px;text-anchor:end">60°</text>
	<path d="M 663.400,288.750 L 330.734,7.500 " style="stroke:#bebebe;stroke-opacity:1.00;stroke-width:1;stroke-linejoin:round;stroke-dasharray:5.00,5.00;fill:none"/>
	<text x="327.73" y="18.30" style="stroke:none;fill:#bebebe;fill-opacity:1.00;fill-rule:evenodd;font-size:12.0px;text-anchor:end">45°</text>
	<path d="M 663.400,288.750 L 87.206,7.500 " style="stroke:#bebebe;stroke-opacity:1.00;stroke-width:1;stroke-linejoin:round;stroke-dasharray:5.00,5.00;fill:none"/>
	<text x="90.21" y="18.30" style="stroke:none;fill:#bebebe;fill-opacity:1.00;fill-rule:evenodd;font-size:12.0px">30°</text>
	<path d="M 663.400,288.750 L 56.250,151.209 " style="stroke:#bebebe;stroke-opacity:1.00;stroke-width:1;stroke-linejoin:round;stroke-dasharray:5.00,5.00;fill:none"/>
	<text x="59.25" y="148.21" style="stroke:none;fill:#bebebe;fill-opacity:1.00;fill-rule:evenodd;font-size:12.0px">15°</text>
	<path d="M 663.400,288.750 L 56.250,426.291 " style="stroke:#bebebe;stroke-opacity:1.00;stroke-width:1;stroke-linejoin:round;stroke-dasharray:5.00,5.00;fill:none"/>
	<text x="59.25" y="437.09" style="stroke:none;fill:#bebebe;fill-opacity:1.00;fill-rule:evenodd;font-size:12.0px">-15°</text>
	<path d="M 663.400,288.750 L 87.206,570.000 " style="stroke:#bebebe;stroke-opacity:1.00;stroke-width:1;stroke-linejoin:round;stroke-dasharray:5.00,5.00;fill:none"/>
	<text x="90.21" y="567.00" style="stroke:none;fill:#bebebe;fill-opacity:1.00;fill-rule:evenodd;font-size:12.0px">-30°</text>
	<path d="M 663.400,288.750 L 330.734,570.000 " style="stroke:#bebebe;stroke-opacity:1.00;stroke-width:1;stroke-linejoin:round;stroke-dasharray:5.00,5.00;fill:none"/>
	<text x="327.73" y="567.00" style="stroke:none;fill:#bebebe;fill-opacity:1.00;fill-rule:evenodd;font-size:12.0px;text-anchor:end">-45°</text>
	<path d="M 663.400,288.750 L 471.335,570.000 " style="stroke:#bebebe;stroke-opacity:1.00;stroke-width:1;stroke-linejoin:round;stroke-dasharray:5.00,5.00;fill:none"/>
	<text x="468.34" y="567.00" style="stroke:none;fill:#bebebe;fill-opacity:1.00;fill-rule:evenodd;font-size:12.0px;text-anchor:end">-60°</text>
	<path d="M 663.400,288.750 L 574.263,570.000 " style="stroke:#bebebe;stroke-opacity:1.00;stroke-width:1;stroke-linejoin:round;stroke-dasharray:5.00,5.00;fill:none"/>
	<text x="571.26" y="567.00" style="stroke:none;fill:#bebebe;fill-opacity:1.00;fill-rule:evenodd;font-size:12.0px;text-anchor:end">-75°</text>
	<path d="M 663.400,288.750 L 663.400,570.000 " style="stroke:#bebebe;stroke-opacity:1.00;stroke-width:1;stroke-linejoin:round;stroke-dasharray:5.00,5.00;fill:none"/>
	<text x="660.40" y="567.00" style="stroke:none;fill:#bebebe;fill-opacity:1.00;fill-rule:evenodd;font-size:12.0px;text-anchor:end">-90°</text>
	<path d="M 176.943,7.500 L 174.780,10.111 L 163.576,24.697 L 152.981,39.606 L 143.007,54.818 L 133.667,70.315 L 124.973,86.078 L 116.935,102.088 L 109.562,118.325 L 102.865,134.770 L 96.850,151.403 L 91.526,168.203 L 86.898,185.150 L 82.972,202.223 L 79.754,219.402 L 77.247,236.665 L 75.454,253.991 L 74.377,271.360 L 74.018,288.750 L 74.377,306.140 L 75.454,323.509 L 77.247,340.835 L 79.754,358.098 L 82.972,375.277 L 86.898,392.350 L 91.526,409.297 L 96.850,426.097 L 102.865,442.730 L 109.562,459.175 L 116.935,475.412 L 124.973,491.422 L 133.667,507.185 L 143.007,522.682 L 152.981,537.894 L 163.576,552.803 L 174.780,567.389 L 176.943,570.000 " style="stroke:#bebebe;stroke-opacity:1.00;stroke-width:1;stroke-linejoin:round;stroke-dasharray:5.00,5.00;fill:none"/>
	<path d="M 215.044,7.500 L 211.676,11.278 L 200.497,24.776 L 189.883,38.595 L 179.845,52.719 L 170.396,67.130 L 161.548,81.811 L 153.311,96.745 L 145.696,111.912 L 138.712,127.295 L 132.367,142.875 L 126.668,158.632 L 121.624,174.548 L 117.240,190.603 L 113.521,206.777 L 110.472,223.052 L 108.097,239.406 L 106.399,255.821 L 105.379,272.275 L 105.038,288.750 L 105.379,305.225 L 106.399,321.679 L 108.097,338.094 L 110.472,354.448 L 113.521,370.723 L 117.240,386.897 L 121.624,402.952 L 126.668,418.868 L 132.367,434.625 L 138.712,450.205 L 145.696,465.588 L 153.311,480.755 L 161.548,495.689 L 170.396,510.370 L 179.845,524.781 L 189.883,538.905 L 200.497,552.724 L 211.676,566.222 L 215.044,570.000 " style="stroke:#bebebe;stroke-opacity:1.00;stroke-width:1;stroke-linejoin:round;stroke-dasharray:5.00,5.00;fill:none"/>
	<path d="M 254.329,7.500 L 247.849,14.265 L 236.772,26.694 L 226.214,39.441 L 216.189,52.492 L 206.709,65.831 L 197.785,79.442 L 189.429,93.308 L 181.650,107.412 L 174.458,121.736 L 167.861,136.265 L 161.868,150.979 L 156.487,165.861 L 151.723,180.892 L 147.582,196.055 L 144.070,211.331 L 141.191,226.701 L 138.947,242.147 L 137.343,257.650 L 136.380,273.191 L 136.059,288.750 L 136.380,304.309 L 137.343,319.850 L 138.947,335.353 L 141.191,350.799 L 144.070,366.169 L 147.582,381.445 L 151.723,396.608 L 156.487,411.639 L 161.868,426.521 L 167.861,441.235 L 174.458,455.764 L 181.650,470.088 L 189.429,484.192 L 197.785,498.058 L 206.709,511.669 L 216.189,525.008 L 226.214,538.059 L 236.772,550.806 L 247.849,563.235 L 254.329,570.000 " style="stroke:#bebebe;stroke-opacity:1.00;stroke-width:1;stroke-linejoin:round;stroke-dasharray:5.00,5.00;fill:none"/>
	<path d="M 295.085,7.500 L 294.561,7.975 L 283.196,19.029 L 272.293,30.411 L 261.868,42.109 L 251.931,54.106 L 242.496,66.390 L 233.573,78.944 L 225.174,91.754 L 217.309,104.804 L 209.988,118.079 L 203.219,131.561 L 197.010,145.234 L 191.370,159.083 L 186.305,173.089 L 181.821,187.237 L 177.924,201.508 L 174.619,215.885 L 171.909,230.351 L 169.798,244.889 L 168.288,259.479 L 167.381,274.106 L 167.079,288.750 L 167.381,303.394 L 168.288,318.021 L 169.798,332.611 L 171.909,347.149 L 174.619,361.615 L 177.924,375.992 L 181.821,390.263 L 186.305,404.411 L 191.370,418.417 L 197.010,432.266 L 203.219,445.939 L 209.988,459.421 L 217.309,472.696 L 225.174,485.746 L 233.573,498.556 L 242.496,511.110 L 251.931,523.394 L 261.868,535.391 L 272.293,547.089 L 283.196,558.471 L 294.561,569.525 L 295.085,570.000 " style="stroke:#bebebe;stroke-opacity:1.00;stroke-width:1;stroke-linejoin:round;stroke-dasharray:5.00,5.00;fill:none"/>
	<path d="M 338.131,7.500 L 328.690,15.481 L 317.614,25.524 L 306.959,35.887 L 296.738,46.558 L 286.963,57.524 L 277.648,68.772 L 268.802,80.287 L 260.437,92.057 L 252.563,104.067 L 245.190,116.301 L 238.326,128.746 L 231.980,141.385 L 226.160,154.204 L 220.872,167.187 L 216.124,180.318 L 211.920,193.581 L 208.267,206.961 L 205.168,220.439 L 202.627,234.001 L 200.648,247.630 L 199.232,261.309 L 198.382,275.021 L 198.099,288.750 L 198.382,302.479 L 199.232,316.191 L 200.648,329.870 L 202.627,343.499 L 205.168,357.061 L 208.267,370.539 L 211.920,383.919 L 216.124,397.182 L 220.872,410.313 L 226.160,423.296 L 231.980,436.115 L 238.326,448.754 L 245.190,461.199 L 252.563,473.433 L 260.437,485.443 L 268.802,497.213 L 277.648,508.728 L 286.963,519.976 L 296.738,530.942 L 306.959,541.613 L 317.614,551.976 L 328.690,562.019 L 338.131,570.000 " style="stroke:#bebebe;stroke-opacity:1.00;stroke-width:1;stroke-linejoin:round;stroke-dasharray:5.00,5.00;fill:none"/>
	<path d="M 384.235,7.500 L 372.809,15.897 L 361.723,24.637 L 351.004,33.699 L 340.666,43.072 L 330.721,52.744 L 321.182,62.704 L 312.059,72.939 L 303.365,83.437 L 295.109,94.185 L 287.301,105.170 L 279.952,116.379 L 273.071,127.798 L 266.664,139.413 L 260.741,151.209 L 255.309,163.174 L 250.374,175.291 L 245.942,187.547 L 242.019,199.926 L 238.609,212.413 L 235.717,224.993 L 233.345,237.651 L 231.498,250.371 L 230.177,263.138 L 229.383,275.936 L 229.119,288.750 L 229.383,301.564 L 230.177,314.362 L 231.498,327.129 L 233.345,339.849 L 235.717,352.507 L 238.609,365.087 L 242.019,377.574 L 245.942,389.953 L 250.374,402.209 L 255.309,414.326 L 260.741,426.291 L 266.664,438.087 L 273.071,449.702 L 279.952,461.121 L 287.301,472.330 L 295.109,483.315 L 303.365,494.063 L 312.059,504.561 L 321.182,514.796 L 330.721,524.756 L 340.666,534.428 L 351.004,543.801 L 361.723,552.863 L 372.809,561.603 L 384.235,570.000 " style="stroke:#bebebe;stroke-opacity:1.00;stroke-width:1;stroke-linejoin:round;stroke-dasharray:5.00,5.00;fill:none"/>
	<path d="M 435.539,7.500 L 426.369,12.928 L 415.128,20.090 L 404.189,27.579 L 393.566,35.386 L 383.271,43.502 L 373.318,51.917 L 363.719,60.620 L 354.484,69.602 L 345.626,78.850 L 337.155,88.354 L 329.081,98.102 L 321.415,108.082 L 314.166,118.283 L 307.342,128.691 L 300.951,139.294 L 295.003,150.080 L 289.503,161.034 L 284.459,172.144 L 279.876,183.396 L 275.761,194.776 L 272.117,206.271 L 268.951,217.866 L 266.265,229.547 L 264.063,241.301 L 262.348,253.113 L 261.121,264.968 L 260.385,276.852 L 260.139,288.750 L 260.385,300.648 L 261.121,312.532 L 262.348,324.387 L 264.063,336.199 L 266.265,347.953 L 268.951,359.634 L 272.117,371.229 L 275.761,382.724 L 279.876,394.104 L 284.459,405.356 L 289.503,416.466 L 295.003,427.420 L 300.951,438.206 L 307.342,448.809 L 314.166,459.217 L 321.415,469.418 L 329.081,479.398 L 337.155,489.146 L 345.626,498.650 L 354.484,507.898 L 363.719,516.880 L 373.318,525.583 L 383.271,533.998 L 393.566,542.114 L 404.189,549.921 L 415.128,557.410 L 426.369,564.572 L 435.539,570.000 " style="stroke:#bebebe;stroke-opacity:1.00;stroke-width:1;stroke-linejoin:round;stroke-dasharray:5.00,5.00;fill:none"/>
	<path d="M 496.487,7.500 L 488.643,10.879 L 477.280,16.204 L 466.142,21.862 L 455.245,27.845 L 444.602,34.145 L 434.226,40.756 L 424.128,47.669 L 414.322,54.876 L 404.820,62.368 L 395.632,70.135 L 386.771,78.169 L 378.247,86.459 L 370.070,94.996 L 362.251,103.769 L 354.798,112.767 L 347.722,121.980 L 341.030,131.396 L 334.731,141.003 L 328.832,150.791 L 323.341,160.747 L 318.264,170.858 L 313.608,181.113 L 309.378,191.500 L 305.579,202.005 L 302.216,212.615 L 299.293,223.318 L 296.814,234.101 L 294.782,244.951 L 293.198,255.854 L 292.066,266.797 L 291.386,277.767 L 291.159,288.750 L 291.386,299.733 L 292.066,310.703 L 293.198,321.646 L 294.782,332.549 L 296.814,343.399 L 299.293,354.182 L 302.216,364.885 L 305.579,375.495 L 309.378,386.000 L 313.608,396.387 L 318.264,406.642 L 323.341,416.753 L 328.832,426.709 L 334.731,436.497 L 341.030,446.104 L 347.722,455.520 L 354.798,464.733 L 362.251,473.731 L 370.070,482.504 L 378.247,491.041 L 386.771,499.331 L 395.632,507.365 L 404.820,515.132 L 414.322,522.624 L 424.128,529.831 L 434.226,536.744 L 444.602,543.355 L 455.245,549.655 L 466.142,555.638 L 477.280,561.296 L 488.643,566.621 L 496.487,570.000 " style="stroke:#bebebe;stroke-opacity:1.00;stroke-width:1;stroke-linejoin:round;stroke-dasharray:5.00,5.00;fill:none"/>
	<path d="M 587.698,7.500 L 580.851,8.836 L 569.347,11.443 L 557.957,14.387 L 546.696,17.665 L 535.576,21.273 L 524.613,25.208 L 513.819,29.463 L 503.207,34.035 L 492.790,38.917 L 482.580,44.103 L 472.592,49.587 L 462.835,55.363 L 453.323,61.422 L 444.067,67.759 L 435.079,74.365 L 426.368,81.233 L 417.946,88.353 L 409.823,95.717 L 402.010,103.317 L 394.514,111.142 L 387.346,119.184 L 380.515,127.432 L 374.028,135.877 L 367.894,144.509 L 362.120,153.316 L 356.713,162.287 L 351.679,171.413 L 347.025,180.682 L 342.757,190.083 L 338.880,199.604 L 335.397,209.233 L 332.315,218.960 L 329.636,228.771 L 327.363,238.655 L 325.500,248.601 L 324.048,258.595 L 323.010,268.626 L 322.387,278.682 L 322.179,288.750 L 322.387,298.818 L 323.010,308.874 L 324.048,318.905 L 325.500,328.899 L 327.363,338.845 L 329.636,348.729 L 332.315,358.540 L 335.397,368.267 L 338.880,377.896 L 342.757,387.417 L 347.025,396.818 L 351.679,406.087 L 356.713,415.213 L 362.120,424.184 L 367.894,432.991 L 374.028,441.623 L 380.515,450.068 L 387.346,458.316 L 394.514,466.358 L 402.010,474.183 L 409.823,481.783 L 417.946,489.147 L 426.368,496.267 L 435.079,503.135 L 444.067,509.741 L 453.323,516.078 L 462.835,522.137 L 472.592,527.913 L 482.580,533.397 L 492.790,538.583 L 503.207,543.465 L 513.819,548.037 L 524.613,552.292 L 535.576,556.227 L 546.696,559.835 L 557.957,563.113 L 569.347,566.057 L 580.851,568.664 L 587.698,570.000 " style="stroke:#bebebe;stroke-opacity:1.00;stroke-width:1;stroke-linejoin:round;stroke-dasharray:5.00,5.00;fill:none"/>
	<path d="M 663.400,26.493 L 652.574,26.653 L 641.762,27.132 L 630.975,27.930 L 620.228,29.045 L 609.534,30.477 L 598.906,32.224 L 588.356,34.283 L 577.897,36.652 L 567.543,39.329 L 557.305,42.309 L 547.197,45.589 L 537.230,49.166 L 527.417,53.035 L 517.770,57.191 L 508.300,61.629 L 499.019,66.343 L 489.938,71.329 L 481.069,76.580 L 472.421,82.089 L 464.007,87.849 L 455.835,93.855 L 447.916,100.098 L 440.260,106.571 L 432.876,113.266 L 425.772,120.174 L 418.958,127.288 L 412.442,134.599 L 406.232,142.098 L 400.335,149.775 L 394.758,157.621 L 389.509,165.628 L 384.593,173.784 L 380.017,182.080 L 375.787,190.507 L 371.907,199.053 L 368.381,207.708 L 365.216,216.462 L 362.413,225.304 L 359.978,234.224 L 357.912,243.210 L 356.218,252.251 L 354.898,261.337 L 353.955,270.456 L 353.388,279.597 L 353.199,288.750 L 353.388,297.903 L 353.955,307.044 L 354.898,316.163 L 356.218,325.249 L 357.912,334.290 L 359.978,343.276 L 362.413,352.196 L 365.216,361.038 L 368.381,369.792 L 371.907,378.447 L 375.787,386.993 L 380.017,395.420 L 384.593,403.716 L 389.509,411.872 L 394.758,419.879 L 400.335,427.725 L 406.232,435.402 L 412.442,442.901 L 418.958,450.212 L 425.772,457.326 L 432.876,464.234 L 440.260,470.929 L 447.916,477.402 L 455.835,483.645 L 464.007,489.651 L 472.421,495.411 L 481.069,500.920 L 489.938,506.171 L 499.019,511.157 L 508.300,515.871 L 517.770,520.309 L 527.417,524.465 L 537.230,528.334 L 547.197,531.911 L 557.305,535.191 L 567.543,538.171 L 577.897,540.848 L 588.356,543.217 L 598.906,545.276 L 609.534,547.023 L 620.228,548.455 L 630.975,549.570 L 641.762,550.368 L 652.574,550.847 L 663.400,551.007 " style="stroke:#bebebe;stroke-opacity:1.00;stroke-width:1;stroke-linejoin:round;stroke-dasharray:5.00,5.00;fill:none"/>
	<text x="666.40" y="30.49" style="stroke:none;fill:#bebebe;fill-opacity:1.00;fill-rule:evenodd;font-size:12.0px">-2.0</text>
	<path d="M 663.400,52.719 L 653.657,52.862 L 643.925,53.294 L 634.218,54.012 L 624.546,55.016 L 614.921,56.304 L 605.355,57.876 L 595.860,59.730 L 586.447,61.862 L 577.128,64.271 L 567.915,66.953 L 558.817,69.906 L 549.847,73.125 L 541.015,76.606 L 532.333,80.347 L 523.810,84.341 L 515.457,88.584 L 507.284,93.071 L 499.302,97.797 L 491.519,102.755 L 483.946,107.939 L 476.592,113.344 L 469.465,118.963 L 462.574,124.789 L 455.928,130.814 L 449.535,137.032 L 443.403,143.435 L 437.538,150.014 L 431.949,156.763 L 426.641,163.672 L 421.622,170.734 L 416.898,177.940 L 412.474,185.281 L 408.356,192.747 L 404.548,200.331 L 401.056,208.023 L 397.883,215.812 L 395.034,223.691 L 392.512,231.649 L 390.320,239.676 L 388.461,247.764 L 386.936,255.901 L 385.749,264.078 L 384.899,272.285 L 384.389,280.513 L 384.219,288.750 L 384.389,296.987 L 384.899,305.215 L 385.749,313.422 L 386.936,321.599 L 388.461,329.736 L 390.320,337.824 L 392.512,345.851 L 395.034,353.809 L 397.883,361.688 L 401.056,369.477 L 404.548,377.169 L 408.356,384.753 L 412.474,392.219 L 416.898,399.560 L 421.622,406.766 L 426.641,413.828 L 431.949,420.737 L 437.538,427.486 L 443.403,434.065 L 449.535,440.468 L 455.928,446.686 L 462.574,452.711 L 469.465,458.537 L 476.592,464.156 L 483.946,469.561 L 491.519,474.745 L 499.302,479.703 L 507.284,484.429 L 515.457,488.916 L 523.810,493.159 L 532.333,497.153 L 541.015,500.894 L 549.847,504.375 L 558.817,507.594 L 567.915,510.547 L 577.128,513.229 L 586.447,515.638 L 595.860,517.770 L 605.355,519.624 L 614.921,521.196 L 624.546,522.484 L 634.218,523.488 L 643.925,524.206 L 653.657,524.638 L 663.400,524.781 " style="stroke:#bebebe;stroke-opacity:1.00;stroke-width:1;stroke-linejoin:round;stroke-dasharray:5.00,5.00;fill:none"/>
	<text x="666.40" y="56.72" style="stroke:none;fill:#bebebe;fill-opacity:1.00;fill-rule:evenodd;font-size:12.0px">-1.8</text>
	<path d="M 663.400,78.944 L 654.739,79.072 L 646.089,79.455 L 637.460,80.094 L 628.863,80.986 L 620.307,82.132 L 611.805,83.529 L 603.365,85.176 L 594.998,87.072 L 586.714,89.213 L 578.524,91.597 L 570.437,94.222 L 562.464,97.083 L 554.614,100.178 L 546.896,103.503 L 539.320,107.053 L 531.895,110.825 L 524.630,114.813 L 517.535,119.014 L 510.617,123.421 L 503.885,128.030 L 497.348,132.834 L 491.013,137.828 L 484.888,143.007 L 478.981,148.363 L 473.298,153.890 L 467.847,159.581 L 462.634,165.429 L 457.666,171.428 L 452.948,177.570 L 448.487,183.847 L 444.287,190.252 L 440.355,196.777 L 436.694,203.414 L 433.309,210.155 L 430.205,216.992 L 427.385,223.916 L 424.853,230.920 L 422.611,237.993 L 420.662,245.129 L 419.009,252.318 L 417.654,259.551 L 416.599,266.819 L 415.844,274.115 L 415.391,281.428 L 415.239,288.750 L 415.391,296.072 L 415.844,303.385 L 416.599,310.681 L 417.654,317.949 L 419.009,325.182 L 420.662,332.371 L 422.611,339.507 L 424.853,346.580 L 427.385,353.584 L 430.205,360.508 L 433.309,367.345 L 436.694,374.086 L 440.355,380.723 L 444.287,387.248 L 448.487,393.653 L 452.948,399.930 L 457.666,406.072 L 462.634,412.071 L 467.847,417.919 L 473.298,423.610 L 478.981,429.137 L 484.888,434.493 L 491.013,439.672 L 497.348,444.666 L 503.885,449.470 L 510.617,454.079 L 517.535,458.486 L 524.630,462.687 L 531.895,466.675 L 539.320,470.447 L 546.896,473.997 L 554.614,477.322 L 562.464,480.417 L 570.437,483.278 L 578.524,485.903 L 586.714,488.287 L 594.998,490.428 L 603.365,492.324 L 611.805,493.971 L 620.307,495.368 L 628.863,496.514 L 637.460,497.406 L 646.089,498.045 L 654.739,498.428 L 663.400,498.556 " style="stroke:#bebebe;stroke-opacity:1.00;stroke-width:1;stroke-linejoin:round;stroke-dasharray:5.00,5.00;fill:none"/>
	<text x="666.40" y="82.94" style="stroke:none;fill:#bebebe;fill-opacity:1.00;fill-rule:evenodd;font-size:12.0px">-1.6</text>
	<path d="M 663.400,105.170 L 655.822,105.282 L 648.253,105.617 L 640.703,106.176 L 633.180,106.957 L 625.694,107.959 L 618.254,109.182 L 610.869,110.623 L 603.548,112.282 L 596.300,114.155 L 589.134,116.241 L 582.058,118.538 L 575.081,121.041 L 568.212,123.749 L 561.459,126.659 L 554.830,129.765 L 548.333,133.065 L 541.977,136.555 L 535.768,140.231 L 529.715,144.087 L 523.825,148.120 L 518.105,152.323 L 512.562,156.694 L 507.202,161.225 L 502.033,165.911 L 497.061,170.747 L 492.291,175.727 L 487.730,180.844 L 483.382,186.093 L 479.254,191.467 L 475.351,196.960 L 471.676,202.564 L 468.235,208.274 L 465.032,214.081 L 462.071,219.980 L 459.355,225.962 L 456.887,232.021 L 454.671,238.149 L 452.709,244.338 L 451.004,250.582 L 449.558,256.872 L 448.373,263.201 L 447.449,269.561 L 446.788,275.944 L 446.392,282.343 L 446.259,288.750 L 446.392,295.157 L 446.788,301.556 L 447.449,307.939 L 448.373,314.299 L 449.558,320.628 L 451.004,326.918 L 452.709,333.162 L 454.671,339.351 L 456.887,345.479 L 459.355,351.538 L 462.071,357.520 L 465.032,363.419 L 468.235,369.226 L 471.676,374.936 L 475.351,380.540 L 479.254,386.033 L 483.382,391.407 L 487.730,396.656 L 492.291,401.773 L 497.061,406.753 L 502.033,411.589 L 507.202,416.275 L 512.562,420.806 L 518.105,425.177 L 523.825,429.380 L 529.715,433.413 L 535.768,437.269 L 541.977,440.945 L 548.333,444.435 L 554.830,447.735 L 561.459,450.841 L 568.212,453.751 L 575.081,456.459 L 582.058,458.962 L 589.134,461.259 L 596.300,463.345 L 603.548,465.218 L 610.869,466.877 L 618.254,468.318 L 625.694,469.541 L 633.180,470.543 L 640.703,471.324 L 648.253,471.883 L 655.822,472.218 L 663.400,472.330 " style="stroke:#bebebe;stroke-opacity:1.00;stroke-width:1;stroke-linejoin:round;stroke-dasharray:5.00,5.00;fill:none"/>
	<text x="666.40" y="109.17" style="stroke:none;fill:#bebebe;fill-opacity:1.00;fill-rule:evenodd;font-size:12.0px">-1.4</text>
	<path d="M 663.400,131.396 L 656.905,131.492 L 650.417,131.779 L 643.945,132.258 L 637.497,132.927 L 631.081,133.786 L 624.703,134.834 L 618.373,136.070 L 612.098,137.491 L 605.886,139.097 L 599.743,140.885 L 593.678,142.854 L 587.698,145.000 L 581.810,147.321 L 576.022,149.814 L 570.340,152.477 L 564.771,155.306 L 559.323,158.297 L 554.001,161.448 L 548.813,164.753 L 543.764,168.210 L 538.861,171.813 L 534.110,175.559 L 529.516,179.443 L 525.086,183.459 L 520.823,187.605 L 516.735,191.873 L 512.825,196.259 L 509.099,200.759 L 505.561,205.365 L 502.215,210.073 L 499.065,214.877 L 496.116,219.770 L 493.370,224.748 L 490.832,229.804 L 488.504,234.932 L 486.389,240.125 L 484.490,245.377 L 482.808,250.683 L 481.347,256.034 L 480.107,261.426 L 479.091,266.851 L 478.299,272.302 L 477.733,277.774 L 477.393,283.258 L 477.280,288.750 L 477.393,294.242 L 477.733,299.726 L 478.299,305.198 L 479.091,310.649 L 480.107,316.074 L 481.347,321.466 L 482.808,326.817 L 484.490,332.123 L 486.389,337.375 L 488.504,342.568 L 490.832,347.696 L 493.370,352.752 L 496.116,357.730 L 499.065,362.623 L 502.215,367.427 L 505.561,372.135 L 509.099,376.741 L 512.825,381.241 L 516.735,385.627 L 520.823,389.895 L 525.086,394.041 L 529.516,398.057 L 534.110,401.941 L 538.861,405.687 L 543.764,409.290 L 548.813,412.747 L 554.001,416.052 L 559.323,419.203 L 564.771,422.194 L 570.340,425.023 L 576.022,427.686 L 581.810,430.179 L 587.698,432.500 L 593.678,434.646 L 599.743,436.615 L 605.886,438.403 L 612.098,440.009 L 618.373,441.430 L 624.703,442.666 L 631.081,443.714 L 637.497,444.573 L 643.945,445.242 L 650.417,445.721 L 656.905,446.008 L 663.400,446.104 " style="stroke:#bebebe;stroke-opacity:1.00;stroke-width:1;stroke-linejoin:round;stroke-dasharray:5.00,5.00;fill:none"/>
	<text x="666.40" y="135.40" style="stroke:none;fill:#bebebe;fill-opacity:1.00;fill-rule:evenodd;font-size:12.0px">-1.2</text>
	<path d="M 663.400,157.621 L 657.987,157.701 L 652.581,157.941 L 647.188,158.340 L 641.814,158.898 L 636.467,159.614 L 631.153,160.487 L 625.878,161.517 L 620.649,162.701 L 615.471,164.039 L 610.353,165.529 L 605.298,167.170 L 600.315,168.958 L 595.409,170.892 L 590.585,172.970 L 585.850,175.189 L 581.209,177.547 L 576.669,180.040 L 572.234,182.665 L 567.911,185.419 L 563.703,188.300 L 559.618,191.302 L 555.658,194.424 L 551.830,197.660 L 548.138,201.008 L 544.586,204.462 L 541.179,208.019 L 537.921,211.675 L 534.816,215.424 L 531.867,219.262 L 529.079,223.186 L 526.455,227.189 L 523.997,231.267 L 521.709,235.415 L 519.593,239.628 L 517.653,243.901 L 515.891,248.229 L 514.308,252.606 L 512.907,257.027 L 511.689,261.487 L 510.656,265.980 L 509.809,270.500 L 509.149,275.043 L 508.677,279.603 L 508.394,284.174 L 508.300,288.750 L 508.394,293.326 L 508.677,297.897 L 509.149,302.457 L 509.809,307.000 L 510.656,311.520 L 511.689,316.013 L 512.907,320.473 L 514.308,324.894 L 515.891,329.271 L 517.653,333.599 L 519.593,337.872 L 521.709,342.085 L 523.997,346.233 L 526.455,350.311 L 529.079,354.314 L 531.867,358.238 L 534.816,362.076 L 537.921,365.825 L 541.179,369.481 L 544.586,373.038 L 548.138,376.492 L 551.830,379.840 L 555.658,383.076 L 559.618,386.198 L 563.703,389.200 L 567.911,392.081 L 572.234,394.835 L 576.669,397.460 L 581.209,399.953 L 585.850,402.311 L 590.585,404.530 L 595.409,406.608 L 600.315,408.542 L 605.298,410.330 L 610.353,411.971 L 615.471,413.461 L 620.649,414.799 L 625.878,415.983 L 631.153,417.013 L 636.467,417.886 L 641.814,418.602 L 647.188,419.160 L 652.581,419.559 L 657.987,419.799 L 663.400,419.879 " style="stroke:#bebebe;stroke-opacity:1.00;stroke-width:1;stroke-linejoin:round;stroke-dasharray:5.00,5.00;fill:none"/>
	<text x="666.40" y="161.62" style="stroke:none;fill:#bebebe;fill-opacity:1.00;fill-rule:evenodd;font-size:12.0px">-1.0</text>
	<path d="M 663.400,183.847 L 659.070,183.911 L 654.745,184.103 L 650.430,184.422 L 646.131,184.868 L 641.854,185.441 L 637.602,186.140 L 633.382,186.963 L 629.199,187.911 L 625.057,188.981 L 620.962,190.174 L 616.919,191.486 L 612.932,192.916 L 609.007,194.464 L 605.148,196.126 L 601.360,197.901 L 597.648,199.787 L 594.015,201.782 L 590.467,203.882 L 587.009,206.085 L 583.643,208.390 L 580.374,210.792 L 577.207,213.289 L 574.144,215.878 L 571.190,218.556 L 568.349,221.320 L 565.623,224.165 L 563.017,227.090 L 560.533,230.089 L 558.174,233.160 L 555.943,236.299 L 553.844,239.501 L 551.877,242.764 L 550.047,246.082 L 548.355,249.453 L 546.803,252.871 L 545.393,256.333 L 544.126,259.835 L 543.005,263.372 L 542.031,266.939 L 541.205,270.534 L 540.527,274.150 L 539.999,277.785 L 539.622,281.432 L 539.395,285.089 L 539.320,288.750 L 539.395,292.411 L 539.622,296.068 L 539.999,299.715 L 540.527,303.350 L 541.205,306.966 L 542.031,310.561 L 543.005,314.128 L 544.126,317.665 L 545.393,321.167 L 546.803,324.629 L 548.355,328.047 L 550.047,331.418 L 551.877,334.736 L 553.844,337.999 L 555.943,341.201 L 558.174,344.340 L 560.533,347.411 L 563.017,350.410 L 565.623,353.335 L 568.349,356.180 L 571.190,358.944 L 574.144,361.622 L 577.207,364.211 L 580.374,366.708 L 583.643,369.110 L 587.009,371.415 L 590.467,373.618 L 594.015,375.718 L 597.648,377.713 L 601.360,379.599 L 605.148,381.374 L 609.007,383.036 L 612.932,384.584 L 616.919,386.014 L 620.962,387.326 L 625.057,388.519 L 629.199,389.589 L 633.382,390.537 L 637.602,391.360 L 641.854,392.059 L 646.131,392.632 L 650.430,393.078 L 654.745,393.397 L 659.070,393.589 L 663.400,393.653 " style="stroke:#bebebe;stroke-opacity:1.00;stroke-width:1;stroke-linejoin:round;stroke-dasharray:5.00,5.00;fill:none"/>
	<text x="666.40" y="187.85" style="stroke:none;fill:#bebebe;fill-opacity:1.00;fill-rule:evenodd;font-size:12.0px">-0.8</text>
	<path d="M 663.400,210.073 L 660.152,210.121 L 656.909,210.265 L 653.673,210.504 L 650.449,210.839 L 647.240,211.268 L 644.052,211.792 L 640.887,212.410 L 637.749,213.121 L 634.643,213.924 L 631.572,214.818 L 628.539,215.802 L 625.549,216.875 L 622.605,218.035 L 619.711,219.282 L 616.870,220.614 L 614.086,222.028 L 611.361,223.524 L 608.701,225.099 L 606.106,226.752 L 603.582,228.480 L 601.131,230.281 L 598.755,232.154 L 596.458,234.096 L 594.243,236.105 L 592.112,238.177 L 590.068,240.312 L 588.113,242.505 L 586.250,244.754 L 584.480,247.057 L 582.808,249.411 L 581.233,251.813 L 579.758,254.260 L 578.385,256.749 L 577.116,259.277 L 575.952,261.841 L 574.894,264.437 L 573.945,267.064 L 573.104,269.716 L 572.373,272.392 L 571.754,275.088 L 571.245,277.800 L 570.850,280.526 L 570.566,283.262 L 570.396,286.004 L 570.340,288.750 L 570.396,291.496 L 570.566,294.238 L 570.850,296.974 L 571.245,299.700 L 571.754,302.412 L 572.373,305.108 L 573.104,307.784 L 573.945,310.436 L 574.894,313.063 L 575.952,315.659 L 577.116,318.223 L 578.385,320.751 L 579.758,323.240 L 581.233,325.687 L 582.808,328.089 L 584.480,330.443 L 586.250,332.746 L 588.113,334.995 L 590.068,337.188 L 592.112,339.323 L 594.243,341.395 L 596.458,343.404 L 598.755,345.346 L 601.131,347.219 L 603.582,349.020 L 606.106,350.748 L 608.701,352.401 L 611.361,353.976 L 614.086,355.472 L 616.870,356.886 L 619.711,358.218 L 622.605,359.465 L 625.549,360.625 L 628.539,361.698 L 631.572,362.682 L 634.643,363.576 L 637.749,364.379 L 640.887,365.090 L 644.052,365.708 L 647.240,366.232 L 650.449,366.661 L 653.673,366.996 L 656.909,367.235 L 660.152,367.379 L 663.400,367.427 " style="stroke:#bebebe;stroke-opacity:1.00;stroke-width:1;stroke-linejoin:round;stroke-dasharray:5.00,5.00;fill:none"/>
	<text x="666.40" y="214.07" style="stroke:none;fill:#bebebe;fill-opacity:1.00;fill-rule:evenodd;font-size:12.0px">-0.6</text>
	<path d="M 663.400,236.299 L 661.235,236.331 L 659.072,236.426 L 656.915,236.586 L 654.766,236.809 L 652.627,237.095 L 650.501,237.445 L 648.391,237.857 L 646.299,238.330 L 644.229,238.866 L 642.181,239.462 L 640.159,240.118 L 638.166,240.833 L 636.203,241.607 L 634.274,242.438 L 632.380,243.326 L 630.524,244.269 L 628.708,245.266 L 626.934,246.316 L 625.204,247.418 L 623.521,248.570 L 621.887,249.771 L 620.303,251.020 L 618.772,252.314 L 617.295,253.653 L 615.875,255.035 L 614.512,256.458 L 613.209,257.920 L 611.966,259.420 L 610.787,260.955 L 609.672,262.524 L 608.622,264.126 L 607.639,265.757 L 606.724,267.416 L 605.877,269.101 L 605.101,270.811 L 604.396,272.542 L 603.763,274.292 L 603.203,276.061 L 602.716,277.845 L 602.302,279.642 L 601.964,281.450 L 601.700,283.267 L 601.511,285.091 L 601.398,286.919 L 601.360,288.750 L 601.398,290.581 L 601.511,292.409 L 601.700,294.233 L 601.964,296.050 L 602.302,297.858 L 602.716,299.655 L 603.203,301.439 L 603.763,303.208 L 604.396,304.958 L 605.101,306.689 L 605.877,308.399 L 606.724,310.084 L 607.639,311.743 L 608.622,313.374 L 609.672,314.976 L 610.787,316.545 L 611.966,318.080 L 613.209,319.580 L 614.512,321.042 L 615.875,322.465 L 617.295,323.847 L 618.772,325.186 L 620.303,326.480 L 621.887,327.729 L 623.521,328.930 L 625.204,330.082 L 626.934,331.184 L 628.708,332.234 L 630.524,333.231 L 632.380,334.174 L 634.274,335.062 L 636.203,335.893 L 638.166,336.667 L 640.159,337.382 L 642.181,338.038 L 644.229,338.634 L 646.299,339.170 L 648.391,339.643 L 650.501,340.055 L 652.627,340.405 L 654.766,340.691 L 656.915,340.914 L 659.072,341.074 L 661.235,341.169 L 663.400,341.201 " style="stroke:#bebebe;stroke-opacity:1.00;stroke-width:1;stroke-linejoin:round;stroke-dasharray:5.00,5.00;fill:none"/>
	<text x="666.40" y="240.30" style="stroke:none;fill:#bebebe;fill-opacity:1.00;fill-rule:evenodd;font-size:12.0px">-0.4</text>
	<path d="M 663.400,262.524 L 662.317,262.540 L 661.236,262.588 L 660.158,262.668 L 659.083,262.780 L 658.013,262.923 L 656.951,263.097 L 655.896,263.303 L 654.850,263.540 L 653.814,263.808 L 652.791,264.106 L 651.780,264.434 L 650.783,264.792 L 649.802,265.178 L 648.837,265.594 L 647.890,266.038 L 646.962,266.509 L 646.054,267.008 L 645.167,267.533 L 644.302,268.084 L 643.461,268.660 L 642.644,269.260 L 641.852,269.885 L 641.086,270.532 L 640.348,271.202 L 639.637,271.892 L 638.956,272.604 L 638.304,273.335 L 637.683,274.085 L 637.094,274.852 L 636.536,275.637 L 636.011,276.438 L 635.519,277.253 L 635.062,278.083 L 634.639,278.926 L 634.251,279.780 L 633.898,280.646 L 633.582,281.521 L 633.301,282.405 L 633.058,283.297 L 632.851,284.196 L 632.682,285.100 L 632.550,286.009 L 632.456,286.921 L 632.399,287.835 L 632.380,288.750 L 632.399,289.665 L 632.456,290.579 L 632.550,291.491 L 632.682,292.400 L 632.851,293.304 L 633.058,294.203 L 633.301,295.095 L 633.582,295.979 L 633.898,296.854 L 634.251,297.720 L 634.639,298.574 L 635.062,299.417 L 635.519,300.247 L 636.011,301.062 L 636.536,301.863 L 637.094,302.648 L 637.683,303.415 L 638.304,304.165 L 638.956,304.896 L 639.637,305.608 L 640.348,306.298 L 641.086,306.968 L 641.852,307.615 L 642.644,308.240 L 643.461,308.840 L 644.302,309.416 L 645.167,309.967 L 646.054,310.492 L 646.962,310.991 L 647.890,311.462 L 648.837,311.906 L 649.802,312.322 L 650.783,312.708 L 651.780,313.066 L 652.791,313.394 L 653.814,313.692 L 654.850,313.960 L 655.896,314.197 L 656.951,314.403 L 658.013,314.577 L 659.083,314.720 L 660.158,314.832 L 661.236,314.912 L 662.317,314.960 L 663.400,314.976 " style="stroke:#bebebe;stroke-opacity:1.00;stroke-width:1;stroke-linejoin:round;stroke-dasharray:5.00,5.00;fill:none"/>
	<text x="666.40" y="266.52" style="stroke:none;fill:#bebebe;fill-opacity:1.00;fill-rule:evenodd;font-size:12.0px">-0.2</text>
	<path d="M 125.610,74.928 L 127.186,76.798 L 128.726,78.635 L 130.233,80.442 L 131.708,82.219 L 133.152,83.968 L 134.566,85.690 L 135.952,87.386 L 137.310,89.057 L 138.642,90.704 L 139.948,92.328 L 141.230,93.930 L 142.488,95.511 L 144.936,98.611 L 147.299,101.635 L 149.583,104.588 L 151.792,107.475 L 153.931,110.301 L 156.004,113.070 L 158.015,115.786 L 159.967,118.452 L 161.865,121.072 L 163.710,123.648 L 165.506,126.185 L 167.255,128.683 L 168.960,131.147 L 170.622,133.578 L 172.244,135.978 L 173.828,138.350 L 175.375,140.696 L 176.888,143.017 L 178.367,145.317 L 179.814,147.595 L 181.231,149.855 L 182.619,152.097 L 183.979,154.324 L 185.311,156.537 L 186.619,158.737 L 187.901,160.926 L 189.160,163.106 L 190.396,165.278 L 191.609,167.444 L 192.802,169.604 L 193.974,171.761 L 195.127,173.916 L 196.260,176.071 L 197.375,178.226 L 198.473,180.384 L 199.553,182.547 L 200.617,184.715 L 201.664,186.892 L 202.697,189.078 L 203.714,191.276 L 204.716,193.487 L 205.705,195.715 L 206.680,197.961 L 207.642,200.228 L 208.591,202.519 L 209.527,204.837 L 210.451,207.185 L 211.364,209.568 L 212.265,211.989 L 213.155,214.454 L 214.034,216.967 L 214.903,219.537 L 215.762,222.169 L 216.610,224.873 L 217.449,227.660 L 218.279,230.542 L 219.099,233.536 L 219.910,236.661 L 220.713,239.945 L 221.507,243.423 L 222.293,247.145 L 222.683,249.119 L 223.071,251.184 L 223.457,253.357 L 223.841,255.659 L 224.223,258.119 L 224.603,260.779 L 224.982,263.703 L 225.358,266.997 L 225.733,270.865 L 225.919,273.145 L 226.106,275.812 L 226.291,279.187 L 226.384,281.432 L 226.477,284.787 L 226.500,286.249 L 226.511,287.513 L 226.514,288.158 L 225.936,288.750 L 225.439,288.750 L 224.409,288.750 L 221.011,288.750 L 217.513,288.750 L 215.074,288.750 L 213.095,288.750 L 209.878,288.750 L 207.238,288.750 L 204.956,288.750 L 202.924,288.750 L 201.080,288.750 L 199.384,288.750 L 196.332,288.750 L 193.625,288.750 L 191.177,288.750 L 188.935,288.750 L 186.861,288.750 L 184.927,288.750 L 183.112,288.750 L 181.401,288.750 L 179.780,288.750 L 178.240,288.750 L 176.771,288.750 L 175.367,288.750 L 174.022,288.750 L 171.489,288.750 L 169.136,288.750 L 166.940,288.750 L 164.880,288.750 L 162.938,288.750 L 161.103,288.750 L 159.363,288.750 L 157.709,288.750 L 156.133,288.750 L 154.627,288.750 L 153.187,288.750 L 151.807,288.750 L 150.482,288.750 L 149.209,288.750 L 147.983,288.750 L 146.802,288.750 L 145.663,288.750 L 144.562,288.750 L 143.499,288.750 L 142.470,288.750 L 141.474,288.750 L 140.509,288.750 L 139.573,288.750 L 138.664,288.750 L 137.782,288.750 L 136.092,288.750 L 134.492,288.750 L 132.975,288.750 L 131.534,288.750 L 130.162,288.750 L 128.855,288.750 L 127.607,288.750 L 126.413,288.750 L 125.271,288.750 L 124.176,288.750 L 123.125,288.750 L 122.116,288.750 L 121.146,288.750 L 120.212,288.750 L 119.313,288.750 L 118.446,288.750 L 117.610,288.750 L 116.802,288.750 L 116.022,288.750 L 115.268,288.750 L 114.538,288.750 L 113.831,288.750 L 113.147,288.750 L 112.483,288.750 L 111.840,288.750 L 111.216,288.750 L 110.610,288.750 L 110.021,288.750 L 109.449,288.750 L 108.893,288.750 L 108.352,288.750 L 107.826,288.750 L 107.313,288.750 L 106.814,288.750 L 106.328,288.750 L 105.855,288.750 L 105.393,288.750 L 104.942,288.750 L 104.503,288.750 L 103.656,288.750 L 102.848,288.750 L 102.076,288.750 L 101.339,288.750 L 100.633,288.750 L 99.958,288.750 L 99.310,288.750 L 98.688,288.750 L 98.091,288.750 L 97.516,288.750 L 96.964,288.750 L 96.432,288.750 L 95.920,288.750 L 95.426,288.750 L 94.949,288.750 L 94.489,288.750 L 94.044,288.750 L 93.614,288.750 L 93.198,288.750 L 92.796,288.750 L 92.406,288.750 L 92.028,288.750 L 91.662,288.750 L 91.307,288.750 L 90.963,288.750 L 90.628,288.750 L 90.303,288.750 L 89.988,288.750 L 89.383,288.750 L 88.810,288.750 L 88.268,288.750 L 87.753,288.750 L 87.263,288.750 L 86.797,288.750 L 86.353,288.750 L 85.930,288.750 L 85.525,288.750 L 85.139,288.750 L 84.769,288.750 L 84.414,288.750 L 84.074,288.750 L 83.435,288.750 L 82.845,288.750 L 82.297,288.750 L 81.789,288.750 L 81.315,288.750 L 80.872,288.750 L 80.458,288.750 L 80.069,288.750 L 79.703,288.750 L 79.034,288.750 L 78.437,288.750 L 77.900,288.750 L 77.415,288.750 L 76.975,288.750 L 76.206,288.750 L 75.557,288.750 L 75.001,288.750 L 74.520,288.750 L 74.100,288.750 L 73.729,288.750 L 73.400,288.750 L 73.106,288.750 L 72.842,288.750 L 72.602,288.750 L 72.385,288.750 L 72.187,288.750 L 72.005,288.750 L 71.838,288.750 L 71.684,288.750 L 71.541,288.750 L 71.408,288.750 L 71.285,288.750 L 71.170,288.750 L 71.062,288.750 L 70.961,288.750 L 70.867,288.750 L 70.778,288.750 L 70.694,288.750 L 70.614,288.750 L 70.539,288.750 L 70.468,288.750 L 70.401,288.750 L 70.337,288.750 " style="stroke:#e6194b;stroke-opacity:1.00;stroke-width:2;stroke-linejoin:round;fill:none"/>
	<path d="M 125.610,502.572 L 127.186,500.702 L 128.726,498.865 L 130.233,497.058 L 131.708,495.281 L 133.152,493.532 L 134.566,491.810 L 135.952,490.114 L 137.310,488.443 L 138.642,486.796 L 139.948,485.172 L 141.230,483.570 L 142.488,481.989 L 144.936,478.889 L 147.299,475.865 L 149.583,472.912 L 151.792,470.025 L 153.931,467.199 L 156.004,464.430 L 158.015,461.714 L 159.967,459.048 L 161.865,456.428 L 163.710,453.852 L 165.506,451.315 L 167.255,448.817 L 168.960,446.353 L 170.622,443.922 L 172.244,441.522 L 173.828,439.150 L 175.375,436.804 L 176.888,434.483 L 178.367,432.183 L 179.814,429.905 L 181.231,427.645 L 182.619,425.403 L 183.979,423.176 L 185.311,420.963 L 186.619,418.763 L 187.901,416.574 L 189.160,414.394 L 190.396,412.222 L 191.609,410.056 L 192.802,407.896 L 193.974,405.739 L 195.127,403.584 L 196.260,401.429 L 197.375,399.274 L 198.473,397.116 L 199.553,394.953 L 200.617,392.785 L 201.664,390.608 L 202.697,388.422 L 203.714,386.224 L 204.716,384.013 L 205.705,381.785 L 206.680,379.539 L 207.642,377.272 L 208.591,374.981 L 209.527,372.663 L 210.451,370.315 L 211.364,367.932 L 212.265,365.511 L 213.155,363.046 L 214.034,360.533 L 214.903,357.963 L 215.762,355.331 L 216.610,352.627 L 217.449,349.840 L 218.279,346.958 L 219.099,343.964 L 219.910,340.839 L 220.713,337.555 L 221.507,334.077 L 222.293,330.355 L 222.683,328.381 L 223.071,326.316 L 223.457,324.143 L 223.841,321.841 L 224.223,319.381 L 224.603,316.721 L 224.982,313.797 L 225.358,310.503 L 225.733,306.635 L 225.919,304.355 L 226.106,301.688 L 226.291,298.313 L 226.384,296.068 L 226.477,292.713 L 226.500,291.251 L 226.511,289.987 L 226.514,289.342 L 227.096,288.750 L 227.595,288.750 L 228.636,288.750 L 232.127,288.750 L 235.810,288.750 L 238.434,288.750 L 240.597,288.750 L 244.182,288.750 L 247.189,288.750 L 249.837,288.750 L 252.234,288.750 L 254.443,288.750 L 256.503,288.750 L 260.279,288.750 L 263.708,288.750 L 266.874,288.750 L 269.831,288.750 L 272.617,288.750 L 275.260,288.750 L 277.780,288.750 L 280.193,288.750 L 282.513,288.750 L 284.750,288.750 L 286.911,288.750 L 289.005,288.750 L 291.037,288.750 L 294.937,288.750 L 298.643,288.750 L 302.182,288.750 L 305.575,288.750 L 308.838,288.750 L 311.984,288.750 L 315.024,288.750 L 317.969,288.750 L 320.826,288.750 L 323.603,288.750 L 326.304,288.750 L 328.937,288.750 L 331.505,288.750 L 334.013,288.750 L 336.464,288.750 L 338.862,288.750 L 341.209,288.750 L 343.510,288.750 L 345.765,288.750 L 347.978,288.750 L 350.150,288.750 L 352.284,288.750 L 354.381,288.750 L 356.443,288.750 L 358.471,288.750 L 362.433,288.750 L 366.276,288.750 L 370.009,288.750 L 373.641,288.750 L 377.178,288.750 L 380.627,288.750 L 383.993,288.750 L 387.281,288.750 L 390.497,288.750 L 393.643,288.750 L 396.724,288.750 L 399.743,288.750 L 402.703,288.750 L 405.607,288.750 L 408.459,288.750 L 411.259,288.750 L 414.012,288.750 L 416.717,288.750 L 419.379,288.750 L 421.998,288.750 L 424.576,288.750 L 427.114,288.750 L 429.615,288.750 L 432.080,288.750 L 434.509,288.750 L 436.904,288.750 L 439.266,288.750 L 441.596,288.750 L 443.895,288.750 L 446.164,288.750 L 448.404,288.750 L 450.616,288.750 L 452.800,288.750 L 454.957,288.750 L 457.087,288.750 L 459.192,288.750 L 461.272,288.750 L 463.327,288.750 L 465.359,288.750 L 469.351,288.750 L 473.251,288.750 L 477.064,288.750 L 480.791,288.750 L 484.435,288.750 L 487.997,288.750 L 491.480,288.750 L 494.884,288.750 L 498.211,288.750 L 501.463,288.750 L 504.640,288.750 L 507.743,288.750 L 510.774,288.750 L 513.732,288.750 L 516.620,288.750 L 519.437,288.750 L 522.186,288.750 L 524.865,288.750 L 527.477,288.750 L 530.023,288.750 L 532.503,288.750 L 534.919,288.750 L 537.272,288.750 L 539.562,288.750 L 541.791,288.750 L 543.961,288.750 L 546.072,288.750 L 548.126,288.750 L 552.068,288.750 L 555.798,288.750 L 559.327,288.750 L 562.665,288.750 L 565.824,288.750 L 568.815,288.750 L 571.647,288.750 L 574.332,288.750 L 576.877,288.750 L 579.292,288.750 L 581.585,288.750 L 583.765,288.750 L 585.838,288.750 L 589.691,288.750 L 593.195,288.750 L 596.391,288.750 L 599.316,288.750 L 602.001,288.750 L 604.475,288.750 L 606.759,288.750 L 608.875,288.750 L 610.840,288.750 L 614.377,288.750 L 617.469,288.750 L 620.195,288.750 L 622.616,288.750 L 624.780,288.750 L 628.485,288.750 L 631.540,288.750 L 634.103,288.750 L 636.283,288.750 L 638.161,288.750 L 639.796,288.750 L 641.231,288.750 L 642.501,288.750 L 643.634,288.750 L 644.649,288.750 L 645.566,288.750 L 646.397,288.750 L 647.154,288.750 L 647.846,288.750 L 648.481,288.750 L 649.067,288.750 L 649.609,288.750 L 650.110,288.750 L 650.577,288.750 L 651.012,288.750 L 651.418,288.750 L 651.799,288.750 L 652.156,288.750 L 652.492,288.750 L 652.808,288.750 L 653.107,288.750 L 653.389,288.750 L 653.656,288.750 L 653.909,288.750 " style="stroke:#3cb44b;stroke-opacity:1.00;stroke-width:2;stroke-linejoin:round;fill:none"/>
	<path d="M 774.663,18.317 L 773.088,19.545 L 771.547,20.742 L 770.041,21.912 L 768.566,23.055 L 767.122,24.171 L 765.708,25.263 L 764.322,26.331 L 762.964,27.376 L 761.632,28.398 L 760.326,29.399 L 759.044,30.380 L 757.786,31.341 L 755.338,33.206 L 752.974,34.999 L 750.691,36.725 L 748.482,38.389 L 746.343,39.995 L 744.270,41.545 L 742.259,43.043 L 740.307,44.493 L 738.409,45.896 L 736.564,47.256 L 734.768,48.575 L 733.019,49.854 L 731.314,51.096 L 729.652,52.303 L 728.030,53.476 L 726.446,54.617 L 724.899,55.728 L 723.386,56.809 L 721.907,57.863 L 720.460,58.890 L 719.043,59.891 L 717.655,60.868 L 716.295,61.822 L 714.962,62.753 L 713.655,63.663 L 712.373,64.552 L 711.114,65.421 L 709.878,66.270 L 708.664,67.102 L 707.472,67.915 L 706.300,68.712 L 705.147,69.492 L 704.014,70.256 L 702.899,71.004 L 701.801,71.738 L 700.721,72.457 L 699.657,73.162 L 698.609,73.854 L 697.577,74.532 L 696.560,75.198 L 695.557,75.852 L 694.569,76.494 L 693.594,77.124 L 692.632,77.743 L 691.683,78.351 L 690.747,78.948 L 689.823,79.535 L 688.910,80.112 L 688.009,80.680 L 687.119,81.238 L 686.240,81.786 L 685.371,82.326 L 684.512,82.857 L 683.664,83.379 L 682.825,83.894 L 681.995,84.400 L 681.175,84.898 L 680.364,85.388 L 679.561,85.871 L 678.767,86.346 L 677.981,86.814 L 677.591,87.046 L 677.203,87.275 L 676.817,87.503 L 676.433,87.730 L 676.051,87.954 L 675.671,88.177 L 675.292,88.399 L 674.916,88.618 L 674.541,88.836 L 674.354,88.945 L 674.168,89.053 L 673.983,89.161 L 673.890,89.214 L 673.797,89.268 L 673.774,89.281 L 673.763,89.288 L 673.760,89.290 L 673.758,89.290 L 673.757,89.291 L 673.751,89.295 L 673.705,89.321 L 673.612,89.375 L 673.520,89.428 L 673.428,89.481 L 673.244,89.587 L 673.060,89.693 L 672.877,89.798 L 672.695,89.903 L 672.512,90.008 L 672.331,90.112 L 671.968,90.319 L 671.607,90.525 L 671.248,90.730 L 670.891,90.933 L 670.535,91.134 L 670.181,91.334 L 669.828,91.533 L 669.477,91.730 L 669.127,91.926 L 668.779,92.120 L 668.433,92.314 L 668.088,92.506 L 667.744,92.696 L 667.061,93.073 L 666.384,93.445 L 665.713,93.812 L 665.047,94.174 L 664.386,94.531 L 663.730,94.883 L 663.080,95.231 L 662.435,95.574 L 661.794,95.913 L 661.159,96.247 L 660.528,96.576 L 659.902,96.902 L 659.280,97.223 L 658.663,97.540 L 658.051,97.852 L 657.442,98.161 L 656.838,98.466 L 656.238,98.767 L 655.642,99.064 L 655.050,99.357 L 654.462,99.646 L 653.878,99.932 L 653.297,100.214 L 652.720,100.492 L 652.147,100.767 L 651.012,101.307 L 649.890,101.833 L 648.782,102.345 L 647.686,102.845 L 646.604,103.332 L 645.533,103.807 L 644.474,104.269 L 643.427,104.720 L 642.390,105.160 L 641.365,105.588 L 640.350,106.005 L 639.345,106.411 L 638.349,106.807 L 637.364,107.192 L 636.388,107.567 L 635.421,107.932 L 634.463,108.287 L 633.514,108.633 L 632.573,108.969 L 631.641,109.295 L 630.717,109.612 L 629.801,109.920 L 628.893,110.220 L 627.992,110.510 L 627.100,110.791 L 626.214,111.064 L 625.336,111.328 L 624.466,111.584 L 623.602,111.832 L 622.745,112.071 L 621.896,112.302 L 621.053,112.525 L 620.218,112.741 L 619.388,112.948 L 618.566,113.148 L 617.751,113.340 L 616.941,113.524 L 616.139,113.701 L 615.343,113.871 L 613.771,114.188 L 612.224,114.476 L 610.704,114.737 L 609.209,114.970 L 607.740,115.177 L 606.297,115.358 L 604.879,115.514 L 603.488,115.646 L 602.123,115.754 L 600.784,115.839 L 599.472,115.903 L 598.186,115.945 L 596.927,115.967 L 595.695,115.970 L 594.489,115.954 L 593.311,115.921 L 592.159,115.871 L 591.034,115.806 L 589.936,115.726 L 588.864,115.632 L 587.819,115.526 L 586.800,115.407 L 585.807,115.277 L 584.839,115.138 L 583.897,114.988 L 582.979,114.831 L 582.086,114.665 L 581.217,114.492 L 579.548,114.129 L 577.970,113.745 L 576.477,113.345 L 575.065,112.934 L 573.730,112.516 L 572.468,112.092 L 571.274,111.666 L 570.143,111.240 L 569.073,110.816 L 568.059,110.395 L 567.097,109.978 L 566.184,109.568 L 565.318,109.163 L 563.711,108.375 L 562.254,107.617 L 560.930,106.892 L 559.722,106.200 L 558.616,105.539 L 557.601,104.911 L 556.665,104.313 L 555.802,103.743 L 555.002,103.202 L 553.569,102.195 L 552.321,101.282 L 551.226,100.450 L 550.258,99.692 L 549.396,98.998 L 547.929,97.774 L 546.726,96.731 L 545.722,95.833 L 544.872,95.052 L 544.143,94.368 L 543.511,93.763 L 542.958,93.224 L 542.470,92.742 L 542.036,92.308 L 541.648,91.915 L 541.298,91.558 L 540.982,91.232 L 540.695,90.933 L 540.432,90.658 L 540.191,90.404 L 539.970,90.169 L 539.765,89.951 L 539.576,89.748 L 539.400,89.558 L 539.237,89.381 L 539.084,89.214 L 538.941,89.058 L 538.807,88.911 L 538.681,88.773 L 538.563,88.642 L 538.451,88.518 L 538.346,88.401 L 538.246,88.290 L 538.151,88.185 " style="stroke:#0082c8;stroke-opacity:1.00;stroke-width:2;stroke-linejoin:round;fill:none"/>
	<path d="M 774.663,559.183 L 773.088,557.955 L 771.547,556.758 L 770.041,555.588 L 768.566,554.445 L 767.122,553.329 L 765.708,552.237 L 764.322,551.169 L 762.964,550.124 L 761.632,549.102 L 760.326,548.101 L 759.044,547.120 L 757.786,546.159 L 755.338,544.294 L 752.974,542.501 L 750.691,540.775 L 748.482,539.111 L 746.343,537.505 L 744.270,535.955 L 742.259,534.457 L 740.307,533.007 L 738.409,531.604 L 736.564,530.244 L 734.768,528.925 L 733.019,527.646 L 731.314,526.404 L 729.652,525.197 L 728.030,524.024 L 726.446,522.883 L 724.899,521.772 L 723.386,520.691 L 721.907,519.637 L 720.460,518.610 L 719.043,517.609 L 717.655,516.632 L 716.295,515.678 L 714.962,514.747 L 713.655,513.837 L 712.373,512.948 L 711.114,512.079 L 709.878,511.230 L 708.664,510.398 L 707.472,509.585 L 706.300,508.788 L 705.147,508.008 L 704.014,507.244 L 702.899,506.496 L 701.801,505.762 L 700.721,505.043 L 699.657,504.338 L 698.609,503.646 L 697.577,502.968 L 696.560,502.302 L 695.557,501.648 L 694.569,501.006 L 693.594,500.376 L 692.632,499.757 L 691.683,499.149 L 690.747,498.552 L 689.823,497.965 L 688.910,497.388 L 688.009,496.820 L 687.119,496.262 L 686.240,495.714 L 685.371,495.174 L 684.512,494.643 L 683.664,494.121 L 682.825,493.606 L 681.995,493.100 L 681.175,492.602 L 680.364,492.112 L 679.561,491.629 L 678.767,491.154 L 677.981,490.686 L 677.591,490.454 L 677.203,490.225 L 676.817,489.997 L 676.433,489.770 L 676.051,489.546 L 675.671,489.323 L 675.292,489.101 L 674.916,488.882 L 674.541,488.664 L 674.354,488.555 L 674.168,488.447 L 673.983,488.339 L 673.890,488.286 L 673.797,488.232 L 673.774,488.219 L 673.763,488.212 L 673.760,488.210 L 673.758,488.210 L 673.757,488.209 L 673.751,488.205 L 673.705,488.179 L 673.612,488.125 L 673.520,488.072 L 673.428,488.019 L 673.244,487.913 L 673.060,487.807 L 672.877,487.702 L 672.695,487.597 L 672.512,487.492 L 672.331,487.388 L 671.968,487.181 L 671.607,486.975 L 671.248,486.770 L 670.891,486.567 L 670.535,486.366 L 670.181,486.166 L 669.828,485.967 L 669.477,485.770 L 669.127,485.574 L 668.779,485.380 L 668.433,485.186 L 668.088,484.994 L 667.744,484.804 L 667.061,484.427 L 666.384,484.055 L 665.713,483.688 L 665.047,483.326 L 664.386,482.969 L 663.730,482.617 L 663.080,482.269 L 662.435,481.926 L 661.794,481.587 L 661.159,481.253 L 660.528,480.924 L 659.902,480.598 L 659.280,480.277 L 658.663,479.960 L 658.051,479.648 L 657.442,479.339 L 656.838,479.034 L 656.238,478.733 L 655.642,478.436 L 655.050,478.143 L 654.462,477.854 L 653.878,477.568 L 653.297,477.286 L 652.720,477.008 L 652.147,476.733 L 651.012,476.193 L 649.890,475.667 L 648.782,475.155 L 647.686,474.655 L 646.604,474.168 L 645.533,473.693 L 644.474,473.231 L 643.427,472.780 L 642.390,472.340 L 641.365,471.912 L 640.350,471.495 L 639.345,471.089 L 638.349,470.693 L 637.364,470.308 L 636.388,469.933 L 635.421,469.568 L 634.463,469.213 L 633.514,468.867 L 632.573,468.531 L 631.641,468.205 L 630.717,467.888 L 629.801,467.580 L 628.893,467.280 L 627.992,466.990 L 627.100,466.709 L 626.214,466.436 L 625.336,466.172 L 624.466,465.916 L 623.602,465.668 L 622.745,465.429 L 621.896,465.198 L 621.053,464.975 L 620.218,464.759 L 619.388,464.552 L 618.566,464.352 L 617.751,464.160 L 616.941,463.976 L 616.139,463.799 L 615.343,463.629 L 613.771,463.312 L 612.224,463.024 L 610.704,462.763 L 609.209,462.530 L 607.740,462.323 L 606.297,462.142 L 604.879,461.986 L 603.488,461.854 L 602.123,461.746 L 600.784,461.661 L 599.472,461.597 L 598.186,461.555 L 596.927,461.533 L 595.695,461.530 L 594.489,461.546 L 593.311,461.579 L 592.159,461.629 L 591.034,461.694 L 589.936,461.774 L 588.864,461.868 L 587.819,461.974 L 586.800,462.093 L 585.807,462.223 L 584.839,462.362 L 583.897,462.512 L 582.979,462.669 L 582.086,462.835 L 581.217,463.008 L 579.548,463.371 L 577.970,463.755 L 576.477,464.155 L 575.065,464.566 L 573.730,464.984 L 572.468,465.408 L 571.274,465.834 L 570.143,466.260 L 569.073,466.684 L 568.059,467.105 L 567.097,467.522 L 566.184,467.932 L 565.318,468.337 L 563.711,469.125 L 562.254,469.883 L 560.930,470.608 L 559.722,471.300 L 558.616,471.961 L 557.601,472.589 L 556.665,473.187 L 555.802,473.757 L 555.002,474.298 L 553.569,475.305 L 552.321,476.218 L 551.226,477.050 L 550.258,477.808 L 549.396,478.502 L 547.929,479.726 L 546.726,480.769 L 545.722,481.667 L 544.872,482.448 L 544.143,483.132 L 543.511,483.737 L 542.958,484.276 L 542.470,484.758 L 542.036,485.192 L 541.648,485.585 L 541.298,485.942 L 540.982,486.268 L 540.695,486.567 L 540.432,486.842 L 540.191,487.096 L 539.970,487.331 L 539.765,487.549 L 539.576,487.752 L 539.400,487.942 L 539.237,488.119 L 539.084,488.286 L 538.941,488.442 L 538.807,488.589 L 538.681,488.727 L 538.563,488.858 L 538.451,488.982 L 538.346,489.099 L 538.246,489.210 L 538.151,489.315 " style="stroke:#f58230;stroke-opacity:1.00;stroke-width:2;stroke-linejoin:round;fill:none"/>
	<path d="M 81.826,292.750 L 89.826,284.750 M 81.826,284.750 L 89.826,292.750 " style="stroke:#000000;stroke-opacity:1.00;stroke-width:1;stroke-linejoin:round;fill:none"/>
	<path d="M 565.867,470.367 L 573.867,462.367 M 565.867,462.367 L 573.867,470.367 " style="stroke:#000000;stroke-opacity:1.00;stroke-width:1;stroke-linejoin:round;fill:none"/>
	<path d="M 565.867,115.133 L 573.867,107.133 M 565.867,107.133 L 573.867,115.133 " style="stroke:#000000;stroke-opacity:1.00;stroke-width:1;stroke-linejoin:round;fill:none"/>
	<path d="M 570.987,292.750 L 578.987,284.750 M 570.987,284.750 L 578.987,292.750 " style="stroke:#000000;stroke-opacity:1.00;stroke-width:1;stroke-linejoin:round;fill:none"/>
	<ellipse cx="125.61" cy="502.57" rx="4.00" ry="4.00" style="stroke:#000000;stroke-opacity:1.00;stroke-width:1;stroke-linejoin:round;fill:none"/>
	<ellipse cx="125.61" cy="74.93" rx="4.00" ry="4.00" style="stroke:#000000;stroke-opacity:1.00;stroke-width:1;stroke-linejoin:round;fill:none"/>
	<ellipse cx="774.66" cy="559.18" rx="4.00" ry="4.00" style="stroke:#000000;stroke-opacity:1.00;stroke-width:1;stroke-linejoin:round;fill:none"/>
	<ellipse cx="774.66" cy="18.32" rx="4.00" ry="4.00" style="stroke:#000000;stroke-opacity:1.00;stroke-width:1;stroke-linejoin:round;fill:none"/>
	<path d="M 66.337,292.750 L 66.337,284.750 L 74.337,284.750 L 74.337,292.750 Z" style="stroke:#000000;stroke-opacity:1.00;stroke-width:1;stroke-linejoin:round;fill:none"/>
	<path d="M 534.151,493.315 L 534.151,485.315 L 542.151,485.315 L 542.151,493.315 Z" style="stroke:#000000;stroke-opacity:1.00;stroke-width:1;stroke-linejoin:round;fill:none"/>
	<path d="M 534.151,92.185 L 534.151,84.185 L 542.151,84.185 L 542.151,92.185 Z" style="stroke:#000000;stroke-opacity:1.00;stroke-width:1;stroke-linejoin:round;fill:none"/>
	<path d="M 649.909,292.750 L 649.909,284.750 L 657.909,284.750 L 657.909,292.750 Z" style="stroke:#000000;stroke-opacity:1.00;stroke-width:1;stroke-linejoin:round;fill:none"/>
	<text x="325.93" y="35.86" style="stroke:none;fill:#000000;fill-opacity:1.00;fill-rule:evenodd;font-size:15.0px">root locus plot varying Tᵢ</text>
	<path d="M 56.250,570.000 L 788.750,570.000 L 788.750,7.500 L 56.250,7.500 Z" style="stroke:#000000;stroke-opacity:1.00;stroke-width:2;stroke-linejoin:round;fill:none"/>
	<text x="248.38" y="477.33" style="stroke:none;fill:#000000;fill-opacity:1.00;fill-rule:evenodd;font-size:15.0px">Tᵢ=10 s</text>
	<path d="M 221.879,476.330 L 221.879,468.330 L 229.879,468.330 L 229.879,476.330 Z" style="stroke:#000000;stroke-opacity:1.00;stroke-width:1;stroke-linejoin:round;fill:none"/>
	<text x="248.38" y="499.83" style="stroke:none;fill:#000000;fill-opacity:1.00;fill-rule:evenodd;font-size:15.0px">Tᵢ=0.1 s</text>
	<ellipse cx="225.88" cy="494.83" rx="4.00" ry="4.00" style="stroke:#000000;stroke-opacity:1.00;stroke-width:1;stroke-linejoin:round;fill:none"/>
	<text x="248.38" y="522.33" style="stroke:none;fill:#000000;fill-opacity:1.00;fill-rule:evenodd;font-size:15.0px">Tᵢ=1.5 s</text>
	<path d="M 221.879,521.330 L 229.879,513.330 M 221.879,513.330 L 229.879,521.330 " style="stroke:#000000;stroke-opacity:1.00;stroke-width:1;stroke-linejoin:round;fill:none"/>
</svg>
